<?xml version="1.0" encoding="UTF-8" standalone="no"?>
<svg
   version="1.1"
   viewBox="-6 -85 281 281"
   id="svg1352"
   width="281"
   height="281"
   xml:space="preserve"
   xmlns="http://www.w3.org/2000/svg"
   xmlns:svg="http://www.w3.org/2000/svg"><defs
     id="defs1352" /><path
     fill="#010101"
     d="m 85.150557,100.44747 -0.44,-0.45 a 0.67,0.67 0 0 0 -0.99,0.06 q -1.41,1.79 -4.07,1.03 a 2.09,2.09 0 0 0 -1.1,0 l -4.32,1.15 a 0.27,0.27 0 0 1 -0.33,-0.35 q 0.04,-0.12 0.94,-0.68 a 0.58,0.59 55.5 0 0 0.16,-0.85 q -0.6,-0.78 -1.08,-0.95 -0.63,-0.22 -1.33,0.75 -1.36,1.9 -4.43,0.93 c -1.08,-0.34 -2,0.05 -2.3,-0.03 a 0.81,0.81 0 0 1 -0.61,-0.8 q 0.01,-0.53 -0.23,-0.89 -0.26,-0.38 -0.98,-0.07 -6.55,2.8 -11.68,-1.39 a 0.49,0.5 35.8 0 0 -0.73,0.12 q -0.75,1.18 -2.61,1.17 -4.95,-0.02 -25.95,-0.91 c -6.7,-0.28 -12.89,0.3 -19.4900001,-0.07 a 0.69,0.7 7.5 0 1 -0.64,-0.84 c 0.45,-2.07 0.02,-3 -2.28000004,-3.1 a 0.7,0.7 0 0 1 -0.65,-0.82 c 0.68,-3.9 3.16000004,-7.41 4.06000004,-9.73 1,-2.63 3.13,-5.07 4.04,-8.36 a 5.18,5.13 66.5 0 1 0.38,-0.98 q 6.1300001,-12.1 7.8900001,-16.16 c 1.93,-4.47 4.02,-7.74 5.87,-12.67 a 11.19,11.1 71.3 0 1 0.98,-2 q 2.43,-3.89 4.38,-9.49 a 9.52,9.02 71.3 0 1 0.79,-1.71 q 6.25,-10.66 11.72,-22.33 0.28,-0.6099998 3.81,-5.9799998 c 1.07,-1.64 2.72,-1.17 2.89,-3.53999998 a 0.55,0.55 0 0 1 0.72,-0.48 c 3.87,1.25999998 8.66,0.16 12.24,0.61 q 1.13,0.14 23.4,0.98999998 7.1,0.27 19.710003,1.76 11.25,1.32 19.68,1.62 16.44,0.59 31.4,-0.52 a 0.67,0.67 0 0 0 0.62,-0.72 q 0,-0.02 0,-0.05 a 0.74,0.75 4.1 0 1 0.87,-0.76 q 1.47,0.25 2.06,-0.28 a 0.54,0.55 53 0 1 0.82,0.11 q 0.53,0.82 1.01,1.02 0.47,0.18 1.04,-0.41 0.91,-0.95 2.03,-0.81 0.73,0.09 0.88,0.83 a 0.31,0.31 0 0 1 -0.39,0.36 q -0.31,-0.09 -0.96,0.1 a 0.32,0.31 71.8 0 0 -0.21,0.42 l 0.09,0.24 a 0.31,0.3 62.8 0 0 0.45,0.15 q 1.04,-0.69 1.84,-0.57 a 1.99,2 21.6 0 0 1.95,-0.85 q 1.31,-1.93 3.9,0.46 a 0.93,0.93 0 0 0 0.88,0.21 l 4.53,-1.34 a 0.51,0.52 76.4 0 1 0.65,0.39 q 0.06,0.34 0.13,1.77 a 0.45,0.45 0 0 0 0.65,0.38 q 0.35,-0.17 0.46,-1.03 a 0.63,0.64 2.2 0 1 0.59,-0.55 q 2.54,-0.19 4.2,0.55 a 1.65,1.66 49.4 0 0 1.09,0.08 q 1.7,-0.47 3.56,0.51 a 1.51,1.54 51.5 0 0 1.16,0.12 q 2.19,-0.66 5.14,0.43 a 1.53,1.52 32.6 0 0 1.61,-0.35 l 1.27,-1.27 a 1.36,1.36 0 0 1 1.24,-0.37 l 2.87,0.6 a 0.74,0.74 0 0 1 0.57,0.53 q 0.23,0.84 1.29,1.01 a 0.4,0.41 30.9 0 1 0.18,0.72 c -2.83,2.2 -0.99,4.8999998 -2.51,6.4899998 q -0.31,0.32 -1.3,5.6 a 8.71,8.55 64 0 1 -0.75,2.25 q -1.96,3.96 -4.2,9.19 -0.15,0.35 -0.66,0.75 -0.52,0.4 -1.09,0.34 a 0.68,0.67 12.9 0 0 -0.7,0.43 l -0.31,0.82 a 0.8,0.79 12.6 0 1 -0.81,0.51 q -1.61,-0.13 -1.68,0.93 a 0.3,0.31 66.5 0 0 0.54,0.21 q 1.12,-1.32 2.46,0.05 a 0.58,0.58 0 0 1 0.02,0.8 q -0.54,0.62 -1.27,0.85 a 0.88,0.88 0 0 0 -0.61,0.66 l -0.88,4.22 a 1.02,1.1 65.5 0 1 -0.17,0.41 q -3.07,4.66 -3.78,7.58 c -0.47,1.97 0.7,2.75 2.12,4.11 q 3.8,3.6 8.1,6.32 a 1.15,1.15 0 0 0 1.26,-0.03 l 24.36,-17.21 q 0.01,-0.01 0.02,-0.02 1.24,-1.04 1.3,1.16 a 0.37,0.38 78.2 0 0 0.51,0.33 l 0.25,-0.09 a 0.17,0.17 0 0 0 0.09,-0.21 q -0.5,-1.58 -0.06,-2.92 a 1.93,1.93 0 0 1 3.34,-0.59 c 3.54,4.43 6.95,8.47 9.38,12.1 q 2.19,3.27 7.27,9.05 1.46,1.65 5.08,8 a 1.52,1.74 3.8 0 0 0.26,0.34 l 1.09,1.09 a 4.47,4.51 6.6 0 1 0.66,0.84 l 15.35,25.29 a 0.33,0.33 0 0 1 -0.12,0.46 q -0.92,0.54 -0.18,2.87 0.56,1.73 2.27,6.33 a 1.72,1.69 5.4 0 0 0.74,0.88 q 1.24,0.76 1.71,3.12 a 0.43,0.43 0 0 1 -0.43,0.51 q -0.75,-0.03 -1.87,0.98 a 0.81,0.8 39.9 0 1 -0.97,0.08 q -0.67,-0.44 -1.23,-1.29 a 0.57,0.58 63.2 0 0 -0.69,-0.22 q -0.53,0.2 -0.84,0.22 a 0.43,0.42 32.6 0 1 -0.18,-0.82 l 1.65,-0.64 a 0.48,0.48 0 0 0 0.23,-0.69 l -0.21,-0.34 a 0.79,0.79 0 0 0 -1.08,-0.27 l -1.47,0.9 a 2.24,2.23 49.4 0 1 -2.6,-0.21 l -5.13,-4.35 a 1,0.98 20 0 1 -0.35,-0.73 q -0.01,-0.25 -0.01,-0.26 a 0.47,0.47 0 0 0 -0.67,-0.3 q -1.02,0.5 -2.03,-0.45 c -1.12,-1.04 -1.74,-1.2 -2.69,-1.82 q -0.58,-0.39 -0.71,-1.14 a 0.31,0.31 0 0 1 0.46,-0.33 q 0.76,0.44 0.93,-0.21 a 0.34,0.35 29.1 0 0 -0.08,-0.31 l -1.89,-2.17 a 0.49,0.49 0 0 0 -0.84,0.17 q -0.19,0.55 -0.78,1.07 a 0.4,0.39 53.2 0 1 -0.6,-0.09 l -0.17,-0.27 a 0.35,0.35 0 0 1 0.06,-0.43 l 1.06,-1.07 a 0.44,0.45 42.9 0 0 -0.02,-0.65 l -15.34,-12.99 a 0.75,0.8 1.6 0 1 -0.17,-0.19 q -0.66,-1.08 -3.3,-3.12 a 2.54,2.7 1.7 0 1 -0.62,-0.7 l -1.66,-2.74 a 0.9,0.92 78 0 0 -0.68,-0.43 q -0.85,-0.1 -1.21,-0.32 a 1.61,1.57 9.7 0 1 -0.72,-0.99 q -0.82,-3.4 -4.22,-6.25 a 1.26,1.31 8.5 0 1 -0.37,-0.52 l -1.89,-4.85 a 0.5,0.5 0 0 0 -0.94,0.05 q -1.05,3.76 -4.07,7.15 -6.65,7.47 -14.9,15.11 -1.33,1.24 -3.36,2.56 a 0.49,0.49 0 0 1 -0.75,-0.34 q -0.15,-1.02 -1.28,-1.66 -3.85,-2.18 -5.9,-3.68 -6.65,-4.86 -10.64,-7.72 a 0.87,0.87 0 0 0 -1.12,0.09 l -2.3,2.3 a 0.7,0.7 0 0 0 -0.08,0.9 q 0.6,0.86 -0.58,1.52 a 0.86,0.85 71 0 0 -0.43,0.89 q 0.26,1.58 -1.41,1.68 a 1.42,1.42 0 0 0 -1.26,0.97 q -1.21,3.77 -3.54,5.14 a 1.29,1.31 80.3 0 0 -0.6,0.83 l -0.29,1.39 a 1.05,1.12 68.1 0 1 -0.23,0.49 l -2.22,2.62 a 0.71,0.68 73.2 0 0 -0.17,0.33 l -0.73,3.53 a 0.88,0.87 88.4 0 1 -0.63,0.67 q -2.92,0.78 -4.15,0.87 -17.11,1.17 -39.55,0.87 a 4.98,4.89 39.8 0 0 -0.99,0.08 q -4.52,0.89 -6.99,0.87 -5.65,-0.04 -8.980003,1.38 a 0.74,0.75 67.1 0 1 -0.97,-0.39 l -0.72,-1.7 a 1.2,1.22 4 0 0 -0.47,-0.55 q -0.27,-0.16 -0.61,0.09 a 0.34,0.34 0 0 0 -0.03,0.52 q 0.29,0.28 0.33,0.53 a 0.66,0.65 69.8 0 1 -0.31,0.68 q -1.08,0.63 -2.62,1.28 -1.25,0.52 -1.77,-0.75 a 0.56,0.56 0 0 0 -0.84,-0.25 q -1.23,0.84 -2.43,0.12 a 0.84,0.84 0 0 0 -1.14,0.27 q -0.02,0.03 -0.08,0.26 a 0.54,0.54 0 0 1 -0.91,0.25 z M 166.70096,5.0601702 a 0.87,0.66 1.8 0 0 0.8489,0.687 0.87,0.66 1.8 0 0 0.8903,-0.6324 0.87,0.66 1.8 0 0 -0.8489,-0.687 0.87,0.66 1.8 0 0 -0.8903,0.6324 z m 7.5696,-0.0127 a 0.47,0.54 9.8 0 0 -0.45,-0.74 q -0.21,0.02 -0.2,0.39 0.03,0.44 0.37,0.47 0.22,0.02 0.28,-0.12 z m -80.133103,0.5376 a 0.44,1.14 81.3 0 0 -1.1935,-0.2625 0.44,1.14 81.3 0 0 -1.0603,0.6073 0.44,1.14 81.3 0 0 1.1935,0.2625 0.44,1.14 81.3 0 0 1.0603,-0.6073 z m -24.6969,0.6424 q 0.02,0 0.29,-0.02 a 0.11,0.12 63.7 0 0 0.07,-0.2 q -0.15,-0.13 -0.38,-0.09 a 0.16047629,0.15044652 41.9 0 0 0.02,0.31 z m -13.28,1.85 q 0.11,-0.5 0.09,-0.55 -0.25,-0.72 -1.08,-0.06 -0.34,0.27 -0.64,0.93 a 0.66,0.67 12.7 0 1 -0.6,0.39 h -5.19 a 2.61,2.61 0 0 0 -2.37,1.5199998 q -4.09,8.89 -11.96,25.47 c -1.03,2.18 -2.74,4.39 -3.64,6.93 q -0.43,1.24 -4.07,8.52 -5.68,11.35 -15.29,36.07 -0.42,1.06 -0.51,1.52 a 0.55,0.55 0 0 0 0.9,0.53 q 1.47,-1.26 2.3,-1.73 a 0.74,0.71 71.6 0 1 1.05,0.55 q 0.02,0.17 0.32,0.88 a 0.55,0.54 62.6 0 0 0.78,0.25 l 1.95,-1.18 a 0.73,0.74 73.3 0 1 1.12,0.6 q 0.03,1.06 -1.03,2.96 a 0.09,0.09 0 0 0 0.04,0.13 l 0.25,0.13 a 0.35,0.35 0 0 0 0.48,-0.19 c 1.21,-3.02 2.95,-1.77 4.71,-3.53 q 0.93,-0.92 2.86,0.29 a 0.34,0.33 59 0 1 -0.15,0.62 q -1.68,0.12 -2.51,1.47 a 0.71,0.71 0 0 0 0.98,0.98 l 3.75,-2.28 a 0.71,0.71 0 0 1 0.99,0.27 q 0.99,1.83 2.79,0.08 a 0.49,0.49 0 0 1 0.79,0.15 q 0.1,0.19 -0.28,0.64 a 0.69,0.14 25 0 0 0.6,0.44 q 3.43,1.52 3.42,-0.58 a 0.7,0.7 0 0 0 -1.32,-0.32 q -0.08,0.16 -0.79,0.35 a 0.55,0.55 0 0 1 -0.68,-0.53 v -0.44 a 1.01,1.01 0 0 1 0.83,-0.99 q 1.8,-0.33 3.29,1.45 a 0.88,0.87 63.2 0 0 0.88,0.29 q 0.05,-0.01 2.82,-0.79 0.22,-0.06 0.4,-0.36 0.24,-0.4 0.52,-0.42 a 0.39,0.39 0 0 1 0.42,0.47 q -0.24,1.09 0.27,2.09 a 0.27,0.27 0 0 0 0.5,-0.05 q 0.33,-1.31 1.37,-1.31 a 0.87,0.86 15 0 0 0.75,-0.43 q 0.61,-1.02 1.33,-0.33 a 0.55,0.57 47.9 0 0 0.74,0.03 q 0.59,-0.47 1.01,-0.38 a 0.16,0.15 5.9 0 1 0.11,0.13 l 0.05,0.33 a 0.27,0.27 0 0 1 -0.23,0.31 q -2.46,0.36 -3.27,2.33 a 0.4,0.4 0 0 0 0.57,0.5 q 2.49,-1.43 5.63,-2.04 a 1.23,1.28 18.5 0 0 0.63,-0.33 q 0.79,-0.75 2.54,-0.59 a 0.45,0.45 0 0 1 0.39,0.57 q -0.31,1.1 -0.18,1.25 a 0.47,0.47 0 0 0 0.78,-0.16 q 0.79,-2.25 3.33,-1.95 a 0.62,0.62 0 0 1 0.51,0.82 l -0.01,0.05 a 1.05,1.06 11 0 1 -1.05,0.71 q -1.22,-0.06 -1.58,0.5 a 0.8,0.91 20.9 0 0 0.51,1.37 q 2.4,0.25 3.37,-1.12 a 0.62,0.67 7.2 0 1 0.25,-0.21 l 3.72,-1.68 a 0.62,0.62 0 0 1 0.87,0.62 q -0.07,0.84 0.53,1.13 0.74,0.37 1.25,-0.21 0.33,-0.38 0.52,-1.32 a 0.66,0.66 0 0 1 0.7,-0.52 q 0.97,0.09 1.27,0.74 a 0.64,0.63 61.2 0 1 -0.23,0.82 q -0.97,0.62 -1.25,0.78 a 0.7,0.92 42.9 0 0 -0.15,1.49 c 1.3,0.36 1.56,-0.99 2.61,-1.38 q 2.32,-0.85 5.11,-1.87 a 0.52,0.51 17.1 0 1 0.48,0.9 l -2.93,2.09 a 0.29,0.29 0 0 0 -0.1,0.34 v 0.01 a 0.33,0.33 0 0 0 0.44,0.12 q 1.48,-0.82 2.12,-0.84 2.89,-0.06 2.89,-2.41 a 0.56,0.56 0 0 1 0.65,-0.55 l 0.08,0.01 a 0.76,0.76 0 0 1 0.62,0.8 q -0.05,0.75 -1.15,1.67 a 0.44,0.44 0 0 0 0.32,0.78 c 2.35,-0.22 3.58,-1.29 5.46,-1.76 a 0.74,0.74 0 0 1 0.92,0.75 q 0,0.02 -0.79,1.24 a 0.16,0.16 0 0 0 0.19,0.23 l 6.02,-2.35 a 0.37,0.37 0 0 1 0.5,0.34 v 1.07 a 0.47,0.47 0 0 0 0.43,0.47 q 1.16,0.11 5.43,-1.5 c 3.440003,-1.29 7.020003,-0.12 10.580003,-1.52 q 0.02,0 0.22,0.1 0.15,0.08 0.22,0.18 a 0.24,0.25 64.7 0 1 -0.13,0.36 q -0.25,0.09 -0.29,0.14 a 0.29,0.29 0 0 0 0.26,0.45 q 1.63,-0.14 10.84,-1.32 5.22,-0.67 9.02,0.62 a 0.58,0.58 0 0 0 0.76,-0.63 l -0.18,-1.2 a 0.3,0.3 0 0 1 0.53,-0.24 q 0.5,0.58 1.13,0.58 3.27,0.02 8.01,-0.53 3.23,-0.38 5.52,0.47 a 0.88,0.79 48.2 0 0 0.36,0.04 l 7.38,-1.11 a 2.14,2.16 18.7 0 0 1.22,-0.61 q 3.24,-3.25 4.27,-4.8 5.88,-8.89 9.8,-16.57 a 0.65,0.64 33.8 0 1 1,-0.19 c 2.49,2.18 5.51,3.01 8.24,5.18 q 3.43,2.72 7.83,5.99 c 2.76,2.05 5.5,3.16 7.35,5.35 a 0.74,0.75 46.4 0 0 1.12,0.02 q 11.96,-12.8 19.18,-21.6 1.58,-1.93 2.01,-1.93 0.93,-0.01 2.43,1.68 c 2.32,2.6 4.68,6.21 8.19,9.92 q 7.01,7.4 18.39,18.37 c 1.55,1.5 3.24,2.52 4.68,4.04 q 2.06,2.17 8.36,7.65 a 0.28,0.28 0 0 0 0.47,-0.2 q 0.03,-0.88 -0.51,-1.35 -2.55,-2.21 -3.68,-4.81 c -1.18,-2.73 -2.78,-3.99 -3.89,-6.13 q -4.69,-9.06 -6.75,-12.14 c -6.04,-8.96 -10.14,-17.15 -15.9,-26.24 a 1.57,1.58 63.3 0 0 -1.9,-0.62 l -12.32,4.8 a 2.42,2.52 17.3 0 0 -0.58,0.32 l -7.73,6.09 a 1.53,1.74 4.6 0 0 -0.29,0.28 q -1.69,2 -4.65,3.81 c -0.85,0.51 -0.94,1.14 -0.91,2.09 a 0.79,0.82 74.6 0 1 -0.44,0.74 c -1.34,0.7 -2.4,0.98 -3.55,-0.2 q -1.78,-1.83 -6.98,-5.27 -3.18,-2.11 -9.51,-8.23 -4.36,-4.24 -9.49,-7.7 a 0.64,0.64 0 0 1 0.48,-1.16 q 1,0.19 3.77,1.3 a 2.14,1.83 23.7 0 0 2.58,-0.78 q 0.57,-1.12 2.17,-1.05 a 1.27,1.29 22.7 0 0 0.98,-0.41 q 1.63,-1.82 3.68,-2.69 a 0.21,0.2 32.5 0 0 -0.09,-0.39 q -1.39,0.03 -2.09,1.04 a 0.54,0.54 0 0 1 -0.98,-0.23 q -0.16,-0.97 0.8,-1.53 1.05,-0.62 4.37,-2.09 a 0.51,0.52 29.4 0 0 -0.27,-0.98 c -0.57,0.07 -1.02,0.81 -1.92,0.9 q -0.86,0.08 -1.11,-0.06 a 0.78,0.78 0 0 1 -0.33,-1 l 0.33,-0.78 a 0.57,0.57 0 0 1 0.77,-0.28 q 0.7,0.35 1.85,0.2 a 0.33,0.33 0 0 0 0.28,-0.38 l -0.05,-0.34 a 0.42,0.42 0 0 0 -0.48,-0.36 l -1.57,0.24 a 0.25,0.25 0 0 1 -0.21,-0.43 l 2.2,-2.2 a 1.95,2.02 13 0 1 0.69,-0.45 q 1.86,-0.74 2.62,-2.4 0.11,-0.25 0.41,-0.4 0.18,-0.09 0.55,0.07 0.45,0.2 0.76,-0.03 0.64,-0.48 0.19,-1.54 a 0.31,0.3 53.3 0 0 -0.51,-0.08 q -1.43,1.7 -2.78,2.42 a 0.77,0.77 0 0 1 -1.04,-1.04 q 1.07,-1.96 3.54,-2.54 a 0.5,0.51 52.2 0 0 0.12,-0.94 l -0.92,-0.47 a 0.45,0.45 0 0 1 -0.11,-0.72 q 0.9,-0.88 1.52,-2.97 a 0.87,0.84 88.1 0 1 0.51,-0.56 l 4.94,-2.02 a 0.43,0.43 0 0 0 0.01,-0.79 q -0.01,-0.01 -0.1,-0.04 a 0.52,0.52 0 0 1 -0.16,-0.88 l 2.03,-1.76 a 0.41,0.42 26.5 0 0 -0.24,-0.73 q -0.17,-0.01 -0.57,0.22 a 0.86,0.85 54.7 0 1 -1.1,-0.19 l -0.54,-0.67 a 0.48,0.48 0 0 1 0.17,-0.74 q 0.96,-0.45 0.33,-1.61 -0.05,-0.09 0,-0.22 0.07,-0.21 0.31,-0.26 a 0.22,0.23 64.5 0 1 0.24,0.08 q 0.91,1.21 1.95,0.52 0.39,-0.26 1.27,-1.1999998 a 0.41,0.41 0 0 0 -0.5,-0.63 q -1.79,1.0399998 -2.36,0.75 a 0.69,0.69 0 0 0 -0.85,0.1599998 q -1.11,1.31 -1.02,2.05 a 0.36,0.36 0 0 1 -0.46,0.39 l -0.31,-0.09 a 0.37,0.37 0 0 1 -0.26,-0.35 V 9.8474702 a 0.49,0.49 0 0 0 -0.58,-0.48 q -0.8,0.14 -1.21,0.7599998 a 0.83,0.83 0 0 1 -0.92,0.33 q -1.23,-0.36 -1.77,0.64 a 0.37,0.37 0 0 1 -0.69,-0.17 q -0.01,-1.4599998 -0.92,-1.9199998 a 0.7,0.69 45.5 0 0 -0.62,-0.01 l -2.48,1.2599998 a 0.96,0.97 81.4 0 0 -0.53,0.71 q 0,0.02 0,0.3 a 0.39,0.39 0 0 1 -0.57,0.34 q -0.19,-0.09 -0.31,-0.37 a 0.58,0.58 0 0 1 0.26,-0.73 q 0.13,-0.06 0.17,-0.1 a 0.68,0.69 44.8 0 0 0,-1.1099998 q -0.52,-0.38 -0.73,-0.7 a 0.49,0.49 0 0 0 -0.71,-0.11 q -1.59,1.26 -1.39,2.3699998 a 0.43,0.43 0 0 1 -0.74,0.37 c -2.49,-2.6099998 -4.74,0.4 -7.22,0.91 q -0.64,0.14 -0.94,-0.05 -0.31,-0.19 -0.38,-0.93 a 0.44,0.44 0 0 1 0.61,-0.44 q 0.98,0.4 1.65,-0.53 a 0.74,0.74 0 0 1 0.93,-0.2299998 q 0.62,0.3199998 2.45,-0.74 a 0.37,0.37 0 0 0 -0.03,-0.66 c -2.63,-1.24 -6.29,1.4799998 -7.88,1.7499998 a 1.06,1.06 0 0 1 -1.09,-0.5099998 q -0.49,-0.85 -1.27,-1.36 a 0.33,0.33 0 0 0 -0.48,0.4 l 0.32,0.84 a 0.61,0.61 0 0 1 -0.64,0.8299998 c -2.14,-0.26 -5.33,2.27 -6.44,-0.9599998 a 1.07,1.09 74.3 0 0 -1.27,-0.7 q -2.62,0.63 -4.44,-0.62 a 1.26,1.25 47.3 0 0 -1.35,-0.06 q -2.08,1.2 -4.28,0.64 a 1.18,1.16 42.7 0 0 -0.67,0.02 q -2.14,0.69 -5.75,0.56 a 0.68,0.69 5 0 0 -0.71,0.6 q -0.07,0.5099998 0.29,1.3799998 a 0.06,0.08 52 0 1 -0.02,0.08 q -0.14,0.15 -0.36,0.08 a 0.2,0.21 8.5 0 1 -0.15,-0.21 q 0.05,-0.62 -0.32,-0.8 -0.37,-0.17 -0.76,0.03 -0.62,0.32 -0.71,0.32 a 0.57,0.57 0 0 1 -0.56,-0.72 q 0.02,-0.09 0.07,-0.2199998 a 0.83,0.82 24.2 0 0 -0.4,-1.05 q -0.67,-0.33 -1.57,0.08 c -0.85,0.38 -0.85,1.3999998 -1.17,1.7899998 a 0.48,0.49 43.9 0 1 -0.75,0.02 q -0.81,-0.9299998 -0.79,-2.0299998 a 0.33,0.33 0 0 0 -0.52,-0.28 q -1.9,1.27 -4,0.56 a 0.66,0.68 34.1 0 0 -0.67,0.14 q -0.85,0.78 -3.27,0.33 a 1.74,1.66 38.1 0 0 -0.94,0.09 q -2.98,1.1999998 -4,1.3799998 -0.44,0.08 -0.6,-0.25 a 0.28,0.28 0 0 1 0.27,-0.4 q 1.68,0.04 3.22,-1.1499998 a 0.34,0.34 0 0 0 -0.19,-0.61 q -1.13,-0.06 -3.84,1.14 a 1.78,1.85 35.3 0 1 -0.83,0.16 c -3.11,-0.17 -7.99,-1.21 -12.23,-1.36 q -2.66,-0.1 -3.94,-0.4 c -1.030003,-0.23 -1.510003,-1.19 -2.080003,-1.43 a 1.03,1.02 40.7 0 0 -0.96,0.07 q -2.13,1.34 -5.68,1.74 a 0.93,0.9 68.9 0 1 -0.87,-0.4 q -0.52,-0.76 -1.24,-0.93 a 0.39,0.38 5.6 0 0 -0.48,0.39 q 0.01,0.24 -0.13,0.39 a 0.44,0.5 70.5 0 1 -0.84,-0.33 q 0.04,-0.15 0.23,-0.31 a 0.47,0.47 0 0 0 0.04,-0.67 c -1.19,-1.3 -2.59,-0.14 -3.71,0.96 a 1.7,1.72 18.2 0 1 -0.9,0.46 q -1.37,0.21 -3.14,-0.36 a 0.29,0.29 0 0 1 -0.16,-0.42 q 0.19,-0.33 0.16,-0.46 a 0.33,0.34 61.3 0 0 -0.56,-0.16 q -0.8,0.78 -3.02,-0.83 a 0.36,0.36 0 0 0 -0.53,0.12 q -0.98,1.71 -3.19,2.56 a 1,1 0 0 1 -0.63,0.03 l -5.36,-1.55 a 0.93,0.98 47.8 0 0 -0.49,-0.01 q -2.88,0.7 -4.33,0.09 a 1.17,1.13 46 0 0 -0.84,-0.03 l -4.64,1.56 a 0.42,0.42 0 0 1 -0.54,-0.49 z m 17.1475,-1.4933 a 0.44,0.94 56.9 0 0 -1.0278,0.1447 0.44,0.94 56.9 0 0 -0.5472,0.8819 0.44,0.94 56.9 0 0 1.0278,-0.1447 0.44,0.94 56.9 0 0 0.5472,-0.8819 z m 9.3725,0.5633 a 0.32,0.28 81.2 0 0 0.32,-0.49 q -0.13,-0.17 -0.34,0.05 c -0.09,0.09 0,0.43 0.02,0.44 z m 94.280003,0.71 q 0.19,-0.06 1.01,-0.82 a 0.33,0.33 0 0 0 -0.17,-0.57 q -0.86,-0.14 -1.26,0.37 a 0.51,0.64 16 0 0 0.42,1.02 z m 11.41,-0.4 a 0.74,0.74 0 0 0 -0.74,-0.74 0.74,0.74 0 0 0 -0.74,0.74 0.74,0.74 0 0 0 0.74,0.74 0.74,0.74 0 0 0 0.74,-0.74 z m -49.79,1.08 1.08,-0.25 a 0.44071183,0.43069565 36 0 0 -0.14,-0.86 q -0.92,0.07 -1.25,0.73 a 0.27,0.27 0 0 0 0.31,0.38 z m 24.5508,-1.1333 a 0.92,1.31 50.5 0 0 -1.596,0.1234 0.92,1.31 50.5 0 0 -0.4256,1.5432 0.92,1.31 50.5 0 0 1.596,-0.1234 0.92,1.31 50.5 0 0 0.4256,-1.5432 z m 5.4357,0.6704 a 0.43,0.56 49.6 0 0 -0.7052,0.0354 0.43,0.56 49.6 0 0 -0.1478,0.6904 0.43,0.56 49.6 0 0 0.7052,-0.0354 0.43,0.56 49.6 0 0 0.1478,-0.6904 z m -10.0657,1.5322 a 0.92,0.68 8.8 0 0 0.8052,0.8126998 0.92,0.68 8.8 0 0 1.0132,-0.5312998 0.92,0.68 8.8 0 0 -0.8052,-0.8127 0.92,0.68 8.8 0 0 -1.0132,0.5313 z m 32.7409,10.7131998 a 0.65,0.79 51.9 0 0 -1.0228,-0.024 0.65,0.79 51.9 0 0 -0.2206,0.999 0.65,0.79 51.9 0 0 1.0228,0.024 0.65,0.79 51.9 0 0 0.2206,-0.999 z m -0.5342,2.0289 a 0.63,0.74 43.3 0 0 -0.966,0.1065 0.63,0.74 43.3 0 0 -0.049,0.9707 0.63,0.74 43.3 0 0 0.966,-0.1065 0.63,0.74 43.3 0 0 0.049,-0.9707 z m -6.0575,9.4786 q -0.67,0.91 -0.67,0.93 a 0.97,0.81 33 0 0 1.77,-0.21 q -0.16,-0.6 -0.72,-0.83 a 0.31,0.32 29.7 0 0 -0.38,0.11 z m 0.55,3.63 a 0.5,0.5 0 0 0 0.83,0.02 q 0.18,-0.26 0.01,-0.71 c -0.16,-0.44 -1.09,-0.4 -1.03,0.12 q 0.04,0.35 0.19,0.57 z m 2.23,2.72 q 0.61,0.21 0.77,0.2 2.41,-0.23 -0.43,-0.45 -0.16,-0.01 -0.31,0 a 0.13,0.13 0 0 0 -0.03,0.25 z m 37.36,2.88 q 0.23,0.01 0.26,-0.02 a 0.21,0.21 0 0 0 -0.12,-0.38 q -0.3,-0.01 -0.23,0.32 a 0.09,0.09 0 0 0 0.09,0.08 z m 1.6137,1.6204 a 1.08,0.5 42.5 0 0 0.4585,1.0982 1.08,0.5 42.5 0 0 1.1341,0.361 1.08,0.5 42.5 0 0 -0.4585,-1.0982 1.08,0.5 42.5 0 0 -1.1341,-0.361 z m -50.7037,3.4196 q 0.36,0.23 0.8,0.09 0.46,-0.15 0.53,-0.65 0.22,-1.47 0.05,-1.58 -0.17,-0.11 -1.42,0.7 -0.42,0.27 -0.37,0.75 0.05,0.46 0.41,0.69 z m 47.728,-0.0446 a 0.91,1.38 86.9 0 0 -1.4272,-0.8341 0.91,1.38 86.9 0 0 -1.3288,0.9833 0.91,1.38 86.9 0 0 1.4272,0.8341 0.91,1.38 86.9 0 0 1.3288,-0.9833 z m -5.9023,1.4131 a 0.7,1.55 61 0 0 -1.6951,0.1393 0.7,1.55 61 0 0 -1.0163,1.3637 0.7,1.55 61 0 0 1.6951,-0.1393 0.7,1.55 61 0 0 1.0163,-1.3637 z m 12.2066,1.1412 a 0.74,0.26 58.4 0 0 0.1663,0.7665 0.74,0.26 58.4 0 0 0.6091,0.4941 0.74,0.26 58.4 0 0 -0.1663,-0.7665 0.74,0.26 58.4 0 0 -0.6091,-0.4941 z m 1.9077,2.9503 q 0.07,0.05 0.1,0.09 a 0.08242564,0.05151602 81.7 0 0 0.06,-0.12 q -0.11,-0.12 -0.17,-0.13 a 0.1,0.06 57.1 0 0 0.01,0.16 z m -26.7697,4.9302 a 0.31,0.88 58.5 0 0 -0.9123,0.1955 0.31,0.88 58.5 0 0 -0.5883,0.7241 0.31,0.88 58.5 0 0 0.9123,-0.1955 0.31,0.88 58.5 0 0 0.5883,-0.7241 z m -2.4767,2.1076 a 0.4,2.31 66.2 0 0 -2.275,0.5662 0.4,2.31 66.2 0 0 -1.9522,1.2982 0.4,2.31 66.2 0 0 2.275,-0.5662 0.4,2.31 66.2 0 0 1.9522,-1.2982 z m 36.1064,4.3422 q -0.18,-0.24 -0.19,-0.26 -0.12,-0.15 -0.49,-0.48 0.09,0.13 0.11,0.16 0.16,0.36 0.47,0.67 a 0.07,0.07 0 0 0 0.1,-0.09 z m 0.49,1.66 1.04,1.29 a 0.38,0.39 52.2 0 0 0.53,0.06 q 1.08,-0.81 0.07,-1.27 h -0.01 l -1.3,-0.53 a 0.29,0.29 0 0 0 -0.33,0.45 z m 2.02,3.19 2.27,3.73 a 0.53,0.54 34.9 0 0 0.98,-0.18 q 0.16,-0.8 -0.81,-1.11 a 1.09,1.09 0 0 1 -0.75,-0.93 q -0.15,-1.64 -1.08,-2.15 a 0.46,0.46 0 0 0 -0.61,0.64 z m -69.8542,3.6867 a 0.32,0.45 31.6 0 0 -0.5084,0.2156 0.32,0.45 31.6 0 0 0.0368,0.551 0.32,0.45 31.6 0 0 0.5084,-0.2156 0.32,0.45 31.6 0 0 -0.0368,-0.551 z m 72.7798,0.568 a 1,0.46 57.7 0 0 0.1456,1.0911 1,0.46 57.7 0 0 0.9232,0.5995 1,0.46 57.7 0 0 -0.1456,-1.0911 1,0.46 57.7 0 0 -0.9232,-0.5995 z m -75.9068,0.3638 a 0.48,0.78 12.5 0 0 -0.6374,0.6576 0.48,0.78 12.5 0 0 0.2998,0.8654 0.48,0.78 12.5 0 0 0.6374,-0.6576 0.48,0.78 12.5 0 0 -0.2998,-0.8654 z m -2.1216,4.1845 a 0.53,1.62 25.1 0 0 -1.1672,1.2422 0.53,1.62 25.1 0 0 -0.2072,1.6918 0.53,1.62 25.1 0 0 1.1672,-1.2422 0.53,1.62 25.1 0 0 0.2072,-1.6918 z m 1.7195,-0.02 a 0.79,0.41 57.6 0 0 0.0771,0.8867 0.79,0.41 57.6 0 0 0.7695,0.4473 0.79,0.41 57.6 0 0 -0.0771,-0.8867 0.79,0.41 57.6 0 0 -0.7695,-0.4473 z m 89.4433,18.147 a 0.27,0.27 0 0 0 0.49,-0.2 q -0.34,-2.21 -2.02,-3.47 a 1.51,1.57 5 0 1 -0.5,-0.62 l -1.72,-3.93 a 1.48,1.49 10.1 0 0 -0.34,-0.49 q -2.24,-2.1 -3.05,-4.79 a 3.75,3.51 23.1 0 0 -0.37,-0.84 q -1.03,-1.72 -1.91,-2.57 a 0.27,0.27 0 0 0 -0.43,0.31 q 3.55,7.64 9.85,16.6 z m -94.47,-13.79 q -0.08,-0.25 -0.21,-0.25 a 0.09,0.1 85.2 0 0 -0.1,0.11 q 0.01,0.1 0.18,0.23 a 0.09,0.08 8.6 0 0 0.13,-0.09 z m 0.5283,1.6242 a 0.43,0.76 43 0 0 -0.8328,0.2625 0.43,0.76 43 0 0 -0.2038,0.8491 0.43,0.76 43 0 0 0.8328,-0.2625 0.43,0.76 43 0 0 0.2038,-0.8491 z m -5.8683,9.0258 c 0.31,-0.23 0.52,-0.64 0.49,-1.09 q -0.06,-1.07 0.27,-1.47 0.33,-0.39 0.77,-0.41 0.14,-0.01 0.89,0.19 a 0.54,0.54 0 0 0 0.65,-0.38 l 0.12,-0.39 a 0.66,0.66 0 0 0 -0.45,-0.81 l -3.1,-0.9 a 0.97,0.97 0 0 0 -0.99,1.59 q 0.83,0.9 0.26,2.71 a 0.8,0.72 83.4 0 0 1.09,0.96 z m -142.440003,-0.82 q 0.1,-0.25 0.13,-0.82 a 0.61,0.56 84.6 0 0 -0.7,-0.63 q -1.36,0.36 -1.24,1.07 a 1.01,0.91 54.1 0 0 1.81,0.38 z m 13.9731,-0.465 a 0.83,0.66 79.1 0 0 -0.4912,0.9398 0.83,0.66 79.1 0 0 0.805,0.6902 0.83,0.66 79.1 0 0 0.4912,-0.9398 0.83,0.66 79.1 0 0 -0.805,-0.6902 z m 21.2769,2.045 q 0.31,1.03 3.33,-0.34 0.23,-0.1 0.25,-0.3 0.03,-0.18 -0.05,-0.42 -0.07,-0.24 -0.18,-0.38 -0.13,-0.15 -0.38,-0.11 -3.28,0.51 -2.97,1.55 z m 13.71,0.35 q 0.21,-0.06 1.15,-0.21 a 0.47,0.48 59.2 0 0 0.22,-0.85 q -0.74,-0.55 -1.75,-0.26 -1.01,0.29 -1.34,1.15 a 0.47,0.48 88.8 0 0 0.63,0.6 q 0.87,-0.37 1.09,-0.43 z m -41.319,0.0151 a 0.8,0.52 75.6 0 0 -0.3047,0.9042 0.8,0.52 75.6 0 0 0.7027,0.6456 0.8,0.52 75.6 0 0 0.3047,-0.9042 0.8,0.52 75.6 0 0 -0.7027,-0.6456 z m 33.229,1.5349 0.9,-0.11 a 0.26,0.26 0 0 0 0.03,-0.51 q -0.16,-0.04 -0.98,0.49 a 0.07,0.07 0 0 0 0.05,0.13 z m 16.52,-0.49 a 0.26,0.26 0 0 0 -0.26,-0.26 0.26,0.26 0 0 0 -0.26,0.26 0.26,0.26 0 0 0 0.26,0.26 0.26,0.26 0 0 0 0.26,-0.26 z m 23.98,0.17 a 0.43,0.43 0 0 0 -0.43,-0.43 0.43,0.43 0 0 0 -0.43,0.43 0.43,0.43 0 0 0 0.43,0.43 0.43,0.43 0 0 0 0.43,-0.43 z m -51.28,1.25 c 0.57,0.2 0.9,-0.64 0.41,-0.93 -0.3,-0.18 -1.22,-0.06 -0.9,0.51 q 0.19,0.32 0.49,0.42 z m 32.33,4.92 3.15,-4.77 a 0.02,0.02 0 0 0 -0.01,-0.03 h -0.01 a 1.01,2.19 33.4 0 0 -2.04,1.27 l -0.76,1.15 a 1.01,2.19 33.4 0 0 -0.37,2.38 l 0.01,0.01 a 0.02,0.02 0 0 0 0.03,-0.01 z m 9.8997,-4.6317 a 0.46,0.64 39.8 0 0 -0.7631,0.1972 0.46,0.64 39.8 0 0 -0.0563,0.7862 0.46,0.64 39.8 0 0 0.7631,-0.1972 0.46,0.64 39.8 0 0 0.0563,-0.7862 z m -28.5197,0.6517 q 0.07,-0.21 -0.06,-0.42 a 0.15,0.15 0 0 0 -0.24,-0.03 q -0.22,0.2 -0.18,0.33 a 0.28,0.22 52.3 0 0 0.48,0.12 z m 0.26,1.75 q 0.04,0.04 1.81,-0.01 0.83,-0.03 0.95,-0.75 0.13,-0.74 -0.36,-1.31 a 0.44,0.44 0 0 0 -0.75,0.13 q -0.61,1.6 -1.46,1.52 a 0.24,0.24 0 0 0 -0.19,0.42 z m 8.61,-1.64 q -1.25,0.29 -1.36,0.34 a 0.83,0.55 18.4 0 0 0.85,1.08 q 0.6,-0.05 0.94,-0.92 a 0.37,0.37 0 0 0 -0.43,-0.5 z m -18.45,1.73 1.74,-1.05 a 0.26,0.26 0 0 0 -0.08,-0.47 q -1.59,-0.35 -2.31,0.88 a 0.47,0.47 0 0 0 0.65,0.64 z m 52.877603,-1.2756 a 0.62,1.11 65.2 0 0 -1.2677,-0.0972 0.62,1.11 65.2 0 0 -0.747503,1.0284 0.62,1.11 65.2 0 0 1.267703,0.0972 0.62,1.11 65.2 0 0 0.7475,-1.0284 z m -45.837603,0.1256 a 0.27,0.27 0 0 0 -0.27,-0.27 0.27,0.27 0 0 0 -0.27,0.27 0.27,0.27 0 0 0 0.27,0.27 0.27,0.27 0 0 0 0.27,-0.27 z m 13.76,1.34 a 0.84,0.84 0 0 0 1.58,0.32 l 0.77,-1.5 a 0.31,0.31 0 0 0 -0.28,-0.45 q -2.19,0.01 -2.07,1.63 z m 41.903703,-1.54 a 0.4,0.34 89.1 0 0 -0.3337,0.4053 0.4,0.34 89.1 0 0 0.3463,0.3947 0.4,0.34 89.1 0 0 0.3337,-0.4053 0.4,0.34 89.1 0 0 -0.3463,-0.3947 z m 147.0463,0.36 q 0.05,0.1 0.29,0.16 a 0.25,0.31 76.3 0 0 0.34,-0.44 q -0.1,-0.07 -0.47,-0.02 a 0.21,0.2 73.9 0 0 -0.16,0.3 z m -174.622203,0.4051 a 0.55,1.68 60.2 0 0 -1.7311,0.3576 0.55,1.68 60.2 0 0 -1.1845,1.3122 0.55,1.68 60.2 0 0 1.7311,-0.3576 0.55,1.68 60.2 0 0 1.1845,-1.3122 z m -14.9378,1.0649 q -0.45,0.22 -0.49,0.31 a 0.2,0.2 0 0 0 0.28,0.26 q 0.26,-0.14 0.41,-0.3 a 0.17,0.17 0 0 0 -0.2,-0.27 z m 23.5,0.24 a 0.33,0.33 0 0 0 -0.33,-0.33 0.33,0.33 0 0 0 -0.33,0.33 0.33,0.33 0 0 0 0.33,0.33 0.33,0.33 0 0 0 0.33,-0.33 z m 166.960003,5.68 q 0.3,0.51 0.65,1 0.48,0.66 0.9,0.68 0.69,0.02 1.09,-0.8 a 0.56,0.56 0 0 0 -0.48,-0.8 l -2.16,-0.08 q -0.89,-1.43 -1.3,-0.92 a 0.23,0.23 0 0 0 -0.02,0.25 q 0.34,0.66 1.32,0.67 z"
     id="path852"
     style="fill:#ff6600" /><path
     fill="#777e8c"
     d="m 224.70056,40.97747 q -0.07,-0.33 0.23,-0.32 a 0.21,0.21 0 0 1 0.12,0.38 q -0.03,0.03 -0.26,0.02 a 0.09,0.09 0 0 1 -0.09,-0.08 z"
     id="path929" /><ellipse
     fill="#ffffff"
     cx="-196.83548"
     cy="121.49113"
     transform="rotate(-137.5)"
     rx="1.08"
     ry="0.5"
     id="ellipse930" /><ellipse
     fill="#ffffff"
     cx="219.23111"
     cy="58.068199"
     transform="rotate(-3.1)"
     rx="1.38"
     ry="0.91000003"
     id="ellipse933" /><ellipse
     fill="#ffffff"
     cx="165.69073"
     cy="146.97351"
     transform="rotate(-29)"
     rx="1.55"
     ry="0.69999999"
     id="ellipse934" /><path
     fill="#b1b5b6"
     d="m 238.40056,63.02747 q -0.31,-0.31 -0.47,-0.67 -0.02,-0.03 -0.11,-0.16 0.37,0.33 0.49,0.48 0.01,0.02 0.19,0.26 a 0.07,0.07 0 0 1 -0.1,0.09 z"
     id="path940" /><path
     fill="#ffffff"
     d="m 239.32056,64.14747 1.3,0.53 h 0.01 q 1.01,0.46 -0.07,1.27 a 0.38,0.39 52.2 0 1 -0.53,-0.06 l -1.04,-1.29 a 0.29,0.29 0 0 1 0.33,-0.45 z"
     id="path942" /><path
     fill="#ffffff"
     d="m 241.01056,67.78747 a 0.46,0.46 0 0 1 0.61,-0.64 q 0.93,0.51 1.08,2.15 a 1.09,1.09 0 0 0 0.75,0.93 q 0.97,0.31 0.81,1.11 a 0.53,0.54 34.9 0 1 -0.98,0.18 z"
     id="path943" /><path
     fill="#010101"
     d="m 218.99056,68.59747 q 0.21,0.31 -0.15,0.5 -0.54,0.29 -0.88,-0.02 a 0.31,0.4 63.5 0 1 0.27,-0.56 q 0.6,-0.15 0.76,0.08 z"
     id="path946" /><ellipse
     fill="#ffffff"
     cx="-192.24242"
     cy="167.69405"
     transform="rotate(-122.3)"
     rx="1"
     ry="0.46000001"
     id="ellipse949" /><path
     fill="#ffffff"
     d="m 258.95056,96.65747 q 0.37,-0.05 0.47,0.02 a 0.25,0.31 76.3 0 1 -0.34,0.44 q -0.24,-0.06 -0.29,-0.16 a 0.21,0.2 73.9 0 1 0.16,-0.3 z"
     id="path978" /><path
     fill="#ffffff"
     d="m 259.69056,104.34747 q -0.98,-0.01 -1.32,-0.67 a 0.23,0.23 0 0 1 0.02,-0.25 q 0.41,-0.51 1.3,0.92 z"
     id="path984" /><path
     fill="#ffffff"
     d="m 259.69056,104.34747 2.16,0.08 a 0.56,0.56 0 0 1 0.48,0.8 q -0.4,0.82 -1.09,0.8 -0.42,-0.02 -0.9,-0.68 -0.35,-0.49 -0.65,-1 z"
     id="path985" /><g
     id="g2"
     transform="matrix(0.13865868,0,0,0.15208717,1.2777757,-38.388897)"><g
       id="g3"
       transform="matrix(1.0694739,0,0,0.89474562,-57.692599,60.024312)"><g
         stroke-width="2"
         fill="none"
         stroke-linecap="butt"
         id="g8"
         style="stroke:#ff6600;stroke-width:2.66062;stroke-dasharray:none;stroke-opacity:1"><path
           stroke="#777069"
           vector-effect="non-scaling-stroke"
           d="m 756.56,642.08 q -1.85,6.28 -0.22,12.49 a 2.12,2.11 47.7 0 1 -0.06,1.3 q -1.23,3.29 -0.52,7.96 c 0.35,2.34 -0.43,4.75 0.46,6.88 a 2.43,2.42 -54 0 1 0.17,1.08 c -0.17,2.24 0.53,5.73 0.05,8.67 -0.4,2.47 1.13,3.74 1.05,5.94 -0.13,3.72 1.88,7.68 1.8,10.86 q -0.02,0.88 1.37,6.81 c 1.09,4.61 4.19,9.31 5.94,13.67 a 7.06,6.92 16 0 0 0.96,1.69 l 3.59,4.69 a 1.6,1.12 81.6 0 0 0.17,0.18 q 2.86,2.54 4.83,5.41 a 5.6,5.6 0 0 0 1.66,1.61 q 2.65,1.68 5.35,3.38 2.15,1.36 2.56,1.87 c 1.54,1.93 4.2,1.22 6.25,2.22 3.56,1.74 6.44,2.85 10.44,3.27 a 1.15,1.15 0 0 0 0.97,-0.37 q 1.2,-1.33 2.57,-0.43 c 2.59,1.71 3.94,2.08 7.31,-0.12 q 1.42,-0.92 3.02,-0.76 2.94,0.28 6.4,-1.01 5.99,-2.24 7.57,-2.6 a 1.36,1.35 12 0 0 0.79,-0.51 l 1.03,-1.39 a 1.27,1.26 21.1 0 1 1.16,-0.51 c 3.66,0.44 5.49,-2.7 8.11,-4.32 q 2.08,-1.28 8.02,-5.53 a 4.67,4.53 -1.9 0 0 1.14,-1.18 q 1.33,-2.03 3.74,-3.8 a 8.89,8.81 -88.9 0 0 1.62,-1.57 q 2.62,-3.33 5.81,-6.74 0.25,-0.26 0.38,-1 a 1.09,1.07 75.7 0 1 0.37,-0.64 q 1.66,-1.35 2.39,-3.03 1.97,-4.51 3.95,-7.52 0.93,-1.43 1.61,-7.61 a 1.54,1.52 -57.9 0 0 -0.22,-0.98 q -0.28,-0.44 -0.76,-0.7 a 0.79,0.78 -66.8 0 1 -0.37,-0.93 q 0.85,-2.71 0.38,-3.94 -3.18,-8.36 -11.67,-10.14 a 1.53,1.52 -57.1 0 0 -1.19,0.26 l -0.95,0.69 a 0.62,0.62 0 0 1 -0.94,-0.27 q -0.57,-1.42 -1.55,-1.65 a 2.15,2.07 -43.3 0 0 -0.93,-0.01 q -5.2,1.1 -10.24,4.51 c -1.46,0.99 -3.86,1.52 -5.32,2.19 a 2.69,2.63 5.3 0 0 -1.05,0.85 l -2.03,2.75 a 1.13,1.09 -76 0 1 -0.67,0.42 q -5.46,0.98 -9.85,4.93 a 4.15,4.14 24 0 1 -2.77,1.06 h -7.33 a 0.88,0.87 -17.6 0 1 -0.71,-0.36 l -1.96,-2.7 a 1.12,1.11 -50.8 0 1 -0.11,-1.13 c 0.49,-1.03 0.65,-1.61 0.26,-2.85 -0.76,-2.36 -1.21,-3.66 -0.67,-5.89 q 0.39,-1.62 0.49,-3.08 a 1.81,1.76 -62.3 0 0 -0.35,-1.18 c -2.43,-3.18 -0.38,-5.76 -0.68,-9.08 q -0.56,-6.33 -0.88,-7.2 a 0.35,0.31 41.4 0 1 -0.01,-0.08 l 1.38,-11.15 a 0.9,0.84 43.2 0 0 -0.02,-0.32 l -0.5,-2.18 a 1.48,1.48 0 0 1 0,-0.68 q 1.14,-4.88 0.47,-8.31 a 1.63,1.63 0 0 1 0.21,-1.16 q 1.41,-2.28 0.32,-4.59 a 2.81,2.8 32.4 0 1 -0.27,-1.2 q 0.02,-4.87 1.1,-8.11 c 0.62,-1.87 0.26,-3.07 -0.3,-4.82 a 2.75,2.75 0 0 1 0.03,-1.81 q 0.69,-1.87 0.98,-2.64 1.2,-3.28 -0.16,-6.46 a 1.62,1.59 -49.4 0 1 -0.07,-1.03 l 0.59,-2.21 a 7.42,7.28 53.2 0 0 0.26,-1.94 q 0,-3.4 0.74,-5.71 a 1.53,1.46 -45.7 0 0 0.01,-0.91 l -0.7,-2.3 a 1.04,1.04 0 0 1 0.39,-1.14 l 0.99,-0.72 a 1.25,1.24 -19.3 0 0 0.51,-1.04 l -0.3,-9.42 a 0.71,0.6 54.5 0 1 0.02,-0.23 c 0.65,-2.33 2.65,-5.73 0.73,-7.3 a 0.49,0.49 0 0 1 -0.03,-0.73 c 1.26,-1.22 2.78,-6.21 1.33,-7.93 a 1.11,1.11 0 0 1 -0.15,-1.22 q 1,-1.97 0.69,-4.21 c -0.42,-3.06 1.71,-8.17 1.92,-10.47 q 0.23,-2.57 -0.65,-4.86 c -0.79,-2.07 1.94,-4.25 1.83,-6.7 -0.13,-2.6 0.48,-4.31 0.95,-6.66 a 2.8,2.71 40.4 0 0 -0.15,-1.57 l -0.53,-1.3 a 0.34,0.34 0 0 1 -0.03,-0.21 l 2.1,-12.13 a 14.44,14.32 46.6 0 0 0.1,-4.2 l -0.26,-2.18 a 1.37,1.37 0 0 1 0.55,-1.26 l 0.54,-0.4 a 1.18,1.17 69.1 0 0 0.48,-1.09 q -0.47,-3.69 -0.3,-4.55 0.36,-1.77 1.74,-5.63 a 0.89,0.87 44.6 0 0 -0.01,-0.64 l -0.97,-2.37 a 0.94,0.92 -34.2 0 1 0.2,-1 l 0.84,-0.84 a 2.29,2.27 -18.3 0 0 0.66,-1.3 c 0.52,-3.42 1.13,-6.28 1.1,-10.2 q -0.02,-2.12 0.78,-4.65 1.19,-3.81 0.32,-6.76 a 1.36,1.31 -40.9 0 1 0.09,-0.98 q 1.31,-2.65 1.6,-6.41 c 0.23,-2.85 1.5,-4.82 1.09,-7.79 a 2,1.7 -48.5 0 1 0.01,-0.51 l 1.95,-11.95 a 4.24,4.15 -30.3 0 1 0.22,-0.8 l 0.9,-2.3 a 0.9,0.88 -39.8 0 0 0.05,-0.47 c -0.3,-1.86 -0.71,-3.44 0.01,-5.04 q 1.39,-3.13 0.96,-5.9 a 4.21,4.16 -40.8 0 1 0.15,-1.91 q 1.74,-5.55 1.86,-6.79 0.92,-9.35 1.25,-11.26 0.48,-2.8 0.18,-5.55 -0.11,-0.99 1.35,-5.99 a 4.91,4.8 -41.7 0 0 0.14,-2.04 l -0.51,-3.49 a 1.53,1.51 -37.9 0 1 0.11,-0.85 c 2.33,-5.42 3.79,-13.01 2.61,-19.26 q -1.14,-6.06 -1.15,-7.23 a 0.62,0.52 -61.8 0 0 -0.05,-0.24 l -3.91,-9.56 a 0.77,0.77 0 0 0 -0.95,-0.44 q -0.04,0.01 -0.07,0.01 a 1.16,1.16 0 0 1 -1.14,-0.45 c -2.6,-3.5 -4.42,-5.77 -8.75,-6.75 a 1.3,1.29 73.2 0 1 -0.61,-0.33 l -1.69,-1.7 a 0.89,0.88 -36.5 0 0 -1.04,-0.15 c -2.15,1.14 -6.07,-1.08 -7.48,-1.74 a 0.88,0.87 39.5 0 0 -0.87,0.08 l -1.85,1.34 a 0.91,0.91 0 0 1 -0.94,0.09 q -2.92,-1.38 -5.5,0.63 c -2.34,1.83 -5,3.06 -6.82,4.89 q -5.99,6.04 -6.7,14.2 c -0.16,1.9 -1.11,3.85 -0.97,5.08 q 0.13,1.09 -0.78,3.76 -0.88,2.6 -0.68,5.63 a 2.91,2.81 51.6 0 1 -0.09,0.92 q -0.15,0.58 -0.84,1.79 c -1.29,2.25 -1.77,4.62 -1.51,7.27 q 0.22,2.25 -0.43,4.32 -0.92,2.95 -1.69,8.15 a 3.07,2.98 -23.3 0 1 -0.56,1.35 l -1.13,1.54 a 1.33,1.32 60 0 0 -0.25,0.94 q 0.31,2.34 -0.36,6.23 c -0.3,1.74 0.47,2.81 -0.18,4.68 q -0.72,2.06 -0.32,3.7 a 1.58,1.53 -42.1 0 1 -0.06,0.91 l -1.76,4.46 a 1.44,1.34 -36.6 0 0 -0.09,0.49 l 0.11,5.74 a 3.71,3.6 -32.9 0 1 -0.38,1.66 q -1.12,2.21 -1.5,5.1 a 1.77,1.71 -55.8 0 0 0.17,0.98 l 0.57,1.12 a 1.19,1.18 44.7 0 1 0.01,1.06 c -1.51,3.14 -3.04,5.42 -2.12,8.01 1.15,3.24 -1.03,3.76 -1.48,6.14 q -0.82,4.36 -0.58,7.82 a 4.25,4.18 56.8 0 1 -0.44,2.19 q -1.06,2.14 -0.86,4.68 c 0.16,2.13 -0.54,3.81 -1.36,5.45 a 1.04,1.02 -50.5 0 0 0.09,1.07 l 0.46,0.65 a 1.12,1.11 -50.8 0 1 0.11,1.13 q -1.99,4.23 -1.66,7.97 c 0.15,1.75 -0.92,3.44 -0.54,4.72 a 1.39,1.35 -41 0 1 -0.08,0.96 c -1.64,3.51 -0.72,8.31 -2.16,12.21 q -0.38,1.05 -0.28,5.29 0.05,2.06 -1.64,9.79 a 1.71,1.64 -49.9 0 0 0.06,0.95 c 0.21,0.61 0.45,1.24 0.17,1.88 q -1.05,2.4 -1.01,5.23 0.04,2.25 -0.83,5.24 -1.28,4.43 -0.63,11.37 a 0.75,0.7 -30.6 0 1 -0.14,0.48 l -0.51,0.69 a 1.51,1.42 -25.7 0 0 -0.27,0.7 L 762.48,552 a 1.98,1.95 37.8 0 0 0.13,0.97 l 0.62,1.5 a 1.06,1.05 53.3 0 1 -0.15,1.05 c -2.99,3.8 -2.44,6 -2.01,10.36 a 5.07,4.94 50.6 0 1 -0.16,1.88 q -0.71,2.58 -0.48,4.37 a 3.25,3.23 54.4 0 1 -0.31,1.9 c -0.85,1.69 -1.31,4.25 -0.63,6.87 q 0.77,3.01 -1.22,7.4 -1.2,2.68 0.16,7.22 a 1.8,1.79 44.7 0 1 0.01,1 q -1.34,5.04 -0.22,9.1 a 1.36,1.35 -44.6 0 1 -0.01,0.74 l -1.12,3.84 a 0.88,0.77 -41.1 0 0 -0.03,0.22 q 0.09,3.16 -0.32,5.67 a 6.4,6.28 49.2 0 0 -0.08,1.23 q 0.47,11.82 0.03,14.21 -1.15,6.12 -0.86,6.79 a 4.93,3.15 67.2 0 1 0.25,0.65 q 0.72,2.28 0.48,3.11"
           id="path1"
           style="stroke:#ff6600;stroke-width:2.66062;stroke-dasharray:none;stroke-opacity:1" /><path
           stroke="#777069"
           vector-effect="non-scaling-stroke"
           d="m 677.08,446.96 q 2.35,-4.54 1.37,-10.09 a 3.57,3.49 -42.7 0 1 0.08,-1.53 q 0.67,-2.36 1.44,-7.62 0.28,-1.83 -0.15,-4.98 -0.44,-3.15 0.77,-6.1 c 1.19,-2.9 0.17,-4.51 1.09,-7.21 q 0.43,-1.24 -0.28,-3.94 -0.92,-3.48 0.06,-7.01 0.57,-2.07 0.25,-3.96 -0.56,-3.31 0.94,-7.39 a 1.12,0.96 -40.7 0 0 0.06,-0.4 l -0.3,-10.27 a 1.24,1.13 36.2 0 0 -0.09,-0.45 l -3.46,-8.54 a 2.34,1.71 -81.1 0 0 -0.19,-0.37 q -6.26,-9.86 -16.81,-14.27 a 3.01,3.01 0 0 0 -1.85,-0.16 q -1.68,0.37 -2.83,-0.08 c -2.33,-0.91 -4.21,0.1 -6.3,-0.66 a 0.99,0.96 39.9 0 0 -0.82,0.06 q -2,1.14 -2.86,2.59 a 0.78,0.78 0 0 1 -0.99,0.32 l -0.91,-0.4 a 1.16,1.14 -45.6 0 0 -0.96,0.02 q -6.25,2.97 -6.95,8.67 a 2.35,2.31 -20.8 0 1 -0.59,1.28 c -1.33,1.43 -4.64,2.7 -3.93,5.78 0.75,3.3 -2.86,11.44 -0.67,13.77 a 0.71,0.71 0 0 1 0.03,0.94 q -0.83,1.02 -0.87,3.17 c -0.06,2.6 -1.36,4.81 -1.42,7.12 q -0.05,2 -0.71,3.93 c -1.14,3.34 -0.37,6.72 -1.51,10 -0.73,2.08 -1.65,6.98 -0.3,9.57 a 0.69,0.67 -38 0 1 -0.1,0.76 q -2.73,3.12 -0.92,7.09 a 0.84,0.83 51.5 0 1 -0.09,0.84 q -0.96,1.27 -1.32,2.54 a 2.09,2.03 -44.1 0 0 -0.03,1 q 0.95,4.4 -0.57,8.51 a 6.45,6.33 54.8 0 0 -0.38,2.34 q 0.21,7.37 -1.92,15.51 -0.22,0.81 0.44,3.25 a 2,1.96 -40.3 0 1 -0.13,1.42 q -0.89,1.81 -0.82,4.27 c 0.11,3.56 -0.71,7.03 -1.42,9.96 a 1.58,1.57 -47.1 0 0 0.03,0.87 l 0.51,1.58 a 1.57,1.55 46.4 0 1 -0.02,1.03 c -0.81,2.3 -1.21,3.1 -0.97,5.41 q 0.3,2.9 -0.03,3.64 -2.54,5.77 -0.57,10.93 a 1.4,1.38 46 0 1 -0.01,1.03 c -1.29,3.08 -2.46,5.58 -1.66,8.03 0.8,2.47 -0.72,3.12 -0.75,5.1 -0.02,2.23 -0.94,4.42 0.02,6.95 a 1.84,1.8 -47.2 0 1 0.03,1.16 q -0.92,2.84 -0.63,5.02 0.23,1.75 -0.45,3.72 -1.25,3.59 -0.25,7.01 a 2.45,2.44 43.2 0 1 0.04,1.23 q -0.89,3.81 -0.17,7.49 c 0.47,2.41 -3.05,2.74 -1.72,6.25 1.5,3.93 0.38,6.31 -0.8,11.71 a 2.2,2.17 -47.1 0 0 0.03,0.99 q 0.28,1.03 1.03,2.13 a 1.08,1.07 40.8 0 1 0.08,1.04 q -1.7,3.65 -1.42,6.39 c 0.24,2.34 -0.39,4.99 -0.78,6.35 a 2.53,2.46 47.6 0 0 -0.04,1.28 l 0.57,2.48 a 1.22,1.21 56.5 0 1 -0.19,0.97 q -1.5,2.17 0.06,3.56 a 0.81,0.79 32 0 1 0.22,0.9 c -1.44,3.6 -1.14,7.82 -0.85,10.99 a 4.24,4.13 51.4 0 1 -0.16,1.62 c -1.09,3.71 -0.2,7.77 -0.72,11.21 q -0.43,2.8 -0.12,5.41 c 0.27,2.38 -0.76,4.8 -0.31,7.12 q 0.29,1.51 0.15,4.32 -0.13,2.79 0.12,4.36 0.11,0.66 0,2.82 -0.06,1.39 -0.22,21.94 a 5.83,5.13 -53.8 0 0 0.09,1 q 0.62,3.37 0.99,6.15 c 0.19,1.36 -0.58,2.98 -0.19,4.26 0.9,2.97 0.01,4.83 0.6,7.69 q 0.82,3.95 0.58,7.31 a 4.37,4.34 -51.4 0 0 0.16,1.49 q 0.81,2.74 1.05,5.78 c 0.18,2.28 1.68,4.09 1.45,6.06 -0.47,4 1.46,9.53 3.7,12.35 a 3.34,3.34 0 0 1 0.72,2.07 v 1.03 a 3.62,3.6 27.1 0 0 0.69,2.12 l 1.95,2.68 a 5.19,5.17 -70.7 0 1 0.81,1.69 q 1.57,5.71 7.06,9.95 a 2.02,1.97 -85.4 0 1 0.58,0.7 q 0.52,1.07 0.69,2.52 a 0.81,0.8 5 0 0 0.58,0.68 q 0.39,0.12 1.49,-0.13 a 0.47,0.47 0 0 1 0.42,0.12 l 5.54,5.54 a 0.82,0.8 -33.2 0 0 0.89,0.18 l 1.54,-0.63 a 1.43,1.43 0 0 1 1.83,0.71 c 0.9,1.91 1.88,2.88 3.97,3.65 q 4.42,1.62 10.19,3.63 3.15,1.09 5.64,-0.39 a 1.14,1.13 -50.2 0 1 0.96,-0.09 l 2.61,0.93 a 1.51,1.5 52.7 0 0 0.66,0.09 q 8.93,-0.64 16.54,-3.91 a 0.51,0.49 42 0 1 0.35,-0.01 l 1.24,0.44 a 0.84,0.82 32.2 0 0 0.87,-0.19 l 0.92,-0.92 a 2,1.97 12.5 0 1 0.75,-0.47 q 6.39,-2.25 12.48,-6.83 c 1.68,-1.27 2.76,-1.6 3.69,-3.82 a 0.6,0.6 0 0 1 1.13,0.06 q 0.24,0.75 1,0.69 a 0.96,0.95 16.5 0 0 0.69,-0.37 q 2.31,-2.93 5.54,-5.2 a 5.73,5.69 3.6 0 0 0.88,-0.77 q 3.46,-3.76 8.13,-7.04 a 2.33,2.32 88.1 0 0 0.68,-0.73 q 0.5,-0.86 0.87,-2.32 0.21,-0.86 0.52,-1.06 0.47,-0.3 1.11,-0.28 a 1.71,1.55 9.8 0 0 1.63,-1.03 q 1.4,-4.01 3.4,-5.85 a 3.9,3.88 -11.2 0 0 1.05,-1.56 l 3.9,-10.92 a 1.69,1.65 48.1 0 0 0.04,-0.98 q -0.24,-0.86 -1.08,-1.8 a 1.77,1.77 0 0 1 -0.44,-1.14 c -0.07,-3.77 -2.54,-7.38 -4.82,-10.04 -0.43,-0.5 -0.52,-1.26 -0.73,-1.73 a 0.72,0.72 0 0 0 -0.91,-0.37 q -1.65,0.64 -4.46,-1.1 -0.55,-0.34 -4.64,-1.4 a 1.74,1.73 -47 0 0 -1.03,0.04 c -3.05,1.11 -4.3,1.86 -7.5,2.57 -3.41,0.76 -6.06,4.17 -8.84,5.91 -2.73,1.72 -4.68,3.79 -7.26,5.5 a 1.68,1.67 83.6 0 0 -0.64,0.81 l -0.31,0.87 a 0.94,0.92 4.7 0 1 -0.73,0.61 l -1.56,0.25 a 3.86,3.83 -67 0 0 -1.66,0.68 l -4.36,3.17 a 1.8,1.59 14.9 0 1 -0.44,0.22 l -9.36,3.02 a 2.58,2.57 59.7 0 1 -2.69,-0.71 c -2.96,-3.23 -4.39,-8.43 -5.21,-12.64 a 2.8,2.78 -72.9 0 0 -0.75,-1.43 l -0.41,-0.4 a 2.16,2.16 0 0 1 -0.62,-1.49 q -0.01,-2.23 0.67,-5.72 0.2,-0.99 -1.41,-4.15 a 1.54,1.53 35.4 0 1 -0.16,-0.93 q 0.05,-0.32 0.68,-1.97 1.12,-2.94 -0.76,-6.01 a 1,0.97 39.9 0 1 -0.09,-0.85 l 0.69,-1.93 a 2.68,2.64 48.4 0 0 0.08,-1.53 q -0.68,-2.8 -0.38,-5.7 c 0.21,-1.97 -0.56,-3.87 -0.8,-5.67 a 1.98,1.92 -41.4 0 1 0.07,-0.89 q 1.41,-4.44 0.44,-9.28 a 4.63,4.38 -51 0 1 -0.09,-1.16 c 0.24,-4.07 -0.26,-6.3 0.33,-10.47 q 0.63,-4.51 -0.93,-10.46 a 1.52,1.52 0 0 1 0.06,-0.96 q 3.1,-7.66 1.45,-16.02 a 3.52,3.31 43.2 0 1 -0.05,-0.78 c 0.1,-2.17 3.03,-3.39 0.95,-6.16 a 1.51,1.48 -63.4 0 1 -0.3,-0.93 c 0.02,-0.79 0.71,-1.56 0.56,-2.56 -0.44,-2.83 0.45,-5.56 0.53,-8.59 q 0.04,-1.26 0.96,-14.22 c 0.14,-2.05 1.19,-3.53 0.01,-5.58 a 2.02,2.01 -53.5 0 1 -0.22,-1.49 q 0.7,-2.96 -0.46,-5.35 a 1.95,1.95 0 0 1 0.32,-2.16 q 3.82,-4.17 1.52,-9.73 a 2.6,2.55 -50.3 0 1 -0.13,-1.55 c 0.36,-1.62 1.42,-3.17 1.62,-4.9 q 0.58,-5.12 -0.66,-8.96 a 1.23,1.21 48 0 1 0.04,-0.88 l 2.13,-4.85 a 0.99,0.94 55.5 0 0 0.08,-0.51 c -0.33,-3.06 -1.11,-4.48 -0.2,-8.28 a 4.41,4.21 49.6 0 0 0.09,-1.57 l -0.22,-1.69 a 1.53,1.52 -30.2 0 1 0.3,-1.12 q 1.13,-1.46 0.7,-3.13 a 2.4,2.35 -44.3 0 1 0.03,-1.3 q 1.56,-4.84 0.85,-11.05 a 6.36,6.28 48.9 0 1 0.14,-2.23 q 1.3,-5.26 1.35,-11.7 a 9.46,9.18 53.6 0 1 0.32,-2.35 q 1.49,-5.61 1.38,-6.93 -0.6,-7.64 0,-9.64 1.83,-6.13 1.75,-11.68 c -0.01,-0.97 -0.61,-1.92 -0.69,-2.6 a 1.12,1.05 -37 0 1 0.11,-0.62"
           id="path2"
           style="stroke:#ff6600;stroke-width:2.66062;stroke-dasharray:none;stroke-opacity:1" /><path
           stroke="#777069"
           vector-effect="non-scaling-stroke"
           d="m 1011.82,458.06 q 1.39,3.44 4.57,5.7 0.94,0.67 2.17,3.6 a 0.73,0.57 19.3 0 0 0.11,0.17 l 15.41,18.7 a 1.82,1.75 78.6 0 0 0.78,0.54 l 2.46,0.88 a 0.94,0.83 -8.7 0 1 0.31,0.2 l 2.01,2.13 a 2.62,2.57 -12.8 0 0 1.1,0.68 l 6.66,2.05 a 1.2,1.18 30.7 0 0 1.19,-0.29 l 0.79,-0.79 a 1.09,1.07 26.9 0 1 0.94,-0.3 q 3.58,0.6 8.56,-1.07 a 2.95,2.91 7.8 0 0 1.47,-1.1 q 1.39,-1.99 3.4,-3 a 2.34,2.33 85.7 0 0 1.19,-1.39 l 0.82,-2.6 a 1.36,1.23 75.7 0 1 0.2,-0.38 q 4.96,-6.7 3.2,-13.5 -1.67,-6.47 -4.45,-10.61 -3.68,-5.48 -10.71,-12.71 a 5.27,4.77 -87.1 0 1 -0.63,-0.77 q -7.02,-10.27 -13.02,-17.03 c -2.71,-3.05 -4.13,-6.62 -7.2,-9.53 q -1.44,-1.35 -2.74,-3.37 a 1.3,0.65 28.9 0 0 -0.09,-0.12 l -5.66,-5.94 a 12.2,12.08 87.3 0 0 -1.33,-1.22 l -4.35,-3.39 a 0.52,0.51 -25.5 0 0 -0.32,-0.11 h -2.37 a 0.89,0.86 66.9 0 1 -0.62,-0.26 l -1.39,-1.39 a 0.94,0.93 73.7 0 0 -0.45,-0.25 c -2.14,-0.48 -7.45,-1.45 -9.48,-0.29 q -0.97,0.56 -1.31,0.58 a 1.03,1.02 68.5 0 1 -0.88,-0.39 l -0.87,-1.12 a 0.57,0.56 -36.4 0 0 -0.78,-0.11 l -12.97,9.41 a 4.7,4.49 88.7 0 0 -1.25,1.37 q -1.44,2.42 -6.69,7.63 -2.64,2.61 -5.85,6.47 -1.78,2.14 -6.09,6.28 -0.96,0.92 -2.01,2.58 a 4.68,4.55 -6.3 0 1 -0.65,0.79 q -3.23,3.09 -5.25,5.88 c -1.65,2.28 -5.35,4.84 -6.26,7.11 q -1.15,2.88 -3.82,5.39 c -2.28,2.15 -3.47,3.61 -4.97,5.88 a 0.82,0.81 -47.8 0 0 0.04,0.96 q 0.43,0.54 0.53,0.9 a 1.15,1.13 -30.4 0 1 -0.3,1.1 c -1.65,1.65 -3.96,3.25 -3.6,5.8 q 0.45,3.1 -0.02,5.43 a 2.93,2.92 41.1 0 0 0.11,1.59 l 1.94,5.55 a 2.68,2.58 -74.2 0 0 0.4,0.75 l 4.78,6.39 a 3.46,3.39 -6.1 0 0 1.34,1.06 c 1.48,0.67 2,1.14 2.71,2.23 q 0.59,0.89 0.85,1.08 a 1.08,1.05 -37.6 0 0 1.02,0.12 q 2.8,-1.12 5.55,0.23 c 2.46,1.21 4.46,1.15 6.49,0.27 q 4.71,-2.04 9.52,-5.11 a 3.74,3.71 -85.4 0 0 0.85,-0.73 q 7.23,-8.29 13.88,-15.14 0.02,-0.02 1.36,-0.95 a 2.74,2.61 -89 0 0 0.65,-0.66 q 3.8,-5.37 5.89,-7.05 2.74,-2.19 3.57,-3.44 c 1.74,-2.63 2.85,-3.31 4.97,-5.67 a 0.69,0.69 0 0 1 1.04,0.02 l 3.34,3.94 a 1.62,1.36 18.2 0 1 0.21,0.34"
           id="path3"
           style="stroke:#ff6600;stroke-width:2.66062;stroke-dasharray:none;stroke-opacity:1" /><path
           stroke="#777069"
           vector-effect="non-scaling-stroke"
           d="m 994.81,513.85 q 0.02,-1.22 -0.71,-1.45 a 1.13,1.1 41.3 0 0 -0.74,0.04 q -4.9,2.05 -7.92,3.27 -2.14,0.86 -3.52,0.24 a 1.17,1.14 40.2 0 0 -1.12,0.08 l -5.54,3.63 a 0.68,0.65 -55 0 1 -0.49,0.1 q -0.43,-0.07 -0.75,0.03 c -7.22,2.17 -12.2,6.02 -19.47,11.21 a 2.36,2.34 -7.9 0 0 -0.86,1.13 c -0.43,1.19 -0.39,1.81 -2.06,2.33 q -4.55,1.4 -7.49,3.79 c -2.41,1.96 -5,1.64 -6.67,4.15 -2.01,3.01 -6.92,3.8 -7.29,7.61 a 1.74,1.74 0 0 1 -0.43,1 q -2.34,2.66 -5.02,4.28 c -2.98,1.8 -3.89,5.02 -6.47,7.34 q -1.57,1.42 -2.12,2.59 c -1.07,2.26 -3.06,2.75 -3.85,5.21 q -0.84,2.6 -2.83,3.85 a 2.5,2.49 -6.4 0 0 -1.02,1.27 l -0.88,2.47 a 4,3.59 -20.8 0 1 -0.47,0.91 q -2.71,3.92 -3.59,5.43 c -1.07,1.83 -1.2,3.72 -2.44,4.99 -1.88,1.93 -3.16,5.18 -4.04,7.05 a 1.59,1.55 51 0 0 -0.1,1.11 l 0.68,2.44 a 0.65,0.65 0 0 1 -0.5,0.81 c -3.03,0.63 -3.38,4.65 -3.6,6.62 a 3.06,3.01 -25.6 0 1 -0.48,1.33 q -2.11,3.24 -2.81,11.3 -0.06,0.75 -1.53,3.5 a 4.45,4.33 -24.3 0 0 -0.37,0.94 q -1.41,5.46 -0.64,9.86 a 1.76,1.75 -35 0 1 -0.22,1.22 q -1.42,2.47 -0.71,4.77 1.61,5.21 -1.01,8.52 a 0.76,0.76 0 0 0 0.06,1.01 l 1.2,1.2 a 2.04,2.02 25.4 0 1 0.58,1.6 l -0.69,7.37 a 2.87,2.66 42.9 0 0 0.07,0.96 c 0.4,1.07 1.3,2.01 1.45,3.22 q 0.33,2.78 1,4.8 c 0.65,1.97 -0.27,4.38 0.15,6.16 a 3.14,3.13 14.6 0 0 0.97,1.65 l 0.76,0.68 a 2.49,2.45 -72.7 0 1 0.8,1.55 q 0.59,5.02 3.27,8.41 a 3.63,3.6 -70.1 0 1 0.72,1.56 q 0.33,1.62 0.67,2.28 4.51,8.81 7.48,13.63 a 1.32,1.32 0 0 0 2.08,0.22 l 0.18,-0.2 a 0.59,0.58 35.5 0 1 0.69,-0.11 q 0.96,0.52 1.75,1.92 a 0.26,0.26 0 0 1 -0.34,0.37 q -0.57,-0.26 -1.24,-0.23 a 0.52,0.52 0 0 0 -0.27,0.95 q 2.15,1.46 3.83,4.55 c 1.08,1.96 3.8,1.48 5.03,4.11 a 2.81,2.79 -89.8 0 0 1.3,1.32 q 3.91,1.92 4.37,2.61 2.37,3.61 5.01,4.76 7.22,3.14 8.21,3.73 6.45,3.87 7.74,4.29 a 4.04,3.94 51.3 0 0 1.55,0.19 l 2.45,-0.21 a 0.94,0.94 0 0 1 0.87,0.42 l 0.81,1.25 a 0.99,0.99 0 0 0 0.84,0.44 q 4.15,-0.09 10.2,2.13 2.52,0.93 5.06,-0.2 a 1.41,1.38 41.5 0 1 1.03,-0.05 q 4.88,1.69 11.81,1.42 0.6,-0.02 0.71,-0.23 0.27,-0.52 0.32,-0.54 a 0.84,0.83 56.5 0 1 0.96,0.2 c 1.4,1.59 3.26,0.12 4.88,0.11 q 3.02,-0.03 6.91,-0.85 a 6.24,6.16 -51.7 0 1 1.05,-0.13 q 6.72,-0.25 9.74,-1.41 6.83,-2.59 9.34,-2.74 c 1.99,-0.11 2.45,-1.9 4.34,-1.96 q 1.44,-0.05 3.46,-0.95 c 2.82,-1.26 5.66,-1.72 8.36,-4.69 a 2.38,2.36 17.8 0 1 1.49,-0.76 q 3.54,-0.39 5.25,-1.63 5.08,-3.69 6.76,-4.28 a 2.5,2.47 13.9 0 0 0.87,-0.52 q 3.1,-2.84 6.02,-4.32 a 6.47,5.97 -76.6 0 0 1.25,-0.84 c 3.51,-3.02 7.68,-5.16 10.28,-10.13 a 0.95,0.93 13.3 0 1 0.84,-0.51 h 1.94 a 1,0.99 13.9 0 0 0.88,-0.53 c 2.08,-3.97 8.21,-5.79 9.1,-11.87 a 1.03,1.01 -17.9 0 1 0.32,-0.61 l 5.62,-5.33 a 5.42,5.32 83.9 0 0 0.95,-1.2 l 1.95,-3.38 a 1.75,1.4 -90 0 1 0.28,-0.35 q 2.87,-2.61 3.33,-3.74 1.75,-4.25 2.63,-6.73 a 3.8,3.68 -16.4 0 1 0.65,-1.15 q 2.31,-2.76 3.24,-5.77 c 0.53,-1.7 1.74,-2.99 2.01,-4.54 0.43,-2.51 1.89,-4.14 2.64,-6.43 a 3.15,3.07 -38.5 0 0 0.14,-1.1 q -0.23,-4.58 3.05,-7.69 a 0.91,0.9 63.8 0 0 0.27,-0.81 l -0.52,-3.11 a 1.52,1.52 0 0 1 0.23,-1.09 q 1.86,-2.81 2.08,-5.61 0.43,-5.37 1.19,-8.35 c 0.44,-1.75 0.13,-4.85 0.4,-7.02 q 0.82,-6.67 0.44,-15.31 a 4.69,4.66 31.6 0 0 -0.42,-1.74 q -1.79,-3.96 -0.82,-9.12 a 1.65,1.63 -61.8 0 0 -0.43,-1.45 c -1.14,-1.19 -1.56,-1.83 -1.54,-3.32 q 0.05,-4.27 -1.89,-8.47 c -0.96,-2.07 -1.14,-3.4 -1.83,-5.99 a 8.42,8.38 24.3 0 0 -0.6,-1.58 q -2,-3.96 -2.91,-6.65 c -0.75,-2.22 -2.91,-3.05 -3.03,-5.56 a 2.1,2.02 25.8 0 0 -0.43,-1.16 q -9.58,-12.38 -11.6,-14.96 -2.53,-3.23 -6.78,-6.22 -3.22,-2.27 -6.99,-6.46 a 1.09,1 81.2 0 0 -0.3,-0.24 l -8.98,-4.96 a 2.09,2.07 -23.5 0 0 -0.44,-0.17 l -1.06,-0.18 a 4.44,4.43 -21.7 0 1 -1.87,-0.8 l -2.75,-2.03 a 1.54,1.16 64.3 0 0 -0.33,-0.17 l -7.19,-2.42 a 1.07,1.06 -6.8 0 1 -0.55,-0.43 l -0.84,-1.27 a 1.02,1 68.8 0 0 -1,-0.45 l -1.38,0.22 a 1.18,1.15 -45.7 0 1 -0.4,0.01 l -7.37,-0.94 a 7.33,7.21 58.7 0 1 -1.54,-0.39 l -7.51,-2.84 a 1.17,1.16 39.7 0 0 -1.03,0.09 c -2.06,1.26 -3.6,0.73 -5.85,0.36 -2.01,-0.34 -4.56,0.35 -6.24,0.1 q -1.74,-0.26 -3.36,0.22 -2.95,0.88 -5.68,0.35 a 1.39,1.37 31.7 0 0 -1.1,0.25 q -0.66,0.51 -1.1,1.7 a 0.2,0.17 -82.4 0 1 -0.13,0.12 q -0.14,0.04 -0.37,0.07 a 0.34,0.34 0 0 1 -0.38,-0.35"
           id="path4"
           style="stroke:#ff6600;stroke-width:2.66062;stroke-dasharray:none;stroke-opacity:1" /><path
           stroke="#777069"
           vector-effect="non-scaling-stroke"
           d="m 513.17,554.61 q -1.43,-5.12 -4.59,-9.42 a 1.57,1.55 30.6 0 1 -0.28,-1.06 l 0.14,-1.35 a 0.61,0.6 -88.4 0 0 -0.63,-0.68 q -1.16,0.07 -2.09,0.98 a 0.29,0.29 0 0 1 -0.49,-0.24 l 0.22,-1.98 a 1.18,1.15 32.8 0 0 -0.17,-0.73 q -3.97,-6.5 -8.39,-9.25 -5.74,-3.58 -6.56,-4.32 a 1.47,1.28 72.7 0 0 -0.44,-0.27 l -8.22,-3.18 a 2.09,0.27 13.9 0 0 -0.25,-0.08 l -15.72,-4.1 a 1.58,1.53 -47.7 0 0 -0.97,0.06 l -1.45,0.6 a 1.09,1.09 0 0 1 -0.54,0.08 l -6.35,-0.68 a 1.81,1.79 -52.9 0 0 -0.89,0.13 l -1.59,0.65 a 1.09,1.07 36.8 0 1 -0.52,0.07 l -4.46,-0.48 a 1.87,1.87 0 0 0 -0.89,0.12 c -3.28,1.28 -5.14,2.22 -7.96,1.25 a 0.53,0.53 0 0 0 -0.66,0.3 q -0.44,1.11 -1.11,1.7 a 1.08,1.07 -58.8 0 1 -0.96,0.24 q -3.03,-0.73 -4.05,-0.16 -3.8,2.14 -5.08,2.62 a 8.73,8.13 26.5 0 1 -1.15,0.34 l -4.57,1.01 a 2.73,2.65 -66.4 0 0 -0.88,0.36 q -4.96,3.15 -6.89,3.63 -3.18,0.79 -5,2.11 c -3.03,2.18 -6.59,3.8 -11.17,6.09 -5.77,2.88 -10.89,6.49 -16.98,10.61 q -0.46,0.32 -1.56,1.43 a 8.36,8.32 -82.8 0 1 -1.69,1.32 q -2.67,1.56 -4.94,3.76 c -1.54,1.49 -3.98,2.51 -5.2,3.83 q -5.01,5.42 -9.56,8.42 a 2.55,2.52 -5.3 0 0 -0.94,1.12 c -1.01,2.33 -3.37,2.24 -4.71,4.09 q -1.1,1.53 -6.67,7.27 -3.2,3.28 -3.63,4.04 c -1.5,2.59 -4.13,3.75 -5.79,6.54 a 2.63,2.56 86.5 0 1 -0.57,0.66 q -2.79,2.34 -5.37,6.66 a 5.54,5.46 87.8 0 1 -1.49,1.63 c -3.12,2.25 -4.09,5.73 -6.61,8.6 q -1.25,1.41 -2.36,3.74 a 3.66,3.61 83 0 1 -0.9,1.17 c -2.49,2.14 -3.92,5.78 -5.42,9.24 q -0.55,1.27 -2.54,3.66 c -3.2,3.86 -5.66,9.21 -7.41,13.47 a 8.64,8.23 74.6 0 1 -0.81,1.51 q -2.61,3.87 -4.13,8.86 c -0.62,2.04 -2.06,3.99 -2.29,5.64 q -0.26,1.96 -1.46,4.29 c -1.41,2.76 -1.04,5.1 -2.6,7.56 -1.4,2.22 -1.18,4.51 -2.61,6.8 q -0.85,1.38 -0.3,2.57 a 0.85,0.8 -53 0 1 0.06,0.53 l -2.75,13.18 a 1.47,1.12 -37.4 0 1 -0.06,0.22 q -0.76,1.83 -0.75,2.17 0.2,6.91 -0.71,13.45 -0.49,3.56 2.02,5.8 a 0.69,0.69 0 0 1 0.17,0.79 q -1.79,4.16 -1,9.45 0.65,4.33 2.75,9.15 a 4.67,4.48 28.5 0 1 0.31,0.97 c 0.84,4.13 1.13,7.18 3.32,9.91 a 3.23,3.2 19.7 0 1 0.62,1.3 c 1.08,4.85 4.66,8.4 7.02,12.38 a 4.25,4.14 -84.8 0 0 0.78,0.96 q 4.42,4.03 8.99,7.89 1.58,1.33 2.16,3.16 a 1.03,1.03 0 0 0 1.23,0.69 c 3.09,-0.79 4.19,0.91 6.42,3.21 a 2.91,2.9 -13.2 0 0 1.18,0.73 l 7.26,2.24 a 0.75,0.47 58.3 0 1 0.1,0.05 q 3.22,2.32 5.87,2.37 3.01,0.05 4.46,1.01 2.09,1.39 3.32,0.96 c 1.99,-0.71 3.07,-0.07 4.72,0.48 a 2.55,2.54 -48.2 0 0 1.88,-0.11 q 2.2,-1.01 5.4,-0.04 c 2.05,0.62 3.2,-0.19 4.8,-1.26 a 2.73,2.67 24.4 0 1 1.24,-0.45 c 1.51,-0.16 3.4,0.33 5.13,-0.3 q 1.19,-0.44 2.27,0.13 a 1.39,1.39 0 0 0 1.38,-0.07 l 1.99,-1.3 a 3.82,3.75 -65.4 0 1 1.57,-0.6 c 2.08,-0.29 3.57,-1.44 5.67,-2.08 q 8.25,-2.49 16.38,-7.74 3.6,-2.33 7.68,-4.69 a 11.41,11.39 8.6 0 0 2.05,-1.51 q 3.01,-2.8 6.84,-4.87 a 6.44,6.38 -80.5 0 0 1.32,-0.95 c 4.8,-4.5 11.31,-8.93 14.83,-14.39 a 2.34,2.24 -89.2 0 1 0.65,-0.66 l 3.25,-2.12 a 5.46,5.26 -87.4 0 0 1.36,-1.29 l 7.8,-10.58 a 0.74,0.57 -79.1 0 1 0.18,-0.16 q 3.53,-2.13 6.19,-6.11 c 1.5,-2.26 2.5,-4.59 4.26,-6.77 q 2.44,-3.01 7.74,-9.98 a 4.52,4.23 -16.5 0 0 0.5,-0.85 l 1.16,-2.65 a 3.23,3 -16.4 0 1 0.38,-0.64 l 4.03,-5.31 a 0.43,0.42 59.5 0 1 0.76,0.2 q 0.27,1.91 -0.04,4.83 a 2.73,2.71 -51.6 0 0 0.13,1.15 q 0.25,0.71 1,1.67 c 2.65,3.38 0.72,7.26 1.45,10.22 a 4.36,4.36 0 0 0 0.55,1.29 c 1,1.57 1.59,2.2 1.86,4.13 q 0.47,3.34 0.87,5.2 a 2.87,2.74 -68.9 0 0 0.39,0.94 l 4.86,7.42 a 2.34,1.71 -81.1 0 1 0.19,0.37 q 2.96,7.1 4.27,8.39 5.86,5.78 10.63,11.22 0.34,0.38 4.34,2.55 a 0.99,0.96 -7.2 0 1 0.28,0.21 l 1.91,1.9 a 3.06,3.03 79 0 0 0.94,0.64 l 9.8,4.31 a 1.52,1.5 -44.2 0 0 1.19,0.01 l 0.7,-0.29 a 0.93,0.91 55 0 1 0.96,0.18 q 3.1,2.88 7.26,1.94 a 2.02,2 -34.8 0 1 1.54,0.27 c 2.18,1.42 3.61,0.81 6.05,0.54 a 4.23,4.19 49.3 0 1 1.52,0.12 q 4,1.07 7.35,-0.84 a 1.55,1.5 -54.8 0 1 0.95,-0.18 q 3.6,0.5 7.69,-1.84 a 0.98,0.64 11.6 0 1 0.2,-0.08 l 3.51,-0.79 a 1.1,1.05 24.6 0 0 0.32,-0.11 l 7.42,-3.51 a 1.61,1.56 -47 0 1 1.21,-0.06 l 0.55,0.2 a 0.95,0.94 34.6 0 0 0.92,-0.16 l 5.39,-4.36 a 2.92,2.75 11.2 0 1 0.59,-0.37 l 3.46,-1.56 a 3.12,3.07 4.7 0 0 1.29,-1.08 q 2.16,-3.18 5.12,-5.38 a 4.91,4.86 -5.9 0 0 1.5,-1.83 q 0.78,-1.63 2.64,-3.97 c 3.34,-4.17 5.06,-9.79 4.67,-14.95 a 1.2,0.94 58.3 0 0 -0.03,-0.16 l -2.39,-7.31 a 0.49,0.46 -76.5 0 0 -0.09,-0.16 c -2.1,-2.48 -4.16,-4.83 -7.4,-5.49 q -1.81,-0.37 -3.45,-1.17 a 2.75,2.73 -36.5 0 0 -1.64,-0.24 c -2.29,0.38 -3.33,1.06 -5.91,1.11 q -2.92,0.05 -5.19,2.49 a 0.97,0.96 -59.1 0 1 -1.03,0.26 l -1.73,-0.62 a 1.49,1.49 0 0 0 -1.22,0.09 q -5.49,3 -5.71,3.13 c -5.2,3.06 -11.16,3.33 -16.63,1.35 a 2.62,2.48 73.2 0 1 -0.77,-0.44 l -5.62,-4.62 a 0.93,0.92 27.3 0 1 -0.31,-0.95 q 0.06,-0.27 0.32,-0.76 0.17,-0.33 -0.5,-1.26 c -3.39,-4.66 -5.31,-10.76 -5.5,-16.67 q -0.03,-0.99 -1.22,-5.84 -3.15,-12.76 -2.02,-25.77 a 1.25,1.19 43.5 0 0 -0.02,-0.38 l -1.45,-7.4 a 1.81,1.73 -50.7 0 1 -0.04,-0.53 l 0.52,-9.43 a 4.88,4.78 41.2 0 0 -0.1,-1.31 l -0.95,-4.42 a 1.99,1.95 -42.3 0 1 0.06,-1.03 c 1.34,-3.96 2.8,-6.81 1.45,-10.12 q -0.2,-0.51 -0.45,-1.65 a 2.24,2.22 -41.6 0 1 0.08,-1.24 q 1.13,-3.12 0.56,-6.06 a 6.14,6.04 -46 0 1 -0.02,-2.19 c 0.69,-4.08 1.57,-6.36 0.06,-9.54 a 2.43,2.39 -48.3 0 1 -0.09,-1.83 l 2.19,-6.12 a 1.37,1.35 46.7 0 0 0.02,-0.85 l -1.24,-3.84 a 1.82,1.8 46.2 0 1 0.02,-1.17 l 1.04,-2.91 a 4.61,4.58 -36.9 0 0 0.26,-1.79 l -0.39,-6.88 a 2.51,2.35 -43.2 0 1 0.04,-0.62 l 0.41,-1.93 a 2.77,2.76 -52.4 0 0 -0.23,-1.78 q -0.61,-1.24 -0.68,-3.24 c -0.09,-2.6 -0.79,-4.13 -1.63,-6.46 a 2.58,2.45 37.6 0 1 -0.15,-0.96 q 0.08,-2.09 -1.69,-8.38"
           id="path5"
           style="stroke:#ff6600;stroke-width:2.66062;stroke-dasharray:none;stroke-opacity:1" /><path
           stroke="#777069"
           vector-effect="non-scaling-stroke"
           d="m 939.74,653.92 0.51,5.11 a 0.79,0.79 0 0 0 0.21,0.45 l 3.04,3.04 a 0.93,0.92 24.7 0 1 0.27,0.72 q -0.05,0.83 -0.64,2.17 a 2.47,2.46 -49.9 0 0 0.2,2.35 l 8.27,12.64 a 1.84,1.83 88.3 0 0 0.62,0.59 l 8.88,5.12 a 2.14,2.13 -38.7 0 0 1.75,0.19 q 2.01,-0.63 3.65,0.97 0.43,0.42 0.97,0.19 0.44,-0.19 0.74,-0.86 a 0.48,0.48 0 0 1 0.73,-0.18 q 1.08,0.87 4.5,1.74 a 1.64,1.63 -15.4 0 1 0.76,0.43 l 0.75,0.75 a 0.77,0.77 0 0 0 0.99,0.08 q 4.86,-3.55 11.29,-2.49 1.22,0.2 4.49,-1.43 a 0.92,0.92 0 0 1 0.96,0.09 l 0.44,0.33 a 0.62,0.62 0 0 0 0.88,-0.17 q 1.86,-2.89 5.78,-4.25 a 1.46,1.39 -46.4 0 1 0.84,-0.04 l 1.34,0.35 a 1.1,1.08 -55.4 0 0 0.94,-0.18 c 1.72,-1.28 3.81,-1.66 5.61,-3.47 q 1.28,-1.29 3.8,-1.62 a 1.43,1.43 0 0 0 0.73,-0.31 l 11.85,-9.77 a 0.37,0.28 -10.9 0 0 0.08,-0.09 l 4.88,-6.42 a 3,3 0 0 1 1.38,-1.01 q 1.84,-0.66 2.96,-1.56 a 2.92,2.92 0 0 0 0.74,-0.89 q 2.6,-4.67 6.83,-10.75 0.69,-0.99 1.03,-3.66 a 2.1,2.08 -20.8 0 1 0.52,-1.14 q 1.81,-2.07 2.56,-4.89 c 0.62,-2.39 2.39,-4.52 3.35,-6.57 a 1.92,1.92 0 0 0 0.18,-1.01 q -0.41,-5.37 2.39,-10.52 a 1.21,1.2 -34.9 0 0 0.13,-0.72 l -0.41,-2.84 a 3.01,2.71 -45.6 0 1 0.04,-0.95 q 0.71,-3.28 1.8,-7.43 0.31,-1.2 -0.68,-4.04 a 5.47,5.46 -50.8 0 1 -0.25,-2.5 q 0.41,-2.91 -0.59,-4.88 a 2.14,2.12 -50.5 0 1 -0.14,-1.54 c 0.94,-3.2 -0.67,-5.23 -1.65,-8.04 q -1.89,-5.42 -3.38,-8.67 -0.87,-1.89 -4.17,-6.55 a 1.54,1.16 84 0 0 -0.27,-0.29 l -5.99,-5.07 a 3.48,3.24 -8.5 0 0 -0.54,-0.37 c -3.69,-1.93 -5.68,-2.53 -8.06,-4.5 a 2.55,2.49 71.3 0 0 -1.04,-0.53 l -7.35,-1.82 a 0.32,0.3 73.5 0 1 -0.17,-0.1 q -0.3,-0.36 -0.94,-0.75 a 1.24,1.24 0 0 0 -1.11,-0.1 l -2.2,0.9 a 1.99,1.92 -49.4 0 1 -1.14,0.11 q -1.87,-0.4 -6.68,-0.63 c -0.79,-0.04 -1.11,-0.72 -1.64,-0.89 a 0.82,0.82 0 0 0 -0.94,0.34 q -2.96,4.67 -8.69,2.48 a 1.38,1.37 43.7 0 0 -1.01,0.02 l -3.91,1.59 a 1.1,1.09 -10.3 0 0 -0.67,0.96 c -0.15,3.01 -0.4,4.71 -2.74,6.95 q -1.97,1.9 -2.74,3.01 a 0.63,0.62 30.8 0 1 -0.8,0.2 q -0.49,-0.25 -1.06,-1.54 a 0.57,0.56 -24.4 0 0 -0.76,-0.28 q -2.54,1.18 -6.22,4.84 -0.46,0.44 -2.97,1.63 a 2.01,2 4.1 0 0 -0.82,0.71 q -0.96,1.47 -1.03,4.3 a 0.93,0.92 -10.5 0 1 -0.57,0.82 q -0.3,0.12 -1.61,-0.04 a 0.95,0.93 18.3 0 0 -0.94,0.46 q -3.43,5.93 -8.4,11.75 c -1.93,2.25 -2.44,4.82 -4.69,6.83 a 2.51,2.46 -9.5 0 0 -0.64,0.88 l -2.11,4.8 a 0.78,0.66 -13.8 0 1 -0.18,0.25 l -1.25,1.19 a 2.02,2.02 0 0 0 -0.45,0.65 l -4.11,9.3 a 2.91,2.64 -28.2 0 0 -0.16,0.45 l -0.87,3.72 a 1.57,1.51 70.5 0 1 -0.24,0.53 l -1.89,2.73 a 1.03,1.01 -39.1 0 0 -0.11,0.97 l 1.07,2.62 a 1.57,1.57 0 0 1 -0.34,1.71 l -3.46,3.46 a 1.34,1.34 0 0 0 0.42,2.18 c 2.92,1.23 0.33,5.8 -0.48,7.85 a 2.02,2.01 -43.6 0 0 -0.04,1.35 c 0.94,2.9 2.14,5.08 -0.05,7.93 a 0.83,0.8 61.7 0 0 -0.16,0.57"
           id="path6"
           style="stroke:#ff6600;stroke-width:2.66062;stroke-dasharray:none;stroke-opacity:1" /><path
           stroke="#777069"
           vector-effect="non-scaling-stroke"
           d="m 892.8211,674.0807 a 1.24,0.45 -88.1 0 0 -0.4909,1.2244 1.24,0.45 -88.1 0 0 0.4087,1.2542 1.24,0.45 -88.1 0 0 0.4909,-1.2244 1.24,0.45 -88.1 0 0 -0.4087,-1.2542"
           id="path7"
           style="stroke:#ff6600;stroke-width:2.66062;stroke-dasharray:none;stroke-opacity:1" /><path
           stroke="#777069"
           vector-effect="non-scaling-stroke"
           d="m 341.4,686.88 c -1.08,1.63 1.13,2.51 0.16,4.45 q -1.57,3.1 -2.14,6.28 a 3.39,3.28 41.5 0 0 0.13,1.7 q 1.51,4.45 -0.81,8.06 a 1.02,1.02 0 0 0 -0.01,1.09 q 1.79,2.86 0.85,6.43 a 1.41,1.39 -44.6 0 0 -0.01,0.64 l 1.9,8.89 a 1.12,1.09 -80.3 0 0 0.46,0.67 l 0.81,0.53 a 3.69,3.65 5.4 0 1 1.43,1.71 l 0.83,2.04 a 3.88,3.83 -85.1 0 0 1.46,1.76 c 4.77,3.06 10.54,2.38 14.89,-0.15 q 3.54,-2.06 5.59,-1.94 a 1.26,1.25 -64.1 0 0 0.91,-0.32 l 2.63,-2.34 a 2.51,2.34 -75.3 0 1 0.71,-0.45 l 5.68,-2.32 a 2.04,1.98 7.9 0 0 0.76,-0.56 l 2.96,-3.48 a 2.48,2.45 -79.1 0 1 1.08,-0.74 q 2.61,-0.93 3.23,-1.7 c 3.34,-4.19 7.35,-7.29 10.55,-11.5 q 0.7,-0.92 4.81,-4.41 a 5.63,5.49 -6.1 0 0 1.26,-1.52 q 1.1,-1.98 4.58,-5.31 3.36,-3.22 5.81,-8.73 a 0.51,0.25 -81.9 0 1 0.09,-0.13 l 2.78,-2.78 a 2.24,1.67 -87 0 0 0.24,-0.29 q 8.8,-12.98 11.39,-18.06 1.37,-2.68 2.12,-3.27 a 2.19,2.18 78.6 0 0 0.74,-1.12 c 0.89,-3.22 1.36,-5.25 4.15,-8.52 a 5.28,5 82.1 0 0 0.47,-0.66 q 3.07,-5.07 4.33,-8.88 a 9.05,9.02 -19.2 0 1 1.05,-2.16 q 2.44,-3.64 4.1,-8.23 c 0.27,-0.77 1.11,-1.62 1.9,-1.81 a 0.6,0.59 -10.6 0 0 0.45,-0.64 l -0.15,-1.32 a 1.54,1.52 57.9 0 1 0.22,-0.98 q 0.21,-0.34 0.95,-2.89 0.21,-0.75 1.18,-2.81 3.25,-6.96 5.27,-13.41 0.16,-0.52 1.22,-2.12 a 7.71,7.5 69.1 0 0 1.03,-2.39 q 1.61,-6.76 3.8,-10.04 a 2.64,2.64 0 0 0 0.42,-1.93 q -0.47,-2.83 1.37,-5.21 a 1.33,1.31 59.8 0 0 0.26,-1.02 c -0.39,-2.44 0.8,-5.27 1.88,-8.39 a 6.21,6.14 55.6 0 0 0.32,-1.77 l 0.21,-7.02 a 2.71,2.7 -77.4 0 0 -1.61,-2.55 c -3.2,-1.45 -7.58,0.24 -10.85,0.41 a 3.02,2.95 -63.7 0 0 -1.62,0.57 q -1.62,1.16 -3.77,1.48 c -3.25,0.49 -4.69,1.5 -7.59,3.06 q -1.11,0.59 -4.71,1.37 a 3.83,3.77 -70.9 0 0 -1.66,0.82 q -3.14,2.65 -6.07,3.81 -2.17,0.85 -3.68,2.52 -0.92,1.02 -4,2.85 -6.66,3.96 -16.27,12.78 -1.67,1.52 -3.41,2.95 c -4.26,3.49 -8.25,8.19 -10.82,10.71 -2.63,2.58 -4.78,5.97 -7.65,8.49 a 5.02,4.93 87 0 0 -0.84,0.95 q -3.96,5.86 -7.38,8.75 a 3.17,3.14 81.9 0 0 -0.89,1.2 q -1.34,3.26 -3.94,5.79 a 3.73,3.49 -9.4 0 0 -0.69,0.9 q -0.4,0.72 -6.26,9.49 c -1.39,2.08 -2.3,4.55 -3.14,6.06 a 3.03,2.98 -7.3 0 1 -0.77,0.98 l -1.29,1.08 a 1.87,1.87 0 0 0 -0.61,0.93 q -0.97,3.34 -1.3,3.92 -6.48,11.45 -9.9,24.4 a 3.23,3.18 -37.4 0 0 -0.1,0.71 q -0.06,2.48 -1.48,4.64"
           id="path8"
           style="stroke:#ff6600;stroke-width:2.66062;stroke-dasharray:none;stroke-opacity:1" /></g><path
         fill="#1c1c20"
         d="m 756.56,642.08 q 0.24,-0.83 -0.48,-3.11 a 4.93,3.15 67.2 0 0 -0.25,-0.65 q -0.29,-0.67 0.86,-6.79 0.44,-2.39 -0.03,-14.21 a 6.4,6.28 49.2 0 1 0.08,-1.23 q 0.41,-2.51 0.32,-5.67 a 0.88,0.77 -41.1 0 1 0.03,-0.22 l 1.12,-3.84 a 1.36,1.35 -44.6 0 0 0.01,-0.74 q -1.12,-4.06 0.22,-9.1 a 1.8,1.79 44.7 0 0 -0.01,-1 q -1.36,-4.54 -0.16,-7.22 1.99,-4.39 1.22,-7.4 c -0.68,-2.62 -0.22,-5.18 0.63,-6.87 a 3.25,3.23 54.4 0 0 0.31,-1.9 q -0.23,-1.79 0.48,-4.37 a 5.07,4.94 50.6 0 0 0.16,-1.88 c -0.43,-4.36 -0.98,-6.56 2.01,-10.36 a 1.06,1.05 53.3 0 0 0.15,-1.05 l -0.62,-1.5 A 1.98,1.95 37.8 0 1 762.48,552 l 1.35,-12.67 a 1.51,1.42 -25.7 0 1 0.27,-0.7 l 0.51,-0.69 a 0.75,0.7 -30.6 0 0 0.14,-0.48 q -0.65,-6.94 0.63,-11.37 0.87,-2.99 0.83,-5.24 -0.04,-2.83 1.01,-5.23 c 0.28,-0.64 0.04,-1.27 -0.17,-1.88 a 1.71,1.64 -49.9 0 1 -0.06,-0.95 q 1.69,-7.73 1.64,-9.79 -0.1,-4.24 0.28,-5.29 c 1.44,-3.9 0.52,-8.7 2.16,-12.21 a 1.39,1.35 -41 0 0 0.08,-0.96 c -0.38,-1.28 0.69,-2.97 0.54,-4.72 q -0.33,-3.74 1.66,-7.97 a 1.12,1.11 -50.8 0 0 -0.11,-1.13 l -0.46,-0.65 A 1.04,1.02 -50.5 0 1 772.69,469 c 0.82,-1.64 1.52,-3.32 1.36,-5.45 q -0.2,-2.54 0.86,-4.68 a 4.25,4.18 56.8 0 0 0.44,-2.19 q -0.24,-3.46 0.58,-7.82 c 0.45,-2.38 2.63,-2.9 1.48,-6.14 -0.92,-2.59 0.61,-4.87 2.12,-8.01 a 1.19,1.18 44.7 0 0 -0.01,-1.06 l -0.57,-1.12 a 1.77,1.71 -55.8 0 1 -0.17,-0.98 q 0.38,-2.89 1.5,-5.1 a 3.71,3.6 -32.9 0 0 0.38,-1.66 l -0.11,-5.74 a 1.44,1.34 -36.6 0 1 0.09,-0.49 l 1.76,-4.46 a 1.58,1.53 -42.1 0 0 0.06,-0.91 q -0.4,-1.64 0.32,-3.7 c 0.65,-1.87 -0.12,-2.94 0.18,-4.68 q 0.67,-3.89 0.36,-6.23 a 1.33,1.32 60 0 1 0.25,-0.94 l 1.13,-1.54 a 3.07,2.98 -23.3 0 0 0.56,-1.35 q 0.77,-5.2 1.69,-8.15 0.65,-2.07 0.43,-4.32 c -0.26,-2.65 0.22,-5.02 1.51,-7.27 q 0.69,-1.21 0.84,-1.79 a 2.91,2.81 51.6 0 0 0.09,-0.92 q -0.2,-3.03 0.68,-5.63 0.91,-2.67 0.78,-3.76 c -0.14,-1.23 0.81,-3.18 0.97,-5.08 q 0.71,-8.16 6.7,-14.2 c 1.82,-1.83 4.48,-3.06 6.82,-4.89 q 2.58,-2.01 5.5,-0.63 a 0.91,0.91 0 0 0 0.94,-0.09 l 1.85,-1.34 a 0.88,0.87 39.5 0 1 0.87,-0.08 c 1.41,0.66 5.33,2.88 7.48,1.74 a 0.89,0.88 -36.5 0 1 1.04,0.15 l 1.69,1.7 a 1.3,1.29 73.2 0 0 0.61,0.33 c 4.33,0.98 6.15,3.25 8.75,6.75 a 1.16,1.16 0 0 0 1.14,0.45 q 0.03,0 0.07,-0.01 a 0.77,0.77 0 0 1 0.95,0.44 l 3.91,9.56 a 0.62,0.52 -61.8 0 1 0.05,0.24 q 0.01,1.17 1.15,7.23 c 1.18,6.25 -0.28,13.84 -2.61,19.26 a 1.53,1.51 -37.9 0 0 -0.11,0.85 l 0.51,3.49 a 4.91,4.8 -41.7 0 1 -0.14,2.04 q -1.46,5 -1.35,5.99 0.3,2.75 -0.18,5.55 -0.33,1.91 -1.25,11.26 -0.12,1.24 -1.86,6.79 a 4.21,4.16 -40.8 0 0 -0.15,1.91 q 0.43,2.77 -0.96,5.9 c -0.72,1.6 -0.31,3.18 -0.01,5.04 a 0.9,0.88 -39.8 0 1 -0.05,0.47 l -0.9,2.3 a 4.24,4.15 -30.3 0 0 -0.22,0.8 l -1.95,11.95 a 2,1.7 -48.5 0 0 -0.01,0.51 c 0.41,2.97 -0.86,4.94 -1.09,7.79 q -0.29,3.76 -1.6,6.41 a 1.36,1.31 -40.9 0 0 -0.09,0.98 q 0.87,2.95 -0.32,6.76 -0.8,2.53 -0.78,4.65 c 0.03,3.92 -0.58,6.78 -1.1,10.2 a 2.29,2.27 -18.3 0 1 -0.66,1.3 l -0.84,0.84 a 0.94,0.92 -34.2 0 0 -0.2,1 l 0.97,2.37 a 0.89,0.87 44.6 0 1 0.01,0.64 q -1.38,3.86 -1.74,5.63 -0.17,0.86 0.3,4.55 a 1.18,1.17 69.1 0 1 -0.48,1.09 l -0.54,0.4 a 1.37,1.37 0 0 0 -0.55,1.26 l 0.26,2.18 a 14.44,14.32 46.6 0 1 -0.1,4.2 l -2.1,12.13 a 0.34,0.34 0 0 0 0.03,0.21 l 0.53,1.3 a 2.8,2.71 40.4 0 1 0.15,1.57 c -0.47,2.35 -1.08,4.06 -0.95,6.66 0.11,2.45 -2.62,4.63 -1.83,6.7 q 0.88,2.29 0.65,4.86 c -0.21,2.3 -2.34,7.41 -1.92,10.47 q 0.31,2.24 -0.69,4.21 a 1.11,1.11 0 0 0 0.15,1.22 c 1.45,1.72 -0.07,6.71 -1.33,7.93 a 0.49,0.49 0 0 0 0.03,0.73 c 1.92,1.57 -0.08,4.97 -0.73,7.3 a 0.71,0.6 54.5 0 0 -0.02,0.23 l 0.3,9.42 a 1.25,1.24 -19.3 0 1 -0.51,1.04 l -0.99,0.72 a 1.04,1.04 0 0 0 -0.39,1.14 l 0.7,2.3 a 1.53,1.46 -45.7 0 1 -0.01,0.91 q -0.74,2.31 -0.74,5.71 a 7.42,7.28 53.2 0 1 -0.26,1.94 l -0.59,2.21 a 1.62,1.59 -49.4 0 0 0.07,1.03 q 1.36,3.18 0.16,6.46 -0.29,0.77 -0.98,2.64 a 2.75,2.75 0 0 0 -0.03,1.81 c 0.56,1.75 0.92,2.95 0.3,4.82 q -1.08,3.24 -1.1,8.11 a 2.81,2.8 32.4 0 0 0.27,1.2 q 1.09,2.31 -0.32,4.59 a 1.63,1.63 0 0 0 -0.21,1.16 q 0.67,3.43 -0.47,8.31 a 1.48,1.48 0 0 0 0,0.68 l 0.5,2.18 a 0.9,0.84 43.2 0 1 0.02,0.32 l -1.38,11.15 a 0.35,0.31 41.4 0 0 0.01,0.08 q 0.32,0.87 0.88,7.2 c 0.3,3.32 -1.75,5.9 0.68,9.08 a 1.81,1.76 -62.3 0 1 0.35,1.18 q -0.1,1.46 -0.49,3.08 c -0.54,2.23 -0.09,3.53 0.67,5.89 0.39,1.24 0.23,1.82 -0.26,2.85 a 1.12,1.11 -50.8 0 0 0.11,1.13 l 1.96,2.7 a 0.88,0.87 -17.6 0 0 0.71,0.36 h 7.33 a 4.15,4.14 24 0 0 2.77,-1.06 q 4.39,-3.95 9.85,-4.93 a 1.13,1.09 -76 0 0 0.67,-0.42 l 2.03,-2.75 a 2.69,2.63 5.3 0 1 1.05,-0.85 c 1.46,-0.67 3.86,-1.2 5.32,-2.19 q 5.04,-3.41 10.24,-4.51 a 2.15,2.07 -43.3 0 1 0.93,0.01 q 0.98,0.23 1.55,1.65 a 0.62,0.62 0 0 0 0.94,0.27 l 0.95,-0.69 a 1.53,1.52 -57.1 0 1 1.19,-0.26 q 8.49,1.78 11.67,10.14 0.47,1.23 -0.38,3.94 a 0.79,0.78 -66.8 0 0 0.37,0.93 q 0.48,0.26 0.76,0.7 a 1.54,1.52 -57.9 0 1 0.22,0.98 q -0.68,6.18 -1.61,7.61 -1.98,3.01 -3.95,7.52 -0.73,1.68 -2.39,3.03 a 1.09,1.07 75.7 0 0 -0.37,0.64 q -0.13,0.74 -0.38,1 -3.19,3.41 -5.81,6.74 a 8.89,8.81 -88.9 0 1 -1.62,1.57 q -2.41,1.77 -3.74,3.8 a 4.67,4.53 -1.9 0 1 -1.14,1.18 q -5.94,4.25 -8.02,5.53 c -2.62,1.62 -4.45,4.76 -8.11,4.32 a 1.27,1.26 21.1 0 0 -1.16,0.51 l -1.03,1.39 a 1.36,1.35 12 0 1 -0.79,0.51 q -1.58,0.36 -7.57,2.6 -3.46,1.29 -6.4,1.01 -1.6,-0.16 -3.02,0.76 c -3.37,2.2 -4.72,1.83 -7.31,0.12 q -1.37,-0.9 -2.57,0.43 a 1.15,1.15 0 0 1 -0.97,0.37 c -4,-0.42 -6.88,-1.53 -10.44,-3.27 -2.05,-1 -4.71,-0.29 -6.25,-2.22 q -0.41,-0.51 -2.56,-1.87 -2.7,-1.7 -5.35,-3.38 a 5.6,5.6 0 0 1 -1.66,-1.61 q -1.97,-2.87 -4.83,-5.41 a 1.6,1.12 81.6 0 1 -0.17,-0.18 l -3.59,-4.69 a 7.06,6.92 16 0 1 -0.96,-1.69 c -1.75,-4.36 -4.85,-9.06 -5.94,-13.67 q -1.39,-5.93 -1.37,-6.81 c 0.08,-3.18 -1.93,-7.14 -1.8,-10.86 0.08,-2.2 -1.45,-3.47 -1.05,-5.94 0.48,-2.94 -0.22,-6.43 -0.05,-8.67 a 2.43,2.42 -54 0 0 -0.17,-1.08 c -0.89,-2.13 -0.11,-4.54 -0.46,-6.88 q -0.71,-4.67 0.52,-7.96 a 2.12,2.11 47.7 0 0 0.06,-1.3 q -1.63,-6.21 0.22,-12.49 z"
         id="path10"
         style="fill:#ff6600;stroke:#ff6600;stroke-width:2.66062;stroke-dasharray:none;stroke-opacity:1" /><path
         fill="#1c1c20"
         d="m 676.97,447.58 c 0.08,0.68 0.68,1.63 0.69,2.6 q 0.08,5.55 -1.75,11.68 -0.6,2 0,9.64 0.11,1.32 -1.38,6.93 a 9.46,9.18 53.6 0 0 -0.32,2.35 q -0.05,6.44 -1.35,11.7 a 6.36,6.28 48.9 0 0 -0.14,2.23 q 0.71,6.21 -0.85,11.05 a 2.4,2.35 -44.3 0 0 -0.03,1.3 q 0.43,1.67 -0.7,3.13 a 1.53,1.52 -30.2 0 0 -0.3,1.12 l 0.22,1.69 a 4.41,4.21 49.6 0 1 -0.09,1.57 c -0.91,3.8 -0.13,5.22 0.2,8.28 a 0.99,0.94 55.5 0 1 -0.08,0.51 l -2.13,4.85 a 1.23,1.21 48 0 0 -0.04,0.88 q 1.24,3.84 0.66,8.96 c -0.2,1.73 -1.26,3.28 -1.62,4.9 a 2.6,2.55 -50.3 0 0 0.13,1.55 q 2.3,5.56 -1.52,9.73 a 1.95,1.95 0 0 0 -0.32,2.16 q 1.16,2.39 0.46,5.35 a 2.02,2.01 -53.5 0 0 0.22,1.49 c 1.18,2.05 0.13,3.53 -0.01,5.58 q -0.92,12.96 -0.96,14.22 c -0.08,3.03 -0.97,5.76 -0.53,8.59 0.15,1 -0.54,1.77 -0.56,2.56 a 1.51,1.48 -63.4 0 0 0.3,0.93 c 2.08,2.77 -0.85,3.99 -0.95,6.16 a 3.52,3.31 43.2 0 0 0.05,0.78 q 1.65,8.36 -1.45,16.02 a 1.52,1.52 0 0 0 -0.06,0.96 q 1.56,5.95 0.93,10.46 c -0.59,4.17 -0.09,6.4 -0.33,10.47 a 4.63,4.38 -51 0 0 0.09,1.16 q 0.97,4.84 -0.44,9.28 a 1.98,1.92 -41.4 0 0 -0.07,0.89 c 0.24,1.8 1.01,3.7 0.8,5.67 q -0.3,2.9 0.38,5.7 a 2.68,2.64 48.4 0 1 -0.08,1.53 l -0.69,1.93 a 1,0.97 39.9 0 0 0.09,0.85 q 1.88,3.07 0.76,6.01 -0.63,1.65 -0.68,1.97 a 1.54,1.53 35.4 0 0 0.16,0.93 q 1.61,3.16 1.41,4.15 -0.68,3.49 -0.67,5.72 a 2.16,2.16 0 0 0 0.62,1.49 l 0.41,0.4 a 2.8,2.78 -72.9 0 1 0.75,1.43 c 0.82,4.21 2.25,9.41 5.21,12.64 a 2.58,2.57 59.7 0 0 2.69,0.71 l 9.36,-3.02 a 1.8,1.59 14.9 0 0 0.44,-0.22 l 4.36,-3.17 a 3.86,3.83 -67 0 1 1.66,-0.68 l 1.56,-0.25 a 0.94,0.92 4.7 0 0 0.73,-0.61 l 0.31,-0.87 a 1.68,1.67 83.6 0 1 0.64,-0.81 c 2.58,-1.71 4.53,-3.78 7.26,-5.5 2.78,-1.74 5.43,-5.15 8.84,-5.91 3.2,-0.71 4.45,-1.46 7.5,-2.57 a 1.74,1.73 -47 0 1 1.03,-0.04 q 4.09,1.06 4.64,1.4 2.81,1.74 4.46,1.1 a 0.72,0.72 0 0 1 0.91,0.37 c 0.21,0.47 0.3,1.23 0.73,1.73 2.28,2.66 4.75,6.27 4.82,10.04 a 1.77,1.77 0 0 0 0.44,1.14 q 0.84,0.94 1.08,1.8 a 1.69,1.65 48.1 0 1 -0.04,0.98 l -3.9,10.92 a 3.9,3.88 -11.2 0 1 -1.05,1.56 q -2,1.84 -3.4,5.85 a 1.71,1.55 9.8 0 1 -1.63,1.03 q -0.64,-0.02 -1.11,0.28 -0.31,0.2 -0.52,1.06 -0.37,1.46 -0.87,2.32 a 2.33,2.32 88.1 0 1 -0.68,0.73 q -4.67,3.28 -8.13,7.04 a 5.73,5.69 3.6 0 1 -0.88,0.77 q -3.23,2.27 -5.54,5.2 a 0.96,0.95 16.5 0 1 -0.69,0.37 q -0.76,0.06 -1,-0.69 a 0.6,0.6 0 0 0 -1.13,-0.06 c -0.93,2.22 -2.01,2.55 -3.69,3.82 q -6.09,4.58 -12.48,6.83 a 2,1.97 12.5 0 0 -0.75,0.47 l -0.92,0.92 a 0.84,0.82 32.2 0 1 -0.87,0.19 l -1.24,-0.44 a 0.51,0.49 42 0 0 -0.35,0.01 q -7.61,3.27 -16.54,3.91 a 1.51,1.5 52.7 0 1 -0.66,-0.09 l -2.61,-0.93 a 1.14,1.13 -50.2 0 0 -0.96,0.09 q -2.49,1.48 -5.64,0.39 -5.77,-2.01 -10.19,-3.63 c -2.09,-0.77 -3.07,-1.74 -3.97,-3.65 a 1.43,1.43 0 0 0 -1.83,-0.71 l -1.54,0.63 a 0.82,0.8 -33.2 0 1 -0.89,-0.18 l -5.54,-5.54 a 0.47,0.47 0 0 0 -0.42,-0.12 q -1.1,0.25 -1.49,0.13 a 0.81,0.8 5 0 1 -0.58,-0.68 q -0.17,-1.45 -0.69,-2.52 a 2.02,1.97 -85.4 0 0 -0.58,-0.7 q -5.49,-4.24 -7.06,-9.95 A 5.19,5.17 -70.7 0 0 622,720.27 l -1.95,-2.68 a 3.62,3.6 27.1 0 1 -0.69,-2.12 v -1.03 a 3.34,3.34 0 0 0 -0.72,-2.07 c -2.24,-2.82 -4.17,-8.35 -3.7,-12.35 0.23,-1.97 -1.27,-3.78 -1.45,-6.06 q -0.24,-3.04 -1.05,-5.78 a 4.37,4.34 -51.4 0 1 -0.16,-1.49 q 0.24,-3.36 -0.58,-7.31 c -0.59,-2.86 0.3,-4.72 -0.6,-7.69 -0.39,-1.28 0.38,-2.9 0.19,-4.26 q -0.37,-2.78 -0.99,-6.15 a 5.83,5.13 -53.8 0 1 -0.09,-1 q 0.16,-20.55 0.22,-21.94 0.11,-2.16 0,-2.82 -0.25,-1.57 -0.12,-4.36 0.14,-2.81 -0.15,-4.32 c -0.45,-2.32 0.58,-4.74 0.31,-7.12 q -0.31,-2.61 0.12,-5.41 c 0.52,-3.44 -0.37,-7.5 0.72,-11.21 a 4.24,4.13 51.4 0 0 0.16,-1.62 c -0.29,-3.17 -0.59,-7.39 0.85,-10.99 a 0.81,0.79 32 0 0 -0.22,-0.9 q -1.56,-1.39 -0.06,-3.56 a 1.22,1.21 56.5 0 0 0.19,-0.97 l -0.57,-2.48 a 2.53,2.46 47.6 0 1 0.04,-1.28 c 0.39,-1.36 1.02,-4.01 0.78,-6.35 q -0.28,-2.74 1.42,-6.39 a 1.08,1.07 40.8 0 0 -0.08,-1.04 q -0.75,-1.1 -1.03,-2.13 a 2.2,2.17 -47.1 0 1 -0.03,-0.99 c 1.18,-5.4 2.3,-7.78 0.8,-11.71 -1.33,-3.51 2.19,-3.84 1.72,-6.25 q -0.72,-3.68 0.17,-7.49 a 2.45,2.44 43.2 0 0 -0.04,-1.23 q -1,-3.42 0.25,-7.01 0.68,-1.97 0.45,-3.72 -0.29,-2.18 0.63,-5.02 a 1.84,1.8 -47.2 0 0 -0.03,-1.16 c -0.96,-2.53 -0.04,-4.72 -0.02,-6.95 0.03,-1.98 1.55,-2.63 0.75,-5.1 -0.8,-2.45 0.37,-4.95 1.66,-8.03 a 1.4,1.38 46 0 0 0.01,-1.03 q -1.97,-5.16 0.57,-10.93 0.33,-0.74 0.03,-3.64 c -0.24,-2.31 0.16,-3.11 0.97,-5.41 a 1.57,1.55 46.4 0 0 0.02,-1.03 l -0.51,-1.58 a 1.58,1.57 -47.1 0 1 -0.03,-0.87 c 0.71,-2.93 1.53,-6.4 1.42,-9.96 q -0.07,-2.46 0.82,-4.27 a 2,1.96 -40.3 0 0 0.13,-1.42 q -0.66,-2.44 -0.44,-3.25 2.13,-8.14 1.92,-15.51 a 6.45,6.33 54.8 0 1 0.38,-2.34 q 1.52,-4.11 0.57,-8.51 a 2.09,2.03 -44.1 0 1 0.03,-1 q 0.36,-1.27 1.32,-2.54 a 0.84,0.83 51.5 0 0 0.09,-0.84 q -1.81,-3.97 0.92,-7.09 a 0.69,0.67 -38 0 0 0.1,-0.76 c -1.35,-2.59 -0.43,-7.49 0.3,-9.57 1.14,-3.28 0.37,-6.66 1.51,-10 q 0.66,-1.93 0.71,-3.93 c 0.06,-2.31 1.36,-4.52 1.42,-7.12 q 0.04,-2.15 0.87,-3.17 a 0.71,0.71 0 0 0 -0.03,-0.94 c -2.19,-2.33 1.42,-10.47 0.67,-13.77 -0.71,-3.08 2.6,-4.35 3.93,-5.78 a 2.35,2.31 -20.8 0 0 0.59,-1.28 q 0.7,-5.7 6.95,-8.67 a 1.16,1.14 -45.6 0 1 0.96,-0.02 l 0.91,0.4 a 0.78,0.78 0 0 0 0.99,-0.32 q 0.86,-1.45 2.86,-2.59 a 0.99,0.96 39.9 0 1 0.82,-0.06 c 2.09,0.76 3.97,-0.25 6.3,0.66 q 1.15,0.45 2.83,0.08 a 3.01,3.01 0 0 1 1.85,0.16 q 10.55,4.41 16.81,14.27 a 2.34,1.71 -81.1 0 1 0.19,0.37 l 3.46,8.54 a 1.24,1.13 36.2 0 1 0.09,0.45 l 0.3,10.27 a 1.12,0.96 -40.7 0 1 -0.06,0.4 q -1.5,4.08 -0.94,7.39 0.32,1.89 -0.25,3.96 -0.98,3.53 -0.06,7.01 0.71,2.7 0.28,3.94 c -0.92,2.7 0.1,4.31 -1.09,7.21 q -1.21,2.95 -0.77,6.1 0.43,3.15 0.15,4.98 -0.77,5.26 -1.44,7.62 a 3.57,3.49 -42.7 0 0 -0.08,1.53 q 0.98,5.55 -1.37,10.09 a 1.12,1.05 -37 0 0 -0.11,0.62 z"
         id="path11"
         style="fill:#ff6600;stroke:#ff6600;stroke-width:2.66062;stroke-dasharray:none;stroke-opacity:1" /><path
         fill="#1c1c20"
         d="m 1011.61,457.72 -3.34,-3.94 a 0.69,0.69 0 0 0 -1.04,-0.02 c -2.12,2.36 -3.23,3.04 -4.97,5.67 q -0.83,1.25 -3.57,3.44 -2.09,1.68 -5.89,7.05 a 2.74,2.61 -89 0 1 -0.65,0.66 q -1.34,0.93 -1.36,0.95 -6.65,6.85 -13.88,15.14 a 3.74,3.71 -85.4 0 1 -0.85,0.73 q -4.81,3.07 -9.52,5.11 c -2.03,0.88 -4.03,0.94 -6.49,-0.27 q -2.75,-1.35 -5.55,-0.23 a 1.08,1.05 -37.6 0 1 -1.02,-0.12 q -0.26,-0.19 -0.85,-1.08 c -0.71,-1.09 -1.23,-1.56 -2.71,-2.23 a 3.46,3.39 -6.1 0 1 -1.34,-1.06 l -4.78,-6.39 a 2.68,2.58 -74.2 0 1 -0.4,-0.75 l -1.94,-5.55 a 2.93,2.92 41.1 0 1 -0.11,-1.59 q 0.47,-2.33 0.02,-5.43 c -0.36,-2.55 1.95,-4.15 3.6,-5.8 a 1.15,1.13 -30.4 0 0 0.3,-1.1 q -0.1,-0.36 -0.53,-0.9 a 0.82,0.81 -47.8 0 1 -0.04,-0.96 c 1.5,-2.27 2.69,-3.73 4.97,-5.88 q 2.67,-2.51 3.82,-5.39 c 0.91,-2.27 4.61,-4.83 6.26,-7.11 q 2.02,-2.79 5.25,-5.88 a 4.68,4.55 -6.3 0 0 0.65,-0.79 q 1.05,-1.66 2.01,-2.58 4.31,-4.14 6.09,-6.28 3.21,-3.86 5.85,-6.47 5.25,-5.21 6.69,-7.63 a 4.7,4.49 88.7 0 1 1.25,-1.37 l 12.97,-9.41 a 0.57,0.56 -36.4 0 1 0.78,0.11 l 0.87,1.12 a 1.03,1.02 68.5 0 0 0.88,0.39 q 0.34,-0.02 1.31,-0.58 c 2.03,-1.16 7.34,-0.19 9.48,0.29 a 0.94,0.93 73.7 0 1 0.45,0.25 l 1.39,1.39 a 0.89,0.86 66.9 0 0 0.62,0.26 h 2.37 a 0.52,0.51 -25.5 0 1 0.32,0.11 l 4.35,3.39 a 12.2,12.08 87.3 0 1 1.33,1.22 l 5.66,5.94 a 1.3,0.65 28.9 0 1 0.09,0.12 q 1.3,2.02 2.74,3.37 c 3.07,2.91 4.49,6.48 7.2,9.53 q 6,6.76 13.02,17.03 a 5.27,4.77 -87.1 0 0 0.63,0.77 q 7.03,7.23 10.71,12.71 2.78,4.14 4.45,10.61 1.76,6.8 -3.2,13.5 a 1.36,1.23 75.7 0 0 -0.2,0.38 l -0.82,2.6 a 2.34,2.33 85.7 0 1 -1.19,1.39 q -2.01,1.01 -3.4,3 a 2.95,2.91 7.8 0 1 -1.47,1.1 q -4.98,1.67 -8.56,1.07 a 1.09,1.07 26.9 0 0 -0.94,0.3 l -0.79,0.79 a 1.2,1.18 30.7 0 1 -1.19,0.29 l -6.66,-2.05 a 2.62,2.57 -12.8 0 1 -1.1,-0.68 l -2.01,-2.13 a 0.94,0.83 -8.7 0 0 -0.31,-0.2 l -2.46,-0.88 a 1.82,1.75 78.6 0 1 -0.78,-0.54 l -15.41,-18.7 a 0.73,0.57 19.3 0 1 -0.11,-0.17 q -1.23,-2.93 -2.17,-3.6 -3.18,-2.26 -4.57,-5.7 a 1.62,1.36 18.2 0 0 -0.21,-0.34 z"
         id="path12"
         style="fill:#ff6600;stroke:#ff6600;stroke-width:2.66062;stroke-dasharray:none;stroke-opacity:1" /><path
         fill="#1c1c20"
         d="m 995.19,514.2 q 0.23,-0.03 0.37,-0.07 a 0.2,0.17 -82.4 0 0 0.13,-0.12 q 0.44,-1.19 1.1,-1.7 a 1.39,1.37 31.7 0 1 1.1,-0.25 q 2.73,0.53 5.68,-0.35 1.62,-0.48 3.36,-0.22 c 1.68,0.25 4.23,-0.44 6.24,-0.1 2.25,0.37 3.79,0.9 5.85,-0.36 a 1.17,1.16 39.7 0 1 1.03,-0.09 l 7.51,2.84 a 7.33,7.21 58.7 0 0 1.54,0.39 l 7.37,0.94 a 1.18,1.15 -45.7 0 0 0.4,-0.01 l 1.38,-0.22 a 1.02,1 68.8 0 1 1,0.45 l 0.84,1.27 a 1.07,1.06 -6.8 0 0 0.55,0.43 l 7.19,2.42 a 1.54,1.16 64.3 0 1 0.33,0.17 l 2.75,2.03 a 4.44,4.43 -21.7 0 0 1.87,0.8 l 1.06,0.18 a 2.09,2.07 -23.5 0 1 0.44,0.17 l 8.98,4.96 a 1.09,1 81.2 0 1 0.3,0.24 q 3.77,4.19 6.99,6.46 4.25,2.99 6.78,6.22 2.02,2.58 11.6,14.96 a 2.1,2.02 25.8 0 1 0.43,1.16 c 0.12,2.51 2.28,3.34 3.03,5.56 q 0.91,2.69 2.91,6.65 a 8.42,8.38 24.3 0 1 0.6,1.58 c 0.69,2.59 0.87,3.92 1.83,5.99 q 1.94,4.2 1.89,8.47 c -0.02,1.49 0.4,2.13 1.54,3.32 a 1.65,1.63 -61.8 0 1 0.43,1.45 q -0.97,5.16 0.82,9.12 a 4.69,4.66 31.6 0 1 0.42,1.74 q 0.38,8.64 -0.44,15.31 c -0.27,2.17 0.04,5.27 -0.4,7.02 q -0.76,2.98 -1.19,8.35 -0.22,2.8 -2.08,5.61 a 1.52,1.52 0 0 0 -0.23,1.09 l 0.52,3.11 a 0.91,0.9 63.8 0 1 -0.27,0.81 q -3.28,3.11 -3.05,7.69 a 3.15,3.07 -38.5 0 1 -0.14,1.1 c -0.75,2.29 -2.21,3.92 -2.64,6.43 -0.27,1.55 -1.48,2.84 -2.01,4.54 q -0.93,3.01 -3.24,5.77 a 3.8,3.68 -16.4 0 0 -0.65,1.15 q -0.88,2.48 -2.63,6.73 -0.46,1.13 -3.33,3.74 a 1.75,1.4 -90 0 0 -0.28,0.35 l -1.95,3.38 a 5.42,5.32 83.9 0 1 -0.95,1.2 l -5.62,5.33 a 1.03,1.01 -17.9 0 0 -0.32,0.61 c -0.89,6.08 -7.02,7.9 -9.1,11.87 a 1,0.99 13.9 0 1 -0.88,0.53 h -1.94 a 0.95,0.93 13.3 0 0 -0.84,0.51 c -2.6,4.97 -6.77,7.11 -10.28,10.13 a 6.47,5.97 -76.6 0 1 -1.25,0.84 q -2.92,1.48 -6.02,4.32 a 2.5,2.47 13.9 0 1 -0.87,0.52 q -1.68,0.59 -6.76,4.28 -1.71,1.24 -5.25,1.63 a 2.38,2.36 17.8 0 0 -1.49,0.76 c -2.7,2.97 -5.54,3.43 -8.36,4.69 q -2.02,0.9 -3.46,0.95 c -1.89,0.06 -2.35,1.85 -4.34,1.96 q -2.51,0.15 -9.34,2.74 -3.02,1.16 -9.74,1.41 a 6.24,6.16 -51.7 0 0 -1.05,0.13 q -3.89,0.82 -6.91,0.85 c -1.62,0.01 -3.48,1.48 -4.88,-0.11 a 0.84,0.83 56.5 0 0 -0.96,-0.2 q -0.05,0.02 -0.32,0.54 -0.11,0.21 -0.71,0.23 -6.93,0.27 -11.81,-1.42 a 1.41,1.38 41.5 0 0 -1.03,0.05 q -2.54,1.13 -5.06,0.2 -6.05,-2.22 -10.2,-2.13 a 0.99,0.99 0 0 1 -0.84,-0.44 l -0.81,-1.25 a 0.94,0.94 0 0 0 -0.87,-0.42 l -2.45,0.21 a 4.04,3.94 51.3 0 1 -1.55,-0.19 q -1.29,-0.42 -7.74,-4.29 -0.99,-0.59 -8.21,-3.73 -2.64,-1.15 -5.01,-4.76 -0.46,-0.69 -4.37,-2.61 a 2.81,2.79 -89.8 0 1 -1.3,-1.32 c -1.23,-2.63 -3.95,-2.15 -5.03,-4.11 q -1.68,-3.09 -3.83,-4.55 a 0.52,0.52 0 0 1 0.27,-0.95 q 0.67,-0.03 1.24,0.23 a 0.26,0.26 0 0 0 0.34,-0.37 q -0.79,-1.4 -1.75,-1.92 a 0.59,0.58 35.5 0 0 -0.69,0.11 l -0.18,0.2 a 1.32,1.32 0 0 1 -2.08,-0.22 q -2.97,-4.82 -7.48,-13.63 -0.34,-0.66 -0.67,-2.28 a 3.63,3.6 -70.1 0 0 -0.72,-1.56 q -2.68,-3.39 -3.27,-8.41 a 2.49,2.45 -72.7 0 0 -0.8,-1.55 l -0.76,-0.68 a 3.14,3.13 14.6 0 1 -0.97,-1.65 c -0.42,-1.78 0.5,-4.19 -0.15,-6.16 q -0.67,-2.02 -1,-4.8 c -0.15,-1.21 -1.05,-2.15 -1.45,-3.22 A 2.87,2.66 42.9 0 1 886.88,660 l 0.69,-7.37 a 2.04,2.02 25.4 0 0 -0.58,-1.6 l -1.2,-1.2 a 0.76,0.76 0 0 1 -0.06,-1.01 q 2.62,-3.31 1.01,-8.52 -0.71,-2.3 0.71,-4.77 a 1.76,1.75 -35 0 0 0.22,-1.22 q -0.77,-4.4 0.64,-9.86 a 4.45,4.33 -24.3 0 1 0.37,-0.94 q 1.47,-2.75 1.53,-3.5 0.7,-8.06 2.81,-11.3 a 3.06,3.01 -25.6 0 0 0.48,-1.33 c 0.22,-1.97 0.57,-5.99 3.6,-6.62 a 0.65,0.65 0 0 0 0.5,-0.81 l -0.68,-2.44 a 1.59,1.55 51 0 1 0.1,-1.11 c 0.88,-1.87 2.16,-5.12 4.04,-7.05 1.24,-1.27 1.37,-3.16 2.44,-4.99 q 0.88,-1.51 3.59,-5.43 a 4,3.59 -20.8 0 0 0.47,-0.91 l 0.88,-2.47 a 2.5,2.49 -6.4 0 1 1.02,-1.27 q 1.99,-1.25 2.83,-3.85 c 0.79,-2.46 2.78,-2.95 3.85,-5.21 q 0.55,-1.17 2.12,-2.59 c 2.58,-2.32 3.49,-5.54 6.47,-7.34 q 2.68,-1.62 5.02,-4.28 a 1.74,1.74 0 0 0 0.43,-1 c 0.37,-3.81 5.28,-4.6 7.29,-7.61 1.67,-2.51 4.26,-2.19 6.67,-4.15 q 2.94,-2.39 7.49,-3.79 c 1.67,-0.52 1.63,-1.14 2.06,-2.33 a 2.36,2.34 -7.9 0 1 0.86,-1.13 c 7.27,-5.19 12.25,-9.04 19.47,-11.21 q 0.32,-0.1 0.75,-0.03 a 0.68,0.65 -55 0 0 0.49,-0.1 l 5.54,-3.63 a 1.17,1.14 40.2 0 1 1.12,-0.08 q 1.38,0.62 3.52,-0.24 3.02,-1.22 7.92,-3.27 a 1.13,1.1 41.3 0 1 0.74,-0.04 q 0.73,0.23 0.71,1.45 a 0.34,0.34 0 0 0 0.38,0.35 z m -55.45,139.72 0.51,5.11 a 0.79,0.79 0 0 0 0.21,0.45 l 3.04,3.04 a 0.93,0.92 24.7 0 1 0.27,0.72 q -0.05,0.83 -0.64,2.17 a 2.47,2.46 -49.9 0 0 0.2,2.35 l 8.27,12.64 a 1.84,1.83 88.3 0 0 0.62,0.59 l 8.88,5.12 a 2.14,2.13 -38.7 0 0 1.75,0.19 q 2.01,-0.63 3.65,0.97 0.43,0.42 0.97,0.19 0.44,-0.19 0.74,-0.86 a 0.48,0.48 0 0 1 0.73,-0.18 q 1.08,0.87 4.5,1.74 a 1.64,1.63 -15.4 0 1 0.76,0.43 l 0.75,0.75 a 0.77,0.77 0 0 0 0.99,0.08 q 4.86,-3.55 11.29,-2.49 1.22,0.2 4.49,-1.43 a 0.92,0.92 0 0 1 0.96,0.09 l 0.44,0.33 a 0.62,0.62 0 0 0 0.88,-0.17 q 1.86,-2.89 5.78,-4.25 a 1.46,1.39 -46.4 0 1 0.84,-0.04 l 1.34,0.35 a 1.1,1.08 -55.4 0 0 0.94,-0.18 c 1.72,-1.28 3.81,-1.66 5.61,-3.47 q 1.28,-1.29 3.8,-1.62 a 1.43,1.43 0 0 0 0.73,-0.31 l 11.85,-9.77 a 0.37,0.28 -10.9 0 0 0.08,-0.09 l 4.88,-6.42 a 3,3 0 0 1 1.38,-1.01 q 1.84,-0.66 2.96,-1.56 a 2.92,2.92 0 0 0 0.74,-0.89 q 2.6,-4.67 6.83,-10.75 0.69,-0.99 1.03,-3.66 a 2.1,2.08 -20.8 0 1 0.52,-1.14 q 1.81,-2.07 2.56,-4.89 c 0.62,-2.39 2.39,-4.52 3.35,-6.57 a 1.92,1.92 0 0 0 0.18,-1.01 q -0.41,-5.37 2.39,-10.52 a 1.21,1.2 -34.9 0 0 0.13,-0.72 l -0.41,-2.84 a 3.01,2.71 -45.6 0 1 0.04,-0.95 q 0.71,-3.28 1.8,-7.43 0.31,-1.2 -0.68,-4.04 a 5.47,5.46 -50.8 0 1 -0.25,-2.5 q 0.41,-2.91 -0.59,-4.88 a 2.14,2.12 -50.5 0 1 -0.14,-1.54 c 0.94,-3.2 -0.67,-5.23 -1.65,-8.04 q -1.89,-5.42 -3.38,-8.67 -0.87,-1.89 -4.17,-6.55 a 1.54,1.16 84 0 0 -0.27,-0.29 l -5.99,-5.07 a 3.48,3.24 -8.5 0 0 -0.54,-0.37 c -3.69,-1.93 -5.68,-2.53 -8.06,-4.5 a 2.55,2.49 71.3 0 0 -1.04,-0.53 l -7.35,-1.82 a 0.32,0.3 73.5 0 1 -0.17,-0.1 q -0.3,-0.36 -0.94,-0.75 a 1.24,1.24 0 0 0 -1.11,-0.1 l -2.2,0.9 a 1.99,1.92 -49.4 0 1 -1.14,0.11 q -1.87,-0.4 -6.68,-0.63 c -0.79,-0.04 -1.11,-0.72 -1.64,-0.89 a 0.82,0.82 0 0 0 -0.94,0.34 q -2.96,4.67 -8.69,2.48 a 1.38,1.37 43.7 0 0 -1.01,0.02 l -3.91,1.59 a 1.1,1.09 -10.3 0 0 -0.67,0.96 c -0.15,3.01 -0.4,4.71 -2.74,6.95 q -1.97,1.9 -2.74,3.01 a 0.63,0.62 30.8 0 1 -0.8,0.2 q -0.49,-0.25 -1.06,-1.54 a 0.57,0.56 -24.4 0 0 -0.76,-0.28 q -2.54,1.18 -6.22,4.84 -0.46,0.44 -2.97,1.63 a 2.01,2 4.1 0 0 -0.82,0.71 q -0.96,1.47 -1.03,4.3 a 0.93,0.92 -10.5 0 1 -0.57,0.82 q -0.3,0.12 -1.61,-0.04 a 0.95,0.93 18.3 0 0 -0.94,0.46 q -3.43,5.93 -8.4,11.75 c -1.93,2.25 -2.44,4.82 -4.69,6.83 a 2.51,2.46 -9.5 0 0 -0.64,0.88 l -2.11,4.8 a 0.78,0.66 -13.8 0 1 -0.18,0.25 l -1.25,1.19 a 2.02,2.02 0 0 0 -0.45,0.65 l -4.11,9.3 a 2.91,2.64 -28.2 0 0 -0.16,0.45 l -0.87,3.72 a 1.57,1.51 70.5 0 1 -0.24,0.53 l -1.89,2.73 a 1.03,1.01 -39.1 0 0 -0.11,0.97 l 1.07,2.62 a 1.57,1.57 0 0 1 -0.34,1.71 l -3.46,3.46 a 1.34,1.34 0 0 0 0.42,2.18 c 2.92,1.23 0.33,5.8 -0.48,7.85 a 2.02,2.01 -43.6 0 0 -0.04,1.35 c 0.94,2.9 2.14,5.08 -0.05,7.93 a 0.83,0.8 61.7 0 0 -0.16,0.57 z m -46.9189,20.1607 a 1.24,0.45 -88.1 0 0 -0.4909,1.2244 1.24,0.45 -88.1 0 0 0.4087,1.2542 1.24,0.45 -88.1 0 0 0.4909,-1.2244 1.24,0.45 -88.1 0 0 -0.4087,-1.2542 z"
         id="path13"
         style="fill:#ff6600;stroke:#ff6600;stroke-width:2.66062;stroke-dasharray:none;stroke-opacity:1" /><path
         fill="#1c1c20"
         d="m 513.17,554.61 q 1.77,6.29 1.69,8.38 a 2.58,2.45 37.6 0 0 0.15,0.96 c 0.84,2.33 1.54,3.86 1.63,6.46 q 0.07,2 0.68,3.24 a 2.77,2.76 -52.4 0 1 0.23,1.78 l -0.41,1.93 a 2.51,2.35 -43.2 0 0 -0.04,0.62 l 0.39,6.88 a 4.61,4.58 -36.9 0 1 -0.26,1.79 l -1.04,2.91 a 1.82,1.8 46.2 0 0 -0.02,1.17 l 1.24,3.84 a 1.37,1.35 46.7 0 1 -0.02,0.85 l -2.19,6.12 a 2.43,2.39 -48.3 0 0 0.09,1.83 c 1.51,3.18 0.63,5.46 -0.06,9.54 a 6.14,6.04 -46 0 0 0.02,2.19 q 0.57,2.94 -0.56,6.06 a 2.24,2.22 -41.6 0 0 -0.08,1.24 q 0.25,1.14 0.45,1.65 c 1.35,3.31 -0.11,6.16 -1.45,10.12 a 1.99,1.95 -42.3 0 0 -0.06,1.03 l 0.95,4.42 a 4.88,4.78 41.2 0 1 0.1,1.31 l -0.52,9.43 a 1.81,1.73 -50.7 0 0 0.04,0.53 l 1.45,7.4 a 1.25,1.19 43.5 0 1 0.02,0.38 q -1.13,13.01 2.02,25.77 1.19,4.85 1.22,5.84 c 0.19,5.91 2.11,12.01 5.5,16.67 q 0.67,0.93 0.5,1.26 -0.26,0.49 -0.32,0.76 a 0.93,0.92 27.3 0 0 0.31,0.95 l 5.62,4.62 a 2.62,2.48 73.2 0 0 0.77,0.44 c 5.47,1.98 11.43,1.71 16.63,-1.35 q 0.22,-0.13 5.71,-3.13 a 1.49,1.49 0 0 1 1.22,-0.09 l 1.73,0.62 a 0.97,0.96 -59.1 0 0 1.03,-0.26 q 2.27,-2.44 5.19,-2.49 c 2.58,-0.05 3.62,-0.73 5.91,-1.11 a 2.75,2.73 -36.5 0 1 1.64,0.24 q 1.64,0.8 3.45,1.17 c 3.24,0.66 5.3,3.01 7.4,5.49 a 0.49,0.46 -76.5 0 1 0.09,0.16 l 2.39,7.31 a 1.2,0.94 58.3 0 1 0.03,0.16 c 0.39,5.16 -1.33,10.78 -4.67,14.95 q -1.86,2.34 -2.64,3.97 a 4.91,4.86 -5.9 0 1 -1.5,1.83 q -2.96,2.2 -5.12,5.38 a 3.12,3.07 4.7 0 1 -1.29,1.08 l -3.46,1.56 a 2.92,2.75 11.2 0 0 -0.59,0.37 l -5.39,4.36 a 0.95,0.94 34.6 0 1 -0.92,0.16 l -0.55,-0.2 a 1.61,1.56 -47 0 0 -1.21,0.06 l -7.42,3.51 a 1.1,1.05 24.6 0 1 -0.32,0.11 l -3.51,0.79 a 0.98,0.64 11.6 0 0 -0.2,0.08 q -4.09,2.34 -7.69,1.84 a 1.55,1.5 -54.8 0 0 -0.95,0.18 q -3.35,1.91 -7.35,0.84 a 4.23,4.19 49.3 0 0 -1.52,-0.12 c -2.44,0.27 -3.87,0.88 -6.05,-0.54 a 2.02,2 -34.8 0 0 -1.54,-0.27 q -4.16,0.94 -7.26,-1.94 a 0.93,0.91 55 0 0 -0.96,-0.18 l -0.7,0.29 a 1.52,1.5 -44.2 0 1 -1.19,-0.01 l -9.8,-4.31 a 3.06,3.03 79 0 1 -0.94,-0.64 l -1.91,-1.9 a 0.99,0.96 -7.2 0 0 -0.28,-0.21 q -4,-2.17 -4.34,-2.55 -4.77,-5.44 -10.63,-11.22 -1.31,-1.29 -4.27,-8.39 a 2.34,1.71 -81.1 0 0 -0.19,-0.37 l -4.86,-7.42 a 2.87,2.74 -68.9 0 1 -0.39,-0.94 q -0.4,-1.86 -0.87,-5.2 c -0.27,-1.93 -0.86,-2.56 -1.86,-4.13 a 4.36,4.36 0 0 1 -0.55,-1.29 c -0.73,-2.96 1.2,-6.84 -1.45,-10.22 q -0.75,-0.96 -1,-1.67 a 2.73,2.71 -51.6 0 1 -0.13,-1.15 q 0.31,-2.92 0.04,-4.83 a 0.43,0.42 59.5 0 0 -0.76,-0.2 l -4.03,5.31 a 3.23,3 -16.4 0 0 -0.38,0.64 l -1.16,2.65 a 4.52,4.23 -16.5 0 1 -0.5,0.85 q -5.3,6.97 -7.74,9.98 c -1.76,2.18 -2.76,4.51 -4.26,6.77 q -2.66,3.98 -6.19,6.11 a 0.74,0.57 -79.1 0 0 -0.18,0.16 l -7.8,10.58 a 5.46,5.26 -87.4 0 1 -1.36,1.29 l -3.25,2.12 a 2.34,2.24 -89.2 0 0 -0.65,0.66 c -3.52,5.46 -10.03,9.89 -14.83,14.39 a 6.44,6.38 -80.5 0 1 -1.32,0.95 q -3.83,2.07 -6.84,4.87 A 11.41,11.39 8.6 0 1 402.9,762 q -4.08,2.36 -7.68,4.69 -8.13,5.25 -16.38,7.74 c -2.1,0.64 -3.59,1.79 -5.67,2.08 a 3.82,3.75 -65.4 0 0 -1.57,0.6 l -1.99,1.3 a 1.39,1.39 0 0 1 -1.38,0.07 q -1.08,-0.57 -2.27,-0.13 c -1.73,0.63 -3.62,0.14 -5.13,0.3 a 2.73,2.67 24.4 0 0 -1.24,0.45 c -1.6,1.07 -2.75,1.88 -4.8,1.26 q -3.2,-0.97 -5.4,0.04 a 2.55,2.54 -48.2 0 1 -1.88,0.11 c -1.65,-0.55 -2.73,-1.19 -4.72,-0.48 q -1.23,0.43 -3.32,-0.96 -1.45,-0.96 -4.46,-1.01 -2.65,-0.05 -5.87,-2.37 a 0.75,0.47 58.3 0 0 -0.1,-0.05 l -7.26,-2.24 a 2.91,2.9 -13.2 0 1 -1.18,-0.73 c -2.23,-2.3 -3.33,-4 -6.42,-3.21 a 1.03,1.03 0 0 1 -1.23,-0.69 q -0.58,-1.83 -2.16,-3.16 -4.57,-3.86 -8.99,-7.89 a 4.25,4.14 -84.8 0 1 -0.78,-0.96 c -2.36,-3.98 -5.94,-7.53 -7.02,-12.38 a 3.23,3.2 19.7 0 0 -0.62,-1.3 c -2.19,-2.73 -2.48,-5.78 -3.32,-9.91 a 4.67,4.48 28.5 0 0 -0.31,-0.97 q -2.1,-4.82 -2.75,-9.15 -0.79,-5.29 1,-9.45 a 0.69,0.69 0 0 0 -0.17,-0.79 q -2.51,-2.24 -2.02,-5.8 0.91,-6.54 0.71,-13.45 -0.01,-0.34 0.75,-2.17 a 1.47,1.12 -37.4 0 0 0.06,-0.22 l 2.75,-13.18 a 0.85,0.8 -53 0 0 -0.06,-0.53 q -0.55,-1.19 0.3,-2.57 c 1.43,-2.29 1.21,-4.58 2.61,-6.8 1.56,-2.46 1.19,-4.8 2.6,-7.56 q 1.2,-2.33 1.46,-4.29 c 0.23,-1.65 1.67,-3.6 2.29,-5.64 q 1.52,-4.99 4.13,-8.86 a 8.64,8.23 74.6 0 0 0.81,-1.51 c 1.75,-4.26 4.21,-9.61 7.41,-13.47 q 1.99,-2.39 2.54,-3.66 c 1.5,-3.46 2.93,-7.1 5.42,-9.24 a 3.66,3.61 83 0 0 0.9,-1.17 q 1.11,-2.33 2.36,-3.74 c 2.52,-2.87 3.49,-6.35 6.61,-8.6 a 5.54,5.46 87.8 0 0 1.49,-1.63 q 2.58,-4.32 5.37,-6.66 a 2.63,2.56 86.5 0 0 0.57,-0.66 c 1.66,-2.79 4.29,-3.95 5.79,-6.54 q 0.43,-0.76 3.63,-4.04 5.57,-5.74 6.67,-7.27 c 1.34,-1.85 3.7,-1.76 4.71,-4.09 a 2.55,2.52 -5.3 0 1 0.94,-1.12 q 4.55,-3 9.56,-8.42 c 1.22,-1.32 3.66,-2.34 5.2,-3.83 q 2.27,-2.2 4.94,-3.76 a 8.36,8.32 -82.8 0 0 1.69,-1.32 q 1.1,-1.11 1.56,-1.43 c 6.09,-4.12 11.21,-7.73 16.98,-10.61 4.58,-2.29 8.14,-3.91 11.17,-6.09 q 1.82,-1.32 5,-2.11 1.93,-0.48 6.89,-3.63 a 2.73,2.65 -66.4 0 1 0.88,-0.36 l 4.57,-1.01 a 8.73,8.13 26.5 0 0 1.15,-0.34 q 1.28,-0.48 5.08,-2.62 1.02,-0.57 4.05,0.16 a 1.08,1.07 -58.8 0 0 0.96,-0.24 q 0.67,-0.59 1.11,-1.7 a 0.53,0.53 0 0 1 0.66,-0.3 c 2.82,0.97 4.68,0.03 7.96,-1.25 a 1.87,1.87 0 0 1 0.89,-0.12 l 4.46,0.48 a 1.09,1.07 36.8 0 0 0.52,-0.07 l 1.59,-0.65 a 1.81,1.79 -52.9 0 1 0.89,-0.13 l 6.35,0.68 a 1.09,1.09 0 0 0 0.54,-0.08 l 1.45,-0.6 a 1.58,1.53 -47.7 0 1 0.97,-0.06 l 15.72,4.1 a 2.09,0.27 13.9 0 1 0.25,0.08 l 8.22,3.18 a 1.47,1.28 72.7 0 1 0.44,0.27 q 0.82,0.74 6.56,4.32 4.42,2.75 8.39,9.25 a 1.18,1.15 32.8 0 1 0.17,0.73 l -0.22,1.98 a 0.29,0.29 0 0 0 0.49,0.24 q 0.93,-0.91 2.09,-0.98 a 0.61,0.6 -88.4 0 1 0.63,0.68 l -0.14,1.35 a 1.57,1.55 30.6 0 0 0.28,1.06 q 3.16,4.3 4.59,9.42 z M 341.4,686.88 c -1.08,1.63 1.13,2.51 0.16,4.45 q -1.57,3.1 -2.14,6.28 a 3.39,3.28 41.5 0 0 0.13,1.7 q 1.51,4.45 -0.81,8.06 a 1.02,1.02 0 0 0 -0.01,1.09 q 1.79,2.86 0.85,6.43 a 1.41,1.39 -44.6 0 0 -0.01,0.64 l 1.9,8.89 a 1.12,1.09 -80.3 0 0 0.46,0.67 l 0.81,0.53 a 3.69,3.65 5.4 0 1 1.43,1.71 l 0.83,2.04 a 3.88,3.83 -85.1 0 0 1.46,1.76 c 4.77,3.06 10.54,2.38 14.89,-0.15 q 3.54,-2.06 5.59,-1.94 a 1.26,1.25 -64.1 0 0 0.91,-0.32 l 2.63,-2.34 a 2.51,2.34 -75.3 0 1 0.71,-0.45 l 5.68,-2.32 a 2.04,1.98 7.9 0 0 0.76,-0.56 l 2.96,-3.48 a 2.48,2.45 -79.1 0 1 1.08,-0.74 q 2.61,-0.93 3.23,-1.7 c 3.34,-4.19 7.35,-7.29 10.55,-11.5 q 0.7,-0.92 4.81,-4.41 a 5.63,5.49 -6.1 0 0 1.26,-1.52 q 1.1,-1.98 4.58,-5.31 3.36,-3.22 5.81,-8.73 a 0.51,0.25 -81.9 0 1 0.09,-0.13 l 2.78,-2.78 a 2.24,1.67 -87 0 0 0.24,-0.29 q 8.8,-12.98 11.39,-18.06 1.37,-2.68 2.12,-3.27 a 2.19,2.18 78.6 0 0 0.74,-1.12 c 0.89,-3.22 1.36,-5.25 4.15,-8.52 a 5.28,5 82.1 0 0 0.47,-0.66 q 3.07,-5.07 4.33,-8.88 a 9.05,9.02 -19.2 0 1 1.05,-2.16 q 2.44,-3.64 4.1,-8.23 c 0.27,-0.77 1.11,-1.62 1.9,-1.81 a 0.6,0.59 -10.6 0 0 0.45,-0.64 l -0.15,-1.32 a 1.54,1.52 57.9 0 1 0.22,-0.98 q 0.21,-0.34 0.95,-2.89 0.21,-0.75 1.18,-2.81 3.25,-6.96 5.27,-13.41 0.16,-0.52 1.22,-2.12 a 7.71,7.5 69.1 0 0 1.03,-2.39 q 1.61,-6.76 3.8,-10.04 a 2.64,2.64 0 0 0 0.42,-1.93 q -0.47,-2.83 1.37,-5.21 a 1.33,1.31 59.8 0 0 0.26,-1.02 c -0.39,-2.44 0.8,-5.27 1.88,-8.39 a 6.21,6.14 55.6 0 0 0.32,-1.77 l 0.21,-7.02 a 2.71,2.7 -77.4 0 0 -1.61,-2.55 c -3.2,-1.45 -7.58,0.24 -10.85,0.41 a 3.02,2.95 -63.7 0 0 -1.62,0.57 q -1.62,1.16 -3.77,1.48 c -3.25,0.49 -4.69,1.5 -7.59,3.06 q -1.11,0.59 -4.71,1.37 a 3.83,3.77 -70.9 0 0 -1.66,0.82 q -3.14,2.65 -6.07,3.81 -2.17,0.85 -3.68,2.52 -0.92,1.02 -4,2.85 -6.66,3.96 -16.27,12.78 -1.67,1.52 -3.41,2.95 c -4.26,3.49 -8.25,8.19 -10.82,10.71 -2.63,2.58 -4.78,5.97 -7.65,8.49 a 5.02,4.93 87 0 0 -0.84,0.95 q -3.96,5.86 -7.38,8.75 a 3.17,3.14 81.9 0 0 -0.89,1.2 q -1.34,3.26 -3.94,5.79 a 3.73,3.49 -9.4 0 0 -0.69,0.9 q -0.4,0.72 -6.26,9.49 c -1.39,2.08 -2.3,4.55 -3.14,6.06 a 3.03,2.98 -7.3 0 1 -0.77,0.98 l -1.29,1.08 a 1.87,1.87 0 0 0 -0.61,0.93 q -0.97,3.34 -1.3,3.92 -6.48,11.45 -9.9,24.4 a 3.23,3.18 -37.4 0 0 -0.1,0.71 q -0.06,2.48 -1.48,4.64 z"
         id="path14"
         style="fill:#ff6600;stroke:#ff6600;stroke-width:2.66062;stroke-dasharray:none;stroke-opacity:1" /><ellipse
         fill="#d1c3b2"
         cx="0"
         cy="0"
         transform="rotate(-88.1,795.43708,-123.78383)"
         rx="1.24"
         ry="0.44999999"
         id="ellipse16"
         style="stroke:#ff6600;stroke-width:2.66062;stroke-dasharray:none;stroke-opacity:1" /></g></g></svg>
