<?xml version="1.0" encoding="UTF-8" standalone="no"?>
<svg
   version="1.1"
   viewBox="0 0 64.735687 22.647108"
   id="svg534"
   width="64.735687"
   height="22.647108"
   xmlns="http://www.w3.org/2000/svg"
   xmlns:svg="http://www.w3.org/2000/svg">
  <defs
     id="defs534" />
  <path
     fill="#441e17"
     d="m 54.668071,14.176961 -4.48,-3.39 a 1.28,1.29 11.5 0 1 -0.46,-0.7 l -0.07,-0.2899998 a 0.65,0.65 0 0 1 0.9,-0.74 l 10.02,4.4699998 a 1.14,1.21 59.3 0 0 0.4,0.09 q 1.87,0.08 3.36,1.37 a 1.16,1.16 0 0 1 -0.24,1.91 l -11.38,5.67 a 0.76,0.75 76.9 0 1 -1.09,-0.68 v -0.47 a 2,2 0 0 1 1.11,-1.79 l 2.88,-1.44 a 0.32,0.32 0 0 0 -0.14,-0.6 q -18.4,-0.16 -34.53,0.06 -2.57,0.03 -6.26,-1.67 -1.23,-0.57 -9.1500002,-3.25 a 2.41,2.45 71 0 1 -0.42,-0.2 l -3.69,-2.29 a 1.42,1.41 3.2 0 1 -0.54,-0.5999998 q -2.24,-4.69 1.17,-9.38000003 a 0.64,0.64 0 0 1 1.14,0.51 l -1.1,5.02000003 a 1.23,1.25 32.1 0 0 0.22,1.01 q 1.81,2.42 2.6,2.69 5.3600002,1.7599998 14.2600002,5.1199998 a 1.1,1.16 57.4 0 0 0.42,0.08 l 34.96,-0.19 a 0.18,0.18 0 0 0 0.11,-0.32 z"
     id="path491" />
</svg>
