<?xml version="1.0" encoding="UTF-8" standalone="no"?>
<svg
   version="1.1"
   viewBox="0 0 24.958334 24.936087"
   id="svg534"
   width="24.958334"
   height="24.936087"
   xmlns="http://www.w3.org/2000/svg"
   xmlns:svg="http://www.w3.org/2000/svg">
  <defs
     id="defs534" />
  <path
     fill="#f18808"
     d="m 11.347789,6.238569 a 0.83,0.83 0 0 0 1.4,0.11 c 2.77,-3.63 5.5,-7.57 10.42,-5.99000003 a 2.56,2.37 10.1 0 1 1.79,2.36000003 q -0.05,2.46 -1.38,4.59 -5.42,8.63 -9.15,16.08 -0.45,0.91 -1.2,1.33 a 1.65,1.65 0 0 1 -2.33,-0.77 q -3.0199997,-6.83 -7.3299997,-11.69 c -2.25,-2.54 -5.2,-7.88 -2.47,-10.96 1.82,-2.07000003 5.72,-0.34000003 7.41,1.28 q 1.8099997,1.74 2.8399997,3.66 z"
     id="path279" />
</svg>
