<?xml version="1.0" encoding="UTF-8" standalone="no"?>
<svg
   version="1.1"
   viewBox="0 0 30.198551 31.013533"
   id="svg527"
   width="30.198551"
   height="31.013533"
   xmlns="http://www.w3.org/2000/svg"
   xmlns:svg="http://www.w3.org/2000/svg">
  <defs
     id="defs527" />
  <g
     id="g527"
     transform="translate(-681.47,-264.10678)">
    <path
       fill="#6e5695"
       d="m 682.28,285.12 a 0.81,0.81 0 0 1 -0.81,-0.81 v -0.34 a 0.97,0.96 -88.3 0 1 1.02,-0.97 l 6.39,0.36 a 1.03,1.03 0 0 0 1.09,-0.97 l 0.38,-6.69 a 0.98,0.97 84.2 0 0 -1.22,-1 c -1.07,0.29 -5.63,0.25 -6.85,-0.61 a 0.75,0.75 0 0 1 0.34,-1.4 l 7.28,-0.35 a 0.76,0.74 -89.6 0 0 0.71,-0.71 l 0.39,-6.81 a 0.77,0.76 16.8 0 1 1.15,-0.61 l 0.22,0.13 a 1.45,1.41 17.3 0 1 0.71,1.31 l -0.36,6.28 a 0.73,0.73 0 0 0 0.73,0.77 h 5.41 a 1.03,1.03 0 0 0 1.03,-1.03 v -6.07 a 1.06,1.06 0 0 1 1.43,-1 l 0.46,0.16 a 1.2,1.2 0 0 1 0.74,1.43 q -0.62,2.34 0.03,5.47 a 0.78,0.76 -89.5 0 0 0.58,0.6 q 3.74,0.92 7.26,0.63 a 1.1,1.1 0 0 1 1.17,0.88 l 0.09,0.46 a 1,1 0 0 1 -1.04,1.19 l -7.3,-0.41 a 1.13,1.12 3.1 0 0 -1.19,1.06 l -0.36,6.31 a 0.95,0.94 -88.6 0 0 0.94,1 h 6.78 a 0.92,0.91 87.2 0 1 0.91,0.83 l 0.04,0.42 a 0.66,0.65 -3.1 0 1 -0.66,0.72 h -7.44 a 0.7,0.7 0 0 0 -0.7,0.67 l -0.46,7.98 a 1.14,1.13 -3.9 0 1 -0.92,1.05 l -0.27,0.06 a 0.6,0.6 0 0 1 -0.71,-0.62 l 0.48,-8.38 a 0.85,0.84 1.6 0 0 -0.85,-0.89 h -6.32 a 0.68,0.68 0 0 0 -0.68,0.64 l -0.35,6.12 a 0.81,0.81 0 0 1 -1.09,0.72 l -0.29,-0.11 a 1.03,1.03 0 0 1 -0.68,-1.02 l 0.32,-5.57 a 0.84,0.83 1.6 0 0 -0.84,-0.88 z m 16.51,-5.68 c -2.43,4.64 -8.06,-0.09 -4.89,-3.16 a 0.77,0.77 0 0 0 0.14,-0.92 q -0.25,-0.47 -1.09,-0.61 a 0.53,0.52 5.9 0 0 -0.61,0.49 q -0.06,1.22 0.22,1.91 a 0.35,0.32 43 0 1 0.01,0.14 l -0.61,4.7 a 1.15,1.15 0 0 0 1.14,1.3 h 5.28 a 1.43,1.43 0 0 0 1.43,-1.42 q 0.01,-1.97 -0.29,-2.45 a 0.42,0.42 0 0 0 -0.73,0.02 z m 0.96,-2.47 q 0.19,-0.94 -0.16,-1.42 a 1,0.89 21.7 0 0 -1.76,0.63 q 0.16,0.5 1.25,1.1 a 0.46,0.46 0 0 0 0.67,-0.31 z m -4.901,1.0595 a 1.07,0.85 -169.2 0 0 0.8917,1.0354 1.07,0.85 -169.2 0 0 1.2103,-0.6344 1.07,0.85 -169.2 0 0 -0.8917,-1.0354 1.07,0.85 -169.2 0 0 -1.2103,0.6344 z"
       id="path482" />
    <path
       fill="#6e5695"
       d="m 704.14,266.07 1.78,0.65 a 0.8,0.8 0 0 0 0.73,-0.1 l 1.44,-1.05 a 0.77,0.77 0 0 1 1.18,0.88 l -1.67,4.57 a 0.46,0.45 -73.6 0 1 -0.52,0.29 q -1.53,-0.28 -2.48,0.49 a 0.89,0.89 0 0 1 -1.29,-1.2 q 1.49,-2.08 0.31,-3.88 a 0.44,0.44 0 0 1 0.52,-0.65 z"
       id="path484" />
  </g>
</svg>
