<?xml version="1.0" encoding="UTF-8" standalone="no"?>
<svg
   version="1.1"
   viewBox="0 0 50.810745 21.810139"
   id="svg527"
   width="50.810745"
   height="21.810139"
   xmlns="http://www.w3.org/2000/svg"
   xmlns:svg="http://www.w3.org/2000/svg">
  <defs
     id="defs527" />
  <path
     fill="#ed8327"
     d="m 32.817396,11.217611 a 0.53,0.53 0 0 0 0.87,-0.08 c 1.86,-3.4400004 4.79,-3.3500004 7.89,-1.9000004 a 1.25,1.24 44.2 0 0 1.07,-0.01 q 2.72,-1.31 3.73,-1.15 4.31,0.68 4.43,4.5000004 0.08,2.66 -1.75,3.81 c -2.39,1.52 -4.05,0.87 -6.49,-0.03 a 1.04,1.02 39 0 0 -0.91,0.09 q -3.15,1.9 -6.19,0.39 c -2.5,-1.25 -4.57,4.12 -8.65,0.61 a 0.69,0.69 0 0 0 -0.96,0.06 q -3.63,4.02 -7.23,0.63 a 0.88,0.88 0 0 0 -1.32,0.12 c -5.24,7.29 -15.7099996,2.46 -12.1899996,-6.35 a 1.37,1.38 42.8 0 0 -0.04,-1.1 q -1.03,-2.1800004 -3.13,-1.9000004 a 1.76,1.92 5.6 0 1 -1.86000004,-2.47 q 0.98000004,-3.25 3.59000004,-2.55 a 1.04,1.04 0 0 1 0.68,0.61 c 0.77,2.04 1.53,4.91 3.62,4.68 1.91,-0.21 3.3199996,-3.21 3.3099996,-4.91 q 0,-2.56 0,-2.57 a 2.16,1.88 8.8 0 1 2.59,-1.64000002 q 2.68,0.59 2.14,2.52000002 a 1.7,1.7 0 0 1 -0.49,0.8 q -1.73,1.57 -2.7,4.46 a 0.81,0.81 0 0 0 0.37,0.96 q 1.95,1.13 3.35,2.7300004 a 0.92,0.92 0 0 0 1.25,0.13 q 4.53,-3.3900004 7.35,-0.33 a 0.94,0.95 48.3 0 0 1.32,0.07 q 3.78,-3.2400004 6.35,-0.18 z m 7.59,1.69 a 2.1,2.1 0 0 0 -2.1,-2.1 2.1,2.1 0 0 0 -2.1,2.1 2.1,2.1 0 0 0 2.1,2.1 2.1,2.1 0 0 0 2.1,-2.1 z m 7.7953,-0.6574 a 1.98,2.2 77.2 0 0 -2.584,-1.4434 1.98,2.2 77.2 0 0 -1.7066,2.4182 1.98,2.2 77.2 0 0 2.584,1.4434 1.98,2.2 77.2 0 0 1.7066,-2.4182 z m -33.1953,2.9774 a 4.01,4.01 0 0 0 -4.01,-4.01 4.01,4.01 0 0 0 -4.0099996,4.01 4.01,4.01 0 0 0 4.0099996,4.01 4.01,4.01 0 0 0 4.01,-4.01 z m 5.9114,-2.621 a 2.36,2.19 66.3 0 0 -1.0567,3.0413 2.36,2.19 66.3 0 0 2.9539,1.2807 2.36,2.19 66.3 0 0 1.0567,-3.0413 2.36,2.19 66.3 0 0 -2.9539,-1.2807 z m 8.8586,-0.3717 a 1.99,1.72 85.1 0 0 -1.5437,2.1296 1.99,1.72 85.1 0 0 1.8837,1.8358 1.99,1.72 85.1 0 0 1.5437,-2.1296 1.99,1.72 85.1 0 0 -1.8837,-1.8358 z"
     id="path519" />
</svg>
