<?xml version="1.0" encoding="UTF-8" standalone="no"?>
<svg
   version="1.1"
   viewBox="0 0 69.142761 49.965839"
   id="svg325"
   width="69.142761"
   height="49.965839"
   xmlns="http://www.w3.org/2000/svg"
   xmlns:svg="http://www.w3.org/2000/svg">
  <defs
     id="defs325" />
  <g
     id="g330"
     transform="translate(-352.86468,-93.96653)">
    <path
       fill="#62a797"
       d="m 421.47,100.15 c -6.19,2.3 -11.94,2.83 -17.6,4.21 -5.28,1.29 -12.58,0.7 -17.85,1.16 q -3.5,0.3 -12.68,-1.61 a 9.53,9.03 50.1 0 0 -1.71,-0.2 c -6.46,-0.21 -14,-3.41 -18.31,-5.13 a 0.73,0.72 -60.7 0 1 -0.31,-1.11 l 2.32,-3.1 a 1.01,0.99 22.6 0 1 0.97,-0.39 q 4.51,0.71 7.49,2.42 a 4.56,4.54 64.9 0 0 1.45,0.53 c 6.17,1.11 10.42,1.55 15.33,2.52 q 2.53,0.5 4.71,0.39 7.68,-0.38 13.01,-0.37 a 9.51,9 -49.4 0 0 1.91,-0.2 q 9.34,-1.97 13.48,-2.64 c 2.27,-0.36 3.98,-1.69 5.94,-1.87 a 0.82,0.81 70.9 0 1 0.77,0.38 q 1.32,2.07 1.61,4.13 a 0.82,0.82 0 0 1 -0.53,0.88 z"
       id="path169" />
    <path
       fill="#62a797"
       d="m 403.56,116.61 q -0.01,-0.14 0.39,-0.54 a 2.38,2.38 0 0 1 1.58,-0.72 q 2.69,-0.12 5.45,-1.14 c 1.92,-0.7 4.02,-0.19 5.47,-1.43 a 0.93,0.93 0 0 1 1.16,-0.05 q 5.67,4.1 3.2,10.59 a 2.07,2.06 10.2 0 1 -1.94,1.34 q -3.76,0.01 -6.53,1.48 a 4.53,4.52 -58.9 0 1 -2.2,0.55 q -3.69,-0.01 -8.33,1.32 a 2.14,2.06 37.9 0 1 -0.76,0.08 l -3.6,-0.25 a 0.94,0.9 36.8 0 0 -0.33,0.04 q -3.71,1.12 -4.65,0.91 -3.32,-0.76 -6.38,-0.22 a 4.07,3.84 -46.7 0 1 -0.84,0.05 q -15.76,-0.73 -30.79,-6 a 1.12,1.1 1.8 0 1 -0.69,-0.72 q -1.99,-6.64 4.41,-10.53 a 0.94,0.93 -42.6 0 1 1.03,0.04 q 3.2,2.25 6.02,2.31 c 2.75,0.06 4.34,2.14 7.07,1.8 q 2.26,-0.28 3.99,0.37 c 2.95,1.1 5.77,-0.04 8.62,0.96 2.23,0.79 3.82,-0.7 6.09,-0.03 a 3.12,3.08 47.1 0 0 1.39,0.06 q 4.31,-0.86 6.98,-0.19 a 1.06,1.06 0 0 0 1,-0.28 l 0.61,-0.62 a 0.8,0.8 0 0 1 1.14,0.02 l 0.96,1.02 a 0.28,0.28 0 0 0 0.48,-0.22 z"
       id="path170" />
    <path
       fill="#62a797"
       d="m 387.46,137.84 q 10.69,0.17 17.04,-0.87 7.07,-1.16 14.26,-2.94 a 1.93,1.92 81.7 0 1 2.38,1.78 q 0.08,1.85 -1.14,2.64 -2.75,1.78 -7.27,2.98 c -7.7,2.05 -16.16,2.63 -25.37,2.48 -9.21,-0.15 -17.65,-0.99 -25.28,-3.29 q -4.48,-1.35 -7.17,-3.22 -1.19,-0.82 -1.05,-2.67 a 1.93,1.92 -79.9 0 1 2.43,-1.7 q 7.13,2.01 14.16,3.39 6.32,1.25 17.01,1.42 z"
       id="path177" />
  </g>
</svg>
