<?xml version="1.0" encoding="UTF-8" standalone="no"?>
<svg
   version="1.1"
   viewBox="0 0 12.889672 27.451866"
   id="svg527"
   width="12.889672"
   height="27.451866"
   xmlns="http://www.w3.org/2000/svg"
   xmlns:svg="http://www.w3.org/2000/svg">
  <defs
     id="defs527" />
  <g
     id="g529"
     transform="translate(-426.94431,-303.48263)">
    <path
       fill="#1858a1"
       d="m 434.71,314.51 c 2.44,2.65 6.62,3.14 4.58,8.11 a 1.55,1.51 -8 0 1 -0.51,0.66 l -1.8,1.3 a 1.65,1.64 80.6 0 0 -0.57,0.8 c -0.87,2.76 -2.18,6.6 -5.79,5.29 q -2.04,-0.74 -1.44,-2.73 a 0.94,0.93 -64.6 0 1 1.42,-0.51 l 1.17,0.78 a 1.09,1.09 0 0 0 1.51,-0.29 l 0.51,-0.76 a 0.73,0.73 0 0 0 -0.33,-1.08 q -3.76,-1.55 -4.28,-2.09 -3.75,-3.86 -1.21,-8.44 a 1.29,1.22 -6.5 0 1 0.32,-0.38 l 3.49,-2.81 a 2.08,2.07 66.7 0 0 0.76,-1.92 q -0.5,-3.53 1.24,-5.97 a 2.36,2.35 44.6 0 1 3.82,-0.02 l 0.49,0.67 a 3.6,3.58 38 0 1 0.43,3.45 q -0.93,2.32 -3.77,4.9 a 0.74,0.74 0 0 0 -0.04,1.04 z m 1.2242,-7.7505 a 1.33,0.9 -71.4 0 0 -1.2772,0.9734 1.33,0.9 -71.4 0 0 0.4288,1.5476 1.33,0.9 -71.4 0 0 1.2772,-0.9734 1.33,0.9 -71.4 0 0 -0.4288,-1.5476 z M 430.24,321.7 q 0.74,0.82 2.17,1.54 a 0.99,0.99 0 0 0 1.44,-0.9 q -0.03,-1.42 -0.08,-3.33 -0.01,-0.18 -0.15,-0.34 -0.14,-0.16 -0.33,-0.19 -1.89,-0.26 -3.29,-0.44 a 0.99,0.99 0 0 0 -1.06,1.33 q 0.56,1.51 1.3,2.33 z m 5.53,-1.36 q 0.12,0.76 0.23,0.98 a 0.52,0.52 0 0 0 0.78,0.17 q 1,-0.76 0.89,-1.44 -0.1,-0.69 -1.29,-1.11 a 0.52,0.52 0 0 0 -0.68,0.4 q -0.04,0.24 0.07,1 z"
       id="path511" />
  </g>
</svg>
