<?xml version="1.0" encoding="UTF-8" standalone="no"?>
<svg
   version="1.1"
   viewBox="0 0 51.242371 32.567913"
   id="svg527"
   width="51.242371"
   height="32.567913"
   xmlns="http://www.w3.org/2000/svg"
   xmlns:svg="http://www.w3.org/2000/svg">
  <defs
     id="defs527" />
  <g
     id="g531"
     transform="translate(-620.77882,-296.47508)">
    <path
       fill="#fac22c"
       d="m 650.57,324.68 q 5.09,2.7 11,1.61 l 6.9,-0.23 a 0.7,0.69 11.8 0 1 0.65,0.99 l -0.22,0.46 a 2.38,2.37 -79.5 0 1 -1.98,1.37 q -17.32,1.32 -31.5,-8.05 -4.18,-2.76 -4.65,-7.25 a 1.04,1.03 14.4 0 0 -0.44,-0.74 q -4.7,-3.39 -5.51,-4.69 c -2.18,-3.51 -4.73,-6.56 -3.87,-10.46 a 1.54,1.54 0 0 1 2.29,-1 q 3.46,2.04 1.64,4.94 a 1.31,1.31 0 0 0 -0.02,1.37 q 1.69,2.9 2.27,3.58 a 0.5,0.5 0 0 0 0.84,-0.5 c -1.14,-2.91 -1.15,-7.63 2.22,-9.3 2.05,-1.02 3.45,1.9 3.41,3.52 a 0.84,0.84 0 0 1 -0.63,0.8 q -1.28,0.34 -2.02,0.21 a 0.99,0.98 -0.6 0 0 -1.14,1.16 q 0.87,4.44 2.75,7.24 a 1.16,1.15 68.6 0 0 1.13,0.5 q 6.22,-0.95 9.98,4.38 2.61,3.69 0.32,7.02 a 0.93,0.93 0 0 0 0.53,1.42 z m -16.4517,-11.3811 a 5.06,2.54 -143.2 0 0 2.5302,5.065 5.06,2.54 -143.2 0 0 5.5732,0.9972 5.06,2.54 -143.2 0 0 -2.5302,-5.065 5.06,2.54 -143.2 0 0 -5.5732,-0.9972 z"
       id="path506" />
    <path
       fill="#eb3d3c"
       d="m 661.57,326.29 q -5.91,1.09 -11,-1.61 -3.78,-6.44 -6.16,-13.31 -2.1,-6.06 2.96,-9.49 c 1.42,-0.97 3.88,-0.68 5.42,0.26 q 6.21,3.79 8.3,11.06 a 0.92,0.91 66.6 0 0 1.35,0.54 c 6.76,-3.99 13.56,2.4 6.77,8.14 q -1.13,0.95 -2.81,1.79 -2.41,1.21 -4.83,2.62 z M 651.38,309.9 q -0.05,-3.18 -0.27,-4.73 -0.13,-0.91 -1.11,-0.83 a 0.54,0.54 0 0 0 -0.48,0.69 l 1.47,4.93 a 0.2,0.2 0 0 0 0.39,-0.06 z m -1.43,6.81 -2.56,-11.09 a 0.13,0.13 0 0 0 -0.16,-0.1 l -0.08,0.02 a 5.59,1.45 77 0 0 -0.15,5.77 l 0.1,0.45 a 5.59,1.45 77 0 0 2.67,5.12 l 0.08,-0.02 a 0.13,0.13 0 0 0 0.1,-0.15 z m 4.18,-10.82 a 0.49,0.48 -7 0 0 -0.41,0.52 q 0.8,8.54 4.02,16.32 0.39,0.94 0.88,1.23 a 0.65,0.65 0 0 0 0.89,-0.88 q -1.12,-2.01 -1.53,-3.56 -1.96,-7.41 -3.42,-13.37 a 0.37,0.36 -11.3 0 0 -0.41,-0.27 z m -2.2657,6.6083 a 1.28,0.17 -99.7 0 0 0.0481,1.2903 1.28,0.17 -99.7 0 0 0.3833,1.2331 1.28,0.17 -99.7 0 0 -0.0481,-1.2903 1.28,0.17 -99.7 0 0 -0.3833,-1.2331 z m 14.8376,3.4119 a 0.96,0.96 0 0 0 -1.2741,-0.4688 l -0.5084,0.2349 a 0.96,0.96 0 0 0 -0.4688,1.2741 l 1.3675,2.9594 a 0.96,0.96 0 0 0 1.2741,0.4688 l 0.5084,-0.2349 a 0.96,0.96 0 0 0 0.4688,-1.2741 z M 652.3,316.25 a 3.8,0.38 71.2 0 0 0.27,1.16 3.76,0.41 70.7 0 0 1.6,4.39 3.77,0.41 70.7 0 0 0.69,0.78 3.76,0.41 70.7 0 0 -2.41,-6.89 3.75,0.42 70.2 0 0 -0.15,0.56 z m 8.4895,0.5588 a 3.36,1.15 -109.3 0 0 0.0251,3.5513 3.36,1.15 -109.3 0 0 2.1959,2.7911 3.36,1.15 -109.3 0 0 -0.0251,-3.5513 3.36,1.15 -109.3 0 0 -2.1959,-2.7911 z"
       id="path509" />
    <ellipse
       fill="#9b392e"
       cx="0"
       cy="0"
       transform="rotate(-99.7,458.37938,-118.15781)"
       rx="1.28"
       ry="0.17"
       id="ellipse520" />
    <path
       fill="#2e2411"
       d="m 652.3,316.25 0.27,1.16 a 3.8,0.38 71.2 0 1 -0.27,-1.16 z"
       id="path522" />
  </g>
</svg>
