<?xml version="1.0" encoding="UTF-8" standalone="no"?>
<svg
   version="1.1"
   viewBox="0 0 88.367348 41.766636"
   id="svg527"
   width="88.367348"
   height="41.766636"
   xmlns="http://www.w3.org/2000/svg"
   xmlns:svg="http://www.w3.org/2000/svg">
  <defs
     id="defs527" />
  <path
     fill="#eb3d3c"
     d="m 0.95327044,-16.030708 1.86999996,-1.87 a 1.3,1.35 13 0 1 0.46,-0.3 q 3.11,-1.27 5.22,0.53 c 7.9299996,6.75 -7.76999996,17.71999979 -12.1,20.8999998 a 1.27,1.28 48.6 0 1 -1.63,-0.1 C -10.10673,-1.4507082 -18.11673,-14.160708 -10.81673,-19.620708 q 2.1200004,-1.59 4.4600004,-1.03 c 3.1,0.74 4.2,2.62 6.01000004,4.6 a 0.89,0.91 46.3 0 0 1.3,0.02 z m -8.58840004,-1.9423 a 0.28,0.68 58.8 0 0 -0.7266,0.1128 0.28,0.68 58.8 0 0 -0.4366,0.5918 0.28,0.68 58.8 0 0 0.7266,-0.1128 0.28,0.68 58.8 0 0 0.4366,-0.5918 z m 12.6203,2.3559 a 0.69,0.94 57.4 0 0 -1.1637,-0.0749 0.69,0.94 57.4 0 0 -0.4201,1.0877 0.69,0.94 57.4 0 0 1.1637,0.0749 0.69,0.94 57.4 0 0 0.4201,-1.0877 z"
     id="path324" />
  <g
     id="g566"
     transform="translate(-476.60673,-128.06071)">
    <path
       fill="#c6d93c"
       d="m 551.94,138.06 -2.38,-3.75 13.23,-6.17 a 0.87,0.87 0 0 1 1.23,0.72 c 0.7,8.96 1.45,13.35 0.52,18.51 q -0.22,1.24 -1.42,1.31 -1.5,0.09 -2.59,-0.96 -4.54,-4.35 -8.59,-9.66 z"
       id="path331" />
    <path
       fill="#48a31c"
       d="m 549.56,134.31 2.38,3.75 -0.57,15.48 a 1.39,1.35 62.4 0 1 -0.2,0.68 q -1.42,2.34 -4.06,-0.58 -4.91,-5.43 -9.85,-11.24 -0.95,-0.46 -1.26,-2.65 4.58,-1.74 9.28,-3.23 1.07,-0.34 4.28,-2.21 z"
       id="path334" />
    <path
       fill="#6e5695"
       d="m 536,139.75 q 0.31,2.19 1.26,2.65 l -3.03,15.93 a 0.94,0.94 0 0 1 -1.63,0.45 L 522.51,147.5 q -0.62,-0.95 -1.03,-2.95 z"
       id="path337" />
    <path
       fill="#eb3d3c"
       d="m 521.48,144.55 q 0.41,2 1.03,2.95 -2.67,8.1 -3.49,15.35 a 1.3,1.3 0 0 1 -2.36,0.59 l -8.44,-12.23 q -0.06,-0.41 -0.46,-0.48 -0.78,-1.39 -0.58,-2.63 z"
       id="path340" />
    <path
       fill="#fac22c"
       d="m 507.18,148.1 q -0.2,1.24 0.58,2.63 0.01,0.25 0.11,0.49 -0.79,3.87 -1.95,7.67 c -0.95,3.11 -0.95,4.59 -1.48,8.03 a 1.14,1.09 -82.8 0 1 -1.18,0.96 q -0.91,-0.08 -1.68,-1 -4.33,-5.19 -7.62,-11.18 l -0.68,-1.28 -1.18,-3.61 z"
       id="path342" />
    <path
       fill="#60cffc"
       d="m 492.1,150.81 1.18,3.61 q -0.21,0.75 0.45,1.61 l -3.13,13.05 a 0.9,0.9 0 0 1 -0.65,0.67 q -1.45,0.37 -2.92,-1.03 -3.93,-3.71 -9.26,-11.8 -1.36,-2.05 -1.13,-2.99 a 2.69,2.52 -82.3 0 1 2.52,-2.05 q 6.91,0.08 12.94,-1.07 z"
       id="path345" />
    <path
       fill="#9b392e"
       d="m 508.22,151.21 -0.35,0.01 q -0.1,-0.24 -0.11,-0.49 0.4,0.07 0.46,0.48 z"
       id="path346" />
    <path
       fill="#1858a1"
       d="m 493.96,155.7 q -0.6,0.32 -0.23,0.33 -0.66,-0.86 -0.45,-1.61 z"
       id="path349" />
  </g>
</svg>
