<?xml version="1.0" encoding="UTF-8" standalone="no"?>
<svg
   version="1.1"
   viewBox="0 0 101.49369 101.2752"
   id="svg325"
   width="101.49369"
   height="101.2752"
   xmlns="http://www.w3.org/2000/svg"
   xmlns:svg="http://www.w3.org/2000/svg">
  <defs
     id="defs325" />
  <g
     id="g344"
     transform="translate(-235.63631,-107.6048)">
    <path
       fill="#efa138"
       d="m 337.13,154.68 v 6.96 a 0.99,0.99 0 0 1 -0.99,0.99 h -26.57 a 0.99,0.99 0 0 1 -0.99,-1.06 l 0.49,-6.96 a 0.99,0.99 0 0 1 0.98,-0.92 h 26.09 a 0.99,0.99 0 0 1 0.99,0.99 z"
       id="path190" />
    <g
       id="g329">
      <rect
         fill="#efa138"
         x="-4.5500002"
         y="-14.22"
         transform="rotate(0.6,-11493.411,27420.37)"
         width="9.1000004"
         height="28.440001"
         rx="1.12"
         id="rect169" />
      <rect
         fill="#efa138"
         x="-4.5700002"
         y="-14.32"
         transform="rotate(-44.7,291.41907,-250.94225)"
         width="9.1400003"
         height="28.639999"
         rx="1.53"
         id="rect173" />
      <rect
         fill="#efa138"
         x="-14.39"
         y="-4.5500002"
         transform="rotate(-44.8,316.58628,-312.73543)"
         width="28.780001"
         height="9.1000004"
         rx="1.85"
         id="rect174" />
      <path
         fill="#efa138"
         d="m 235.64,160.85 0.39,-5.64 a 1.64,1.64 0 0 1 1.64,-1.53 h 25.44 a 1.64,1.64 0 0 1 1.64,1.75 l -0.39,5.64 a 1.64,1.64 0 0 1 -1.64,1.53 h -25.44 a 1.64,1.64 0 0 1 -1.64,-1.75 z"
         id="path189" />
      <rect
         fill="#efa138"
         x="-14.28"
         y="-4.5100002"
         transform="rotate(-44.8,353.28259,-224.4092)"
         width="28.559999"
         height="9.0200005"
         rx="1.52"
         id="rect194" />
      <rect
         fill="#efa138"
         x="-4.52"
         y="-14.31"
         transform="rotate(-45,378.22851,-284.97738)"
         width="9.04"
         height="28.620001"
         rx="1.42"
         id="rect195" />
      <path
         fill="#efa138"
         d="m 283.31,180.44 h 6.36 a 1.32,1.32 0 0 1 1.32,1.32 v 25.8 a 1.32,1.32 0 0 1 -1.32,1.32 h -6.36 a 1.32,1.32 0 0 1 -1.32,-1.32 v -25.8 a 1.32,1.32 0 0 1 1.32,-1.32 z"
         id="path200" />
    </g>
  </g>
</svg>
