<?xml version="1.0" encoding="UTF-8" standalone="no"?>
<svg
   version="1.1"
   viewBox="0 0 24.891348 41.852093"
   id="svg527"
   width="24.891348"
   height="41.852093"
   xmlns="http://www.w3.org/2000/svg"
   xmlns:svg="http://www.w3.org/2000/svg">
  <defs
     id="defs527" />
  <path
     fill="#fac22c"
     d="m 6.2701816,21.421781 c -0.1,3.53 1.45,5.3 4.8300004,6.62 a 0.89,0.9 34.2 0 0 0.93,-0.18 c 3.76,-3.47 5.84,-5.19 10.85,-4.74 a 1.69,1.68 72.2 0 1 1.14,0.59 c 2.22,2.61 -0.21,4.85 -2.74,5.78 q -2.72,1 -7.54,1.71 a 1.57,1.56 3.1 0 0 -1.29,1.15 c -1.4,5.42 4.54,6.32 8.43,7.33 a 1.1,1.1 0 0 1 -0.28,2.17 q -3.37,-0.01 -6.82,-1.63 c -3.8300004,-1.8 -4.8400004,-4.9 -3.75,-8.86 a 1.16,1.16 0 0 0 -0.7600004,-1.41 q -6.37,-2.11 -5.7,-9.34 a 1.21,1.24 22.6 0 0 -0.42,-1.05 c -7.51,-6.48 0.06,-14.5600001 5.57,-19.21000006 a 1.48,1.48 0 0 1 1.9500004,0.03 l 0.06,0.06 a 1.13,1.13 0 0 1 -0.04,1.71999996 c -4.4100004,3.57 -11.2500004,10.4100001 -6.6000004,14.7100001 a 0.62,0.61 42.1 0 0 0.87,-0.04 c 3.09,-3.5 5.3200004,-5.83 10.3700004,-5.96 1.68,-0.04 4.35,0.83 3.94,3.03 -1.14,6.03 -7.17,6.91 -12.3100004,6.85 a 0.68,0.68 0 0 0 -0.69,0.67 z m 10.3911004,-7.5275 a 1.62,4.69 65.6 0 0 -4.9403,0.4622 1.62,4.69 65.6 0 0 -3.6019004,3.4128 1.62,4.69 65.6 0 0 4.9403004,-0.4622 1.62,4.69 65.6 0 0 3.6019,-3.4128 z m 5.0459,12.0183 a 0.69,2.73 70.1 0 0 -2.8019,0.2804 0.69,2.73 70.1 0 0 -2.3321,1.578 0.69,2.73 70.1 0 0 2.8019,-0.2804 0.69,2.73 70.1 0 0 2.3321,-1.578 z"
     id="path448" />
</svg>
