<?xml version="1.0" encoding="UTF-8" standalone="no"?>
<svg
   version="1.1"
   viewBox="0 0 118.9017 60.51466"
   id="svg527"
   width="118.9017"
   height="60.51466"
   xmlns="http://www.w3.org/2000/svg"
   xmlns:svg="http://www.w3.org/2000/svg">
  <defs
     id="defs527" />
  <g
     id="g560"
     transform="translate(-222.23155,-93.248889)">
    <path
       fill="#1858a1"
       d="m 237.67,66.21 q -3.14,3.88 -6.98,5.89 0.62,-6.34 2.66,-11.16 a 1.25,1.25 0 0 1 2.31,0.04 z"
       id="path284" />
    <path
       fill="#d14e66"
       d="m 237.67,66.21 q 1.08,2 0.89,2.35 -3.99,3.96 -8.13,6.13 -0.08,-2.07 0.26,-2.59 3.84,-2.01 6.98,-5.89 z"
       id="path288" />
    <path
       fill="#1858a1"
       d="m 238.56,68.56 2.59,6.67 -13.4,10.34 q 0.58,-6.51 2.68,-10.88 4.14,-2.17 8.13,-6.13 z"
       id="path291" />
    <path
       fill="#d14e66"
       d="m 241.15,75.23 1.02,2.99 q -0.96,-0.33 -1.45,0.07 -6.57,5.38 -13.73,10.29 0.32,-2.54 0.76,-3.01 z"
       id="path297" />
    <path
       fill="#1858a1"
       d="m 242.17,78.22 3.12,7.75 -2.1,0.79 a 6.39,6.3 18.9 0 0 -0.83,0.4 l -17.75,10.35 q 0.43,-5.4 2.38,-8.93 7.16,-4.91 13.73,-10.29 0.49,-0.4 1.45,-0.07 z"
       id="path301" />
    <path
       fill="#d14e66"
       d="m 245.29,85.97 0.79,0.98 q -10.75,7.61 -22.53,13.35 0.47,-2.58 1.06,-2.79 l 17.75,-10.35 a 6.39,6.3 18.9 0 1 0.83,-0.4 z"
       id="path305" />
    <path
       fill="#1858a1"
       d="m 249.19,93.98 c -2.32,1.43 -4.43,3.43 -6.51,4.75 q -7.33,4.63 -15.3,8.99 -2.33,-0.19 -5.11,-1.53 a 0.71,0.69 -74.5 0 1 -0.39,-0.72 q 0.38,-3.09 1.67,-5.17 11.78,-5.74 22.53,-13.35 z"
       id="path307" />
    <path
       fill="#d14e66"
       d="m 249.19,93.98 0.75,1.5 q -7.91,6.41 -18.07,11.88 -0.67,0.36 -0.42,0.99 -1.82,0.13 -4.07,-0.63 7.97,-4.36 15.3,-8.99 c 2.08,-1.32 4.19,-3.32 6.51,-4.75 z"
       id="path311" />
    <path
       fill="#1858a1"
       d="m 252.07,100 q -4.24,3.08 -7.59,7.32 -5.9,1.8 -13.03,1.03 -0.25,-0.63 0.42,-0.99 10.16,-5.47 18.07,-11.88 z"
       id="path312" />
    <path
       fill="#d14e66"
       d="m 252.07,100 q 0.63,0.95 0.74,1.49 l -4.02,4.61 -4.31,1.22 q 3.35,-4.24 7.59,-7.32 z"
       id="path318" />
    <path
       fill="#6e5695"
       d="m 248.79,106.1 4.02,-4.61 q 0.56,0.78 0.68,1.61 0.12,0.88 -0.64,1.49 -1.57,1.26 -4.06,1.51 z"
       id="path320" />
  </g>
  <g
     id="g567"
     transform="translate(-222.23155,-93.248889)">
    <path
       fill="#c6d93c"
       d="m 287.01,119.41 a 3.54,3.52 87.9 0 1 -2.1,2.27 q -5.32,2.07 -12.68,1.11 a 1.85,1.82 -16 0 1 -1.18,-0.64 c -2.05,-2.42 -1.79,-5.6 -1.68,-9.14 q 0.11,-3.44 2.12,-6.47 c 2.57,-3.88 9.04,-4.97 13.18,-4.49 5.75,0.67 3.36,14.02 2.34,17.36 z m -14.11,0.44 q 5.6,1.35 10.49,-0.41 a 2.46,2.45 86.7 0 0 1.57,-1.77 q 1.26,-5.55 0.4,-11.03 c -0.31,-1.95 -1.87,-2.3 -3.58,-2.16 -3.78,0.31 -7.84,1.51 -9.04,5.53 q -1.3,4.38 -0.66,8.93 a 1.09,1.08 -87.3 0 0 0.82,0.91 z"
       id="path321" />
    <path
       fill="#c6d93c"
       d="m 292.01,121.29 q -0.16,-4.15 0.43,-13.26 c 0.4,-6.18 6.3,-6.06 10.8,-6.1 q 2.47,-0.03 4.56,1.12 a 2.76,2.75 13.7 0 1 1.42,2.32 c 0.18,5.85 0.27,12.39 -2.14,17.48 a 2.65,2.65 0 0 1 -2.55,1.52 l -10.05,-0.57 a 2.61,2.61 0 0 1 -2.47,-2.51 z m 3.95,-0.01 8.14,0.61 a 1.7,1.7 0 0 0 1.82,-1.57 l 0.87,-11.64 a 3.83,3.78 4.3 0 0 -3.53,-4.06 l -3.89,-0.29 a 3.83,3.78 4.3 0 0 -4.1,3.48 l -0.88,11.65 a 1.7,1.7 0 0 0 1.57,1.82 z"
       id="path322" />
    <g
       id="g551">
      <path
         fill="#c6d93c"
         d="m 324.57,146.93 a 0.34,0.34 0 0 0 -0.49,0.44 c 1.11,2.04 1.15,4.06 -1.17,5.44 q -4.17,2.48 -7.63,-1.49 a 1.07,1.05 -59.2 0 1 -0.23,-0.95 l 0.32,-1.3 a 0.5,0.5 0 0 0 -0.45,-0.62 q -8.14,-0.55 -10.9,-0.64 -2.46,-0.08 -9.83,-2.18 a 2.17,2.15 75.9 0 1 -0.98,-0.59 q -0.57,-0.61 -3.01,-3.31 c -2.08,-2.31 -4.11,-1.61 -5.9,0.47 a 0.37,0.37 0 0 0 0.42,0.59 c 4.28,-1.66 5.39,0.52 7.24,3.71 a 0.91,0.89 50 0 1 -0.08,1.03 q -2.68,3.21 -4.66,3.39 -5.24,0.45 -5.82,-4.55 a 0.7,0.7 0 0 0 -0.76,-0.62 c -4.77,0.41 -10.91,0.42 -15.27,-1.87 q -2,-1.05 -2,-5.05 a 0.7,0.69 84.4 0 0 -0.82,-0.68 q -2.38,0.46 -5.38,-0.98 a 2.6,2.6 0 0 1 -1.46,-2.11 c -0.47,-5.72 0.36,-17.9 7.71,-19.01 a 1.37,1.36 -74.6 0 0 0.84,-0.48 c 0.84,-1.01 0.43,-2.53 0.77,-3.71 q 1.13,-3.89 2.62,-8.26 2.1,-6.19 8.64,-8.3 c 3.22,-1.04 7.15,-1.95 11.17,-2.02 Q 302.9,93 319,95.24 q 1.68,0.23 4.86,1.55 c 4.25,1.75 7.29,2.88 7.26,7.94 q -0.05,7.54 0.13,8.74 0.12,0.86 0.98,4.37 a 2.34,2.33 7 0 0 1.18,1.51 c 2.88,1.53 7.58,5.69 7.7,9.45 q 0.3,9.61 -3.27,18.29 c -0.73,1.77 -2.57,1.86 -4.72,2.01 q -4.94,0.35 -8.55,-2.17 z m 3.57,-42.96 c -0.37,-3.79 -8.59,-6.03 -11.78,-6.46 q -15.49,-2.1 -30.45,-1.51 -2.08,0.08 -4.75,0.71 c -4.42,1.05 -8.19,1.94 -10.39,6.27 q -2.95,5.83 -3.47,13.53 -0.43,6.25 -1.38,22.99 a 2.69,2.69 0 0 0 1.25,2.41 c 2.37,1.5 7.68,1.37 9.33,1.57 q 3.61,0.45 4.77,-2.31 a 1.65,1.62 85 0 1 0.59,-0.72 l 3.07,-2.1 a 2.57,2.28 -66.9 0 1 0.61,-0.29 q 3.77,-1.13 6.49,1.35 c 0.95,0.88 1.32,2.87 2.97,3.51 q 6.84,2.65 16.48,2.44 a 4.78,4.71 30.1 0 0 2.14,-0.55 c 2.77,-1.45 5.39,-2.4 8.68,-2.09 q 0.83,0.08 4.53,2.3 2.82,1.69 7.08,1.48 a 2.05,2.05 0 0 0 1.79,-1.28 q 2.92,-7.09 2.74,-15.72 a 3.45,3.27 -56.7 0 0 -0.19,-1.06 q -1.11,-3.35 -4.28,-5.51 a 2.6,2.58 58.2 0 0 -1.8,-0.43 c -3.49,0.46 -12.98,0.05 -16.33,-2.83 q -3.73,-3.22 -1.91,-8.04 2.92,-7.68 11.24,-7.42 c 0.55,0.02 1.64,0.33 2.41,0.36 a 0.55,0.55 0 0 0 0.56,-0.6 z m 1.16,15.48 -0.82,-10.29 a 2.38,2.38 0 0 0 -2.1,-2.17 q -8.01,-0.94 -10.34,6.8 c -1.64,5.45 9.82,6.24 13.01,5.96 a 0.28,0.28 0 0 0 0.25,-0.3 z m -65.68,-0.47 c -4.94,-0.1 -5.49,11.3 -5.26,15.14 a 1.44,1.43 -74.9 0 0 0.62,1.08 q 1.49,1 3.44,-0.05 a 1.55,1.5 -0.5 0 0 0.64,-0.63 q 0.52,-0.97 0.69,-3.27 0.76,-10.07 0.5,-11.72 a 0.65,0.64 -3.7 0 0 -0.63,-0.55 z"
         id="path309" />
      <path
         fill="#c6d93c"
         d="m 222.85571,143.73411 q 0.35,-0.2 0.95,-0.23 1.09,-0.06 6.33,0.48 a 7.39,7.21 41.1 0 0 2.31,-0.13 c 4.53,-1.02 9.56,-3.08 15.15,-1.52 q 2.22,0.62 5.07,0.86 a 1.22,1.21 2.6 0 1 1.11,1.21 v 0.32 a 0.88,0.88 0 0 1 -0.83,0.88 c -3.42,0.17 -6.76,-0.75 -8.78,-1.15 a 5.45,5.55 45.5 0 0 -2.45,0 l -10.27,2.28 a 1.62,1.72 43.2 0 1 -0.48,0.03 l -7.62,-0.75 a 1.22,1.22 0 0 1 -0.49,-2.28 z"
         id="path336" />
    </g>
  </g>
</svg>
