<?xml version="1.0" encoding="UTF-8" standalone="no"?>
<svg
   version="1.1"
   viewBox="0 0 81.528053 48.073261"
   id="svg527"
   width="81.528053"
   height="48.073261"
   xmlns="http://www.w3.org/2000/svg"
   xmlns:svg="http://www.w3.org/2000/svg">
  <defs
     id="defs527" />
  <path
     fill="#eb3d3c"
     d="m 77.453376,-0.41204558 a 0.89,0.89 0 0 0 -0.65,-1.44000002 q -7.53,-0.32 -12.16,4.71 -0.65,0.71 -1.41,0.47 a 0.97,1.02 25 0 1 -0.5,-1.5 c 3.19,-5.08 10.89,-7.5 16.83,-5.08 a 1.33,1.32 45.3 0 0 0.98,0.01 q 8.5,-3.33 17.38,-0.52 a 1.5,1.49 11.2 0 1 1.04,1.55 v 0.06 a 1.07,1.07 0 0 1 -1.4,0.93 c -4.72,-1.52 -9.58,-2.16 -14.37,-0.42 a 0.58,0.57 62.9 0 0 -0.28,0.87000002 c 1.69,2.37999998 2.26,7.02999998 -0.85,8.60999998 q -2.09,1.06 -4.23,-0.47 c -2.35,-1.68 -2.08,-5.64 -0.38,-7.77999998 z m 2.6888,0.8006 a 2.92,1.64 88.8 0 0 -1.5784,2.95369998 2.92,1.64 88.8 0 0 1.7008,2.8851 2.92,1.64 88.8 0 0 1.5784,-2.9537 2.92,1.64 88.8 0 0 -1.7008,-2.88509998 z"
     id="path495" />
  <g
     id="g533"
     transform="translate(-211.10662,-285.92205)">
    <path
       fill="#6e5695"
       d="m 216.06,281.96 a 0.98,0.97 -70.2 0 1 0.58,1.25 l -4.98,13.6 a 1.51,1.51 0 0 1 -1.94,0.9 l -12.57,-4.6 a 0.59,0.59 0 0 0 -0.75,0.35 l -8.29,22.64 a 0.82,0.82 0 0 1 -1.05,0.49 l -16.16,-5.92 a 1.51,1.49 -70 0 1 -0.89,-1.93 l 7.9,-21.57 a 0.9,0.89 20.2 0 0 -0.53,-1.14 l -9.08,-3.32 a 1.5,1.5 0 0 1 -0.89,-1.93 l 4.93,-13.48 a 0.96,0.96 0 0 1 1.23,-0.57 l 8.92,3.27 a 1.5,1.49 -72.1 0 0 1.95,-1 l 1.59,-5.52 a 1.31,0.56 86.4 0 1 0.07,-0.2 l 1.41,-2.74 a 0.78,0.77 -66.3 0 0 -0.42,-1.09 l -9.76,-3.57 a 0.83,0.82 -70.1 0 1 -0.49,-1.06 l 6.23,-17.49 a 2.64,2.45 76.6 0 1 0.42,-0.74 q 5.24,-6.28 14.01,-6.69 9.71,-0.45 17.05,3.98 11.54,6.99 11.87,19.41 a 3.19,3.1 -37.5 0 1 -0.15,1.02 l -5.22,15.7 a 0.66,0.66 0 0 1 -0.7,0.45 c -4.87,-0.57 -9.07,-3.09 -13.58,-3.95 a 0.68,0.68 0 0 0 -0.76,0.43 l -3.33,9.1 a 0.96,0.96 0 0 0 0.57,1.23 z m -13.02,-37.18 0.67,0.22 19.35,6.79 a 0.62,0.61 4.6 0 0 0.81,-0.68 c -1.69,-9.15 -7.48,-13.94 -15.54,-17.5 l -3.53,-0.46 q -3.28,-0.9 -8.35,-0.52 -6.19,0.48 -10.48,5.04 a 0.66,0.66 0 0 0 0.26,1.08 z m -2.2334,2.7786 a 0.98,0.98 0 0 0 -0.6097,-1.2446 l -14.7589,-5.0532 a 0.98,0.98 0 0 0 -1.2446,0.6098 l -3.9,11.3908 a 0.98,0.98 0 0 0 0.6097,1.2446 l 14.7589,5.0532 a 0.98,0.98 0 0 0 1.2446,-0.6098 z M 206.63,263.14 q 1.05,0.3 2.21,0.21 -0.56,0.48 -0.08,0.63 2.86,0.88 8.43,3.23 a 1.59,1.58 -68.6 0 0 2.1,-0.92 l 3.94,-10.77 a 1,1 0 0 0 -0.64,-1.3 l -6.94,-2.09 q -1.81,-2.55 -4.9,-1.86 l -6.24,-2.51 a 0.74,0.74 0 0 0 -0.97,0.43 l -4.29,11.74 a 0.79,0.79 0 0 0 0.5,1.03 z m -3.2565,2.8578 a 0.93,0.93 0 0 0 -0.5766,-1.1821 l -11.8568,-4.0827 a 0.93,0.93 0 0 0 -1.1821,0.5766 l -3.1515,9.1526 a 0.93,0.93 0 0 0 0.5766,1.1821 l 11.8568,4.0827 a 0.93,0.93 0 0 0 1.1821,-0.5766 z m -12.3182,10.1248 a 0.26,0.26 0 0 0 -0.1548,-0.3336 l -16.3214,-5.9728 a 0.26,0.26 0 0 0 -0.3336,0.1549 l -3.8008,10.3863 a 0.26,0.26 0 0 0 0.1548,0.3336 l 16.3214,5.9728 a 0.26,0.26 0 0 0 0.3336,-0.1549 z M 199.17,290.62 q 0.87,0.75 1.71,0.62 0.28,0.45 0.68,0.77 0.46,0.38 0.94,0.46 3.58,0.61 6.46,2.28 a 0.54,0.54 0 0 0 0.78,-0.28 l 3.41,-9.31 a 1.33,1.32 -67.6 0 0 -0.69,-1.66 q -4.03,-1.89 -8.45,-2.82 -0.45,-0.1 -0.61,0.39 -0.68,-0.81 -1.78,-0.73 0.39,0.03 0.43,-0.15 0.14,-0.65 -0.52,-0.84 -4.97,-1.4 -7.31,-2.36 a 0.64,0.64 0 0 0 -0.84,0.37 l -3.34,9.12 a 0.83,0.82 26.6 0 0 0.33,0.97 q 4.09,2.65 8.8,3.17 z m -14.83,8.07 q 1.49,1.03 2.12,0.38 1.7,1.22 3.74,1.51 a 0.82,0.81 13.6 0 0 0.88,-0.53 l 2.61,-7.12 a 0.74,0.73 -63.5 0 0 -0.29,-0.88 q -3.26,-2.13 -6.39,-2.41 a 1.21,1.19 -29.3 0 1 -0.4,-0.11 l -5.06,-2.28 a 0.81,0.8 22.4 0 0 -1.09,0.45 l -2.73,7.48 a 0.57,0.57 0 0 0 0.3,0.72 z m 5.1639,5.5748 a 1.09,1.09 0 0 0 -0.6709,-1.3879 l -11.3137,-3.9398 a 1.09,1.09 0 0 0 -1.3878,0.6709 l -2.7954,8.0272 a 1.09,1.09 0 0 0 0.6709,1.3879 l 11.3137,3.9398 a 1.09,1.09 0 0 0 1.3878,-0.6709 z"
       id="path416" />
    <path
       fill="#eb3d3c"
       d="m 208.33,233.61 q 0,2.44 -1.08,4.47 c -0.88,1.65 -0.49,2.37 0.03,3.94 a 1.75,1.75 0 0 1 -1.02,2.19 q -4.01,1.59 -5.3,-2.94 a 1.19,1.17 -39.4 0 1 0.09,-0.85 l 3.75,-7.27 z"
       id="path420" />
    <path
       fill="#2e2411"
       d="m 203.71,245 -0.67,-0.22 q 0.39,0 0.67,0.22 z"
       id="path466" />
    <path
       fill="#eb3d3c"
       d="m 194.15,248.32 -1.69,0.14 a 0.97,0.96 79.6 0 0 -0.85,1.24 c 0.36,1.25 0.85,2.38 0.15,3.37 -1.4,1.96 -3.78,2.4 -5.64,0.71 -2.15,-1.95 1.01,-5.58 2.98,-6.71 2.07,-1.18 3.33,-2.03 5.46,-1.05 a 1.21,1.21 0 0 1 -0.41,2.3 z"
       id="path467" />
    <path
       fill="#eb3d3c"
       d="m 215.65,252.13 c 1.33,3.21 -1.92,4.17 -1.96,7.38 a 0.85,0.85 0 0 1 -0.65,0.83 q -2.66,0.64 -4.2,3.01 -1.16,0.09 -2.21,-0.21 l 1.2,-3.18 a 0.9,0.9 0 0 0 -0.53,-1.16 q -1.58,-0.6 -1.69,-1.6 a 1.27,1.16 -2.4 0 1 1.29,-1.28 c 1.91,0.03 4.69,1.76 5.54,-1.32 a 0.6,0.6 0 0 0 -0.42,-0.74 q -2.56,-0.7 -1.27,-3.59 3.09,-0.69 4.9,1.86 z"
       id="path475" />
    <path
       fill="#eb3d3c"
       d="m 196.26,267.4 -0.13,2.41 a 1.42,1.38 -20.6 0 1 -0.45,0.95 q -2.01,1.86 -4.39,1.03 a 1.3,1.3 0 0 1 -0.05,-2.43 l 1.24,-0.49 a 0.7,0.69 81.3 0 0 0.44,-0.6 l 0.13,-2.35 a 2.16,2.16 0 0 1 2.06,-2.04 q 3.54,-0.17 5.36,1.61 a 1.4,1.24 -6.3 0 1 -1.75,1.93 q -0.63,-0.32 -1.87,-0.5 a 0.52,0.52 0 0 0 -0.59,0.48 z"
       id="path481" />
    <path
       fill="#eb3d3c"
       d="m 177.34,274.91 a 1.15,1.15 0 0 1 0.58,-2.05 c 2.53,-0.29 5.26,0.81 4.38,4.07 q -0.82,3.03 -0.89,3.35 a 1.13,1.11 83.1 0 1 -0.61,0.79 q -2.64,1.29 -5.08,0.75 a 1.24,1.23 42.9 0 1 -0.09,-2.39 l 2.08,-0.61 a 1.07,1.06 85 0 0 0.75,-0.9 q 0.23,-1.96 -1.12,-3.01 z"
       id="path487" />
    <path
       fill="#eb3d3c"
       d="m 201.62,280.34 q 1.1,-0.08 1.78,0.73 -0.02,2.06 -1.95,3.45 -0.23,0.17 -0.32,0.49 -0.1,0.37 -0.04,0.62 a 0.45,0.44 55 0 0 0.81,0.15 q 1.09,-1.72 1.42,-2.15 a 1.14,1.12 42.2 0 1 1.74,-0.07 q 0.33,0.36 0.44,0.81 c 0.22,0.96 -0.61,2.82 -0.58,4.16 a 1.1,1.09 -7.8 0 1 -0.84,1.1 q -1.93,0.47 -3.2,1.61 -0.84,0.13 -1.71,-0.62 0.8,-2.34 -1.29,-3.52 a 1.7,1.7 0 0 1 -0.52,-2.5 q 1.74,-2.32 4.26,-4.26 z"
       id="path494" />
    <path
       fill="#eb3d3c"
       d="m 186.46,299.07 q -0.63,0.65 -2.12,-0.38 l -1.33,-2.55 a 1.17,1.17 0 0 1 0.08,-1.23 q 1.17,-1.69 1.68,-3.88 a 1.47,1.47 0 0 1 1.79,-1.09 q 2.06,0.52 1.91,2.64 a 1.83,1.75 63.1 0 1 -0.23,0.76 c -0.72,1.25 -1.24,1.61 -0.88,3.19 q 0.34,1.48 -0.9,2.54 z"
       id="path504" />
    <path
       fill="#eb3d3c"
       d="m 178.39,304.12 4.29,-1.27 a 1.42,1.42 0 0 1 1.58,2.15 l -3.03,4.51 a 1.23,1.22 60.9 0 1 -2.24,-0.64 q -0.05,-1.33 -1.16,-3.4 a 0.94,0.94 0 0 1 0.56,-1.35 z"
       id="path510" />
  </g>
  <g
     id="g534"
     transform="translate(-211.10662,-285.92205)">
    <path
       fill="#1858a1"
       d="m 214.41,328.49 c -5.28,-4.55 -3.53,-11.26 0.36,-15.84 q 1.47,-1.73 7.07,-5.86 a 8.25,8.02 -87 0 0 1.36,-1.26 c 2.88,-3.33 4.46,-9.02 7.29,-12.22 q 4.27,-4.82 9.35,-6.41 c 9.7,-3.02 16.61,1.23 22.29,8.96 q 1.45,1.97 5.5,4.54 a 3.93,3.73 -21.9 0 0 1.31,0.52 q 9.35,1.79 15.24,3.65 c 3.96,1.26 8.14,4.77 8.43,9.31 0.59,9.51 -9.52,12.89 -17.27,12.29 a 5.33,5.32 -31 0 1 -1.69,-0.42 c -4.28,-1.81 -6.67,-2.58 -11.63,-2.56 q -0.95,0 -3.92,2.03 -3.29,2.23 -7.84,2.83 -4.14,0.54 -5.37,0.42 a 4.92,4.81 -29 0 1 -1.67,-0.46 c -4.24,-2.03 -6.24,-3.02 -9.81,-3.78 a 2.21,2.15 -50.1 0 0 -1.27,0.13 q -3.25,1.42 -5.01,3.84 a 2.02,2.02 0 0 1 -1.26,0.8 q -5,0.94 -10.3,0.04 a 2.49,2.41 -18.7 0 1 -1.16,-0.55 z m 35.29,-39.68 c -2.97,-2.09 -9.59,0.22 -12.79,1.77 a 2.01,1.97 -83.1 0 0 -0.71,0.57 q -1.04,1.32 -1.46,1.59 c -3.87,2.52 -5.84,7.08 -7.4,10.88 a 6.34,6.21 -14.4 0 1 -1,1.65 c -5.34,6.43 -13.32,8.41 -12.86,17.5 q 0.19,3.7 3.08,4.08 c 2.28,0.31 6.38,0.57 8.58,-0.3 a 2.06,2.02 -79.2 0 0 0.82,-0.57 c 5.05,-5.69 11.37,-3.7 17.1,-0.31 a 2.96,2.89 -25.9 0 0 1.17,0.39 q 7.37,0.86 13.02,-3.03 2.62,-1.81 3.86,-2 c 3.24,-0.52 6.62,-0.09 9.61,1.25 4.89,2.17 9.13,2.16 14.04,0.1 q 5.82,-2.43 5.5,-8.33 c -0.22,-3.98 -3.44,-6.21 -6.9,-7.42 q -6.31,-2.2 -13.54,-3.13 a 7.89,7.81 -45.3 0 0 -2.16,0.02 q -6.42,0.93 -11.63,1.78 -4.56,0.74 -6.82,0 c -3.75,-1.22 -4.97,-5.66 -4.89,-9.19 q 0.11,-4.76 5.3,-6.68 a 0.35,0.35 0 0 0 0.08,-0.62 z m 14.53,12.34 q -5.48,-5.77 -7.54,-8.23 c -2.53,-3.01 -5.84,-1.64 -8.73,0.05 a 1.99,1.98 82.9 0 0 -0.9,1.16 c -0.88,3.11 -0.2,9.72 4.51,9.48 q 6.43,-0.33 12.5,-1.9 a 0.34,0.34 0 0 0 0.16,-0.56 z"
       id="path499" />
    <path
       fill="#1858a1"
       d="m 241.95,306.44 c -3.81,2.78 -12.82,4.62 -12.33,-2.94 q 0.25,-3.77 4.09,-9.05 3.21,-4.43 7.42,-1.8 a 1.78,1.71 -87.4 0 1 0.65,0.74 c 1.24,2.67 3.39,10.71 0.17,13.05 z m -7.36,0.17 2.83,-0.23 a 4.42,4.42 0 0 0 4.07,-4.24 q 0.15,-4.2 -1.82,-7.44 A 1.74,1.74 0 0 0 237,294.32 q -3.72,3.46 -5.22,8.9 a 2.69,2.69 0 0 0 2.81,3.39 z"
       id="path505" />
    <ellipse
       fill="#1858a1"
       cx="0"
       cy="0"
       transform="rotate(-55.5,443.77936,-86.164037)"
       rx="4.1799998"
       ry="3.98"
       id="ellipse523" />
    <ellipse
       fill="#1858a1"
       cx="0"
       cy="0"
       transform="rotate(-29.6,740.81854,-275.86126)"
       rx="4.6799998"
       ry="3.8599999"
       id="ellipse526" />
  </g>
</svg>
