<?xml version="1.0" encoding="UTF-8" standalone="no"?>
<svg
   version="1.1"
   viewBox="0 0 49.152592 45.519485"
   id="svg534"
   width="49.152592"
   height="45.519485"
   xmlns="http://www.w3.org/2000/svg"
   xmlns:svg="http://www.w3.org/2000/svg">
  <defs
     id="defs534" />
  <g
     id="g540"
     transform="translate(-125.40255,-149.88935)">
    <path
       fill="#f18808"
       d="m 159.27,157.98 a 1.1,1.1 0 0 0 1.54,-0.33 q 3.08,-4.95 6.79,-7.53 a 1.28,1.27 -31.8 0 1 1.85,0.43 q 1.35,2.46 1.92,5.53 1.35,7.39 1.82,14.92 0.04,0.54 0.99,2.81 a 4.95,4.87 -55.4 0 1 0.37,2.11 c -0.25,6 0.02,9.38 -4.04,12.88 q -2.3,1.98 -6.29,2.59 c -2.84,0.43 -6.89,2.06 -10.68,2.62 q -10.13,1.51 -16.54,1.39 -2.44,-0.04 -6.99,-2.65 a 3.29,3.13 85.4 0 1 -0.97,-0.87 q -4.66,-6.3 -3.35,-13.22 2.72,-14.35 4.48,-23.99 0.5,-2.71 3.17,-1.85 a 0.43,0.32 -8 0 1 0.09,0.05 l 7.67,5.81 a 2.3,2.27 -37.3 0 0 2.24,0.29 q 0.76,-0.31 7.88,-3.25 0.79,-0.33 4.32,-0.06 a 1.21,1.18 63 0 1 0.59,0.2 z m 8.13,5.84 -0.84,-7.3 a 0.39,0.39 0 0 0 -0.69,-0.19 l -2.45,3.23 a 0.8,0.8 0 0 0 0,0.96 q 1.71,2.3 3.57,3.55 a 0.26,0.26 0 0 0 0.41,-0.25 z m -34.19,-5.7 a 0.51,0.51 0 0 0 -0.81,0.33 l -1.4,9.49 a 0.32,0.32 0 0 0 0.58,0.23 q 2.38,-3.46 5.58,-5.46 a 0.94,0.94 0 0 0 0.07,-1.55 z m 32.7658,9.8078 a 1.62,0.26 -30.5 0 0 -1.5278,0.5982 1.62,0.26 -30.5 0 0 -1.2638,1.0462 1.62,0.26 -30.5 0 0 1.5278,-0.5982 1.62,0.26 -30.5 0 0 1.2638,-1.0462 z m -32.5258,3.1122 0.7,-0.41 a 0.4,0.4 0 0 0 -0.19,-0.74 q -0.16,0 -0.75,0.89 a 0.18,0.18 0 0 0 0.24,0.26 z m 24.2105,1.3212 a 2.05,1.58 -51.7 0 0 -2.5104,0.6295 2.05,1.58 -51.7 0 0 -0.0306,2.5881 2.05,1.58 -51.7 0 0 2.5104,-0.6295 2.05,1.58 -51.7 0 0 0.0306,-2.5881 z m -16.851,1.2267 a 1.92,1.53 -78.6 0 0 -1.8793,1.5797 1.92,1.53 -78.6 0 0 1.1203,2.1845 1.92,1.53 -78.6 0 0 1.8793,-1.5797 1.92,1.53 -78.6 0 0 -1.1203,-2.1845 z m 4.0305,6.3121 -5.43,1.74 a 1.34,1.34 0 0 0 -0.4,0.23 l -3.41,2.77 a 0.45,0.45 0 0 0 -0.09,0.61 q 4.59,6.56 12.79,5 c 1.58,-0.3 2.78,0.28 3.78,0.35 a 2.77,2.73 31 0 0 1.66,-0.4 l 8.62,-5.24 a 1.52,1.52 0 0 0 0.73,-1.26 q 0.05,-1.56 -0.94,-3.17 a 1.33,1.31 -7.8 0 0 -0.77,-0.58 c -1.72,-0.5 -2.67,-0.93 -4.73,-0.73 q -2.18,0.22 -4.16,-0.08 -2.75,-2.56 -7.65,0.76 z m 27.43,0.1 q -0.32,0.14 -1.2,1.1 a 0.44,0.43 -59.5 0 0 0.18,0.71 q 1.51,0.5 2.03,-0.51 a 0.92,0.82 -86 0 0 -1.01,-1.3 z"
       id="path344" />
    <ellipse
       fill="#441e17"
       cx="0"
       cy="0"
       transform="rotate(-51.7,257.73211,-74.40954)"
       rx="2.05"
       ry="1.58"
       id="ellipse374" />
    <ellipse
       fill="#441e17"
       cx="0"
       cy="0"
       transform="rotate(-78.6,177.40622,1.9490335)"
       rx="1.92"
       ry="1.53"
       id="ellipse381" />
    <path
       fill="#441e17"
       d="m 152.49,179.14 -2.27,3.23 a 1.35,1.34 -60.7 0 1 -1.63,0.46 q -2.24,-0.96 -3.75,-2.93 4.9,-3.32 7.65,-0.76 z"
       id="path385" />
  </g>
</svg>
