<?xml version="1.0" encoding="UTF-8" standalone="no"?>
<svg
   version="1.1"
   viewBox="0 0 34.257076 51.369106"
   id="svg325"
   width="34.257076"
   height="51.369106"
   xmlns="http://www.w3.org/2000/svg"
   xmlns:svg="http://www.w3.org/2000/svg">
  <defs
     id="defs325" />
  <path
     fill="#d1605b"
     d="m 13.657978,51.182337 a 0.32,0.32 0 0 1 -0.56,0.04 c -1.58,-2.31 -2.84,-5.08 -3.3800005,-7.96 -0.87,-4.6 -4.45,-7.36 -5.83,-11.42 -0.85,-2.52 -4.74999997,-5.4 -2.11,-8.12 a 0.74,0.75 36.8 0 0 -0.16,-1.16 q -2.39999997,-1.4 -1.23999997,-3.12 1.50999997,-2.24 3.71999997,-2.98 a 1.81,1.81 0 0 1 2.14,0.81 l 5.7700005,10 a 1.04,1.03 50.4 0 0 1.68,0.16 c 1.71,-2.01 2.83,-3.88 3.72,-6.04 q 4.69,-11.3999997 9.41,-19.0699997 0.9,-1.47000003 3.04,-2.24000003 a 1.48,1.5 47.4 0 1 1.08,0.04 q 4.38,1.88000003 2.98,6.60000003 -1.4,4.6599997 -3.55,8.9199997 -2.78,5.5 -4.2,8.68 -4.46,10 -12.51,26.86 z"
     id="path287" />
</svg>
