<?xml version="1.0" encoding="UTF-8" standalone="no"?>
<svg
   version="1.1"
   viewBox="0 0 45.320747 42.520077"
   id="svg527"
   width="45.320747"
   height="42.520077"
   xmlns="http://www.w3.org/2000/svg"
   xmlns:svg="http://www.w3.org/2000/svg">
  <defs
     id="defs527" />
  <path
     fill="#c6d93c"
     d="m 18.361388,23.417275 c 1.77,1.61 6.6,0.58 5.37,-3.01 a 1.95,1.91 13 0 0 -0.48,-0.75 c -4.5,-4.37 -14.5100004,1.71 -8.87,8.09 a 2.36,2.27 81.6 0 0 0.7,0.54 q 5.41,2.75 7.61,2.64 7.48,-0.38 10.51,-6.7 c 0.8,-1.65 0.43,-4.48 -0.57,-6.03 q -4.18,-6.49 -11.14,-6.94 -7.38,-0.47 -13.2300004,5.41 c -4.25,4.26 -7.40000005,10.58 -3.95,15.93 3.95,6.15 13.2000004,8.04 19.8200004,6.91 q 9.69,-1.66 15.53,-8.39 c 6.03,-6.97 2.32,-17.49 -4.17,-22.9999999 -5.7,-4.84 -11.49,-6.72 -18.59,-5.08 -5.72,1.32 -9.9800004,4.18 -15.0500004,7.9199999 a 1.12,1.12 0 0 1 -1.68000005,-0.44 l -0.03,-0.07 a 1.65,1.64 61 0 1 0.58,-2.0299999 q 7.31000005,-4.96 9.26000005,-5.81 12.6600004,-5.49 23.6000004,0.58 c 10.59,5.87 16.29,21.2099999 7.22,30.8699999 q -5.34,5.68 -14.31,7.69 -8.98,2.02 -16.42,-1.24 c -13.5600004,-5.95 -12.1600004,-18.71 -2.0000004,-27.31 8.6800004,-7.3399999 24.0300004,-6.2499999 27.7900004,6.24 1.51,5.02 -1.61,10.21 -6.14,12.37 q -5.43,2.59 -11.06,1.13 -7.19,-1.86 -8.7300004,-7.94 a 2.51,2.75 37.2 0 1 -0.07,-0.76 q 0.1700004,-4.17 2.7200004,-6.18 5.27,-4.15 10.95,-1.53 c 5.39,2.48 3.55,10.32 -2.63,10.25 q -4.19,-0.05 -5.95,-3.57 a 1.35,1.35 0 0 1 -0.02,-1.13 q 1.18,-2.61 4.54,-2.4 a 0.89,0.89 0 0 1 0.53,1.55 l -1.63,1.44 a 0.51,0.51 0 0 0 -0.01,0.75 z"
     id="path245" />
</svg>
