<?xml version="1.0" encoding="UTF-8" standalone="no"?>
<svg
   version="1.1"
   viewBox="0 0 49.706406 36.20401"
   id="svg527"
   width="49.706406"
   height="36.20401"
   xmlns="http://www.w3.org/2000/svg"
   xmlns:svg="http://www.w3.org/2000/svg">
  <defs
     id="defs527" />
  <path
     fill="#eb3d3c"
     d="m 29.043956,4.1013717 3.41,-1.84 a 1.21,1.21 0 0 1 0.45,-0.15 q 2.76,-0.43 4.03,1.82 a 0.98,1.05 25.3 0 1 0.14,0.44 l 0.25,3.19 a 1.04,1.04 0 0 0 1.21,0.94 q 2.88,-0.51 4.71,0.93 a 1.37,1.39 16.5 0 1 0.52,0.9700003 l 0.26,3.17 a 2.06,2.03 16.3 0 0 0.83,1.49 c 2.69,1.98 6.12,3.48 4.38,7.74 a 1.83,1.72 83.4 0 1 -0.55,0.74 l -2.46,1.93 a 2.35,2.29 79.7 0 0 -0.8,1.19 q -0.1,0.33 -0.4,3.88 c -0.29,3.42 -3.64,6.84 -7.32,5.27 q -2.3,-0.98 -4.24,-2.75 a 1.29,1.28 44.2 0 0 -1.77,0.02 c -2.9,2.8 -8.33,4.77 -11.39,0.63 -0.72,-0.96 -0.82,-2.32 -1.24,-3.39 a 0.8,0.79 79.2 0 0 -0.72,-0.5 c -4.42,-0.07 -9.86,0.92 -10.58,-5.17 a 1.58,1.59 5.9 0 0 -1.06,-1.31 c -3.1,-1.07 -6.56999996,-1.87 -6.69999996,-5.21 q -0.12,-2.92 3.39999996,-3.61 a 0.92,0.92 0 0 0 0.7,-1.22 c -0.94,-2.66 0.55,-4.2700003 2.99,-4.7600003 q 1.43,-0.29 1.7,-1.51 c 0.93,-4.21 4.06,-3.69 7.28,-3.06 a 0.94,0.96 26 0 0 0.93,-0.33 c 2.44,-3.00999998 4.87,-5.1 8.68,-2.38 0.93,0.66 1.59,2.04 2.45,2.75 a 0.8,0.81 51 0 0 0.91,0.09 z m -19.6,7.2900003 -1.91,-0.46 a 1.14,1.14 0 0 0 -1.18,1.78 l 2.11,2.89 a 1.1,1.1 0 0 1 -1.15,1.71 l -3.03,-0.74 a 1.45,1.45 0 0 0 -1.49,2.29 c 1.18,1.53 4.01,1.75 5.58,2.3 a 1.19,1.19 0 0 1 0.71,0.68 l 1.62,4.15 a 1.23,1.25 0.4 0 0 0.64,0.66 q 2.99,1.3 6.31,0.68 a 2.9,2.91 70.8 0 1 3.1,1.49 c 1.01,1.92 1.61,5.55 5.29,4.98 a 1.06,1.16 28.3 0 0 0.4,-0.14 l 5.08,-3.1 a 1.93,1.92 44.8 0 1 1.99,0 q 0.61,0.32 3.19,2.02 c 5.94,3.92 5.85,-2.31 6.14,-6.48 a 1.92,1.95 63.4 0 1 0.34,-0.99 q 0.62,-0.9 2.44,-2.08 c 4.05,-2.62 0.35,-4.58 -2.1,-5.75 a 2.12,2.16 86.9 0 1 -0.85,-0.75 q -1.32,-2.03 -0.94,-4.54 a 1.2,1.2 0 0 0 -1.28,-1.38 l -3.27,0.26 a 1.81,1.81 0 0 1 -1.95,-1.6600003 l -0.28,-3.46 a 1.43,1.43 0 0 0 -2.18,-1.1 c -2.25,1.4 -3.92,2.87 -5.91,1.9 a 1.69,1.66 88 0 1 -0.74,-0.7 c -1.18,-2.06 -2.66,-4.24 -5.02,-3.28 -1.35,0.55 -1.62,2.78 -2.41,3.82 a 1.55,1.55 0 0 1 -1.71,0.53 l -3.23,-1.05 a 1.75,1.75 0 0 0 -2.25,1.25 l -0.85,3.5400003 a 1,1 0 0 1 -1.21,0.73 z"
     id="path244" />
  <g
     id="g541"
     transform="translate(-219.18604,-3.1186283)">
    <path
       fill="#6e5695"
       d="m 273.28,45.86 a 0.68,0.68 0 0 0 0.43,-0.84 q -2.54,-8.4 2.5,-15.42 c 6.26,-8.75 19.87,-9.6 27.16,-1.15 q 4.91,5.69 3.73,13.84 a 1.3,1.3 0 0 0 1.33,1.49 q 6.85,-0.23 12.77,2.88 2.17,1.14 1.96,3.6 a 1.42,1.41 73.6 0 1 -0.52,0.96 c -4.25,3.44 -6.59,3.7 -12.78,5.43 -5.84,1.64 -10.74,1.49 -17.12,2.23 -9.04,1.05 -18.52,0.41 -27.47,-1.19 q -2.79,-0.5 -5.22,-2.54 a 1.58,1.55 13.7 0 1 -0.51,-0.82 q -0.65,-2.82 1.6,-4.09 5.16,-2.91 7.56,-3.36 3.43,-0.64 4.58,-1.02 z m 3.04,-1.31 28.4,-1.53 a 0.88,0.88 0 0 0 0.83,-0.93 l -0.17,-3.07 A 15.3,14.97 86.9 0 0 289.61,24.55 l -0.26,0.01 a 15.3,14.97 86.9 0 0 -14.12,16.09 l 0.17,3.07 a 0.88,0.88 0 0 0 0.92,0.83 z m -12.57,10.43 a 13.6,2.81 3.6 0 0 1.13,0.39 29.53,5.37 -3.6 0 0 16.87,1.65 29.52,5.39 -3.6 0 0 34.89,-4.54 29.63,5.46 -3.4 0 0 3.46,-1.88 29.41,5.35 -3.9 0 0 0.3,-1.8 29.59,5.47 -4.1 0 0 -3.41,-1.67 29.51,5.41 -3.7 0 0 -18.24,-1.49 29.53,5.39 -3.6 0 0 -32.95,4.51 29.67,5.55 -3.1 0 0 -3.34,1.75 29.47,5.44 -2.7 0 0 -0.7,1.47 29.53,5.37 -3.4 0 0 1.99,1.61 z"
       id="path256" />
    <path
       fill="#6e5695"
       d="m 296.58,36.96 a 5.76,5.76 0 0 1 -5.76,5.76 5.76,5.76 0 0 1 -5.76,-5.76 5.76,5.76 0 0 1 5.76,-5.76 5.76,5.76 0 0 1 5.76,5.76 z m -2.06,0.01 a 3.64,3.64 0 0 0 -3.64,-3.64 3.64,3.64 0 0 0 -3.64,3.64 3.64,3.64 0 0 0 3.64,3.64 3.64,3.64 0 0 0 3.64,-3.64 z"
       id="path265" />
    <ellipse
       fill="#6e5695"
       cx="0"
       cy="0"
       transform="rotate(-123.9,170.39873,-58.676503)"
       rx="1.72"
       ry="1.45"
       id="ellipse276" />
    <ellipse
       fill="#6e5695"
       cx="0"
       cy="0"
       transform="rotate(-155.7,157.87632,-7.4230145)"
       rx="2.0899999"
       ry="1.85"
       id="ellipse277" />
    <ellipse
       fill="#6e5695"
       cx="0"
       cy="0"
       transform="rotate(-104,167.31154,-89.201806)"
       rx="2.1099999"
       ry="1.9299999"
       id="ellipse278" />
    <ellipse
       fill="#6e5695"
       cx="0"
       cy="0"
       transform="rotate(-134.6,152.89149,-33.376978)"
       rx="2.3099999"
       ry="2.1099999"
       id="ellipse279" />
    <ellipse
       fill="#6e5695"
       cx="0"
       cy="0"
       transform="rotate(-152.2,143.35299,-7.3108652)"
       rx="2.22"
       ry="1.9299999"
       id="ellipse280" />
    <path
       fill="#6e5695"
       d="m 263.85,52.67 a 0.53,0.53 0 0 1 0.39,-0.63 l 0.24,-0.06 a 2.46,1.35 -13.5 0 1 2.71,0.74 l 0.05,0.23 a 2.46,1.35 -13.5 0 1 -2.07,1.89 l -0.25,0.05 a 0.53,0.53 0 0 1 -0.64,-0.39 z"
       id="path280" />
    <path
       fill="#2e2411"
       d="m 264.88,55.37 a 13.6,2.81 3.6 0 1 -1.13,-0.39 z"
       id="path282" />
    <rect
       fill="#6e5695"
       x="-1.1"
       y="-4.1300001"
       transform="rotate(-40.3,242.76827,-414.94688)"
       width="2.2"
       height="8.2600002"
       rx="1.0599999"
       id="rect282" />
    <rect
       fill="#6e5695"
       x="-1.09"
       y="-4.0999999"
       transform="rotate(42.9,48.932973,360.84178)"
       width="2.1800001"
       height="8.1999998"
       rx="1.05"
       id="rect283" />
    <rect
       fill="#6e5695"
       x="-1.05"
       y="-5.0799999"
       transform="rotate(-31.6,273.26687,-512.68914)"
       width="2.0999999"
       height="10.16"
       rx="1.03"
       id="rect286" />
    <ellipse
       fill="#6e5695"
       cx="0"
       cy="0"
       transform="rotate(-76,182.1812,-142.97952)"
       rx="5.4899998"
       ry="1.24"
       id="ellipse286" />
    <rect
       fill="#6e5695"
       x="-1"
       y="-4.1100001"
       transform="rotate(-8.6,608.86018,-1907.4033)"
       width="2"
       height="8.2200003"
       rx="0.95999998"
       id="rect287" />
  </g>
</svg>
