<?xml version="1.0" encoding="UTF-8" standalone="no"?>
<svg
   version="1.1"
   viewBox="0 0 16.205791 26.371973"
   id="svg527"
   width="16.205791"
   height="26.371973"
   xmlns="http://www.w3.org/2000/svg"
   xmlns:svg="http://www.w3.org/2000/svg">
  <defs
     id="defs527" />
  <path
     fill="#1858a1"
     d="M 8.6750495,0.19167686 Q 12.80505,4.3716769 15.72505,10.511677 c 0.77,1.64 0.58,3.44 -0.32,5.22 -1.56,3.1 -4.2,8.99 -6.8300005,10.44 a 1.59,1.59 0 0 1 -2.18,-0.65 q -2.64,-4.94 -5.9,-11.1 -1,-1.88 0.02,-3.35 3.69,-5.2700001 7.16,-10.77000014 a 0.64,0.64 0 0 1 1,-0.11 z m 0.16,4.44000004 a 0.73,0.73 0 0 0 -1.19,0.03 l -5.37,7.9800001 a 0.73,0.73 0 0 0 -0.02,0.77 l 5.36,9.29 a 0.73,0.73 0 0 0 1.26,0 l 5.5700005,-9.64 a 0.73,0.73 0 0 0 -0.04,-0.79 z"
     id="path514" />
</svg>
