<?xml version="1.0" encoding="UTF-8" standalone="no"?>
<svg
   version="1.1"
   viewBox="0 0 33.663925 36.136295"
   id="svg534"
   width="33.663925"
   height="36.136295"
   xmlns="http://www.w3.org/2000/svg"
   xmlns:svg="http://www.w3.org/2000/svg">
  <defs
     id="defs534" />
  <g
     id="g539"
     transform="translate(-27.666032,-145.00016)">
    <ellipse
       fill="#441e17"
       cx="0"
       cy="0"
       transform="rotate(-91.2,99.680507,46.938352)"
       rx="2.5799999"
       ry="2.1800001"
       id="ellipse340" />
    <ellipse
       fill="#441e17"
       cx="0"
       cy="0"
       transform="rotate(-82.4,112.06139,49.46508)"
       rx="3.73"
       ry="3.1199999"
       id="ellipse345" />
    <ellipse
       fill="#441e17"
       cx="0"
       cy="0"
       transform="rotate(-65.1,139.45652,50.912996)"
       rx="3.77"
       ry="3.3499999"
       id="ellipse346" />
    <ellipse
       fill="#441e17"
       cx="0"
       cy="0"
       transform="rotate(-108.1,88.058784,60.784446)"
       rx="4.21"
       ry="3.6300001"
       id="ellipse355" />
    <path
       fill="#441e17"
       d="m 40.83,162.75 a 1.72,1.72 0 0 1 2.35,-0.64 l 0.65,0.37 a 5.09,3.64 29.7 0 1 2.62,5.68 l -0.07,0.12 a 5.09,3.64 29.7 0 1 -6.23,0.64 l -0.65,-0.37 a 1.72,1.72 0 0 1 -0.64,-2.34 z"
       id="path356" />
    <ellipse
       fill="#441e17"
       cx="0"
       cy="0"
       transform="rotate(-134.4,51.909281,79.734753)"
       rx="3.8499999"
       ry="3.3299999"
       id="ellipse362" />
    <path
       fill="#441e17"
       d="m 53.26,173.71 a 1.26,1.26 0 0 1 1.35,-1.17 l 0.43,0.03 a 4.63,3.86 4.2 0 1 4.34,4.19 l -0.01,0.16 a 4.63,3.86 4.2 0 1 -4.9,3.51 l -0.43,-0.03 a 1.26,1.26 0 0 1 -1.17,-1.35 z"
       id="path374" />
    <ellipse
       fill="#441e17"
       cx="0"
       cy="0"
       transform="rotate(-82.4,124.45667,63.252113)"
       rx="2.8900001"
       ry="2.6800001"
       id="ellipse383" />
  </g>
</svg>
