<?xml version="1.0" encoding="UTF-8" standalone="no"?>
<svg
   version="1.1"
   viewBox="0 0 79.131973 65.511673"
   id="svg325"
   width="79.131973"
   height="65.511673"
   xmlns="http://www.w3.org/2000/svg"
   xmlns:svg="http://www.w3.org/2000/svg">
  <defs
     id="defs325" />
  <g
     id="g328"
     transform="translate(-20.767543,-87.030004)">
    <circle
       fill="#d1605b"
       cx="39.240002"
       cy="91.730003"
       r="4.6999998"
       id="circle166" />
    <ellipse
       fill="#d1605b"
       cx="0"
       cy="0"
       transform="rotate(-163.9,42.963806,41.261917)"
       rx="4.7399998"
       ry="2.25"
       id="ellipse167" />
    <path
       fill="#d1605b"
       d="m 94.25,96.19 c -0.15,1.93 -3.43,3.35 -5,3.48 a 1.6,1.6 0 0 1 -0.97,-0.22 q -2.5,-1.44 -4.08,-3.67 -0.04,-0.06 -0.02,-0.37 0.03,-0.31 0.08,-0.36 1.9,-1.97 4.59,-3 a 1.6,1.6 0 0 1 1,-0.07 c 1.52,0.37 4.55,2.27 4.4,4.21 z"
       id="path168" />
    <ellipse
       fill="#d1605b"
       cx="0"
       cy="0"
       transform="rotate(-163.2,34.789202,44.159788)"
       rx="4.8099999"
       ry="3.8800001"
       id="ellipse168" />
    <ellipse
       fill="#d1605b"
       cx="0"
       cy="0"
       transform="rotate(-160.7,22.200509,53.653854)"
       rx="4.8400002"
       ry="2.6700001"
       id="ellipse169" />
    <ellipse
       fill="#d1605b"
       cx="0"
       cy="0"
       transform="rotate(-142.3,41.41713,51.195344)"
       rx="4.77"
       ry="3.23"
       id="ellipse170" />
    <ellipse
       fill="#d1605b"
       cx="0"
       cy="0"
       transform="rotate(-70.9,131.24959,-7.140731)"
       rx="5.54"
       ry="4.7600002"
       id="ellipse171" />
    <ellipse
       fill="#d1605b"
       cx="0"
       cy="0"
       transform="rotate(-159.4,49.12491,51.241095)"
       rx="4.7399998"
       ry="2.25"
       id="ellipse172" />
    <rect
       fill="#d1605b"
       x="-4.4000001"
       y="-4.4000001"
       transform="rotate(-33.1,231.1727,-44.945815)"
       width="8.8000002"
       height="8.8000002"
       rx="3.27"
       id="rect172" />
    <ellipse
       fill="#d1605b"
       cx="0"
       cy="0"
       transform="rotate(-163.1,22.730412,63.532991)"
       rx="4.8200002"
       ry="3.95"
       id="ellipse176" />
    <ellipse
       fill="#d1605b"
       cx="0"
       cy="0"
       transform="rotate(-159.3,32.585111,65.143699)"
       rx="4.6399999"
       ry="3.45"
       id="ellipse177" />
    <path
       fill="#d1605b"
       d="m 69.19,137.2 a 1.92,1.92 0 0 1 1.35,-2.35 l 0.91,-0.25 a 5.8,3.97 -15.1 0 1 6.63,2.32 l 0.04,0.14 a 5.8,3.97 -15.1 0 1 -4.57,5.34 l -0.9,0.25 a 1.92,1.92 0 0 1 -2.36,-1.36 z"
       id="path178" />
    <ellipse
       fill="#d1605b"
       cx="0"
       cy="0"
       transform="rotate(-78.3,116.62126,39.339312)"
       rx="5.8699999"
       ry="4.6900001"
       id="ellipse179" />
    <rect
       fill="#d1605b"
       x="-4.46"
       y="-4.46"
       transform="rotate(-26.4,358.75818,-113.88155)"
       width="8.9200001"
       height="8.9200001"
       rx="3.1700001"
       id="rect188" />
  </g>
</svg>
