<?xml version="1.0" encoding="UTF-8" standalone="no"?>
<svg
   version="1.1"
   viewBox="0 0 78.29274 74.575409"
   id="svg325"
   width="78.29274"
   height="74.575409"
   xmlns="http://www.w3.org/2000/svg"
   xmlns:svg="http://www.w3.org/2000/svg">
  <defs
     id="defs325" />
  <g
     id="g327"
     transform="translate(-667.255,-19.140631)">
    <ellipse
       fill="#62a797"
       cx="0"
       cy="0"
       transform="rotate(-93.9,350.12221,-300.5401)"
       rx="9.1999998"
       ry="6.5100002"
       id="ellipse151" />
    <path
       fill="#62a797"
       d="m 696.18,19.56 a 1.49,1.48 71.2 0 1 1.12,0.55 c 3.82,4.75 5.92,9.01 3.05,14.99 -2.15,4.52 -7.45,3.51 -10.03,0.21 q -1.62,-2.06 -2.08,-5.61 a 2.7,2.67 -35.9 0 1 0.25,-1.51 q 0.75,-1.58 0.93,-2.97 c 0.44,-3.26 3.53,-5.75 6.76,-5.66 z"
       id="path152" />
    <ellipse
       fill="#62a797"
       cx="0"
       cy="0"
       transform="rotate(-92.5,372.55023,-327.93147)"
       rx="9.3100004"
       ry="6.3899999"
       id="ellipse153" />
    <ellipse
       fill="#62a797"
       cx="0"
       cy="0"
       transform="rotate(-93.1,383.44222,-333.97039)"
       rx="9.3000002"
       ry="6.3899999"
       id="ellipse154" />
    <path
       fill="#62a797"
       d="m 687.35,38.18 c 3.82,4.75 5.91,9.01 3.04,14.98 -2.16,4.51 -7.45,3.5 -10.03,0.2 q -1.61,-2.06 -2.07,-5.61 a 2.7,2.67 -35.9 0 1 0.25,-1.51 q 0.75,-1.58 0.94,-2.96 c 0.44,-3.26 3.53,-5.75 6.76,-5.65 a 1.49,1.48 71.2 0 1 1.11,0.55 z"
       id="path158" />
    <path
       fill="#62a797"
       d="m 699.82,46.95 q 0.75,-0.78 1.06,-2.54 c 0.62,-3.52 2.86,-5.39 6.49,-5.99 a 1.02,1 -26.7 0 1 0.87,0.28 c 4.07,4.08 6.43,9.41 3.67,15.01 q -2.18,4.41 -6.5,3.18 c -3.69,-1.06 -5.3,-5.52 -5.87,-9.05 a 1.06,1.03 63.1 0 1 0.28,-0.89 z"
       id="path159" />
    <ellipse
       fill="#62a797"
       cx="0"
       cy="0"
       transform="rotate(-92.9,387.18055,-321.43249)"
       rx="9.1800003"
       ry="6.4499998"
       id="ellipse159" />
    <ellipse
       fill="#62a797"
       cx="0"
       cy="0"
       transform="rotate(-92.1,369.73146,-291.91626)"
       rx="9.3299999"
       ry="6.4499998"
       id="ellipse160" />
    <ellipse
       fill="#62a797"
       cx="0"
       cy="0"
       transform="rotate(-93.9,379.7869,-291.41663)"
       rx="9.21"
       ry="6.4099998"
       id="ellipse161" />
    <ellipse
       fill="#62a797"
       cx="0"
       cy="0"
       transform="rotate(-94,390.76364,-300.35973)"
       rx="9.2299995"
       ry="6.3899999"
       id="ellipse162" />
    <ellipse
       fill="#62a797"
       cx="0"
       cy="0"
       transform="rotate(-94.3,401.71667,-308.03018)"
       rx="9.1599998"
       ry="6.5300002"
       id="ellipse163" />
    <path
       fill="#62a797"
       d="m 678.45,82.45 a 1.06,1.04 63.6 0 1 0.29,-0.89 q 0.76,-0.78 1.09,-2.54 c 0.65,-3.53 2.91,-5.39 6.56,-5.96 a 1.02,1 -26.2 0 1 0.87,0.29 c 4.05,4.13 6.38,9.5 3.56,15.1 q -2.23,4.41 -6.55,3.14 c -3.7,-1.1 -5.28,-5.59 -5.82,-9.14 z"
       id="path163" />
    <path
       fill="#62a797"
       d="m 699.95,83.19 a 1.06,1.03 64.8 0 1 0.31,-0.88 q 0.77,-0.76 1.13,-2.51 c 0.72,-3.5 3.01,-5.3 6.65,-5.79 a 1.02,1 -25 0 1 0.87,0.3 c 3.94,4.19 6.15,9.59 3.23,15.1 q -2.31,4.34 -6.59,2.99 c -3.65,-1.17 -5.13,-5.67 -5.6,-9.21 z"
       id="path164" />
    <path
       fill="#62a797"
       d="m 729.43,74.43 a 0.36,0.34 -29.2 0 1 0.42,0.11 l 3.5,4.8 a 4.21,4.17 -71.3 0 1 0.68,1.39 c 1.26,4.36 0.8,11.78 -4.67,12.88 -4.96,0.99 -7.77,-5.17 -7.94,-9.4 a 2.08,2.01 56.9 0 1 0.18,-0.93 c 1.05,-2.36 0.95,-4.24 3.25,-6.65 a 1.72,1.59 -78.4 0 1 0.5,-0.36 z"
       id="path165" />
  </g>
</svg>
