<?xml version="1.0" encoding="UTF-8" standalone="no"?>
<svg
   version="1.1"
   viewBox="0 0 18.97641 18.526426"
   id="svg527"
   width="18.97641"
   height="18.526426"
   xmlns="http://www.w3.org/2000/svg"
   xmlns:svg="http://www.w3.org/2000/svg">
  <defs
     id="defs527" />
  <g
     id="g537"
     transform="translate(-332.34315,-157.46795)">
    <path
       fill="#1858a1"
       d="m 336.17,168.15 c 1.69,-3.31 2.23,-7.11 4.51,-10.34 a 0.83,0.82 53.4 0 1 1.45,0.22 q 0.11,0.35 -0.15,1.21 -1.84,6.05 -5.18,13.57 -0.34,0.76 -1.1,1.2 a 1.45,1.4 67.1 0 1 -2.06,-0.88 q -0.85,-2.95 -1.23,-6.06 -0.19,-1.5 0.16,-1.92 a 1.31,1.22 55.1 0 1 2.13,0.46 q 0.22,0.56 0.62,2.43 a 0.45,0.45 0 0 0 0.85,0.11 z"
       id="path350" />
    <path
       fill="#eb3d3c"
       d="m 347.55,164.64 1.38,-2.05 a 1.28,1.26 26.8 0 1 1.49,-0.48 l 0.33,0.12 a 0.94,0.94 0 0 1 0.38,1.43 c -1.38,1.79 -2.86,3.34 -2.44,4.9 q 0.27,1 0.3,1.56 a 0.76,0.76 0 0 1 -0.7,0.81 l -1.53,0.12 a 1.53,1.53 0 0 0 -1.15,0.68 l -2.62,3.89 a 0.84,0.84 0 0 1 -1.17,0.23 l -0.43,-0.29 a 1.07,1.07 0 0 1 -0.29,-1.48 l 3.73,-5.54 a 1.13,1.13 0 0 0 0.19,-0.66 q 0,-1.16 -1.1,-2.54 a 1.46,1.46 0 0 1 -0.07,-1.73 l 0.34,-0.51 a 0.76,0.75 43.9 0 1 1.24,-0.02 l 1.15,1.58 a 0.59,0.59 0 0 0 0.97,-0.02 z"
       id="path353" />
  </g>
</svg>
