<?xml version="1.0" encoding="UTF-8" standalone="no"?>
<svg
   version="1.1"
   viewBox="0 0 40.330601 29.116438"
   id="svg527"
   width="40.330601"
   height="29.116438"
   xmlns="http://www.w3.org/2000/svg"
   xmlns:svg="http://www.w3.org/2000/svg">
  <defs
     id="defs527" />
  <g
     id="g546"
     transform="translate(-34.547277,-227.12441)">
    <path
       fill="#6e5695"
       d="m 38.11,255.87 q -1.52,-1.5 -1.86,-4.14 -0.98,-7.46 -1.69,-15.52 a 3.61,3.6 -23.5 0 1 1.18,-2.98 q 2.09,-1.88 5.07,-2.66 c 2.84,-0.75 8.03,-2.18 11.97,-2.5 q 6.8,-0.55 12.75,-0.93 4.43,-0.28 5.89,4.47 2.83,9.27 3.42,14.62 0.25,2.28 -1.15,3.9 -1.39,1.6 -5.12,2.38 -16.43,3.4 -29.51,3.73 a 1.29,1.26 -23.1 0 1 -0.95,-0.37 z m 27.32,-26.14 a 0.33,0.32 15.4 0 0 -0.3,-0.52 l -18.18,1.86 a 1.87,1.5 -51.3 0 0 -0.4,0.09 l -8.18,2.57 a 0.81,0.81 0 0 0 -0.1,1.5 l 11.68,5.47 a 0.3,0.27 -34.2 0 0 0.15,0.02 l 7.23,-1.42 a 2.51,2.5 13.2 0 0 1.52,-0.94 z m -28.31,7.8 1.23,15.31 a 1.64,1.63 83.3 0 0 1.88,1.49 q 6.72,-1.06 15.76,-1.64 2.74,-0.17 10.34,-1.79 c 4.14,-0.88 6.55,-0.85 6.07,-5.55 q -0.64,-6.34 -3.72,-14.67 a 0.65,0.64 -38.9 0 0 -1.15,-0.12 q -3.43,5.41 -8.42,10.28 a 4.85,4.8 81.6 0 0 -1,1.36 q -1.24,2.49 -2.73,3.96 a 2.12,2.12 0 0 1 -3.09,-0.1 l -2.89,-3.28 a 2.45,2.4 80.8 0 0 -0.8,-0.59 l -11.1,-4.93 a 0.27,0.27 0 0 0 -0.38,0.27 z"
       id="path413" />
  </g>
</svg>
