<?xml version="1.0" encoding="UTF-8" standalone="no"?>
<svg
   version="1.1"
   viewBox="0 0 43.029919 39.111523"
   id="svg527"
   width="43.029919"
   height="39.111523"
   xmlns="http://www.w3.org/2000/svg"
   xmlns:svg="http://www.w3.org/2000/svg">
  <defs
     id="defs527" />
  <g
     id="g570"
     transform="translate(-248.93431,-151.73834)">
    <path
       fill="#6e5695"
       d="m 258.74,166.64 a 0.35,0.35 0 0 0 0.25,-0.62 c -2.19,-1.81 -4.37,-3.84 -3.76,-6.7 a 2.52,2.09 -83.7 0 1 2.05,-1.98 c 2.26,-0.07 3.84,1.43 5.44,3.14 a 0.55,0.55 0 0 0 0.96,-0.36 q 0.11,-3.35 0.54,-4.89 c 0.83,-2.94 4.81,-5.64 5.99,-0.96 q 0.79,3.09 0.99,5.99 a 0.63,0.62 59 0 0 1.15,0.29 q 2.53,-4.06 6.39,-6.27 c 1.31,-0.74 3.46,-0.06 3.55,1.87 0.11,2.25 -0.72,3.81 -1.94,6.14 a 0.48,0.48 0 0 0 0.6,0.67 c 2.98,-1.14 6.51,-2.42 9.29,-0.73 5.06,3.05 -2.35,8.11 -5.19,8.58 q -0.61,0.1 -4.17,0.66 a 0.77,0.76 58.1 0 0 -0.32,1.38 c 2.92,2.06 5.47,4.01 6.44,7.2 a 2.2,2.12 -13.3 0 1 -1.75,2.72 c -2.09,0.36 -4.23,-0.34 -5.94,-1.59 q -1.95,-1.44 -2.59,-1.72 a 0.48,0.47 -81.9 0 0 -0.66,0.5 q 0.05,0.36 1.44,2.99 1.49,2.83 0.62,6.74 a 1.29,1.28 -2.4 0 1 -0.88,0.95 q -2.9,0.88 -4.23,-1.93 -1.39,-2.94 -2.46,-5.82 a 0.44,0.43 -43.1 0 0 -0.8,-0.02 q -1.31,2.85 -2.82,5.07 c -0.78,1.15 -3.27,2.26 -4.57,0.98 -1.45,-1.42 -0.8,-4.03 -0.33,-6.04 a 0.63,0.63 0 0 0 -0.96,-0.68 q -2.82,1.84 -4.12,2.23 c -2.11,0.64 -5.34,0.53 -6.19,-1.89 -1.22,-3.45 2.8,-5.74 5.56,-7.01 a 0.61,0.61 0 0 0 -0.12,-1.15 c -2.62,-0.55 -5.91,-0.34 -7.11,-3.99 -1.15,-3.55 4.37,-4.6 6.73,-4.16 q 1.64,0.3 2.92,0.41 z m 8.97,0.41 -2,0.45 q -2.64,-4.16 -6.43,-7.28 -0.86,-0.71 -1.51,-0.61 a 0.87,0.87 0 0 0 -0.56,1.39 q 3.29,4.27 7.29,6.86 l -1.73,2.48 c -2.74,-1.31 -8.47,-2.97 -11.28,-1.54 a 1.13,1.13 0 0 0 0.04,2.03 q 4.7,2.17 9.94,1.52 l -0.02,3.34 q -5.21,1.27 -8.49,4.86 a 1.24,1.24 0 0 0 1.06,2.07 q 5.52,-0.65 8.81,-4.8 l 2.93,1.98 q -2.18,3.68 -1.99,7.28 a 0.46,0.45 -23.5 0 0 0.77,0.3 c 2.46,-2.36 2.9,-5.67 4.26,-8.64 q 1.59,-0.11 3.14,-0.9 0.46,4.88 2.75,9.71 a 0.73,0.73 0 0 0 1.35,-0.06 c 0.76,-2.14 -2.21,-7.95 -3.31,-9.84 l 3.52,-1.61 q 3.27,3.09 7.38,4.86 a 0.71,0.71 0 0 0 0.96,-0.86 c -0.69,-2.34 -4.25,-4.87 -6.18,-6.23 q 1.38,-1.9 1.34,-4.08 c 2.96,-0.25 8.09,-1.59 9.84,-4.24 a 1.25,1.25 0 0 0 -1,-1.93 c -3.37,-0.12 -9.05,1.45 -11,4.42 l -2.58,-2.15 q 2.88,-3.42 4.7,-7.11 0.46,-0.93 0.33,-1.6 a 0.71,0.7 -25.7 0 0 -1.15,-0.4 q -4.98,4.24 -7.37,9.65 l -2.55,0.35 c 0.1,-3.95 0.76,-8.39 -1.07,-11.95 a 0.62,0.62 0 0 0 -1.11,0.02 c -1.85,4.08 -1.08,7.77 0.92,12.26 z"
       id="path347" />
    <path
       fill="#eb3d3c"
       d="m 275.01,165.83 2.58,2.15 q -0.46,1.57 2.16,1.75 0.04,2.18 -1.34,4.08 -1.03,-0.76 -1.95,0.37 -0.91,1.14 -0.21,1.86 l -3.52,1.61 q -0.44,-0.02 -0.79,0.19 -1.55,0.79 -3.14,0.9 -1.95,-0.98 -3.04,1.06 l -2.93,-1.98 q 0.22,-1.34 -1.38,-2.13 l 0.02,-3.34 q 1.11,-0.6 1.3,-2.01 l 1.73,-2.48 q 0.4,0.7 1.08,0.37 0.41,-0.2 0.13,-0.73 l 2,-0.45 q 0.6,0.39 1.26,-0.33 l 2.55,-0.35 q 2.13,0.84 3.49,-0.54 z"
       id="path354" />
  </g>
</svg>
