<?xml version="1.0" encoding="UTF-8" standalone="no"?>
<svg
   version="1.1"
   viewBox="0 0 65.350769 56.56665"
   id="svg534"
   width="65.350769"
   height="56.56665"
   xmlns="http://www.w3.org/2000/svg"
   xmlns:svg="http://www.w3.org/2000/svg">
  <defs
     id="defs534" />
  <path
     fill="#f63248"
     d="m -16.224129,8.4019251 q -3.7,0.71 -5.58,1.7399999 a 5.07,5.06 25.1 0 1 -1.44,0.52 q -3.38,0.66 -4.93,1.61 -0.49,0.3 -1.57,0.21 a 1.02,1.02 0 0 1 -0.57,-1.8 l 2.07,-1.7199999 a 0.31064449,0.31064449 0 0 0 -0.34,-0.52 l -4.2,2.0999999 a 0.94,0.93 69.2 0 1 -1.32,-0.5999999 l -0.11,-0.4 a 1.32,1.31 69.2 0 1 0.68,-1.52 l 17.34,-8.62999997 a 0.09192388,0.09192388 0 0 0 -0.07,-0.17 l -17.5,6.06999997 a 0.74,0.73 88.6 0 1 -0.94,-0.9 q 0.39,-1.35 -0.14,-2.72 a 1.57,1.56 64.8 0 1 0.68,-1.89999997 l 3.79,-2.19000003 a 1.51,1.5 83.4 0 0 0.69,-0.88 q 0.1,-0.35 0.12,-0.39 a 2.59,2.59 0 0 1 0.85,-1.19 l 1.55,-1.24 a 0.17,0.17 0 0 0 -0.16,-0.29 l -2.31,0.81 a 0.87,0.87 0 0 1 -0.8,-0.12 l -0.21,-0.16 a 0.58,0.58 0 0 1 0.1,-0.9 c 5.5,-3.4400001 14.24,-4.4500001 22.1100001,-7.0100001 3.32,-1.08 5.16,-1.78 6.74,-1.8 a 0.95,0.95 0 0 1 0.55,1.72 l -1.06,0.75 a 9.96,9.38 13 0 1 -1.44,0.84 l -13.1000001,6.2400001 a 0.27,0.27 0 0 0 0.05,0.51 q 0.51,0.15 1,0.01 13.9000001,-3.87 17.4100001,-4.34 a 1.1,1.1 0 0 1 1.24,1.11 q 0,0.01 -0.08,0.34 a 0.56,0.57 2.5 0 0 0.63,0.69 q 1.58,-0.22 1.91,-0.02 a 1.3,1.3 0 0 1 -0.4,2.39 q -7.92,1.6 -15.0800001,5.10000003 a 0.22,0.22 0 0 0 -0.1,0.29 l 0.12,0.23 a 0.03,0.03 0 0 0 0.04,0.02 L 7.2358711,-5.2880749 a 1.39,1.39 0 0 1 1.75,0.9 v 0.02 a 1.48,1.48 0 0 1 -0.93,1.84 l -17.88,6.21 a 0.14,0.15 75.9 0 0 -0.1,0.16 l 0.01,0.06 a 0.2,0.18 76.3 0 0 0.21,0.14 q 9.14999998,-1.59 16.71,-4.36999997 a 1.01,1.01 0 0 1 1.35,0.86 v 0.09 a 1.64,1.66 76.3 0 1 -1.04,1.68999997 c -4.07,1.59 -9.15,2.35 -13.66,4.88 a 0.10307764,0.10307764 0 0 0 0.08,0.19 l 11.87,-3.19 a 1.86,1.85 62.4 0 1 1.89,0.6 l 0.33,0.39 a 0.55,0.55 0 0 1 -0.28,0.88 L -24.114129,14.571925 a 0.55,0.55 0 0 1 -0.66,-0.73 l 0.1,-0.25 a 2.8,2.81 87.9 0 1 1.34,-1.44 l 7.17,-3.5699999 a 0.1,0.1 0 0 0 -0.06,-0.18 z"
     id="path359" />
  <path
     fill="#36beb0"
     d="m 50.328461,55.311925 q -0.08,0.33 -0.09,0.57 a 0.68,0.68 0 0 0 0.76,0.68 l 6.36,-0.74 a 0.25,0.25 0 0 0 0.01,-0.49 q -3.63,-0.63 -7.04,-0.02 -0.97,-0.42 -1.59,-1.03 a 0.61,0.61 0 0 1 -0.06,-0.8 l 3.91,-5.15 a 1.94,1.91 7.8 0 1 0.88,-0.66 c 4.31,-1.65 9.57,-0.34 13.4,-0.79 q 4.55,-0.53 14.11,-0.36 c 6.09,0.11 10.61,-0.24 15.74,-0.1 6.049999,0.16 13.149999,-0.4 19.709999,-0.63 q 0.46,-0.17 0.99,-0.02 c 3.13,-0.04 6.37,-0.45 9.31,-0.24 3.98,0.28 6.53,0.46 9.56,3.45 a 0.83,0.83 0 0 1 0.13,1 l -2.28,3.95 a 2.51,2.54 13.8 0 1 -2.05,1.26 c -4.91,0.27 -7.44,0.53 -11.31,0.42 q -19.68,-0.55 -43.119999,0.76 c -2.94,0.16 -5.69,0.68 -8.69,0.77 q -7.21,0.19 -13.54,1.18 -3.11,0.48 -7.42,-0.06 a 0.93,0.93 0 0 1 -0.27,-1.76 z m 10.49,-6 a 0.78,0.78 0 0 0 -0.78,-0.78 h -5.98 a 0.78,0.78 0 0 0 -0.78,0.78 v 0.06 a 0.78,0.78 0 0 0 0.78,0.78 h 5.98 a 0.78,0.78 0 0 0 0.78,-0.78 z"
     id="path464" />
  <g
     id="g569"
     transform="translate(-226.34154,-180.16807)">
    <path
       fill="#c7d839"
       d="m 227.02,212.35 q 2.7,-1.66 7.6,-2.65 c 5.54,-1.13 9.97,-1.26 14.24,1.91 a 1.29,1.29 0 0 1 -0.43,2.28 l -7.32,1.97 a 1.49,1.35 -47.9 0 1 -0.5,0.05 L 227.68,215 a 1.44,1.43 31.1 0 1 -0.66,-2.65 z"
       id="path416" />
    <g
       id="g565">
      <path
         fill="#f18808"
         d="m 283.59,193.14 a 0.42,0.42 0 0 0 0.46,0.6 q 3.77,-0.76 6.46,2.31 c 1.54,1.76 1.13,4.18 1.14,6.28 a 1.82,1.79 67.3 0 1 -0.5,1.25 q -3.53,3.74 -7.95,3.54 a 0.99,0.99 0 0 0 -1,1.28 c 0.85,2.76 1.55,8.38 -0.91,10.28 q -2.19,1.7 -5.27,1.92 c -3.32,0.25 -4.04,-2.64 -5.52,-5.09 a 0.46,0.45 -39.9 0 0 -0.74,-0.06 q -1.86,2.1 -3.02,2.47 -5.81,1.84 -8.76,-3.39 -1.47,-2.61 1.09,-6.44 a 0.6,0.6 0 0 0 -0.35,-0.92 q -0.05,-0.01 -2.26,-0.34 c -4.49,-0.68 -5.76,-5.5 -4.84,-9.3 a 1.76,1.69 74.5 0 1 0.44,-0.81 q 3.03,-3.1 7.24,-2.45 a 0.77,0.77 0 0 0 0.84,-1 q -1.65,-5.13 0.47,-10.45 a 2.97,2.88 -13.6 0 1 0.57,-0.9 q 1.69,-1.81 4.59,-1.75 a 2.27,2.23 -29.8 0 1 1.03,0.27 q 3.88,2.06 4.67,6.8 a 0.33,0.33 0 0 0 0.6,0.13 c 2.33,-3.46 7.4,-6.79 11.31,-4.2 2.5,1.65 1.21,7.9 0.21,9.97 z m -29.65,7.35 1.27,2.56 a 1.6,1.55 89.5 0 0 0.67,0.68 c 3.07,1.55 5.21,0.03 8.28,-1.05 q 1.44,-0.51 2.04,0.67 a 1.27,1.26 -29.2 0 1 -0.47,1.63 q -3.14,1.98 -5.02,5.35 a 3.35,3.34 25.5 0 0 1.68,4.73 l 0.49,0.2 a 3.84,3.84 0 0 0 5,-2.13 l 2.02,-5.01 a 1.44,1.44 0 0 1 2.77,0.49 q 0.02,0.61 -0.04,3.14 -0.05,2.4 1.98,5.76 a 1.13,1.12 -19.2 0 0 1.12,0.54 q 2.74,-0.36 4.22,-2.13 a 1.91,1.88 -24.8 0 0 0.43,-1.14 q 0.21,-5.69 -2.38,-9.08 a 1.37,1.37 0 0 1 1.84,-1.98 q 2.33,1.52 6.09,0.49 a 4.1,4.1 0 0 0 2.98,-4.49 l -0.02,-0.16 a 3.71,3.71 0 0 0 -4.49,-3.13 q -3.63,0.81 -5.16,1.81 a 1.34,1.34 0 0 1 -2.07,-1.13 v -0.72 a 0.9,0.88 68.4 0 1 0.27,-0.64 c 2.73,-2.72 4.22,-3.89 4.84,-7.27 q 0.56,-3.08 -1.9,-3.58 a 1.64,1.64 0 0 0 -0.92,0.07 q -6.19,2.37 -7.23,9.18 a 1.38,1.38 0 0 1 -2.65,0.3 q -0.28,-0.71 -0.19,-2.92 0.1,-2.46 -1.87,-7.13 a 1.95,1.88 -83.4 0 0 -0.55,-0.72 q -1.55,-1.23 -3.02,-0.52 a 1.34,1.32 86.7 0 0 -0.67,0.76 q -1.68,4.95 -0.36,9.56 0.2,0.71 2.09,2.73 a 1.29,1.29 0 0 1 0.08,1.66 l -0.27,0.36 a 1.29,1.29 0 0 1 -2.09,-0.05 q -1.57,-2.29 -5.85,-1.29 -3.17,0.74 -3.06,3.13 a 1.18,1.13 -60.5 0 0 0.12,0.47 z"
         id="path388" />
      <ellipse
         fill="#441e17"
         cx="0"
         cy="0"
         transform="rotate(-166.7,147.39615,84.498956)"
         rx="4.4899998"
         ry="3.3"
         id="ellipse404" />
      <ellipse
         fill="#c7d839"
         cx="0"
         cy="0"
         transform="rotate(-46.7,382.13459,-168.55581)"
         rx="11.14"
         ry="3.72"
         id="ellipse441" />
      <rect
         fill="#9ad3e7"
         x="279.62"
         y="228.7"
         width="7.54"
         height="1.62"
         rx="0.77999997"
         id="rect467" />
      <path
         fill="#9ad3e7"
         d="m 276.67,235.48 q 3.41,-0.61 7.04,0.02 a 0.25,0.25 0 0 1 -0.01,0.49 l -6.36,0.74 a 0.68,0.68 0 0 1 -0.76,-0.68 q 0.01,-0.24 0.09,-0.57 z"
         id="path478" />
    </g>
  </g>
</svg>
