<?xml version="1.0" encoding="UTF-8" standalone="no"?>
<svg
   version="1.1"
   viewBox="0 0 50.240063 72.231453"
   id="svg534"
   width="50.240063"
   height="72.231453"
   xmlns="http://www.w3.org/2000/svg"
   xmlns:svg="http://www.w3.org/2000/svg">
  <defs
     id="defs534" />
  <g
     id="g543"
     transform="translate(-700.4028,-33.412967)">
    <path
       fill="#c7d839"
       d="m 746.65,0 q -0.05,1.13 -2,2.12 -1.9,0.96 -2.59,1.58 -2.79,2.52 -5.65,4.28 a 3.43,3.06 3.3 0 0 -0.58,0.46 l -1.59,1.59 a 1.12,1.12 0 0 1 -1.8,-0.31 Q 731.9,8.6 732.48,7.01 733.17,5.13 737.45,0 Z"
       id="path242" />
    <path
       fill="#c7d839"
       d="m 766.39,0 q 0.13,0.08 0.22,0.17 a 0.29,0.29 0 0 1 0.07,0.36 l -5.7,11.43 a 2.11,1.16 -28.8 0 1 -0.14,0.22 l -4.34,5.73 a 0.76,0.76 0 0 1 -1.3,-0.15 c -1.21,-2.59 -0.32,-5.8 0.19,-8.71 a 2.61,2.55 -23 0 1 0.43,-1.03 q 1.84,-2.67 2.43,-5.32 a 0.21,0.21 0 0 0 -0.36,-0.19 q -8.39,8.4 -15.9,18.04 a 0.86,0.85 45.7 0 1 -1.36,-0.02 c -2.28,-3.06 3.13,-12.8 4.72,-15.25 1.17,-1.82 3.16,-3.34 4.57,-5.28 z"
       id="path243" />
    <path
       fill="#c7d839"
       d="m 774.62,0 q 1.33,0.43 2.53,0 h 8.71 l 8.02,7.18 a 2.3,2.29 27.1 0 1 0.71,2.19 l -0.12,0.55 a 1.02,1.02 0 0 1 -1.56,0.63 l -5.53,-3.68 a 0.24,0.17 -10.9 0 0 -0.07,-0.03 q -4.75,-0.96 -8.82,-3.19 -0.37,-0.21 -0.42,-0.31 -0.15,-0.28 -0.21,-0.28 a 0.15,0.15 0 0 0 -0.12,0.25 l 1.49,1.67 a 0.96,0.72 18.6 0 1 0.13,0.19 c 0.93,1.75 4.53,10.58 3.47,13.05 a 1.13,1.13 0 0 1 -1.66,0.49 Q 773,13.33 768.6,4.45 a 2.26,2.07 29.9 0 1 -0.19,-0.6 L 767.7,0 Z m 1.66,1.82 q 0.12,0.24 0.29,0.29 a 0.11,0.11 0 0 0 0.11,-0.17 Q 776.6,1.83 776.42,1.7 a 0.09219544,0.09219544 0 0 0 -0.14,0.12 z m -2.36,2.64 q -0.01,-0.05 -0.03,-0.1 a 0.26,0.09 56.9 0 0 -0.3,-0.23 q 0,0.05 0,0.1 a 0.26147391,0.11062358 57.7 0 0 0.33,0.23 z"
       id="path244" />
    <path
       fill="#956529"
       d="m 775.75,81.05 -1.05,0.61 a 1.67,1.67 0 0 1 -2.5,-1.52 q 0.75,-17.37 0.06,-23.9 -1.29,-12.27 -3.03,-26.99 -0.59,-4.97 -2.32,-9.65 a 11,10.42 32.1 0 1 -0.52,-2.02 q -0.77,-5.12 -2.24,-8.52 a 1.14,1.13 44.7 0 1 -0.01,-0.9 l 1.21,-3.01 a 0.86,0.86 0 0 1 1.41,-0.29 q 1.92,1.9 2.48,3.93 2.92,10.37 5.18,19.4 0.86,3.39 1.11,6.51 c 0.23,2.9 1.09,5.58 1.17,8.75 q 0.12,4.95 1.03,13.38 c 0.74,6.88 0.46,12.07 0.6,19.66 a 5.15,5.14 -15.6 0 1 -2.58,4.56 z"
       id="path248" />
  </g>
  <g
     id="g546"
     transform="translate(-700.4028,-33.412967)">
    <path
       fill="#55c1ef"
       d="m 731.21,41.55 c 3.51,-3.55 6.08,-6.94 11.77,-4.99 q 1.79,0.61 2.4,2.97 1.19,4.67 -1.66,8.49 a 0.53,0.52 -70.1 0 0 0.39,0.84 q 1.94,0.1 3.39,1.35 4.4,3.84 2.64,8.99 c -1.25,3.67 -6.65,3.99 -9.97,3.81 a 0.39,0.39 0 0 0 -0.34,0.62 c 4.44,6.48 -5.06,14.24 -10.87,11.31 Q 724.92,72.9 725,68.13 a 0.43,0.43 0 0 0 -0.78,-0.27 l -1.64,2.16 a 0.99,0.97 -79.2 0 1 -0.52,0.36 c -3.98,1.2 -5.75,1.83 -8.73,-1 q -4.46,-4.22 -0.67,-9.84 a 0.26,0.26 0 0 0 -0.22,-0.41 q -2.83,0 -5.08,-1.96 a 1.62,1.58 -76.9 0 1 -0.52,-0.86 q -0.96,-4.06 -0.67,-5.51 c 1.03,-5.11 4.17,-5.34 8.82,-4.71 a 3.54,3.53 65.8 0 1 1.54,0.59 q 1.47,1 2.44,1.18 a 0.44,0.44 0 0 0 0.38,-0.75 c -5.67,-5.3 2.81,-17.52 8.34,-12.52 q 2.88,2.62 2.89,6.7 a 0.37,0.37 0 0 0 0.63,0.26 z m 2.8441,10.9069 a 4.8,4.07 -16 0 0 -5.7359,-2.5892 4.8,4.07 -16 0 0 -3.4923,5.2354 4.8,4.07 -16 0 0 5.7359,2.5892 4.8,4.07 -16 0 0 3.4923,-5.2354 z"
       id="path270" />
    <ellipse
       fill="#441e17"
       cx="0"
       cy="0"
       transform="rotate(-16,556.05229,-2568.2276)"
       rx="4.8000002"
       ry="4.0700002"
       id="ellipse276" />
    <path
       fill="#64cb35"
       d="m 715.24,98.1 a 0.22,0.22 0 0 0 0.41,-0.1 q 0.53,-7.77 1.94,-15.83 c 0.77,-4.43 2.16,-7.79 4.76,-10.91 a 0.87,0.87 0 0 1 1.5,0.81 q -1.15,3.69 -2.37,5.73 a 2.32,2.21 -26.2 0 0 -0.3,0.81 l -2.51,17.14 a 0.52,0.51 74.1 0 0 0.84,0.47 l 6.55,-5.46 a 1.21,1.13 14.9 0 1 0.41,-0.22 c 4.14,-1.21 7.36,-2.43 10.39,-1.4 a 1.59,1.59 0 0 1 0.47,2.75 l -3.86,3.03 a 2.01,1.75 10.3 0 1 -0.42,0.25 q -6.04,2.57 -11.53,6.35 -2.13,1.47 -3.26,3.34 a 1.61,1.61 0 0 1 -2.39,0.43 q -4.05,-3.21 -7,-7.3 a 5.38,5.38 0 0 0 -1.01,-1.08 q -3.96,-3.28 -6.77,-7.16 a 2.96,2.76 19.1 0 1 -0.35,-0.66 q -0.56,-1.61 -0.19,-3.76 a 1.47,1.34 -81.9 0 1 1.49,-1.23 q 1.94,0.21 3.37,1.49 5.66,5.05 9.83,12.51 z"
       id="path290" />
  </g>
</svg>
