<?xml version="1.0" encoding="UTF-8" standalone="no"?>
<svg
   version="1.1"
   viewBox="0 0 38.791962 70.96225"
   id="svg534"
   width="38.791962"
   height="70.96225"
   xmlns="http://www.w3.org/2000/svg"
   xmlns:svg="http://www.w3.org/2000/svg">
  <defs
     id="defs534" />
  <g
     id="g542"
     transform="translate(-755.59813,-93.285225)">
    <path
       fill="#f63248"
       d="m 767.35,111.33 -4.5,-2.73 a 1.99,1.72 81.1 0 1 -0.45,-0.38 c -1.58,-1.78 -2.05,-7.31 1.33,-8.15 3.88,-0.95 6.47,3.23 8.84,6.06 a 0.37,0.37 0 0 0 0.66,-0.25 q -0.12,-4.52 1.44,-9.34 a 2.72,2.71 -16.9 0 1 0.45,-0.84 q 0.91,-1.13 0.95,-1.26 a 2.48,1.9 26.4 0 1 3.44,-0.67 c 2.58,1.62 0.93,10.71 0.42,13.41 a 0.5,0.5 0 0 0 0.88,0.41 c 2.87,-3.46 6.09,-7.34 11.08,-6.33 a 0.84,0.84 0 0 1 0.64,0.59 c 1.29,4.53 -2.71,9.58 -7.09,11.31 a 0.17,0.17 0 0 0 -0.02,0.31 c 3.49,1.92 6.81,2.26 8.83,6.34 a 1.38,1.36 40 0 1 0.09,0.97 c -1.45,5.14 -7.25,2.56 -10.24,0.69 a 0.59,0.59 0 0 0 -0.88,0.65 q 0.56,2.16 0.93,3.9 c 0.26,1.18 -0.03,6 -2.16,6.47 q -1.89,0.42 -2.55,-0.16 -2.91,-2.52 -3.09,-6.14 A 0.3,0.3 0 0 0 775.84,126 c -3.32,3.43 -5.01,7.08 -10.86,5.53 a 0.84,0.84 0 0 1 -0.62,-0.81 v -2.95 a 1.83,1.77 63.1 0 1 0.32,-1.03 l 5.02,-7.35 a 0.21,0.21 0 0 0 -0.21,-0.33 q -2.15,0.44 -10.62,1.13 -3.35,0.27 -3.27,-2.79 a 2.03,1.97 61.8 0 1 0.26,-0.91 c 2.63,-4.64 6.82,-3.95 11.38,-4.62 a 0.29,0.29 0 0 0 0.11,-0.54 z m 11.1791,1.5691 a 2.91,2.27 -42.1 0 0 -3.681,0.2666 2.91,2.27 -42.1 0 0 -0.6372,3.6352 2.91,2.27 -42.1 0 0 3.681,-0.2666 2.91,2.27 -42.1 0 0 0.6372,-3.6352 z m -4.732,10.3004 a 2.01,0.3 -55.2 0 0 -1.3934,1.4793 2.01,0.3 -55.2 0 0 -0.9008,1.8217 2.01,0.3 -55.2 0 0 1.3934,-1.4793 2.01,0.3 -55.2 0 0 0.9008,-1.8217 z"
       id="path303" />
    <path
       fill="#c7d839"
       d="m 774.07,133.21 0.23,-0.65 q 0.2,-1.21 0.73,-2.19 a 0.24,0.24 0 0 1 0.45,0.08 c 0.58,4 0.46,8.08 1.21,12.37 q 1.68,9.58 3.08,14.95 0.26,1.01 0.46,1.28 a 0.81,0.8 36.8 0 0 1.41,-0.2 c 1.75,-4.88 4.12,-9.53 7.78,-12.56 a 1.07,1.07 0 0 1 1.65,1.29 l -3.2,6.67 a 4.95,3.89 -31 0 0 -0.3,0.79 l -1.49,5.4 a 1.14,1.14 0 0 1 -0.56,0.7 q -4.14,2.23 -5.72,2.63 c -2.63,0.67 -4.14,0.9 -6.29,-1.12 q -1.88,-1.78 -8.06,-7.15 a 0.94,0.94 0 0 1 0.36,-1.62 q 1.51,-0.44 3.04,0.44 4.08,2.34 7.22,4.59 a 0.31,0.31 0 0 0 0.48,-0.31 q -1.99,-9.57 -3.15,-19.35 -0.24,-1.97 0.67,-6.04 z"
       id="path331" />
    <path
       fill="#956529"
       d="m 774.3,132.56 -0.23,0.65 q 0.04,-0.46 0.23,-0.65 z"
       id="path332" />
  </g>
</svg>
