<?xml version="1.0" encoding="UTF-8" standalone="no"?>
<svg
   version="1.1"
   viewBox="0 0 68.260986 70.306374"
   id="svg534"
   width="68.260986"
   height="70.306374"
   xmlns="http://www.w3.org/2000/svg"
   xmlns:svg="http://www.w3.org/2000/svg">
  <defs
     id="defs534" />
  <path
     fill="#519cf8"
     d="m 87.696217,0.86269084 a 2.34,2.61 63.8 0 1 -1.42,3.50999996 q -2.15,0.86 -5.4,0.66 a 0.76,0.76 0 0 0 -0.5,1.36 l 1.69,1.28 a 1.07,1.07 0 0 1 -0.52,1.92 q -4.74,0.5500002 -4.65,-4.24 a 1.32,1.3 21.8 0 0 -0.43,-0.99 q -0.55,-0.49 -2.35,-1.3 -4.46,-1.99 -5.17,-7.3 a 3.25,3.23 18.9 0 0 -0.94,-1.9 q -4.15,-4.1099998 -0.74,-9.8099998 a 1.15,1.14 40 0 0 -0.12,-1.32 q -3.38,-3.97 -2.08,-7.62 c 1.48,-4.19 8.11,-6.76 12.49,-6.07 a 1.55,1.56 88.7 0 1 1.28,1.21 l 0.06,0.26 a 0.66,0.66 0 0 1 -0.65,0.8 h -3.44 a 1.94,1.91 29.8 0 0 -0.95,0.25 l -4.08,2.36 a 3.75,3.74 69 0 0 -1.79,4.04 l 0.19,0.9 a 1.6,1.6 0 0 0 2.5,0.95 q 3.92,-2.84 8.67,-3.23 c 3.24,-0.27 6.4,3.06 4.36,6.33 -2.38,3.83 -8.84,3.32 -12.71,2.05 a 0.73,0.74 25.7 0 0 -0.84,0.3 q -1.65,2.55 -0.73,5.4199998 a 1.11,1.11 0 0 0 1.61,0.62 l 7.88,-4.5499998 a 1.13,1.26 29.3 0 1 0.44,-0.15 c 5.37,-0.6 9.19,-1.74 12.22,3.08 a 1.96,1.93 32.1 0 1 0.29,1.2099998 c -0.41,4.78 -2.93,5.63 -7.36,6.61 -3.36,0.73 -8.27,-0.37 -10.98,-1.23 a 0.93,0.93 0 0 0 -1.08,1.36 c 0.78,1.34 5.06,5.12 6.93,3.10000004 2.17,-2.35000004 6.64,-2.60000004 8.32,0.13 z m -6.0034,-20.20259984 a 1.75,4.3 78.7 0 0 -4.5595,-0.8735 1.75,4.3 78.7 0 0 -3.8737,2.5587 1.75,4.3 78.7 0 0 4.5595,0.8735 1.75,4.3 78.7 0 0 3.8737,-2.5587 z m 7.3954,10.3616998 a 2.56,6.82 81.9 0 0 -7.1127,-1.5735998 2.56,6.82 81.9 0 0 -6.3913,3.4953998 2.56,6.82 81.9 0 0 7.1127,1.5736 2.56,6.82 81.9 0 0 6.3913,-3.4954 z"
     id="path311" />
  <path
     fill="#c7d839"
     d="m 68.996217,67.882691 a 1.02,1.02 0 0 0 -0.05,-1.63 q -3.78,-2.66 -3.75,-6.52 0.01,-1.34 1.42,-4.47 c 1.49,-3.31 2.73,-7.71 5.76,-9.93 q 1.17,-0.86 4.23,-3.05 a 1.21,1.24 76.2 0 0 0.5,-0.8 q 0.36,-2.36 0.43,-2.81 0.69,-5.01 5.15,-6.93 a 2.52,2.54 32.9 0 1 0.96,-0.21 c 5.23,-0.17 6.92,-0.14 10.33,3.59 a 2.14,1.52 16.8 0 1 0.21,0.27 l 2.39,3.82 a 1.2,1.21 66.5 0 0 1.33,0.52 q 1.75,-0.46 4.310003,1.1 3.5,2.13 4.38,5.54 c 1.03,3.99 2.82,6.96 4.18,11.09 a 1.9,1.96 10.5 0 0 0.58,0.87 q 2.01,1.71 2.28,3.32 0.48,2.84 2.32,5.66 c 2.24,3.43 3.52,6.5 3.45,10.65 a 3.49,3.34 59.5 0 1 -0.34,1.45 c -2.1,4.41 -1.82,8.79 -6.62,11.74 a 3.15,3.17 83.7 0 0 -1.33,1.65 c -0.76,2.19 -1.79,4.66 -4.23,5.44 q -5.81,1.829999 -10.340003,-0.63 a 1.38,1.38 0 0 0 -1.44,0.06 l -2.32,1.52 a 5.4,5.45 20.3 0 1 -1.46,0.68 l -5.75,1.649999 a 1.98,1.81 33.6 0 1 -0.39,0.06 q -3.85,0.08 -7.23,-1.5 -0.8,-0.369999 -3.43,-0.999999 a 3.65,3.65 0 0 1 -2.68,-2.59 l -1.22,-4.54 a 1.92,1.93 88.8 0 0 -1.46,-1.39 c -4.76,-1.06 -10.57,-4.95 -9.09,-10.63 q 1.57,-5.99 5.07,-8.89 2.38,-1.99 3.85,-3.16 z m 18.26,-32.71 a 1.54,1.56 35.8 0 0 -1.13,0.19 q -2.66,1.57 -3.24,5.14 a 0.33,0.33 0 0 0 0.6,0.23 q 2.25,-3.39 4.51,-4.72 a 0.38,0.38 0 0 0 -0.11,-0.7 z m 8.8238,9.9242 a 1.61,1.13 28.4 0 0 0.8787,1.7598 1.61,1.13 28.4 0 0 1.9537,-0.2282 1.61,1.13 28.4 0 0 -0.8787,-1.7598 1.61,1.13 28.4 0 0 -1.9537,0.2282 z m -3.0538,10.6658 q 0.57,-1.15 0.25,-1.67 a 0.63,0.62 22.6 0 0 -1.14,0.47 l 0.26,1.12 a 0.34,0.34 0 0 0 0.63,0.08 z m 10.107103,-0.687 a 1.44,0.61 82.3 0 0 -0.4116,1.5087 1.44,0.61 82.3 0 0 0.7974,1.3453 1.44,0.61 82.3 0 0 0.4116,-1.5087 1.44,0.61 82.3 0 0 -0.7974,-1.3453 z m -12.347003,4.5705 a 1.18,0.3 0.8 0 0 1.1757,0.3165 1.18,0.3 0.8 0 0 1.1841,-0.2835 1.18,0.3 0.8 0 0 -1.1757,-0.3165 1.18,0.3 0.8 0 0 -1.1841,0.2835 z m 19.524603,2.8321 a 1.41,0.68 84.9 0 0 -0.552,1.4648 1.41,0.68 84.9 0 0 0.8026,1.344 1.41,0.68 84.9 0 0 0.552,-1.4648 1.41,0.68 84.9 0 0 -0.8026,-1.344 z m -33.243503,2.1636 a 2.29,1.37 7.8 0 0 2.0829,1.6681 2.29,1.37 7.8 0 0 2.4547,-1.0465 2.29,1.37 7.8 0 0 -2.0829,-1.6681 2.29,1.37 7.8 0 0 -2.4547,1.0465 z m 19.1415,-0.5898 a 0.61,2.34 66.3 0 0 -2.3879,0.382 0.61,2.34 66.3 0 0 -1.8975,1.4992 0.61,2.34 66.3 0 0 2.3879,-0.382 0.61,2.34 66.3 0 0 1.8975,-1.4992 z m -11.6327,7.5406 a 0.48,0.48 0 0 0 -0.48,-0.48 0.48,0.48 0 0 0 -0.48,0.48 0.48,0.48 0 0 0 0.48,0.48 0.48,0.48 0 0 0 0.48,-0.48 z m 15.430003,1.88 -0.110003,-1.84 a 0.27,0.27 0 0 0 -0.28,-0.25 l -0.19,0.01 a 1.13,3.06 86.7 0 0 -2.99,1.3 l 0.01,0.12 a 1.13,3.06 86.7 0 0 3.12,0.95 l 0.19,-0.01 a 0.27,0.27 0 0 0 0.250003,-0.28 z m -27.550903,-1.1173 a 0.99,0.79 77.7 0 0 -0.561,1.1356 0.99,0.79 77.7 0 0 0.9828,0.799 0.99,0.79 77.7 0 0 0.561,-1.1356 0.99,0.79 77.7 0 0 -0.9828,-0.799 z m 41.376003,0.3094 a 0.83,0.33 67.7 0 0 0.01,0.8931 0.83,0.33 67.7 0 0 0.6202,0.6427 0.83,0.33 67.7 0 0 -0.01,-0.8931 0.83,0.33 67.7 0 0 -0.6202,-0.6427 z m -41.959903,5.4305 a 2.16,1.1 47.3 0 0 0.6564,2.3334 2.16,1.1 47.3 0 0 2.2732,0.8414 2.16,1.1 47.3 0 0 -0.6564,-2.3334 2.16,1.1 47.3 0 0 -2.2732,-0.8414 z m 20.4404,1.9543 a 1.02,1.43 79.4 0 0 -1.5932,-0.7395 1.02,1.43 79.4 0 0 -1.218,1.2657 1.02,1.43 79.4 0 0 1.5932,0.7395 1.02,1.43 79.4 0 0 1.218,-1.2657 z m -24.0557,1.1632 a 1.53,0.49 53.5 0 0 0.5162,1.5214 1.53,0.49 53.5 0 0 1.304,0.9384 1.53,0.49 53.5 0 0 -0.5162,-1.5214 1.53,0.49 53.5 0 0 -1.304,-0.9384 z m 30.7701,4.5199 q -0.4,0.04 -0.45,0.11 a 0.26,0.3 85.4 0 0 0.44,0.33 q 0.07,-0.04 0.15,-0.26 a 0.13,0.14 5.9 0 0 -0.14,-0.18 z m -19.3024,5.72 a 1.36,0.79 89.9 0 0 -0.7876,1.3614 1.36,0.79 89.9 0 0 0.7924,1.3586 1.36,0.79 89.9 0 0 0.7876,-1.3614 1.36,0.79 89.9 0 0 -0.7924,-1.3586 z"
     id="path360" />
  <g
     id="g553"
     transform="translate(-349.00378,-135.30731)">
    <path
       fill="#f18808"
       d="m 373.16,152.09 a 0.34,0.34 0 0 0 -0.64,0.21 q 0.28,2.14 -0.52,3.4 a 1.48,1.48 0 0 1 -0.74,0.59 q -7.76,2.85 -11.6,3.13 a 1.62,1.62 0 0 1 -1.41,-2.6 l 0.8,-1.06 a 0.54,0.54 0 0 0 -0.78,-0.74 q -2.09,1.8 -3.26,2.98 a 2.87,2.87 0 0 1 -3.34,0.52 c -5.09,-2.62 -1.81,-8.02 0.92,-11.21 q 2.43,-2.84 5.93,-1.03 a 0.6,0.59 -4 0 0 0.76,-0.87 l -0.95,-1.32 a 1.97,1.97 0 0 1 0.56,-2.82 c 2.49,-1.55 11.33,-6.83 14.22,-5.84 a 0.77,0.76 9.7 0 1 0.52,0.72 v 2.8 a 0.6,0.6 0 0 0 1.11,0.32 q 3.56,-5.6 9.68,-3.23 1.64,0.63 1.98,2.08 0.73,3.04 -1.42,3.54 a 0.99,0.98 57.1 0 0 -0.37,1.75 l 1.44,1.1 a 1.47,1.47 0 0 1 0.12,2.24 q -2.66,2.49 -7.32,5.72 c -2.08,1.45 -4.38,2.09 -5.69,-0.38 z m -0.6985,-8.2346 a 4.84,2.63 -28.3 0 0 -5.5084,-0.0211 4.84,2.63 -28.3 0 0 -3.0146,4.6103 4.84,2.63 -28.3 0 0 5.5084,0.0211 4.84,2.63 -28.3 0 0 3.0146,-4.6103 z"
       id="path334" />
    <ellipse
       fill="#441e17"
       cx="0"
       cy="0"
       transform="rotate(-28.3,473.95299,-657.16016)"
       rx="4.8400002"
       ry="2.6300001"
       id="ellipse338" />
    <path
       fill="#f18808"
       d="m 399.95,163.37 -1.53,-0.65 c -1.28,-1.62 -4.74,-3 -3.65,-5.28 a 0.8,0.79 -53 0 0 -0.12,-0.86 q -2.44,-2.83 0.64,-5.43 c 3.39,-2.86 4.88,-0.49 8.06,-0.51 q 4,-0.03 9.13,3.93 2.38,1.84 1.4,3.11 a 0.57,0.57 0 0 0 0.24,0.88 q 3.52,1.38 3.1,6.6 a 1.78,1.77 -81.5 0 1 -2.14,1.59 l -1.73,-0.38 a 0.75,0.73 25.2 0 0 -0.72,0.25 q -0.39,0.48 -0.85,0.48 -4.68,0.01 -7.91,-2.87 a 1.21,1.19 -18.8 0 0 -0.58,-0.28 z m 1.9022,-7.2759 a 4.06,1.86 -151.2 0 0 2.6617,3.5858 4.06,1.86 -151.2 0 0 4.4539,0.326 4.06,1.86 -151.2 0 0 -2.6617,-3.5858 4.06,1.86 -151.2 0 0 -4.4539,-0.326 z"
       id="path345" />
    <ellipse
       fill="#441e17"
       cx="0"
       cy="0"
       transform="rotate(-151.2,222.99517,26.979202)"
       rx="4.0599999"
       ry="1.86"
       id="ellipse349" />
    <path
       fill="#64cb35"
       d="m 398.42,162.72 1.53,0.65 q -0.17,1.33 -0.64,1.69 -10.39,7.96 -13.44,20.47 c -1.38,5.65 -0.43,11.93 -0.82,18.05 a 1.32,1.23 -70.9 0 1 -1.98,1.05 q -0.22,-0.17 -0.33,-0.17 a 0.98,0.96 23.7 0 0 -0.76,0.29 q -0.77,0.79 -1.19,0.85 a 1.85,1.76 87.6 0 1 -1.98,-1.91 q 0.26,-7.67 -3.49,-13.67 -1.03,-1.66 -4.36,-4.88 -2.37,-2.29 -4.57,-4.7 1.27,-0.22 1.75,-1.28 6.75,3.81 10.91,10.56 0.92,1.5 2.69,8.1 a 0.25,0.25 0 0 0 0.3,0.18 l 0.01,-0.01 a 0.21,0.21 0 0 0 0.15,-0.26 c -0.81,-2.85 -0.19,-5.62 -0.32,-8.3 -0.3,-6.59 -0.39,-10.95 -2.34,-16.24 q -1.52,-4.09 -3.79,-10.21 c -0.78,-2.12 -2.25,-4.1 -2.53,-6.32 a 0.76,0.75 -75.7 0 1 1.19,-0.71 q 2.09,1.51 3.06,4.1 2.49,6.61 5.06,13.1 c 0.92,2.33 1.02,4.43 1.84,6.53 a 0.29,0.29 0 0 0 0.53,0.03 q 1.99,-3.56 3.67,-6.71 3.51,-6.62 9.85,-10.28 z"
       id="path350" />
    <path
       fill="#f18808"
       d="m 368.14,179.16 q -0.48,1.06 -1.75,1.28 0.1,-0.89 -0.63,-0.72 a 0.5,0.49 -77.9 0 0 -0.29,0.19 q -3.89,5.2 -9.88,3.93 c -5.69,-1.2 -0.07,-8.3 2.02,-10.45 q 2.48,-2.56 6.88,-3.51 a 2.08,2.02 50.2 0 1 1.23,0.13 l 0.09,0.05 a 1.43,1.41 46.3 0 0 1.31,0.04 c 2.49,-1.21 6.22,1.4 4.14,4.01 a 1.58,1.55 64.9 0 0 -0.35,0.99 q -0.01,1.51 -1.84,2.45 a 1.79,1.76 -89.2 0 0 -0.74,0.73 q -0.33,0.6 -0.19,0.88 z m -3.1978,-5.107 a 3.05,1.63 -36.8 0 0 -3.4186,0.5218 3.05,1.63 -36.8 0 0 -1.4658,3.1322 3.05,1.63 -36.8 0 0 3.4186,-0.5218 3.05,1.63 -36.8 0 0 1.4658,-3.1322 z"
       id="path363" />
    <ellipse
       fill="#441e17"
       cx="0"
       cy="0"
       transform="rotate(-36.8,445.60739,-456.9176)"
       rx="3.05"
       ry="1.63"
       id="ellipse382" />
  </g>
</svg>
