<?xml version="1.0" encoding="UTF-8" standalone="no"?>
<svg
   version="1.1"
   viewBox="0 0 41.153225 38.433685"
   id="svg527"
   width="41.153225"
   height="38.433685"
   xmlns="http://www.w3.org/2000/svg"
   xmlns:svg="http://www.w3.org/2000/svg">
  <defs
     id="defs527" />
  <g
     id="g555"
     transform="translate(-615.40852,-62.035077)">
    <rect
       fill="#d0b96d"
       x="-3.6600001"
       y="-3.48"
       transform="rotate(-43.1,407.26784,-786.93753)"
       width="7.3200002"
       height="6.96"
       rx="2.78"
       id="rect285" />
    <path
       fill="#48a31c"
       d="m 634.33,77.69 q -0.07,1.14 0.39,2.02 -0.79,2.1 -0.07,3.98 a 0.35,0.35 0 0 0 0.57,0.13 q 1.33,-1.29 1.68,-2.95 l 1.39,-0.03 q 0.74,1.82 2.13,2.97 a 0.22,0.22 0 0 0 0.36,-0.14 l 1.66,-11.37 a 1.53,1.53 0 0 1 2.34,-1.07 q 0.2,0.13 0.67,1.55 0.25,0.75 1.55,8.48 a 0.45,0.45 0 0 0 0.89,0.01 q 1.68,-9.02 2,-10.07 0.28,-0.94 0.87,-1.12 a 1.78,1.74 76.4 0 1 2.24,1.4 q 1.33,7.59 3.37,20.39 0.42,2.64 -0.08,4.95 a 1.43,1.43 0 0 1 -1.4,1.13 c -10.09,0.01 -18.27,-0.34 -26.61,0.81 q -0.89,0.13 -11.89,1.7 a 0.83,0.82 85 0 1 -0.94,-0.79 q -0.37,-12.81 2.56,-25.2 a 1.17,1.17 0 0 1 1.92,-0.6 l 0.7,0.63 a 3.12,3.1 -62.8 0 1 0.95,2.98 q -0.48,2.14 0.02,4.64 a 0.63,0.63 0 0 0 1.09,0.3 l 1.19,-1.32 a 0.87,0.87 0 0 1 1.4,0.15 l 2.63,4.56 a 0.41,0.41 0 0 0 0.77,-0.18 q 0.31,-6.51 1.36,-12.09 0.32,-1.7 1.77,-1.93 a 1.34,1.33 -4 0 1 1.55,1.34 q -0.05,2.73 0.97,4.74 z m -15.66,6.06 -0.72,12.78 a 0.83,0.83 0 0 0 0.86,0.87 q 3.58,-0.17 8.33,-0.83 c 8.62,-1.19 17.95,-1.43 26.15,-1.2 a 0.8,0.8 0 0 0 0.83,-0.78 q 0.09,-2.96 -0.43,-5.06 -1.3,-5.32 -2.18,-10.87 a 0.43,0.43 0 0 0 -0.85,0.01 l -1.43,10.86 a 0.93,0.92 0.7 0 1 -0.83,0.8 q -1.59,0.15 -1.96,-1.49 -1.39,-6.29 -1.87,-7.77 a 0.25,0.25 0 0 0 -0.49,0.05 l -0.96,7.28 a 1.42,1.42 0 0 1 -1.99,1.11 q -1.71,-0.77 -2.79,-3.08 a 0.54,0.53 44.9 0 0 -0.97,0 l -1.99,4.25 a 1.21,1.21 0 0 1 -2.2,-0.03 q -1.16,-2.64 -0.95,-5.71 a 0.15,0.14 9.5 0 0 -0.11,-0.15 l -0.3,-0.07 a 0.29,0.29 0 0 0 -0.35,0.21 l -1.02,4.21 a 1.53,1.53 0 0 1 -2.26,0.97 q -1.61,-0.94 -3.02,-4.09 a 0.55,0.55 0 0 0 -1.05,0.19 Q 624,87.84 624,88.77 a 1.73,1.64 -78.6 0 1 -2.3,1.62 c -0.81,-0.36 -1.53,-3.72 -2.41,-6.71 a 0.32,0.32 0 0 0 -0.62,0.07 z"
       id="path292" />
    <path
       fill="#fac22c"
       d="m 625.66,79.73 q -1.34,-0.54 -1.66,0.12 a 3.21,2.61 -83.3 0 1 -0.79,-0.45 3.17,2.61 -80.2 0 1 0.86,-5.54 3.17,2.61 -79.6 0 1 2.57,0.51 3.16,2.61 -80.4 0 1 0.72,3.11 3.15,2.6 -80.5 0 1 -1.7,2.25 z"
       id="path295" />
    <path
       fill="#d0b96d"
       d="m 638.29,80.84 -1.39,0.03 -2.18,-1.16 q -0.46,-0.88 -0.39,-2.02 c 0.55,-1.06 1.01,-2.23 2.02,-2.81 3.28,-1.89 6.06,4.36 1.94,5.96 z"
       id="path296" />
    <path
       fill="#2e2411"
       d="M 625.66,79.73 A 3.18,2.62 -80.9 0 1 624,79.85 q 0.32,-0.66 1.66,-0.12 z"
       id="path303" />
  </g>
</svg>
