<?xml version="1.0" encoding="UTF-8" standalone="no"?>
<svg
   version="1.1"
   viewBox="0 0 54.691616 34.11713"
   id="svg534"
   width="54.691616"
   height="34.11713"
   xmlns="http://www.w3.org/2000/svg"
   xmlns:svg="http://www.w3.org/2000/svg">
  <defs
     id="defs534" />
  <g
     id="g561"
     transform="translate(-547,-152.17287)">
    <path
       fill="#f63248"
       d="m 593.88,154.52 a 0.48,0.48 0 0 1 0.26,-0.63 l 2.71,-1.16 a 3.05,1.1 -23.1 0 1 3.24,-0.19 l 0.14,0.35 a 3.05,1.1 -23.1 0 1 -2.37,2.21 l -2.71,1.16 a 0.48,0.48 0 0 1 -0.63,-0.25 z"
       id="path346" />
    <path
       fill="#f63248"
       d="m 588.58,172.22 -14.6,-0.08 a 0.99,0.98 -25.2 0 1 -0.62,-0.22 q -1.24,-0.99 -2.82,-0.14 -1.68,0.89 -3.56,1 -3.94,-5.03 -2.56,-10.98 a 1.76,1.74 74 0 1 0.47,-0.86 c 3.44,-3.47 8.65,-1.16 11.32,2.14 a 0.53,0.52 38.5 0 0 0.88,-0.1 l 2.14,-4.29 a 1.58,1.5 -5.4 0 1 0.48,-0.55 c 4.54,-3.12 10.66,-2.91 11.67,3.7 0.41,2.75 -1.74,7.34 -2.8,10.38 z"
       id="path352" />
    <ellipse
       fill="#f63248"
       cx="0"
       cy="0"
       transform="rotate(-163.1,290.6222,38.780132)"
       rx="3.25"
       ry="1.34"
       id="ellipse354" />
    <path
       fill="#f63248"
       d="m 595.2,159.22 a 0.5,0.5 0 0 1 0.55,-0.45 l 0.53,0.05 a 5.55,1.13 5.7 0 1 5.41,1.68 l -0.05,0.46 a 5.55,1.13 5.7 0 1 -5.63,0.57 l -0.53,-0.05 a 0.5,0.5 0 0 1 -0.45,-0.55 z"
       id="path355" />
    <ellipse
       fill="#f63248"
       cx="0"
       cy="0"
       transform="rotate(-137.9,329.8984,-31.942275)"
       rx="3.1199999"
       ry="1.24"
       id="ellipse358" />
    <ellipse
       fill="#f63248"
       cx="0"
       cy="0"
       transform="rotate(-16.4,854.20526,-1843.8163)"
       rx="3.8"
       ry="1.48"
       id="ellipse359" />
    <path
       fill="#cf394e"
       d="m 558.01,172.75 -0.59,0.43 -3.23,-0.83 q 0.95,-0.2 2.47,-2.42 0.95,-1.39 2.65,-1.07 a 0.52,0.51 -79.5 0 1 0.41,0.61 q -0.32,1.78 -1.71,3.28 z"
       id="path362" />
    <path
       fill="#cf394e"
       d="m 588.58,172.22 0.04,1.47 q -3.32,3.14 -5.49,7.68 -0.74,1.55 -3.57,2.67 -1.51,-1.41 -3.19,-2.06 a 2.35,2.01 67.8 0 1 -0.33,-0.17 l -4.43,-3.12 q -0.57,-3.52 -3.02,-3.18 -0.46,-1.33 -1.61,-2.73 1.88,-0.11 3.56,-1 1.58,-0.85 2.82,0.14 a 0.99,0.98 -25.2 0 0 0.62,0.22 z"
       id="path368" />
    <path
       fill="#878d89"
       d="M 550.04,172.14 547,172.11 Z"
       id="path373" />
    <path
       fill="#456b3a"
       d="m 562.62,172.56 -2.43,0.18 z"
       id="path378" />
    <path
       fill="#626664"
       d="m 591.14,172.5 q -0.17,0.53 -0.88,0.26 0.4,-0.27 0.88,-0.26 z"
       id="path379" />
    <path
       fill="#441e17"
       d="m 558.01,172.75 -0.05,0.39 q -0.3,-0.07 -0.54,0.04 z"
       id="path380" />
    <path
       fill="#626664"
       d="m 560.04,172.71 q -0.34,0.31 -0.84,0.28 0.33,-0.35 0.84,-0.28 z"
       id="path381" />
    <path
       fill="#878d89"
       d="m 565.09,186.29 -0.04,-2.25 z"
       id="path390" />
  </g>
</svg>
