<?xml version="1.0" encoding="UTF-8" standalone="no"?>
<svg
   version="1.1"
   viewBox="0 0 14.932455 17.662453"
   id="svg534"
   width="14.932455"
   height="17.662453"
   xmlns="http://www.w3.org/2000/svg"
   xmlns:svg="http://www.w3.org/2000/svg">
  <defs
     id="defs534" />
  <path
     fill="#441e17"
     d="m 7.3044247,6.2192851 q 0.19,-0.17 0.86,-2.39 c 0.66,-2.14 1.55,-3.28000004 3.6800003,-3.77000004 a 2.19,2.18 73.5 0 1 2.56,1.39000004 q 1.31,3.68 -0.63,7.61 -2.25,4.5799999 -2.88,7.3699999 a 1.59,1.59 0 0 1 -2.7100003,0.73 l -6.33,-6.85 a 1.52,1.41 13.1 0 1 -0.27,-0.3999999 l -1.44999999,-2.9 a 1.28,1.24 35 0 1 -0.13,-0.67 q 0.26,-2.78 2.62999999,-3.38 c 1.69,-0.44 3.04,2.12 3.79,3.16 a 0.6,0.59 51.2 0 0 0.88,0.1 z"
     id="path325" />
</svg>
