<?xml version="1.0" encoding="UTF-8" standalone="no"?>
<svg
   version="1.1"
   viewBox="0 0 168.63306 41.518078"
   id="svg325"
   width="168.63306"
   height="41.518078"
   xmlns="http://www.w3.org/2000/svg"
   xmlns:svg="http://www.w3.org/2000/svg">
  <defs
     id="defs325" />
  <path
     fill="#62a797"
     d="m 93.535012,26.000001 a 0.43,0.43 0 0 0 0.72,-0.16 q 1.39,-4.23 2.89,-6.44 a 1.68,1.65 65.4 0 0 0.29,-0.8 l 0.22,-2.05 a 2.43,2.55 60.4 0 1 0.26,-0.86 l 2.359998,-4.48 a 5.92,5.99 2.5 0 1 2.94,-2.7199997 q 2.89,-1.24 5.13,-3.74 a 3.43,3.44 7.7 0 1 1.06,-0.81 q 6.06,-3.08000001 12.9,-2.33 1.03,0.11 3.59,-1.50000001 a 0.72,0.67 26.9 0 1 0.38,-0.1099999971807 h 4.25 a 1.33,1.33 0 0 1 0.89,0.3399999971807 q 1.87,1.73000001 3.91,0.77000001 c 2.29,-1.08000001 5,-0.15000001 7.24,0.11 3.27,0.38 5.02,2.39 8.07,3.1 4.56,1.06 9.37,6.3699997 11.56,10.2999997 q 4.45,8 5.11,11.04 1.65,7.63 1.25,10.97 -0.13,1.1 -0.66,4.12 a 0.92,0.92 0 0 1 -1.73,0.26 q -2.38,-4.68 -3.75,-11.2 -0.89,-4.25 -5.49,-12.5 a 5,4.88 7.9 0 0 -0.93,-1.2 l -6.95,-6.4899997 a 4.5,4.61 71.5 0 0 -2.39,-1.16 l -10.56,-1.64 a 2.06,0.96 18.1 0 1 -0.28,-0.07 l -3.31,-1.04 a 2.23,2.26 43.5 0 0 -1.47,0.05 l -2.21,0.87 a 1.64,1.62 37.7 0 1 -0.83,0.1 q -0.83,-0.13 -1.27,-0.46 a 3.03,3.25 51.4 0 0 -3.3,-0.25 q -3.19,1.59 -5.75,1.99 c -2.29,0.35 -4.03,1.38 -6.34,1.27 a 1.91,1.89 21.6 0 0 -1.52,0.65 q -4.44,5.0599997 -7.84,11.6699997 a 4.76,4.72 60.5 0 0 -0.51,1.87 q -0.11,2.27 -0.89,3.84 a 3.42,3.45 56.8 0 0 -0.36,1.69 c 0.08,1.9 0.95,9.18 -3.179998,8.41 q -2.55,-0.48 -3.61,-0.93 a 2.33,2.31 80.9 0 1 -1.07,-0.78 l -3.88,-5.16 a 1.58,1.64 1.1 0 0 -0.25,-0.27 c -1.48,-1.29 -2.53,-1.91 -3.73,-3.31 q -1.04,-1.21 -1.92,-1.38 -3.81,-0.75 -7.05,-2.19 a 2.08,1.97 60.6 0 0 -0.39,-0.12 l -7.26,-1.5 a 1.78,1.79 42.5 0 0 -0.91,0.04 q -0.33,0.13 -6.97,1.71 -1.58,0.37 -2.87,0.36 c -2.11,-0.03 -3.55,1.07 -5.1,2.58 -1.55,1.51 -3.99,1.91 -5.17,3.91 q -2.43,4.09 -6.26,9.1 a 0.62,0.62 0 0 1 -1,-0.01 l -5.9,-8.09 a 3.02,3.07 84 0 0 -1.26,-1 l -9.81,-4.22 a 3.14,3.29 60 0 0 -1.03,-0.25 c -3.77,-0.3 -7.63,-2.24 -11.28,1.43 q -4.3099999,4.35 -9.0899999,7.24 a 0.8,0.81 81.4 0 1 -1.20000004,-0.88 c 1.55000004,-6.15 5.01000004,-7.67 9.78000004,-11.12 q 2.7999999,-2.04 6.9799999,-2.8 a 3.23,3.13 47.5 0 1 1.51,0.09 q 2.3,0.7 4.56,0.64 c 4.9,-0.11 9.63,2.63 13.64,5.63 1.02,0.76 1.15,2.03 1.9,2.78 a 0.83,0.84 54.6 0 0 0.99,0.16 l 4.4,-2.29 a 1.35,1.39 87.1 0 0 0.63,-0.68 c 1.26,-3.01 3.98,-5.46 7.27,-5.82 2.84,-0.32 4.69,-2.73 7.87,-3.31 q 5.63,-1.03 8.15,-0.6 1.92,0.32 5.74,0.24 6.05,-0.14 10.18,4.11 a 2.06,2.09 70.7 0 0 1.29,0.61 q 4.77,0.49 8.62,4.67 z"
     id="path166" />
</svg>
