<?xml version="1.0" encoding="UTF-8" standalone="no"?>
<svg
   version="1.1"
   viewBox="0 0 24.998199 57.043171"
   id="svg527"
   width="24.998199"
   height="57.043171"
   xmlns="http://www.w3.org/2000/svg"
   xmlns:svg="http://www.w3.org/2000/svg">
  <defs
     id="defs527" />
  <g
     id="g554"
     transform="translate(-690.6918,-23.918482)">
    <path
       fill="#fac22c"
       d="m 715.05,42.98 q -0.65,-0.1 -0.93,-0.51 -0.42,-2.18 -1.74,-1.35 -1.73,1.09 -3.46,2.13 a 4.32,4.09 -68.4 0 1 -0.86,0.4 q -2.26,0.74 -4.13,2.11 -0.45,0.02 -0.67,0.26 -4.05,1.06 -7.94,0.14 -2.55,-0.6 -4.38,-0.65 -1.01,-3.82 2.09,-6.19 a 1.81,1.81 0 0 0 0.61,-2.02 q -1.36,-3.92 1.47,-6.48 c 1.91,-1.73 3.72,-3.82 4.66,-5.16 1.27,-1.81 2.83,-2.12 4.62,-1.34 a 1.72,1.7 84.6 0 1 0.74,0.62 c 1.84,2.85 3.48,3.25 5.77,4.7 a 1.86,1.82 -86.8 0 1 0.69,0.79 l 3.97,8.67 a 1.41,1.39 -57.7 0 1 0.13,0.59 q -0.01,1.73 -0.64,3.29 z M 701.6,30.44 q 0.13,0.17 2.65,-1.28 0.37,-0.21 0.48,-0.48 0.15,-0.38 -0.08,-0.67 -0.23,-0.3 -0.63,-0.23 -0.3,0.05 -0.58,0.36 -1.98,2.13 -1.84,2.3 z m 5.3914,6.1742 a 2.2,0.28 -27.5 0 0 -2.0807,0.7674 2.2,0.28 -27.5 0 0 -1.8221,1.2642 2.2,0.28 -27.5 0 0 2.0807,-0.7674 2.2,0.28 -27.5 0 0 1.8221,-1.2642 z m 5.0286,0.1558 -3.78,3.24 a 0.11,0.11 0 0 0 -0.01,0.16 l 0.03,0.03 a 2.04,1.01 -40.6 0 0 2.2,-0.57 l 0.85,-0.72 a 2.04,1.01 -40.6 0 0 0.89,-2.1 l -0.02,-0.03 a 0.11,0.11 0 0 0 -0.16,-0.01 z m -15.2507,0.5832 a 0.34,0.29 -128.3 0 0 -0.0169,0.4465 0.34,0.29 -128.3 0 0 0.4383,0.0871 0.34,0.29 -128.3 0 0 0.0169,-0.4465 0.34,0.29 -128.3 0 0 -0.4383,-0.0871 z m 2.6243,5.5187 a 0.96,0.48 -24.5 0 0 -1.0727,-0.0387 0.96,0.48 -24.5 0 0 -0.6745,0.8349 0.96,0.48 -24.5 0 0 1.0727,0.0387 0.96,0.48 -24.5 0 0 0.6745,-0.8349 z"
       id="path259" />
    <path
       fill="#3f79b3"
       d="m 715.05,42.98 c -0.49,3.04 -0.94,6.23 -1.83,9.07 q -1.56,5.03 -1.99,7.65 c -0.66,4.03 -2.17,7.49 -3.05,11.69 a 9.61,9.53 62.1 0 1 -0.52,1.71 q -1.26,3.09 -2.57,6.2 -0.86,2.03 -2.58,1.58 c -2.13,-0.55 -2.48,-3.83 -2.78,-5.69 -0.41,-2.52 -2.01,-5.29 -2.6,-8.08 -0.75,-3.51 -2.16,-5.88 -2.81,-9.28 q -0.29,-1.53 -1.47,-4.49 -1.5,-3.76 -1.91,-7.83 1.83,0.05 4.38,0.65 3.89,0.92 7.94,-0.14 0.76,-0.35 1.3,0.03 4.33,-1.23 8.72,-2.78 0.64,-0.23 0.84,-0.8 0.28,0.41 0.93,0.51 z m -2.79,3.32 -12.21,2.35 a 0.12,0.12 0 0 0 -0.1,0.14 l 0.01,0.04 a 6.17,2.24 -10.9 0 0 6.48,1.03 l 0.33,-0.06 a 6.17,2.24 -10.9 0 0 5.64,-3.37 l -0.01,-0.04 a 0.12,0.12 0 0 0 -0.14,-0.09 z m -12.4,5.62 -4.31,-1.58 a 0.57,0.57 0 0 0 -0.76,0.52 q -0.12,2.88 1.1,2.82 a 0.25,0.12 -38 0 0 0.09,-0.02 l 3.86,-1.14 a 0.32,0.32 0 0 0 0.02,-0.6 z m -2.97,3.7 a 0.54,0.53 -43.5 0 0 -0.03,1.01 c 2.99,1.13 6.58,2.27 9.83,1.35 q 3.2,-0.91 4.44,-3.88 a 1.03,1.03 0 0 0 -0.97,-1.42 l -4.2,0.07 a 1.21,1.09 32.1 0 0 -0.4,0.07 z m -0.0265,4.1371 a 1.67,0.97 -168.5 0 0 1.4431,1.2834 1.67,0.97 -168.5 0 0 1.8299,-0.6176 1.67,0.97 -168.5 0 0 -1.4431,-1.2834 1.67,0.97 -168.5 0 0 -1.8299,0.6176 z m 3.4165,4.1029 4.09,1.5 a 2.69,2.68 -64.9 0 0 3.25,-1.18 l 0.92,-1.59 a 1.13,1.13 0 0 0 -0.86,-1.68 q -3.98,-0.42 -7.51,2.24 a 0.41,0.41 0 0 0 0.11,0.71 z m 1.4068,2.9499 a 1.2,0.95 -13.5 0 0 -1.3886,-0.6437 1.2,0.95 -13.5 0 0 -0.945,1.2039 1.2,0.95 -13.5 0 0 1.3886,0.6437 1.2,0.95 -13.5 0 0 0.945,-1.2039 z m 4.4432,0.8101 -5.26,2.35 a 0.16,0.16 0 0 0 -0.08,0.21 l 0.02,0.05 a 3.13,2.98 65.9 0 0 4,1.64 l 0.11,-0.05 a 3.13,2.98 65.9 0 0 1.44,-4.07 l -0.02,-0.05 a 0.16,0.16 0 0 0 -0.21,-0.08 z m -2.1784,7.575 a 1.24,1.06 -58.3 0 0 -1.5535,0.498 1.24,1.06 -58.3 0 0 0.2503,1.612 1.24,1.06 -58.3 0 0 1.5535,-0.498 1.24,1.06 -58.3 0 0 -0.2503,-1.612 z"
       id="path274" />
    <path
       fill="#1858a1"
       d="m 703.93,45.76 q 0.43,0.04 0.63,0.29 -0.54,-0.38 -1.3,-0.03 0.22,-0.24 0.67,-0.26 z"
       id="path275" />
  </g>
  <path
     fill="#eb3d3c"
     d="m 7.6581995,94.281518 q 1.87,4.44 2.8600005,9.710002 a 0.99,0.99 0 0 1 -1.8700005,0.59 q -1.54,-3.41 -2.92,-9.500002 a 1.58,1.58 0 0 0 -1.51,-1.22 q -6.3,-0.08 -11.65,-4.34 -2.37,-1.89 -0.68,-4.18 a 1.32,1.32 0 0 0 -0.39,-1.92 c -2.9299995,-1.73 -7.7999995,-4.67 -7.0699995,-8.16 a 1.57,1.57 0 0 1 0.97,-1.15 l 3.01,-1.18 a 0.55,0.55 0 0 0 0.26,-0.81 c -2.53,-3.95 -7.91,-11.45 -5.48,-15.92 2.25,-4.16 7.7699995,-1.16 10.3899995,1.22 q 2.56,2.33 5.08,5.28 a 2.19,2.19 0 0 0 2.26000001,0.69 l 3.90999999,-1.08 a 1.26,1.12 34.3 0 1 0.31,-0.04 c 4.48,-0.02 2.55,5.64 1.53,8.36 a 1.03,1.03 0 0 0 1.26,1.36 l 2.1000005,-0.63 a 1.91,1.92 75.8 0 1 2.41,1.43 q 0.75,3.47 -1.34,7.59 a 1.15,1.15 0 0 0 0.72,1.63 c 4.67,1.29 4.83,6.74 1.29,9.29 q -2.37,1.71 -4.9300005,2.06 a 0.67,0.67 0 0 0 -0.52,0.92 z m 2.4400005,-20.18 c -1.8400005,-0.2 -4.3400005,1.6 -5.6400005,-0.71 -0.82,-1.47 0.52,-5.23 1.33,-7.21 a 0.9,0.9 0 0 0 -1.13,-1.19 q -2.89,0.99 -6.12,0.31 a 2.56,2.49 74.7 0 1 -1.41,-0.83 c -2.38,-2.76 -5.65,-6.74 -9.2699995,-7.64 q -1.44,-0.36 -1.71,-0.21 a 2.93,2.56 65.6 0 0 -1.04,3.44 q 1.69,4.49 5.5599995,10.83 a 3.09,2.8 50.6 0 1 -0.17,3.47 q -1.0499995,1.2 -2.9199995,2.02 a 0.66,0.65 52.2 0 0 -0.14,1.12 l 7.2399995,5.59 a 1.05,0.95 6.7 0 1 0.27,0.31 q 0.89,1.53 -0.53,3.16 a 1,1.01 38.2 0 0 0.17,1.48 q 4.01,2.88 8.27,3.44 a 1.03,1.03 0 0 0 1.07,-1.45 l -10.79,-23.54 a 0.83,0.83 0 0 1 0.1,-0.84 l 0.25,-0.33 a 0.86,0.86 0 0 1 1.45,0.13 q 5.67000001,10.83 10.2,21.82 0.87,2.11 1.06,3.29 a 0.57,0.58 82 0 0 0.63,0.47 c 2.82,-0.33 7.0800005,-1.77 6.2600005,-5.19 a 1.23,1.24 5.6 0 0 -0.68,-0.83 l -2.8800005,-1.35 a 1.16,1.16 0 0 1 -0.65,-0.86 c -0.45,-2.68 0.54,-5.19 1.6800005,-7.91 a 0.57,0.58 14.3 0 0 -0.46,-0.79 z"
     id="path302" />
</svg>
