<?xml version="1.0" encoding="UTF-8" standalone="no"?>
<svg
   version="1.1"
   viewBox="0 0 36.199188 51.726219"
   id="svg534"
   width="36.199188"
   height="51.726219"
   xmlns="http://www.w3.org/2000/svg"
   xmlns:svg="http://www.w3.org/2000/svg">
  <defs
     id="defs534" />
  <path
     fill="#64cb35"
     d="m 6.8429087,23.000222 a 0.62,0.62 0 0 0 1.11,0.34 l 1.26,-1.65 a 2.19,2.2 54.4 0 0 0.33,-1.99 c -1.25,-3.77 -1.82,-7.35 0.19,-11.2600002 a 0.79,0.79 0 0 1 0.8300003,-0.43 q 1.9,0.28 2.89,1.09 a 1.13,1.11 17.8 0 1 0.4,0.76 l 0.34,4.3800002 a 0.8,0.8 0 0 0 1.43,0.42 l 0.59,-0.77 a 2.26,2.25 58.5 0 0 0.42,-1.77 c -0.74,-4.0700002 -1.34,-8.6700002 2.78,-10.7200002 a 2,2 0 0 1 2.85,1.37 l 0.67,3.13 a 0.44,0.44 0 0 0 0.76,0.2 q 4.15,-4.59 9.95,-6.03999999 a 2.03,2.03 0 0 1 2.5,1.67999999 q 0.22,1.57 -0.42,3.24 a 3.01,2.92 75.7 0 1 -0.47,0.82 q -2.81,3.37 -7.41,5.3000002 a 0.42,0.42 0 0 0 0.04,0.79 c 0.95,0.29 1.99,0.54 2.66,1.35 q 1.84,2.22 0.09,4.83 a 1.34,1.33 9.3 0 1 -0.77,0.55 q -5.87,1.63 -10.75,-1.74 a 1.25,1.25 0 0 0 -1.51,0.07 l -0.51,0.42 a 0.45,0.45 0 0 0 0.15,0.78 q 6.89,2.09 8.17,4.11 a 1.08,1.08 0 0 1 0.14,0.86 c -1.53,6.02 -8.84,3.27 -12.28,0.57 a 1.39,1.39 0 0 0 -2.06,0.4 l -1.9000003,3.29 a 0.54,0.54 0 0 0 0.63,0.78 q 5.9300003,-1.89 11.1800003,1.56 a 1.62,1.61 27.4 0 1 0.62,1.93 c -2.02,5.21 -10.47,3.74 -14.1400003,1.75 a 1.26,1.25 25.4 0 0 -1.75,0.62 q -3.41,8.3 -2.96,16.8 a 0.87,0.86 13.5 0 1 -1.3,0.79 l -0.46,-0.27 a 2.18,2.21 13.5 0 1 -1.10000005,-1.82 q -0.37,-9.25 3.42000005,-17.41 a 1.33,1.34 44.2 0 0 -0.01,-1.15 q -2.38,-4.93 -1.98,-10.4 0.12,-1.6 0.97,-2.08 a 2.38,2.18 56.3 0 1 2.92,0.72 q 1.39,1.84 1.49,3.8 z M 30.665109,5.0001218 a 0.39,2.07 52.5 0 0 -1.8796,0.9507 0.39,2.07 52.5 0 0 -1.4048,1.5695 0.39,2.07 52.5 0 0 1.8796,-0.9507 0.39,2.07 52.5 0 0 1.4048,-1.5695 z m -11.7422,1.5801 q -0.08,0.13 0.03,0.4 a 0.05,0.06 67.3 0 0 0.08,0.03 q 0.05,-0.03 0.18,-0.25 a 0.17066048,0.17066048 0 0 0 -0.29,-0.18 z m 4.6125,8.4502002 a 1.75,0.54 9.2 0 0 1.6412,0.8129 1.75,0.54 9.2 0 0 1.8138,-0.2533 1.75,0.54 9.2 0 0 -1.6412,-0.8129 1.75,0.54 9.2 0 0 -1.8138,0.2533 z m -5.9569,7.0237 a 1.51,0.46 15.6 0 0 1.3307,0.8492 1.51,0.46 15.6 0 0 1.5781,-0.037 1.51,0.46 15.6 0 0 -1.3307,-0.8492 1.51,0.46 15.6 0 0 -1.5781,0.037 z m -5.3676,8.8482 a 2.2,0.76 4.9 0 0 2.1271,0.9451 2.2,0.76 4.9 0 0 2.2569,-0.5693 2.2,0.76 4.9 0 0 -2.1271,-0.9451 2.2,0.76 4.9 0 0 -2.2569,0.5693 z"
     id="path342" />
</svg>
