<?xml version="1.0" encoding="UTF-8" standalone="no"?>
<svg
   version="1.1"
   viewBox="0 0 27.756027 25.231487"
   id="svg534"
   width="27.756027"
   height="25.231487"
   xmlns="http://www.w3.org/2000/svg"
   xmlns:svg="http://www.w3.org/2000/svg">
  <defs
     id="defs534" />
  <path
     fill="#f63248"
     d="m 22.032725,10.312135 a 0.5,0.5 0 0 0 0.67,0.42 c 7.34,-2.6899996 4.93,4.72 3.51,8.36 a 1.47,1.5 86.3 0 1 -0.69,0.77 c -3.68,1.98 -7.34,5.85 -12.63,5.32 a 1.85,1.68 58.1 0 1 -0.6,-0.17 l -8.8699998,-4.43 a 1.7,1.73 83.1 0 1 -0.52,-0.4 q -3.58999997,-4.08 -2.73999997,-9.43 a 0.93,0.94 81.9 0 1 0.52,-0.69 q 2.03999997,-0.9499996 3.81999997,0.41 a 2.18,2.26 88.9 0 1 0.26,0.24 l 1.11,1.25 a 0.63,0.63 0 0 0 1.08,-0.59 q -1.63,-6.0699996 1.03,-10.46999965 A 1.86,1.86 0 0 1 11.242725,1.0321354 l 3.23,6.5 a 0.21,0.2 43.1 0 0 0.37,-0.01 c 1.07,-2.42 1.72,-6.26 5.61,-4.81 2.41,0.91 1.4,5.77 1.58,7.5999996 z"
     id="path487" />
</svg>
