<?xml version="1.0" encoding="UTF-8" standalone="no"?>
<svg
   version="1.1"
   viewBox="0 0 26.027437 36.815041"
   id="svg534"
   width="26.027437"
   height="36.815041"
   xmlns="http://www.w3.org/2000/svg"
   xmlns:svg="http://www.w3.org/2000/svg">
  <defs
     id="defs534" />
  <g
     id="g555"
     transform="translate(-294.54016,-72.494896)">
    <path
       fill="#64cb35"
       d="m 320.2,79.07 q -1.81,-0.34 -3.35,-1.3 a 0.97,0.97 0 0 0 -1.49,0.83 q 0,0.93 -0.87,2.48 A 0.3,0.3 0 0 1 313.93,81 q -0.1,-0.52 0.27,-2.36 a 0.64,0.64 0 0 0 -1.08,-0.58 l -1.9,1.91 a 0.93,0.92 30.8 0 1 -0.92,0.23 q -5.23,-1.53 -7.84,4.26 a 3.06,2.98 78 0 1 -0.43,0.68 q -3.43,4.05 -3.45,8.87 a 0.83,0.82 13.4 0 0 0.46,0.74 q 0.18,0.09 0.2,0.1 a 0.76,0.75 -63.7 0 1 0.31,0.93 q -1.46,3.64 -1.29,7.81 a 0.47,0.46 77 0 0 0.65,0.41 q 0.73,-0.32 0.91,-1 0.49,-1.81 1.67,-3.92 a 0.22,0.22 0 0 1 0.42,0.11 v 1.37 a 0.52,0.52 0 0 0 0.88,0.38 c 0.89,-0.87 1.66,-1.96 1.79,-3.26 q 0.06,-0.67 0.51,-0.88 1.68,-1.52 2.69,-3.58 l 1.99,1.11 -3.17,4.57 a 0.71,0.71 0 0 0 1.09,0.91 l 4.06,-4.07 A 2.71,2.69 -71.8 0 1 313.2,95 l 4.6,-0.74 q -1.58,3.51 -4.29,6.27 -5.19,5.29 -10.45,7.99 -3.7,1.9 -6.24,-0.77 C 294.21,105 294.41,96.89 294.71,93.89 q 0.52,-5.12 2.69,-8.38 c 3.39,-5.11 6.39,-7.41 12.31,-9.87 q 3.53,-1.47 6.38,-2.9 a 2.35,2.35 0 0 1 3.23,1.24 q 0.83,2.07 0.88,5.09 z m -5.5867,16.4625 a 0.56,0.18 -48.2 0 0 -0.5075,0.2975 0.56,0.18 -48.2 0 0 -0.2391,0.5375 0.56,0.18 -48.2 0 0 0.5075,-0.2975 0.56,0.18 -48.2 0 0 0.2391,-0.5375 z"
       id="path292" />
    <path
       fill="#a3e185"
       d="m 320.2,79.07 c 0.74,5.54 0.56,10.52 -2.4,15.19 L 313.2,95 a 2.71,2.69 -71.8 0 0 -1.45,0.74 l -4.06,4.07 A 0.71,0.71 0 0 1 306.6,98.9 l 3.17,-4.57 q 1.05,-0.76 1.21,-2.03 1.95,-2.4 2.75,-5.69 a 0.11,0.11 0 0 0 -0.2,-0.07 l -2.55,5.76 q -0.72,0.7 -1.21,2.03 l -1.99,-1.11 0.22,-0.9 a 0.15,0.14 75 0 0 -0.24,-0.14 q -1.93,1.84 -2.67,4.62 -0.45,0.21 -0.51,0.88 c -0.13,1.3 -0.9,2.39 -1.79,3.26 a 0.52,0.52 0 0 1 -0.88,-0.38 v -1.37 a 0.22,0.22 0 0 0 -0.42,-0.11 q -1.18,2.11 -1.67,3.92 -0.18,0.68 -0.91,1 a 0.47,0.46 77 0 1 -0.65,-0.41 q -0.17,-4.17 1.29,-7.81 a 0.76,0.75 -63.7 0 0 -0.31,-0.93 q -0.02,-0.01 -0.2,-0.1 a 0.83,0.82 13.4 0 1 -0.46,-0.74 q 0.02,-4.82 3.45,-8.87 a 3.06,2.98 78 0 0 0.43,-0.68 q 2.61,-5.79 7.84,-4.26 a 0.93,0.92 30.8 0 0 0.92,-0.23 l 1.9,-1.91 a 0.64,0.64 0 0 1 1.08,0.58 q -0.37,1.84 -0.27,2.36 a 0.3,0.3 0 0 0 0.56,0.08 q 0.87,-1.55 0.87,-2.48 a 0.97,0.97 0 0 1 1.49,-0.83 q 1.54,0.96 3.35,1.3 z m -10.9732,4.2846 a 2.43,0.29 -55.2 0 0 -1.6249,1.8299 2.43,0.29 -55.2 0 0 -1.1487,2.1609 2.43,0.29 -55.2 0 0 1.6249,-1.8299 2.43,0.29 -55.2 0 0 1.1487,-2.1609 z m -4.7752,0.2368 a 0.97,0.25 -47.8 0 0 -0.8368,0.5507 0.97,0.25 -47.8 0 0 -0.4664,0.8865 0.97,0.25 -47.8 0 0 0.8368,-0.5507 0.97,0.25 -47.8 0 0 0.4664,-0.8865 z M 310.32,88.8 q 0.79,-0.79 0.18,-1.29 a 0.24,0.23 -63.2 0 0 -0.38,0.13 l -0.2,0.94 a 0.24,0.24 0 0 0 0.4,0.22 z m -5.76,1.51 q -0.01,0.06 0,0.1 A 0.59,0.24 64.8 0 0 305.2,91 q 0.02,-0.07 0.02,-0.09 a 0.56,0.3 70.3 0 0 -0.66,-0.6 z"
       id="path295" />
    <ellipse
       fill="#626664"
       cx="0"
       cy="0"
       transform="rotate(-48.2,264.36946,-303.27116)"
       rx="0.56"
       ry="0.18000001"
       id="ellipse303" />
  </g>
</svg>
