<?xml version="1.0" encoding="UTF-8" standalone="no"?>
<svg
   version="1.1"
   viewBox="0 0 14.955377 17.699753"
   id="svg534"
   width="14.955377"
   height="17.699753"
   xmlns="http://www.w3.org/2000/svg"
   xmlns:svg="http://www.w3.org/2000/svg">
  <defs
     id="defs534" />
  <g
     id="g543"
     transform="translate(-790.94557,-43.311462)">
    <path
       fill="#c7d839"
       d="m 746.65,0 q -0.05,1.13 -2,2.12 -1.9,0.96 -2.59,1.58 -2.79,2.52 -5.65,4.28 a 3.43,3.06 3.3 0 0 -0.58,0.46 l -1.59,1.59 a 1.12,1.12 0 0 1 -1.8,-0.31 Q 731.9,8.6 732.48,7.01 733.17,5.13 737.45,0 Z"
       id="path242" />
    <path
       fill="#c7d839"
       d="m 766.39,0 q 0.13,0.08 0.22,0.17 a 0.29,0.29 0 0 1 0.07,0.36 l -5.7,11.43 a 2.11,1.16 -28.8 0 1 -0.14,0.22 l -4.34,5.73 a 0.76,0.76 0 0 1 -1.3,-0.15 c -1.21,-2.59 -0.32,-5.8 0.19,-8.71 a 2.61,2.55 -23 0 1 0.43,-1.03 q 1.84,-2.67 2.43,-5.32 a 0.21,0.21 0 0 0 -0.36,-0.19 q -8.39,8.4 -15.9,18.04 a 0.86,0.85 45.7 0 1 -1.36,-0.02 c -2.28,-3.06 3.13,-12.8 4.72,-15.25 1.17,-1.82 3.16,-3.34 4.57,-5.28 z"
       id="path243" />
    <path
       fill="#c7d839"
       d="m 774.62,0 q 1.33,0.43 2.53,0 h 8.71 l 8.02,7.18 a 2.3,2.29 27.1 0 1 0.71,2.19 l -0.12,0.55 a 1.02,1.02 0 0 1 -1.56,0.63 l -5.53,-3.68 a 0.24,0.17 -10.9 0 0 -0.07,-0.03 q -4.75,-0.96 -8.82,-3.19 -0.37,-0.21 -0.42,-0.31 -0.15,-0.28 -0.21,-0.28 a 0.15,0.15 0 0 0 -0.12,0.25 l 1.49,1.67 a 0.96,0.72 18.6 0 1 0.13,0.19 c 0.93,1.75 4.53,10.58 3.47,13.05 a 1.13,1.13 0 0 1 -1.66,0.49 Q 773,13.33 768.6,4.45 a 2.26,2.07 29.9 0 1 -0.19,-0.6 L 767.7,0 Z m 1.66,1.82 q 0.12,0.24 0.29,0.29 a 0.11,0.11 0 0 0 0.11,-0.17 Q 776.6,1.83 776.42,1.7 a 0.09219544,0.09219544 0 0 0 -0.14,0.12 z m -2.36,2.64 q -0.01,-0.05 -0.03,-0.1 a 0.26,0.09 56.9 0 0 -0.3,-0.23 q 0,0.05 0,0.1 a 0.26147391,0.11062358 57.7 0 0 0.33,0.23 z"
       id="path244" />
    <path
       fill="#956529"
       d="m 775.75,81.05 -1.05,0.61 a 1.67,1.67 0 0 1 -2.5,-1.52 q 0.75,-17.37 0.06,-23.9 -1.29,-12.27 -3.03,-26.99 -0.59,-4.97 -2.32,-9.65 a 11,10.42 32.1 0 1 -0.52,-2.02 q -0.77,-5.12 -2.24,-8.52 a 1.14,1.13 44.7 0 1 -0.01,-0.9 l 1.21,-3.01 a 0.86,0.86 0 0 1 1.41,-0.29 q 1.92,1.9 2.48,3.93 2.92,10.37 5.18,19.4 0.86,3.39 1.11,6.51 c 0.23,2.9 1.09,5.58 1.17,8.75 q 0.12,4.95 1.03,13.38 c 0.74,6.88 0.46,12.07 0.6,19.66 a 5.15,5.14 -15.6 0 1 -2.58,4.56 z"
       id="path248" />
  </g>
  <path
     fill="#441e17"
     d="m 6.4344288,6.1385382 a 0.6,0.59 51 0 0 0.88,0.1 q 0.19,-0.17 0.86,-2.39 c 0.65,-2.15 1.54,-3.28999995 3.6800002,-3.78999995 a 2.19,2.19 0 0 1 2.56,1.37999995 q 1.33,3.69 -0.61,7.63 -2.24,4.5899998 -2.86,7.3899998 a 1.59,1.59 0 0 1 -2.7100002,0.74 l -6.36,-6.85 a 1.52,1.41 13 0 1 -0.28,-0.3999998 l -1.46000004,-2.9 a 1.28,1.24 34.9 0 1 -0.13,-0.67 q 0.25,-2.78 2.63000004,-3.39 c 1.69,-0.45 3.05,2.11 3.8,3.15 z"
     id="path272" />
</svg>
