<?xml version="1.0" encoding="UTF-8" standalone="no"?>
<svg
   version="1.1"
   viewBox="0 0 35.828724 26.525782"
   id="svg534"
   width="35.828724"
   height="26.525782"
   xmlns="http://www.w3.org/2000/svg"
   xmlns:svg="http://www.w3.org/2000/svg">
  <defs
     id="defs534" />
  <g
     id="g563"
     transform="translate(-166.12638,-207.76578)">
    <path
       fill="#9ad3e7"
       d="m 187.61,229.06 a 1.1,1.09 29 0 1 -1.79,0.51 c -2.34,-2.13 -3.22,-5.21 -5.42,-7.71 -2.72,-3.11 -4.24,-5.24 -4.69,-9.61 -0.48,-4.6 3.65,-5.6 6.71,-3.28 a 1.95,1.9 -82.7 0 1 0.64,0.85 c 1.04,2.63 1.83,4.18 2.3,6.7 q 0.9,4.8 2.33,9.52 0.4,1.32 -0.08,3.02 z m -8.5305,-18.1511 a 4.77,1.5 -111.4 0 0 0.3439,4.9884 4.77,1.5 -111.4 0 0 3.1371,3.8938 4.77,1.5 -111.4 0 0 -0.3439,-4.9884 4.77,1.5 -111.4 0 0 -3.1371,-3.8938 z"
       id="path414" />
    <path
       fill="#9ad3e7"
       d="m 201.05888,211.21741 a 1.09,1.09 0 0 1 0.88,1.26 l -0.21,1.21 a 2.81,12.02 9.8 0 1 -4.81,11.37 2.81,12.02 9.8 0 1 -0.72,-12.33 l 0.21,-1.21 a 1.09,1.09 0 0 1 1.26,-0.89 z"
       id="path420" />
    <path
       fill="#9ad3e7"
       d="m 178.18,234.24 q -2.4,-0.76 -6.13,-2.73 c -2.55,-1.35 -7.5,-5.76 -5.43,-9.02 a 1.92,1.7 -62.3 0 1 2.16,-0.82 c 4.42,1.74 8.34,7.18 10.61,11.07 a 1.03,1.03 0 0 1 -1.21,1.5 z"
       id="path458" />
  </g>
</svg>
