<?xml version="1.0" encoding="UTF-8" standalone="no"?>
<svg
   version="1.1"
   viewBox="0 0 49.418629 57.789524"
   id="svg534"
   width="49.418629"
   height="57.789524"
   xmlns="http://www.w3.org/2000/svg"
   xmlns:svg="http://www.w3.org/2000/svg">
  <defs
     id="defs534" />
  <g
     id="g549"
     transform="translate(-701.30924,-236.74863)">
    <path
       fill="#36beb0"
       d="m 711.46,272.25 q -1.92,-1.45 -2.33,-3.42 -2.59,-12.73 4.23,-24.18 a 0.94,0.94 0 0 1 1.74,0.56 q -0.44,5.61 -0.56,11.3 -0.05,2.38 -2.44,12.31 -0.17,0.69 0.25,1.59 a 0.34,0.34 0 0 0 0.57,0.07 l 8.41,-10.32 a 1.45,1.41 -25.8 0 0 0.33,-0.91 q 0.05,-4.89 0.18,-9.71 c 0.12,-4.1 3.01,-7.53 5.36,-11.07 q 1.17,-1.77 2.56,-1.72 a 1.46,1.34 -81.2 0 1 1.21,1.81 q -1.89,7.63 -4.73,17.04 a 0.47,0.46 81.8 0 0 0.7,0.53 c 2.99,-1.98 3.48,-5.08 5.41,-7.11 q 7.01,-7.4 16.15,-10.07 0.75,-0.22 1.2,-0.07 a 1.49,1.49 0 0 1 0.55,2.51 c -3.46,3.18 -6.48,6.65 -10.21,9.51 -3.41,2.6 -8.39,4.44 -11.39,6.24 q -1.3,0.79 -1.95,1.71 a 0.52,0.52 0 0 0 0.69,0.75 q 7.31,-4.14 15.84,-2.78 1.94,0.31 3.19,1.29 a 1.05,1.04 53.4 0 1 -0.26,1.8 q -7.99,3.08 -17.68,2.48 -3.29,-0.2 -4.07,-0.73 a 0.63,0.62 -56.3 0 0 -0.87,0.18 l -0.94,1.44 a 1.94,1.85 88.7 0 1 -0.41,0.45 q -2.89,2.41 -5.3,6.1 a 0.54,0.54 0 0 0 0.64,0.81 q 7.52,-2.69 15.35,-1.74 2.71,0.33 4.76,1.81 a 0.8,0.79 53.2 0 1 -0.2,1.4 c -2.42,0.84 -7.24,2.32 -10.36,2.36 q -6.7,0.09 -11.57,-0.74 a 1.61,1.59 21.1 0 0 -1.62,0.71 c -1.67,2.59 -4.44,5.51 -4.73,8.48 a 0.44,0.43 -8.8 0 0 0.61,0.44 c 3.15,-1.42 7.96,-3.92 11.52,-4.18 q 3.68,-0.27 6.71,0.57 a 1.06,1.06 0 0 1 0.34,1.88 c -5.53,4.01 -11.88,3.79 -19.13,4.14 a 1.68,1.68 0 0 0 -1.46,1.04 l -2.91,7.23 a 0.75,0.75 0 0 1 -1.45,-0.35 l 0.24,-2.6 a 3.89,3.8 -30.4 0 1 0.36,-1.32 q 2.16,-4.47 2.46,-7.7 a 0.61,0.55 -30.9 0 1 0.07,-0.23 l 5.1,-8.82 a 0.6,0.59 -57.1 0 0 -0.16,-0.77 z"
       id="path481" />
    <path
       fill="#36beb0"
       d="m 704.41,282.59 q -3,-6.35 -3.1,-11.6 a 4.53,4.41 -39.9 0 1 0.11,-1.07 l 1.84,-8.44 a 0.79,0.79 0 0 1 1.33,-0.39 q 0.52,0.52 0.64,1.46 0.83,6.36 1.65,10.86 a 4.02,3.93 -47.6 0 1 0.04,1.19 l -0.95,7.74 a 0.82,0.82 0 0 1 -1.56,0.25 z"
       id="path492" />
  </g>
</svg>
