<?xml version="1.0" encoding="UTF-8" standalone="no"?>
<svg
   version="1.1"
   viewBox="0 0 52.108322 54.324398"
   id="svg534"
   width="52.108322"
   height="54.324398"
   xmlns="http://www.w3.org/2000/svg"
   xmlns:svg="http://www.w3.org/2000/svg">
  <defs
     id="defs534" />
  <g
     id="g562"
     transform="translate(-545.96969,-213.63)">
    <path
       fill="#c7d839"
       d="m 574.83,214.19 q -3.83,5.99 3.63,8.41 -0.65,0.93 -0.14,1.8 2.52,4.29 6.75,9.36 -0.21,-0.2 -1.09,-0.01 -0.14,0.41 -0.12,0.98 l 1.91,9.45 a 1.05,1.02 -70.8 0 0 0.2,0.43 l 5.02,6.34 a 0.43,0.42 19.9 0 0 0.75,-0.35 q -1.22,-5.87 -2.82,-10.32 c -0.48,-1.35 -0.39,-2.44 0.14,-3.66 a 1.47,1.28 -61.8 0 1 1.98,-0.75 c 3.55,2.37 4.61,11.09 4.5,14.96 -0.09,3.09 0.84,5.4 0.98,8.65 a 4.77,4.73 -56.1 0 0 0.26,1.36 q 1.4,3.96 1.29,4.87 -0.21,1.67 -0.41,1.9 a 1.04,1.03 57.4 0 1 -1.76,-0.39 c -1,-3.24 -1.91,-5.98 -3.79,-8.51 a 1.57,1.55 75.4 0 0 -1.03,-0.61 q -4.83,-0.68 -15.38,-2.78 c -4.09,-0.81 -9.14,-2.88 -12.75,-3.99 q -0.62,-0.19 -0.97,-0.79 a 1.25,1.23 -19.2 0 1 0.9,-1.82 q 6.15,-0.98 12.05,-0.38 c 4.26,0.42 6.49,1.62 10.9,3.35 a 0.79,0.79 0 0 0 0.89,-1.25 l -4.38,-5.25 a 1.95,1.9 77.3 0 0 -0.97,-0.63 q -6.57,-1.75 -8.39,-1.58 -4.28,0.4 -11.67,0.79 c -2.67,0.14 -9.62,-0.35 -11.41,-2.61 a 1.46,1.41 -23.2 0 1 0.96,-2.28 q 2.07,-0.33 3.7,-1.04 c 4.22,-1.86 9.75,-1.62 14.51,-0.82 a 0.06,0.05 5.7 0 0 0.06,-0.04 q 0.06,-0.18 0.13,-0.26 a 0.07,0.07 0 0 0 -0.04,-0.11 q -1.47,-0.32 -3.32,-1.66 5.26,-1.49 10.67,-1.42 0.46,0.01 1.53,-0.79 0.76,0.5 0.39,1.56 0.84,1.97 2.6,3.38 a 0.32,0.31 25.2 0 0 0.51,-0.18 q 0.59,-2.87 -1.81,-4.06 l -1.74,-3.24 q -0.05,-0.39 -0.3,-0.74 0.09,-0.46 -0.17,-0.61 -0.61,-0.35 -0.54,0.11 l 0.01,0.5 q 0.13,0.9 0.7,1.61 -0.06,0.33 0.01,0.76 l -3.36,0.45 a 1.13,1.12 -26 0 1 -0.94,-0.32 l -1.77,-1.76 a 1.86,1.85 70.2 0 0 -1.16,-0.55 l -3.97,-0.37 5.65,0.08 a 0.93,0.93 0 0 0 0.87,-1.28 q -1.04,-2.53 -2.74,-4.79 a 3.75,3.69 16.2 0 1 -0.51,-0.91 l -1.51,-4.02 3.49,-0.72 a 1.27,1.21 13.1 0 0 0.69,-0.41 q 0.94,-1.12 0.86,-2.75 0.19,-0.25 0.18,-0.85 0.4,0.52 1.29,0.56 z m -18.87,27.18 15.24,-0.48 a 0.11,0.11 0 0 0 0.1,-0.11 v -0.03 a 7.56,1.76 -1.8 0 0 -7.61,-1.52 l -0.34,0.01 a 7.56,1.76 -1.8 0 0 -7.5,1.99 v 0.03 a 0.11,0.11 0 0 0 0.11,0.11 z m 25.2163,11.8934 a 0.27,0.27 0 0 0 -0.1955,-0.328 l -10.2955,-2.6051 a 0.27,0.27 0 0 0 -0.328,0.1955 l -0.0736,0.2908 a 0.27,0.27 0 0 0 0.1955,0.328 l 10.2955,2.6051 a 0.27,0.27 0 0 0 0.328,-0.1955 z"
       id="path425" />
    <path
       fill="#b29c50"
       d="m 566.56,229.28 3.97,0.37 a 1.86,1.85 70.2 0 1 1.16,0.55 l 1.77,1.76 a 1.13,1.12 -26 0 0 0.94,0.32 l 3.36,-0.45 q 0.27,0.33 0.34,0.91 -1.07,0.8 -1.53,0.79 -5.41,-0.07 -10.67,1.42 l -10.65,-1.21 -6.3,-3.67 q -0.03,-2.17 -1.72,-4.29 10.17,-0.62 19.33,3.5 z m -8.49,0.8 q -0.08,-0.01 -0.16,0.01 a 0.04031129,0.04031129 0 0 0 0.01,0.08 q 0.07,0.01 0.14,0.01 a 0.05024938,0.05024938 0 0 0 0.01,-0.1 z m 1.4627,0.5909 a 1.38,0.17 -169.6 0 0 1.3266,0.4163 1.38,0.17 -169.6 0 0 1.388,0.0819 1.38,0.17 -169.6 0 0 -1.3266,-0.4163 1.38,0.17 -169.6 0 0 -1.388,-0.0819 z"
       id="path466" />
    <path
       fill="#97844b"
       d="m 547.23,225.78 q 1.69,2.12 1.72,4.29 l -2.67,-1.91 a 0.74,0.73 -73.5 0 1 -0.31,-0.58 q -0.02,-0.95 1.26,-1.8 z"
       id="path467" />
    <path
       fill="#626664"
       d="m 577.75,229.46 q -0.13,0.02 -0.25,0.04 -0.15,-0.32 -0.46,-0.54 -0.07,-0.46 0.54,-0.11 0.26,0.15 0.17,0.61 z"
       id="path468" />
    <path
       fill="#456b3a"
       d="m 577.5,229.5 q 0,0.76 0.25,1.57 -0.57,-0.71 -0.7,-1.61 z"
       id="path469" />
    <path
       fill="#626664"
       d="m 579.79,233.44 q -0.97,-0.02 -1.3,0.86 0.37,-1.06 -0.39,-1.56 -0.07,-0.58 -0.34,-0.91 -0.07,-0.43 -0.01,-0.76 0.36,0.17 0.3,-0.87 z"
       id="path470" />
    <path
       fill="#626664"
       d="m 552.04,233.82 -1.58,0.08 q 0.77,-0.18 1.58,-0.08 z"
       id="path472" />
    <path
       fill="#74664e"
       d="m 583.98,233.75 -0.12,0.98 q -0.02,-0.57 0.12,-0.98 z"
       id="path473" />
  </g>
</svg>
