<?xml version="1.0" encoding="UTF-8" standalone="no"?>
<svg
   version="1.1"
   viewBox="0 0 15.822922 17.406179"
   id="svg534"
   width="15.822922"
   height="17.406179"
   xmlns="http://www.w3.org/2000/svg"
   xmlns:svg="http://www.w3.org/2000/svg">
  <defs
     id="defs534" />
  <path
     fill="#fecb4b"
     d="m 1.1878273,14.053942 a 1.03,1.03 0 0 1 -0.51000001,-1.6 l 1.66000001,-2.19 a 1.39,1.38 41.9 0 0 -0.1,-1.7799997 q -1.77000001,-1.89 -2.19000001,-3.42 a 1.47,1.47 0 0 1 1.96000001,-1.74 l 2.82,1.14 a 0.97,0.98 24.6 0 0 1.24,-0.47 q 1.19,-2.34 2.47,-3.63999998 a 1.18,1.17 56.9 0 1 1.9399997,0.41 q 1.06,2.82999998 0.53,5.71999998 a 1.01,1.02 6.2 0 0 0.95,1.19 q 2.29,0.1 2.9,0.37 a 1.45,1.44 47.4 0 1 -0.11,2.7599997 l -3.73,0.98 a 0.93,0.94 82.2 0 0 -0.69,0.9 v 3.25 a 1.48,1.48 0 0 1 -2.2599997,1.25 q -1.08,-0.67 -1.82,-2.29 a 1.41,1.4 72.2 0 0 -1.53,-0.79 q -2.11,0.41 -3.53,-0.05 z"
     id="path479" />
</svg>
