<?xml version="1.0" encoding="UTF-8" standalone="no"?>
<svg
   version="1.1"
   viewBox="0 0 23.470692 44.259777"
   id="svg534"
   width="23.470692"
   height="44.259777"
   xmlns="http://www.w3.org/2000/svg"
   xmlns:svg="http://www.w3.org/2000/svg">
  <defs
     id="defs534" />
  <path
     fill="#f18808"
     d="m 17.873067,1.2401613 q 0.05,0.62 -0.07,1.02 -1.47,6.34 -4.74,12.1099997 a 0.9,0.9 0 0 0 0.79,1.34 h 7.92 a 1.69,1.69 0 0 1 1.37,2.69 c -3.79,5.16 -6.94,8.57 -9.69,12.95 q -2.45,3.89 -2.73,4.19 c -2.5799996,2.76 -3.3599996,4.47 -5.8399996,7.87 q -0.69,0.94 -1.51,0.84 a 1.27,1.47 20.2 0 1 -0.81,-2.15 q 1.1,-1.89 1.56,-3.21 2.34,-6.73 5.19,-13.57 0.21,-0.51 0.22,-0.87 a 1.06,1.06 0 0 0 -0.99,-1.07 l -7.54,-0.5 a 1.08,1.07 8 0 1 -0.97999996,-1.29 q 0.84,-4.1 1.65999996,-5.67 3.02,-5.83 5.84,-14.7499997 a 0.84,0.83 3.4 0 1 0.65,-0.57000001 q 3.2199996,-0.61 7.0699996,-0.59999999968 1.69,0 2.63,1.24000000968 z"
     id="path278" />
  <path
     fill="#956529"
     d="m 17.803067,2.2601613 q 0.12,-0.4 0.07,-1.02 0.23,0.6 -0.07,1.02 z"
     id="path281" />
</svg>
