<?xml version="1.0" encoding="UTF-8" standalone="no"?>
<svg
   version="1.1"
   viewBox="0 0 31.004627 64.735428"
   id="svg527"
   width="31.004627"
   height="64.735428"
   xmlns="http://www.w3.org/2000/svg"
   xmlns:svg="http://www.w3.org/2000/svg">
  <defs
     id="defs527" />
  <g
     id="g552"
     transform="translate(-241.26829,-204.92815)">
    <path
       fill="#fac22c"
       d="m 255.62,236.43 -3.72,-0.98 q -9.32,-3.39 -10.49,-13.18 -0.81,-6.82 3.01,-11.3 c 8.46,-9.94 22.66,-7.15 27.09,4.96 q 1.49,4.09 0.07,8.82 -3.18,10.61 -15.96,11.68 z M 245.5,212.8 a 0.31,0.31 0 0 0 0.49,0.34 q 6.82,-5.98 14.46,-3.59 c 12.2,3.83 9.73,17.67 0.06,22.22 q -3.65,1.71 -6.45,0.49 -4.26,-1.86 -5.51,-2.97 c -5.92,-5.27 -3.49,-13.94 3.77,-16.26 4.02,-1.28 11.17,-0.66 12.25,4.27 q 1.82,8.31 -6.08,11.76 -2.11,0.92 -4.29,-0.01 -6.36,-2.72 -4.6,-8.82 c 1.88,-6.49 13.14,-6.41 11.86,1.24 -0.84,4.96 -8.13,6.19 -8.51,0.66 a 2.93,2.32 83.5 0 1 1.86,-2.99 q 1.12,-0.21 2.63,0.3 a 1.08,1.07 13 0 1 0.73,1.16 l -0.17,1.27 a 0.49,0.49 0 0 1 -0.83,0.29 q -1.78,-1.68 -1.96,-1.37 a 2.42,2.18 -61 0 0 0.76,3.29 c 0.91,0.45 2.32,0.08 2.94,-0.81 q 1.79,-2.59 -0.11,-5.37 a 1.4,1.39 78.9 0 0 -0.84,-0.57 c -3.01,-0.69 -5.49,0.49 -6.82,3.24 -1.71,3.56 1.68,7.52 5.4,7.14 q 4.53,-0.45 6.26,-5.36 1.76,-5.01 -1.94,-7.23 c -9.53,-5.72 -20.46,9.01 -8.74,14.67 8.23,3.97 15.77,-3.89 14.69,-12.08 q -0.33,-2.44 -2.49,-4.28 c -6.59,-5.64 -16.41,-2.28 -20.09,4.76 q -1.18,2.24 -1.01,3.48 1.58,11.99 13.25,12.52 c 9.84,0.45 15.6,-9.11 13.54,-18.03 a 3.64,3.61 -66.6 0 0 -0.32,-0.82 q -6.48,-11.77 -19.1,-7.13 -3.87,1.42 -5.09,4.59 z"
       id="path395" />
    <path
       fill="#e13802"
       d="m 245.5,212.8 q 1.22,-3.17 5.09,-4.59 12.62,-4.64 19.1,7.13 a 3.64,3.61 -66.6 0 1 0.32,0.82 c 2.06,8.92 -3.7,18.48 -13.54,18.03 q -11.67,-0.53 -13.25,-12.52 -0.17,-1.24 1.01,-3.48 c 3.68,-7.04 13.5,-10.4 20.09,-4.76 q 2.16,1.84 2.49,4.28 c 1.08,8.19 -6.46,16.05 -14.69,12.08 -11.72,-5.66 -0.79,-20.39 8.74,-14.67 q 3.7,2.22 1.94,7.23 -1.73,4.91 -6.26,5.36 c -3.72,0.38 -7.11,-3.58 -5.4,-7.14 1.33,-2.75 3.81,-3.93 6.82,-3.24 a 1.4,1.39 78.9 0 1 0.84,0.57 q 1.9,2.78 0.11,5.37 c -0.62,0.89 -2.03,1.26 -2.94,0.81 a 2.42,2.18 -61 0 1 -0.76,-3.29 q 0.18,-0.31 1.96,1.37 a 0.49,0.49 0 0 0 0.83,-0.29 l 0.17,-1.27 a 1.08,1.07 13 0 0 -0.73,-1.16 q -1.51,-0.51 -2.63,-0.3 a 2.93,2.32 83.5 0 0 -1.86,2.99 c 0.38,5.53 7.67,4.3 8.51,-0.66 1.28,-7.65 -9.98,-7.73 -11.86,-1.24 q -1.76,6.1 4.6,8.82 2.18,0.93 4.29,0.01 7.9,-3.45 6.08,-11.76 c -1.08,-4.93 -8.23,-5.55 -12.25,-4.27 -7.26,2.32 -9.69,10.99 -3.77,16.26 q 1.25,1.11 5.51,2.97 2.8,1.22 6.45,-0.49 c 9.67,-4.55 12.14,-18.39 -0.06,-22.22 q -7.64,-2.39 -14.46,3.59 a 0.31,0.31 0 0 1 -0.49,-0.34 z"
       id="path396" />
    <path
       fill="#48a31c"
       d="m 255.62,236.43 -8.89,31.85 a 1.88,1.83 -74.6 0 1 -2.26,1.32 l -0.18,-0.05 a 1.86,1.82 -74.6 0 1 -1.26,-2.28 l 8.87,-31.82 z"
       id="path422" />
  </g>
</svg>
