<?xml version="1.0" encoding="UTF-8" standalone="no"?>
<svg
   version="1.1"
   viewBox="0 0 31.410191 25.865694"
   id="svg527"
   width="31.410191"
   height="25.865694"
   xmlns="http://www.w3.org/2000/svg"
   xmlns:svg="http://www.w3.org/2000/svg">
  <defs
     id="defs527" />
  <path
     fill="#60cffc"
     d="m 18.720158,11.140184 q -2.6,1.33 -6.6,4.04 c -3.7100002,2.53 -8.1700002,0.39 -11.0900002,-1.76 a 2.2,1.61 34.8 0 1 -0.85000004,-2.46 q 0.66,-1.0500002 2.11000004,-1.6000002 c 5.82,-2.2 10.3400002,-4.09 17.3200002,-6.16 q 7.04,-2.09 9.69,-3.10000003 a 1.56,1.56 0 0 1 2.11,1.47000003 q -0.01,1.08 -0.61,3.63 -2.15,9.0700002 -3.03,18.8900002 -0.23,2.57 -2.97,1.42 -5.61,-2.36 -10.11,-5.89 -2.09,-1.63 0.01,-3.71 3.85,-3.83 4.34,-4.35 a 0.27,0.27 0 0 0 -0.32,-0.42 z"
     id="path341" />
</svg>
