<?xml version="1.0" encoding="UTF-8" standalone="no"?>
<svg
   version="1.1"
   viewBox="0 0 27.447765 68.378883"
   id="svg527"
   width="27.447765"
   height="68.378883"
   xmlns="http://www.w3.org/2000/svg"
   xmlns:svg="http://www.w3.org/2000/svg">
  <defs
     id="defs527" />
  <path
     fill="#eb3d3c"
     d="m 17.201887,36.347066 c 0.89,9.55 4.8,19.19 9.27,28.02 q 0.72,1.42 0.97,3.2 a 0.72,0.72 0 0 1 -1.36,0.41 q -4.2,-8.74 -7.4,-16.53 c -1.81,-4.42 -2.83,-10.7 -3.34,-14.68 a 0.98,1 6.5 0 0 -0.62,-0.79 q -1.09,-0.44 -1.94,-0.39 a 1.35,1.53 6.8 0 1 -1.32,-1.91 q 0.5,-1.92 0.51,-2.93 a 1.12,1.12 0 0 0 -0.5,-0.95 c -8.1399996,-5.37 -16.9599996,-19.32 -7.1299996,-27.2899998 4.62,-3.76 10.0299996,-3.11999999 14.4299996,0.78 7.6,6.7699998 4.68,18.7399998 -1.45,25.7599998 a 0.57,0.58 42.3 0 0 0.03,0.78 c 1.47,1.42 4.09,3.75 0.63,5.22 a 1.3,1.28 76.3 0 0 -0.78,1.3 z m -9.0142996,-22.3722 a 0.58,0.85 14.7 0 0 -0.7767,0.675 0.58,0.85 14.7 0 0 0.3453,0.9694 0.58,0.85 14.7 0 0 0.7767,-0.675 0.58,0.85 14.7 0 0 -0.3453,-0.9694 z m 0.6977,8.5124 a 0.36,0.14 51 0 0 0.1178,0.3679 0.36,0.14 51 0 0 0.3354,0.1917 0.36,0.14 51 0 0 -0.1178,-0.3679 0.36,0.14 51 0 0 -0.3354,-0.1917 z m 1.8885996,3.3742 a 0.72,0.41 50.5 0 0 0.1416,0.8164 0.72,0.41 50.5 0 0 0.7744,0.2948 0.72,0.41 50.5 0 0 -0.1416,-0.8164 0.72,0.41 50.5 0 0 -0.7744,-0.2948 z"
     id="path271" />
  <g
     id="g563"
     transform="translate(-69.078113,-38.362934)">
    <path
       fill="#6e5695"
       d="m 69.6,114.75 a 0.77,0.77 0 0 0 0.43,-1.12 c -1.35,-2.28 -1.93,-5.95 0.73,-7.61 q 2.05,-1.3 2.8,-1.67 c 1.93,-0.95 1.88,-1.98 1.99,-3.71 a 1.66,1.63 38.1 0 1 3.21,-0.36 q 0.86,2.62 -0.96,5.42 a 1.48,1.36 -85.7 0 1 -0.51,0.48 l -4.4,2.55 a 1.56,1.55 58.1 0 0 -0.51,2.22 q 0.34,0.51 1.26,1.49 c 1.41,1.49 0.98,3.74 -0.88,4.55 q -3.12,1.35 -6.25,3.44 a 1.42,1.4 -34.8 0 1 -1.93,-0.33 c -1.69,-2.32 3.54,-4.88 5.02,-5.35 z"
       id="path317" />
    <path
       fill="#eb3d3c"
       d="m 74.13,148.89 -3.98,-4.06 q -5.97,-8.24 -13,-14.73 a 0.96,0.96 0 0 0 -1.49,0.24 l -8.75,15.68 q -2.15,2.73 -2.86,5.5 -0.28,2.02 -1.99,2.6 a 1.29,1.29 0 0 1 -1.71,-1.15 q -0.12,-2.1 0.94,-4.17 6.35,-12.39 11.73,-20.76 c 2.46,-3.83 5.64,-1.15 7.98,0.78 a 0.39,0.39 0 0 0 0.64,-0.34 l -0.3,-3.82 A 1.71,1.69 74.6 0 1 62.27,123 c 2.8,-1.42 8.93,-3.15 8.63,2.25 q -0.32,5.68 -0.77,10.48 -0.18,1.88 0.39,3.36 a 2.49,2.48 14.6 0 0 0.42,0.71 l 4.76,5.71 a 1.45,1.44 -37.4 0 1 -0.29,2.12 q -0.82,0.57 -1.28,1.26 z m -7.3,-15.11 0.34,-7.79 a 0.8,0.79 84.7 0 0 -0.97,-0.81 l -0.03,0.01 a 1.28,1.28 0 0 0 -0.99,1.25 q 0.02,4.17 1.01,7.42 a 0.33,0.33 0 0 0 0.64,-0.08 z"
       id="path329" />
    <path
       fill="#fac22c"
       d="m 70.15,144.83 3.98,4.06 q 0.52,6.73 -1.87,12.63 a 1.72,1.68 -3.4 0 1 -0.77,0.85 q -1.7,0.91 -4.28,1.29 -10.94,1.6 -16.83,1.11 -0.51,-0.05 -2.98,-1.41 a 1.43,1.42 -85.4 0 1 -0.64,-0.76 q -1.66,-4.61 -1.78,-9.07 -0.02,-0.74 -0.93,-2.01 0.71,-2.77 2.86,-5.5 9.28,-1.15 17.85,-1.37 2.26,-0.05 5.39,0.18 z m -7.43,3.73 q -1.48,-0.36 -3.01,0.01 l -10.5,0.63 a 1.28,1.28 0 0 0 -1.18,1.53 l 1.79,9.19 a 1.77,1.76 -7.8 0 0 1.88,1.42 l 16.31,-1.31 a 1.3,1.29 -82.6 0 0 1.11,-0.86 q 1.64,-4.71 1.22,-9.67 a 1.63,1.62 -5.1 0 0 -1.77,-1.47 z"
       id="path339" />
    <path
       fill="#6e5695"
       d="m 62.72,148.56 q 4.16,3.01 2.91,8.14 a 3.17,3.16 -85.4 0 1 -2.83,2.42 l -6.31,0.51 a 2.16,2.16 0 0 1 -2.29,-1.74 l -1.15,-5.92 a 1.27,1.26 -36.3 0 1 0.14,-0.89 q 0.97,-1.72 3.38,-1.88 l 1.62,-0.14 q 0.59,-0.41 1.52,-0.49 1.53,-0.37 3.01,-0.01 z m -0.477,4.5283 a 1.38,1.38 0 0 0 -1.6199,-1.0885 l -2.5317,0.4967 a 1.38,1.38 0 0 0 -1.0885,1.6199 l 0.2541,1.2953 a 1.38,1.38 0 0 0 1.6199,1.0885 l 2.5317,-0.4967 a 1.38,1.38 0 0 0 1.0885,-1.6199 z"
       id="path343" />
    <path
       fill="#2e2411"
       d="m 58.19,149.06 -1.62,0.14 q 0.76,-0.21 1.62,-0.14 z"
       id="path344" />
  </g>
</svg>
