<?xml version="1.0" encoding="UTF-8" standalone="no"?>
<svg
   version="1.1"
   viewBox="0 0 42.885654 25.076206"
   id="svg527"
   width="42.885654"
   height="25.076206"
   xmlns="http://www.w3.org/2000/svg"
   xmlns:svg="http://www.w3.org/2000/svg">
  <defs
     id="defs527" />
  <path
     fill="#fac22c"
     d="m -5.8544288,-22.574732 a 0.32,0.32 0 0 0 0.52,0.17 q 6.01,-5.26 8.66,-7.24 0.52,-0.39 1.47,-0.56 a 1.04,1.04 0 0 1 1.21,1.23 q -0.36,1.78 -1,3.25 -3.61,8.29 -7.57,16.1999999 a 0.8,0.8 0 0 0 0.67,1.16 l 0.41,0.02 a 1.1,1.1 0 0 1 0.75,1.84 l -6.99,7.74 a 1.22,1.22 0 0 1 -2.12,-0.88000002 l 0.61,-10.71999988 a 0.53,0.53 0 0 1 0.92,-0.32 l 1.58,1.7899999 a 0.59,0.59 0 0 0 0.97,-0.13 q 5.58,-11.3199999 6.77,-13.9199999 0.15,-0.34 0.16,-0.82 a 0.38,0.38 0 0 0 -0.62,-0.3 c -3.25,2.68 -7.3,6.63 -9.69,6.2 a 1.48,1.48 0 0 1 -1.0400002,-2.07 l 10.0400002,-21.43 a 1.45,1.46 19.1 0 1 1.64,-0.8 l 0.05,0.01 a 1.1,1.11 18 0 1 0.74,1.46 q -2.43,6.36 -8.05,17.46 -0.16,0.33 -0.09,0.66 z"
     id="path281" />
  <g
     id="g569"
     transform="translate(-515.14443,-96.114732)">
    <path
       fill="#1858a1"
       d="m 549.22,96.17 a 0.67,0.67 0 0 1 0.8,1.02 q -0.72,0.93 -2.3,2.04 -6.04,4.21 -13.89,6.43 a 1.11,1.11 0 0 1 -1.38,-0.79 l -0.04,-0.14 a 1.15,1.14 -14.5 0 1 0.82,-1.39 q 5.68,-1.5 8.67,-3.27 4.57,-2.71 7.32,-3.9 z"
       id="path314" />
    <path
       fill="#1858a1"
       d="m 524.67,101.29 a 1.16,1.16 0 0 1 2.02,0.69 l 0.47,5.86 a 0.88,0.87 87.2 0 0 0.88,0.8 q 3.03,-0.01 4.68,0.21 a 1.61,1.39 7.1 0 1 1.41,1.56 c -0.17,1.51 -2.56,2.61 -3.71,3.24 a 1.16,1.14 -18.3 0 0 -0.59,1.15 q 0.24,1.97 0.73,4.26 a 1.77,1.49 81.7 0 1 -1.32,2.13 q -0.66,0.03 -1.89,-0.9 -1.16,-0.87 -2.81,-2.41 a 2.39,2.38 51.2 0 0 -2.8,-0.31 l -3.67,2.12 a 1.22,1.22 0 0 1 -1.8,-1.3 q 0.46,-2.2 2.41,-4.86 a 0.72,0.71 -53.7 0 0 -0.15,-0.99 l -2.77,-2.06 a 1.53,1.53 0 0 1 0.63,-2.73 q 0.7,-0.13 2.85,0.55 a 1.72,1.72 0 0 0 2.17,-1.15 q 0.98,-3.31 3.26,-5.86 z"
       id="path319" />
    <path
       fill="#1858a1"
       d="m 546.36,110.62 q -4.07,1.78 -9.54,3.02 a 0.83,0.83 0 0 1 -0.93,-0.45 q -0.62,-1.26 0.85,-1.65 4.51,-1.17 8.71,-3.01 4.2,-1.83 8.13,-4.33 1.28,-0.82 1.78,0.49 a 0.83,0.83 0 0 1 -0.3,0.99 q -4.63,3.17 -8.7,4.94 z"
       id="path323" />
    <path
       fill="#1858a1"
       d="m 546.15,118.42 q 4.2,0 10.64,-1.02 a 1.07,1.05 1.1 0 1 1.22,1.24 q -0.24,1.11 -1.79,1.36 -3.91,0.61 -10.07,0.61 -6.16,-0.01 -10.07,-0.63 -1.55,-0.25 -1.79,-1.36 a 1.07,1.05 -1 0 1 1.23,-1.24 q 6.44,1.04 10.63,1.04 z"
       id="path328" />
  </g>
</svg>
