<?xml version="1.0" encoding="UTF-8" standalone="no"?>
<svg
   version="1.1"
   viewBox="0 0 33.82119 53.532917"
   id="svg527"
   width="33.82119"
   height="53.532917"
   xmlns="http://www.w3.org/2000/svg"
   xmlns:svg="http://www.w3.org/2000/svg">
  <defs
     id="defs527" />
  <path
     fill="#48a31c"
     d="m 21.774545,29.860299 a 0.56,0.55 69.1 0 0 -0.41,0.93 l 12.13,13.77 a 1.31,1.32 69.4 0 1 -0.99,2.18 h -9.97 a 0.58,0.58 0 0 0 -0.58,0.64 q 0.26,2.49 -0.6,5.01 a 1.61,1.63 6.9 0 1 -1.37,1.09 q -2.83,0.28 -5.97,-0.93 a 2.23,2.23 0 0 1 -1.43,-2.08 v -3.35 a 0.52,0.52 0 0 0 -0.51,-0.52 q -6.9599995,-0.04 -10.5799995,-0.01 a 1.66,1.46 83.7 0 1 -1.48000005,-1.35 q -0.08,-0.45 0.28,-0.96 7.25000005,-10.2 9.58000005,-13.09 a 0.64,0.64 0 0 0 -0.47,-1.04 l -6.61,-0.38 a 1.08,1.09 20.2 0 1 -0.8,-1.74 l 8.1599995,-10.69 a 0.52,0.52 0 0 0 -0.3799995,-0.83 l -6.22,-0.35 a 1.17,1.17 0 0 1 -0.87,-1.87 L 13.224545,0.47029859 a 1.2,1.2 0 0 1 1.8,-0.12 l 13.9,13.89000041 a 1.07,1.07 0 0 1 -0.76,1.83 h -5.97 a 0.77,0.77 0 0 0 -0.62,1.22 l 7.79,10.68 a 1.19,1.19 0 0 1 -0.96,1.89 z m 0.02,-19.29 -13.9599995,2.46 a 0.04,0.04 0 0 0 -0.03,0.05 v 0.03 a 1.75,6.94 80 0 0 7.1399995,0.52 l 0.38,-0.07 a 1.75,6.94 80 0 0 6.53,-2.93 l -0.01,-0.02 a 0.04,0.04 0 0 0 -0.05,-0.04 z m -6.8,7.41 q 2.52,-0.31 2.66,-0.36 a 0.7,0.7 0 0 0 -0.24,-1.35 q -1.59,-0.07 -2.68,1.22 a 0.3,0.3 0 0 0 0.26,0.49 z m -2.6866,3.3273 a 0.51,1.2 60.4 0 0 -1.2953,0.1493 0.51,1.2 60.4 0 0 -0.7915,1.0361 0.51,1.2 60.4 0 0 1.2953,-0.1493 0.51,1.2 60.4 0 0 0.7915,-1.0361 z m 0.82,3.5657 a 0.44,0.44 0 0 0 -0.5584,-0.2747 l -5.2064995,1.7725 a 0.44,0.44 0 0 0 -0.2748,0.5583 l 0.0129,0.0379 a 0.44,0.44 0 0 0 0.5584,0.2747 l 5.2064995,-1.7725 a 0.44,0.44 0 0 0 0.2748,-0.5583 z m -7.0133995,18.717 q 2.55,0.46 5.2399995,0 a 1.69,1.5 21.8 0 0 0.5,-0.18 l 11.09,-6.24 a 0.25,0.25 0 0 0 0.09,-0.33 l -0.15,-0.26 a 0.72,0.72 0 0 0 -0.88,-0.3 l -15.9899995,6.28 a 0.54,0.54 0 0 0 0.1,1.03 z m 20.9689995,-2.0241 a 0.92,3.3 69.9 0 0 -3.4152,0.2701 0.92,3.3 69.9 0 0 -2.7828,1.9981 0.92,3.3 69.9 0 0 3.4152,-0.2701 0.92,3.3 69.9 0 0 2.7828,-1.9981 z m -11.799,5.4141 q -0.66,1.16 -0.06,2.13 -0.06,1.83 3.19,1.74 a 1.28,1.27 86.8 0 0 1.23,-1.38 l -0.14,-1.81 a 0.94,0.94 0 0 0 -0.68,-0.83 q -2.28,-0.65 -3.54,0.15 z"
     id="path333" />
  <path
     fill="#2e2411"
     d="m 15.284545,46.980299 -0.06,2.13 q -0.6,-0.97 0.06,-2.13 z"
     id="path361" />
</svg>
