<?xml version="1.0" encoding="UTF-8" standalone="no"?>
<svg
   version="1.1"
   viewBox="0 0 51.385811 38.571465"
   id="svg534"
   width="51.385811"
   height="38.571465"
   xmlns="http://www.w3.org/2000/svg"
   xmlns:svg="http://www.w3.org/2000/svg">
  <defs
     id="defs534" />
  <g
     id="g559"
     transform="translate(-458.54901,-80.417477)">
    <path
       fill="#519cf8"
       d="m 501.21,114.93 c 0.07,-3.54 0.66,-9.68 -0.45,-15.08 -1.28,-6.23 -4.04,-10.68 -10.28,-13.15 q -4.02,-1.59 -7.49,-0.22 c -7.73,3.07 -13.8,12.43 -15.81,19.42 q -0.64,2.24 -1.84,10.11 a 3.51,3.51 0 0 1 -3.72,2.97 l -0.3,-0.02 a 2.98,2.97 2.7 0 1 -2.77,-3.04 q 0.31,-14.26 8.25,-24.88 5.36,-7.19 12.39,-9.4 c 6.89,-2.18 17.51,-1.81 22.78,4.13 q 4.67,5.25 5.94,12.26 1.76,9.63 2.02,15.15 a 4.27,4.26 -7.4 0 1 -3.37,4.37 l -1.72,0.37 a 3,2.99 -5.5 0 1 -3.63,-2.99 z"
       id="path297" />
    <path
       fill="#36beb0"
       d="m 468.11,116.77 c 0.92,-9.48 3.83,-19.55 11.53,-25.66 2.6,-2.06 8.67,-2.51 11.71,-0.76 q 3.75,2.16 4.98,6.33 2.37,8 2.47,18.22 a 2.2,2.2 0 0 1 -2.15,2.22 l -2.03,0.05 a 2.01,2 -88.6 0 1 -2.05,-2.16 q 0.74,-9.69 0.25,-11.89 c -0.98,-4.35 -1.7,-10.4 -7.83,-8.09 q -4.42,1.66 -6.63,6.1 -3.91,7.85 -4.21,15.47 a 1,1 0 0 1 -0.98,0.96 l -4.22,0.11 a 0.83,0.82 2.2 0 1 -0.84,-0.9 z"
       id="path302" />
    <path
       fill="#fecb4b"
       d="m 484.76,103.21 c -2.6,3.11 -3.48,9.58 -3.59,13.28 a 1.49,1.49 0 0 1 -1.65,1.44 q -2.88,-0.33 -3.61,-2.12 a 1.32,1.31 -44.7 0 1 0.01,-1 q 1.49,-3.58 3.93,-11.17 c 0.8,-2.47 3.57,-7.01 6.78,-6 a 1.66,1.66 0 0 1 0.81,0.55 c 3.34,4.23 3.52,11.4 3.11,16.72 a 2.08,2.06 -88.8 0 1 -1.99,1.92 h -0.07 a 1.85,1.84 0.1 0 1 -1.91,-1.91 c 0.14,-3.53 0.93,-8.93 -1.11,-11.69 a 0.45,0.45 0 0 0 -0.71,-0.02 z"
       id="path306" />
  </g>
</svg>
