<?xml version="1.0" encoding="UTF-8" standalone="no"?>
<svg
   version="1.1"
   viewBox="0 0 32.79084 34.104095"
   id="svg527"
   width="32.79084"
   height="34.104095"
   xmlns="http://www.w3.org/2000/svg"
   xmlns:svg="http://www.w3.org/2000/svg">
  <defs
     id="defs527" />
  <g
     id="g542"
     transform="translate(-114.08198,-60.8012)">
    <path
       fill="#eb3d3c"
       d="m 122.85,75.13 q -3.78,5.92 -6.55,15.25 -0.16,0.53 -0.64,0.7 a 1.18,1.16 -3.7 0 1 -1.55,-1.34 q 1.9,-8.5 6.65,-15.94 4.74,-7.45 11.64,-12.76 a 1.18,1.16 68.7 0 1 1.87,0.84 q 0.05,0.5 -0.36,0.87 -7.29,6.46 -11.06,12.38 z"
       id="path285" />
    <path
       fill="#fac22c"
       d="m 120.45,91.21 a 0.92,0.92 0 0 1 -1.15,1.12 q -1.95,-0.58 -1.4,-2.37 4.42,-14.36 18.25,-23.29 a 2.57,2.55 38.2 0 1 2.28,-0.26 l 0.69,0.26 a 0.75,0.74 40.5 0 1 0.11,1.35 q -12.62,7.07 -17.91,20.05 c -0.39,0.93 -1.17,2.01 -0.87,3.14 z"
       id="path287" />
    <path
       fill="#48a31c"
       d="m 120.73,92.37 c 4.98,-9.29 10.74,-16.18 20.69,-20.57 a 2.55,2.55 0 0 1 2.54,0.27 l 0.14,0.11 a 0.84,0.83 52.1 0 1 -0.18,1.45 q -14.53,5.84 -20.79,20.01 a 0.05,0.03 9.2 0 1 -0.04,0.02 q -1.4,-0.18 -2.31,-1.02 a 0.23,0.22 35.7 0 1 -0.05,-0.27 z"
       id="path294" />
    <path
       fill="#1858a1"
       d="m 134.91,85.38 c -3.76,2.78 -6.13,5.92 -8.59,9.08 a 1.01,0.96 7.6 0 1 -0.45,0.33 q -0.4,0.14 -0.59,0.11 a 1.14,1.12 -69.8 0 1 -0.78,-1.71 q 3.32,-5.48 9.03,-9.69 5.7,-4.2 11.92,-5.76 a 1.14,1.12 -3 0 1 1.41,1.25 q -0.03,0.19 -0.28,0.53 a 1.01,0.96 -80.4 0 1 -0.45,0.34 c -3.74,1.41 -7.45,2.74 -11.22,5.52 z"
       id="path300" />
  </g>
</svg>
