<?xml version="1.0" encoding="UTF-8" standalone="no"?>
<svg
   version="1.1"
   viewBox="0 0 53.694477 43.228008"
   id="svg534"
   width="53.694477"
   height="43.228008"
   xmlns="http://www.w3.org/2000/svg"
   xmlns:svg="http://www.w3.org/2000/svg">
  <defs
     id="defs534" />
  <g
     id="g567"
     transform="translate(-154.56309,-59.421993)">
    <path
       fill="#519cf8"
       d="m 197.97,101.32 -5.25,0.13 a 0.8,0.8 0 0 1 -0.82,-0.76 Q 190.97,84.37 189.99,79 q -1.05,-5.73 -4.91,-10 -3.74,-4.13 -8.67,-2.14 a 2.46,2.45 10.7 0 0 -0.87,0.59 q -4.73,4.96 -6.38,8.47 -5.6,11.88 -6.62,20.61 -0.14,1.26 -0.13,4.34 a 1.78,1.77 90 0 1 -1.77,1.78 h -4.13 a 1.85,1.85 0 0 1 -1.85,-1.76 q -0.38,-7.58 0.73,-10.77 2.27,-6.54 4.37,-12.85 0.31,-0.94 3.12,-5.83 c 2.26,-3.93 6.22,-8.2 9.39,-9.89 q 2.73,-1.46 8.57,-2.11 a 3.09,3.07 -35.9 0 1 1.59,0.25 c 5.23,2.34 9.71,4.7 11.99,9.92 q 1.87,4.24 2.14,7.54 c 0.35,4.19 1.56,7.22 1.72,10.85 q 0.48,10.73 0.58,12.35 a 0.92,0.91 -2.7 0 1 -0.89,0.97 z"
       id="path283" />
    <path
       fill="#f18808"
       d="m 169.02,102.04 q -2.21,0.86 -4.18,-0.02 a 1.19,1.17 6.7 0 1 -0.68,-0.84 c -0.62,-3.09 1.81,-7.82 2.35,-10.4 1.14,-5.49 2.44,-8.59 5.04,-14.23 q 1.86,-4.02 3.03,-5.18 a 4.05,3.74 5.3 0 1 0.81,-0.62 q 3.86,-2.22 7.98,-0.24 a 2.53,2.48 82.4 0 1 0.87,0.68 c 4.11,5.07 3.47,10.2 4.48,16.12 0.72,4.21 0.91,8.42 1.15,11.78 a 2.11,2.11 0 0 1 -1.65,2.2 l -1.87,0.4 a 1.64,1.64 0 0 1 -1.98,-1.55 q -0.4,-11.9 -3.11,-25.66 a 1.1,1.09 71 0 0 -1.57,-0.77 q -1.86,0.93 -2.79,2.95 -3.24,7.02 -5.44,16.59 -1.59,6.87 -1.84,8.07 a 0.99,0.97 -5.8 0 1 -0.6,0.72 z"
       id="path287" />
    <path
       fill="#cf394e"
       d="m 207.07,76.05 a 0.8,0.8 0 0 1 -1.09,0.3 l -0.35,-0.19 a 5,1.8 29.4 0 1 -3.47,-4.03 l 0.1,-0.19 a 5,1.8 29.4 0 1 5.24,0.89 l 0.35,0.2 a 0.8,0.8 0 0 1 0.31,1.08 z"
       id="path291" />
    <path
       fill="#fecb4b"
       d="m 178.93,83.59 q 0.89,0.88 1.29,1.97 c 1.98,5.39 3.01,9.05 1.83,14.29 a 1.21,1.2 -6.1 0 1 -0.67,0.83 q -1.1,0.52 -2.17,-0.46 a 1.17,1.14 24.3 0 1 -0.36,-0.92 q 0.35,-4.07 -0.58,-7.9 a 0.5,0.5 0 0 0 -0.86,-0.22 c -1.11,1.25 -1.88,6.14 -2.39,8.88 a 1.48,1.48 0 0 1 -1.86,1.15 l -0.08,-0.02 a 1.85,1.84 -77.9 0 1 -1.32,-2.05 q 1.04,-7.04 3.25,-12.86 0.73,-1.9 2.68,-2.88 a 1.08,1.07 -36.2 0 1 1.24,0.19 z"
       id="path300" />
  </g>
</svg>
