<?xml version="1.0" encoding="UTF-8" standalone="no"?>
<svg
   version="1.1"
   viewBox="0 0 39.469963 39.647003"
   id="svg527"
   width="39.469963"
   height="39.647003"
   xmlns="http://www.w3.org/2000/svg"
   xmlns:svg="http://www.w3.org/2000/svg">
  <defs
     id="defs527" />
  <g
     id="g538"
     transform="translate(-403.14637,-66.383066)">
    <path
       fill="#1858a1"
       d="m 429.74,73.09 a 0.79,0.79 0 0 0 1.1,0.27 c 4.2,-2.6 10.67,-2.66 11.66,3.33 0.75,4.46 -2.26,9.25 -5.19,12.37 -3.46,3.69 -10.38,4.99 -15.29,4.5 q -6.07,-0.6 -10.13,-2.2 c -3.8,-1.49 -8.21,-4.91 -8.7,-9.21 -0.6,-5.2 5.11,-8.03 9.65,-7.53 a 1.42,1.41 11.9 0 0 1.51,-0.98 c 1.33,-4.18 4.06,-8.73 9.18,-6.8 3.76,1.42 4.61,3.58 6.21,6.25 z"
       id="path289" />
    <path
       fill="#1858a1"
       d="m 432.88,100.76 a 0.78,0.78 0 0 1 -0.94,-0.59 l -0.12,-0.51 a 5.41,2.13 76.9 0 1 0.85,-5.75 l 0.16,-0.04 a 5.41,2.13 76.9 0 1 3.3,4.79 l 0.12,0.51 a 0.78,0.78 0 0 1 -0.59,0.94 z"
       id="path310" />
    <ellipse
       fill="#1858a1"
       cx="0"
       cy="0"
       transform="rotate(-89.7,256.32641,-157.55786)"
       rx="4.27"
       ry="1.98"
       id="ellipse311" />
    <path
       fill="#1858a1"
       d="m 422.24,106.03 a 0.74,0.74 0 0 1 -0.75,-0.73 l -0.02,-1.06 a 5.72,2 89.1 0 1 1.91,-5.75 h 0.1 a 5.72,2 89.1 0 1 2.09,5.69 l 0.02,1.06 a 0.74,0.74 0 0 1 -0.73,0.75 z"
       id="path316" />
  </g>
  <g
     id="g539"
     transform="translate(-403.14637,-66.383066)">
    <path
       fill="#1858a1"
       d="m 369.91,154.7 4.64,-5.14 a 3.15,3.14 -22.7 0 0 0.81,-1.97 q 0.28,-5.73 2.51,-21.03 c 0.53,-3.64 2.09,-9.14 2.9,-11.54 q 3.33,-9.89 8.72,-17.23 a 1.35,1.34 -46.4 0 1 2.12,-0.06 q 2.84,3.48 4.66,8.79 2.18,6.4 3.58,14.02 2.64,14.36 0.77,27.56 a 1.33,1.3 31.7 0 0 0.24,0.97 l 5.02,6.87 a 1.11,1.11 0 0 1 -0.26,1.56 q -1.51,1.07 -2.66,1.46 -13.77,4.55 -27.55,-0.38 -2.02,-0.73 -5.41,-3.06 a 0.55,0.55 0 0 1 -0.09,-0.82 z m 20.97,-54.25 a 0.36,0.36 0 0 0 -0.6,0.01 q -4.79,7.32 -7.56,15.74 -1.81,5.51 -2.88,13.04 c -1.21,8.52 -2.15,12.86 -1.83,18.01 a 0.76,0.75 -84.2 0 0 0.56,0.69 q 7.67,2.03 15.65,1.08 c 2.68,-0.32 4.21,-0.15 4.54,-3.24 q 0.78,-7.48 0.26,-13.78 -1.14,-13.81 -5.37,-25.89 -1.2,-3.42 -2.77,-5.66 z m -2.83,58.67 q 6.52,0.25 14.38,-2.55 a 0.82,0.82 0 0 0 0.39,-1.25 l -2.91,-3.98 a 1.18,1.17 65.9 0 0 -1.19,-0.46 q -4.45,0.93 -10.39,0.7 -5.93,-0.22 -10.3,-1.48 a 1.18,1.17 -61.6 0 0 -1.22,0.37 l -3.2,3.75 a 0.82,0.82 0 0 0 0.29,1.27 q 7.62,3.38 14.15,3.63 z"
       id="path315" />
    <circle
       fill="#1858a1"
       cx="388.64999"
       cy="138.50999"
       r="7.1199999"
       id="circle333" />
    <path
       fill="#eb3d3c"
       d="m 404.55,170.35 q -0.95,-0.07 -1.67,1.28 a 2.18,2.08 30 0 1 -3.01,0.73 q -0.95,-0.58 -2.12,-1.17 a 1.91,1.9 34.2 0 0 -2.27,0.43 l -1.87,2.07 a 0.93,0.92 31.3 0 1 -1.01,0.24 q -1.18,-0.44 -2.06,-1.52 a 0.49,0.49 0 0 0 -0.86,0.23 q -0.59,3.42 -2.36,5.83 a 1.87,1.35 -52.7 0 1 -2.24,0.68 c -1.83,-1.45 -1.76,-4.34 -2.02,-7.21 a 0.68,0.68 0 0 0 -1.18,-0.39 l -1.72,1.9 a 1.61,1.6 63.8 0 1 -2.79,-0.95 l -0.26,-3.25 a 0.72,0.71 -9.6 0 0 -0.89,-0.63 q -3.84,0.98 -7.29,-0.49 l 3.58,-6.67 a 0.68,0.67 23.4 0 1 0.82,-0.32 c 9.32,3.18 18.3,4.75 28,1.57 a 1.07,1.06 73.5 0 1 1.36,0.74 z"
       id="path352" />
    <path
       fill="#fac22c"
       d="m 404.55,170.35 q 1.48,4.21 0.76,10.79 a 1.58,1.57 -9 0 1 -0.92,1.26 c -4.89,2.26 -6,-5.01 -6.67,-8.23 q -0.06,-0.3 -0.24,-0.54 -0.27,-0.36 -0.39,-0.44 a 0.53,0.53 0 0 0 -0.79,0.25 q -0.82,2.13 -1.83,5.64 -0.24,0.84 -0.89,1.5 c -1.22,1.23 -2.89,1.14 -3.25,-0.58 q -0.08,-0.4 -0.21,-0.54 a 0.34,0.33 -58.3 0 0 -0.58,0.14 q -0.27,1.12 -0.54,3.89 c -0.18,1.86 -1.56,6.01 -3.99,5.67 a 2.7,2.49 2.2 0 1 -2.3,-2.29 q -0.44,-5.61 -0.31,-10.68 0.01,-0.46 -0.26,-0.96 a 0.53,0.53 0 0 0 -0.92,-0.02 c -0.86,1.46 -3.31,6.26 -5.39,6.8 a 2.16,2.15 81.4 0 1 -2.69,-1.99 q -0.15,-3.5 1.59,-7.66 a 0.89,0.89 0 0 0 -1.35,-1.07 l -2.53,1.85 a 1.01,1 43.8 0 1 -1.16,0.02 q -2.85,-1.91 -0.76,-5.03 3.45,1.47 7.29,0.49 a 0.72,0.71 -9.6 0 1 0.89,0.63 l 0.26,3.25 a 1.61,1.6 63.8 0 0 2.79,0.95 l 1.72,-1.9 a 0.68,0.68 0 0 1 1.18,0.39 c 0.26,2.87 0.19,5.76 2.02,7.21 a 1.87,1.35 -52.7 0 0 2.24,-0.68 q 1.77,-2.41 2.36,-5.83 a 0.49,0.49 0 0 1 0.86,-0.23 q 0.88,1.08 2.06,1.52 a 0.93,0.92 31.3 0 0 1.01,-0.24 l 1.87,-2.07 a 1.91,1.9 34.2 0 1 2.27,-0.43 q 1.17,0.59 2.12,1.17 a 2.18,2.08 30 0 0 3.01,-0.73 q 0.72,-1.35 1.67,-1.28 z"
       id="path355" />
  </g>
</svg>
