<?xml version="1.0" encoding="UTF-8" standalone="no"?>
<svg
   version="1.1"
   viewBox="0 0 57.195736 38.992199"
   id="svg354"
   sodipodi:docname="3.svg"
   inkscape:export-batch-name="3"
   inkscape:export-batch-path="/Users/dino/Documents/elements_svg_decoupes/"
   width="57.195736"
   height="38.992199"
   xmlns:inkscape="http://www.inkscape.org/namespaces/inkscape"
   xmlns:sodipodi="http://sodipodi.sourceforge.net/DTD/sodipodi-0.dtd"
   xmlns="http://www.w3.org/2000/svg"
   xmlns:svg="http://www.w3.org/2000/svg">
  <defs
     id="defs354" />
  <sodipodi:namedview
     id="namedview354"
     pagecolor="#ffffff"
     bordercolor="#000000"
     borderopacity="0.25"
     inkscape:showpageshadow="2"
     inkscape:pageopacity="0.0"
     inkscape:pagecheckerboard="0"
     inkscape:deskcolor="#d1d1d1">
    <inkscape:page
       x="0"
       y="0"
       width="57.195736"
       height="38.992199"
       id="page1"
       margin="0"
       bleed="0" />
  </sodipodi:namedview>
  <g
     id="g367"
     transform="translate(-121.36075,-27.693846)">
    <path
       fill="#e49572"
       d="m 122.68,64.7 h -0.03 a 0.76,0.76 0 0 1 -0.87,-0.57 q -0.53,-2.06 -0.39,-5.86 c 0.51,-14.34 7.49,-27.65 22.46,-30.14 q 3.77,-0.63 9.15,-0.35 c 10.34,0.55 18.17,7.86 21.92,17.24 q 3.79,9.45 3.63,20.82 a 0.87,0.86 -3.5 0 1 -0.75,0.84 h -0.03 a 0.74,0.73 -6.4 0 1 -0.83,-0.66 Q 176,56.71 175.81,55.49 c -1.73,-11.41 -8.16,-23.64 -20.64,-25.74 -12.38,-2.08 -23.41,2.43 -28.76,14.37 q -4.09,9.13 -3.15,19.83 a 0.71,0.7 82.8 0 1 -0.58,0.75 z"
       id="path98" />
    <path
       fill="#eebd3d"
       d="m 130.4,64.26 a 0.51,0.51 0 0 1 -1,0.1 c -2.52,-11.06 1.32,-23.63 11.94,-29.02 q 3.03,-1.53 7.45,-1.55 c 18.02,-0.07 21.68,17.84 22.96,32.14 a 0.63,0.63 0 0 1 -0.87,0.64 l -0.27,-0.11 a 1.39,1.38 -82.1 0 1 -0.85,-1.13 C 168.52,53.06 166.21,38.69 152.29,35.86 138.71,33.11 130.24,46.4 130.47,57.77 q 0.06,2.8 -0.07,6.49 z"
       id="path103" />
    <path
       fill="#2da267"
       d="m 137.05,64.62 a 0.57,0.56 -74.3 0 1 -0.83,0.47 l -0.31,-0.17 a 0.95,0.93 -77.6 0 1 -0.5,-0.8 c -0.25,-5.55 0.82,-15.57 5.12,-19.14 5.57,-4.63 13.84,-3.77 18.18,2.13 3.84,5.22 5.43,11.65 6.76,18.3 a 0.87,0.86 79.4 0 1 -0.7,1.03 l -0.04,0.01 a 0.97,0.96 79 0 1 -1.1,-0.75 c -1.78,-8.2 -4.64,-22.96 -16.26,-21.82 -10.25,1.01 -9.84,13.27 -10.32,20.74 z"
       id="path115" />
    <path
       fill="#6fade2"
       d="m 159.96,65.42 a 0.42,0.41 8.2 0 1 -0.54,0.4 l -0.57,-0.17 A 0.07,0.07 0 0 1 158.8,65.6 q -0.83,-5.84 -1.83,-8.08 c -1.45,-3.22 -5.76,-7.24 -9.58,-4.89 -4.59,2.82 -5.33,7.01 -5.91,12.1 a 0.56,0.55 6.2 0 1 -0.62,0.49 l -0.07,-0.01 a 0.73,0.73 0 0 1 -0.64,-0.76 q 0.41,-7.63 3.76,-11.27 c 5.57,-6.06 13.24,-1.09 15.02,5.33 q 0.97,3.47 1.03,6.91 z"
       id="path121" />
    <path
       fill="#c82688"
       fill-opacity="0.996"
       d="m 146.33,65.27 a 0.64,0.64 0 0 1 -1.23,-0.2 q -0.16,-2.23 0.91,-4.23 c 1.54,-2.89 5.09,-3.71 7.45,-1.38 q 1.5,1.48 2.21,5.6 a 0.71,0.7 -7.5 0 1 -0.64,0.82 H 155 a 0.88,0.88 0 0 1 -0.93,-0.69 q -0.54,-2.5 -1.84,-4.46 a 1.67,1.65 83.3 0 0 -0.81,-0.65 c -4.12,-1.55 -4.12,2.86 -5.09,5.19 z"
       id="path130" />
  </g>
</svg>
