<?xml version="1.0" encoding="UTF-8" standalone="no"?>
<svg
   version="1.1"
   viewBox="0 0 78.629807 75.316193"
   id="svg534"
   width="78.629807"
   height="75.316193"
   xmlns="http://www.w3.org/2000/svg"
   xmlns:svg="http://www.w3.org/2000/svg">
  <defs
     id="defs534" />
  <g
     id="g566"
     transform="translate(-50.421168,-57.219665)">
    <path
       fill="#55c1ef"
       d="M 58.9,77.97 58.83,75 a 2.44,2.37 60.9 0 1 0.36,-1.34 c 2.42,-3.87 4.63,-5.95 9.52,-5.54 a 0.91,0.91 0 0 0 0.97,-0.7 q 0.67,-2.95 2.48,-4.94 a 2.06,1.79 4 0 1 0.49,-0.37 l 5.03,-2.7 a 0.24,0.13 16.8 0 1 0.1,-0.02 q 2.29,-0.18 4.1,-1.08 c 2.67,-1.32 5.57,-1.09 7.96,-1.05 a 3.66,3.6 -25.6 0 1 2.13,0.73 l 1.7,1.29 a 1.68,1.68 0 0 0 1.4,0.3 c 3.02,-0.68 10.68,-1.19 12.7,0.13 q 2.3,1.5 2.82,5.03 a 1.12,1.11 85 0 0 1.12,0.95 c 2.39,-0.04 4.75,-0.98 6.87,1 q 2.02,1.88 2.37,4.9 a 0.95,0.94 -8.1 0 0 1.1,0.82 c 2.82,-0.49 6.18,-1.7 6.79,2.25 q 0.57,3.62 -0.4,8.23 a 2.03,2 -17.2 0 1 -0.53,0.99 q -1.84,1.86 -4.16,1.77 a 1.17,1.16 -86.4 0 0 -1.2,1.06 q -0.28,3.45 -1.5,4.55 -2.69,2.43 -5.24,3.8 a 2.75,2.68 -60.3 0 1 -1.08,0.31 c -4.36,0.3 -7.9,0.92 -10.57,-0.65 a 0.66,0.65 -56.6 0 0 -0.85,0.18 q -0.63,0.85 -0.81,1.85 a 1.7,1.67 -20.1 0 1 -0.38,0.8 c -3.9,4.56 -11.73,4.56 -16.72,2.97 a 3.63,3.52 70.4 0 1 -0.83,-0.41 q -2.32,-1.59 -2.85,-4.32 a 0.67,0.67 0 0 0 -0.95,-0.47 l -3.43,1.71 a 1.19,1.16 -55.1 0 1 -0.63,0.12 l -8.55,-0.69 a 5.62,5.59 -20 0 1 -3.5,-1.62 l -3.19,-3.19 a 1.97,1.96 -14.5 0 0 -0.85,-0.5 l -5.23,-1.5 a 2.9,2.82 71.1 0 1 -0.97,-0.49 c -2.91,-2.28 -4.3,-5.43 -0.77,-8.25 q 2.89,-2.32 4.59,-2.28 a 0.65,0.65 0 0 0 0.66,-0.66 z m 28.85,-14.32 4.34,2.84 a 0.16,0.16 0 0 0 0.22,-0.05 l 0.04,-0.07 A 2.55,1.26 33.2 0 0 90.91,63.92 L 90.57,63.7 a 2.55,1.26 33.2 0 0 -2.82,-0.34 l -0.04,0.07 a 0.16,0.16 0 0 0 0.04,0.22 z m 14.1513,-0.0799 a 1.25,0.5 -169.4 0 0 1.1367,0.7214 1.25,0.5 -169.4 0 0 1.3207,-0.2616 1.25,0.5 -169.4 0 0 -1.1367,-0.7214 1.25,0.5 -169.4 0 0 -1.3207,0.2616 z m -27.7417,0.9361 a 1.75,0.9 -76.8 0 0 -1.2758,1.4983 1.75,0.9 -76.8 0 0 0.4766,1.9093 1.75,0.9 -76.8 0 0 1.2758,-1.4983 1.75,0.9 -76.8 0 0 -0.4766,-1.9093 z m 9.3516,2.0572 a 1.39,0.87 -148 0 0 0.7178,1.4744 1.39,0.87 -148 0 0 1.6398,-0.0012 1.39,0.87 -148 0 0 -0.7178,-1.4744 1.39,0.87 -148 0 0 -1.6398,0.0012 z m 28.1231,3.9258 a 1.69,0.99 -175.9 0 0 1.6149,1.1083 1.69,0.99 -175.9 0 0 1.7565,-0.8667 1.69,0.99 -175.9 0 0 -1.6149,-1.1083 1.69,0.99 -175.9 0 0 -1.7565,0.8667 z m -44.7671,1.7642 a 1.35,0.38 -22.5 0 0 -1.3926,0.1655 1.35,0.38 -22.5 0 0 -1.1018,0.8677 1.35,0.38 -22.5 0 0 1.3926,-0.1655 1.35,0.38 -22.5 0 0 1.1018,-0.8677 z m 18.6785,1.082 a 1,0.81 -26.4 0 0 -1.2559,-0.2809 1,0.81 -26.4 0 0 -0.5355,1.1701 1,0.81 -26.4 0 0 1.2559,0.2809 1,0.81 -26.4 0 0 0.5355,-1.1701 z M 76.17,75.44 l -1.79,0.7 a 0.29,0.29 0 0 0 -0.16,0.38 l 0.06,0.17 a 2.85,1.19 68.7 0 0 2.15,2.22 l 0.11,-0.05 a 2.85,1.19 68.7 0 0 0.07,-3.08 l -0.06,-0.17 a 0.29,0.29 0 0 0 -0.38,-0.17 z m 8.75,3.24 q 0.71,0.14 1.01,-0.47 a 0.52,0.4 -83.9 0 0 -0.46,-0.74 q -0.13,0.06 -0.71,0.77 a 0.27,0.27 0 0 0 0.16,0.44 z m 36.8151,-0.1163 a 1.24,0.73 -85.6 0 0 -0.8229,1.1803 1.24,0.73 -85.6 0 0 0.6327,1.2923 1.24,0.73 -85.6 0 0 0.8229,-1.1803 1.24,0.73 -85.6 0 0 -0.6327,-1.2923 z m -31.0794,0.6185 a 2.11,0.99 -46 0 0 -2.1778,0.8301 2.11,0.99 -46 0 0 -0.7536,2.2055 2.11,0.99 -46 0 0 2.1778,-0.8301 2.11,0.99 -46 0 0 0.7536,-2.2055 z m -17.7252,1.7025 a 1.35,1.04 -167.8 0 0 1.0997,1.3018 1.35,1.04 -167.8 0 0 1.5393,-0.7312 1.35,1.04 -167.8 0 0 -1.0997,-1.3018 1.35,1.04 -167.8 0 0 -1.5393,0.7312 z m 35.783,-0.1349 a 1.19,0.69 -67.6 0 0 -1.0914,0.8373 1.19,0.69 -67.6 0 0 0.1844,1.3631 1.19,0.69 -67.6 0 0 1.0914,-0.8373 1.19,0.69 -67.6 0 0 -0.1844,-1.3631 z M 57.45,82.72 q 1.5,-0.16 1.61,-0.27 a 0.53,0.53 0 0 0 -0.55,-0.87 q -1.16,0.35 -1.36,0.63 a 0.33,0.32 15 0 0 0.3,0.51 z M 56.3,82.71 q -0.88,0.01 -1.37,1.31 -0.14,0.37 0.01,0.56 a 0.29,0.29 0 0 0 0.49,-0.09 q 0.48,-1.34 0.93,-1.51 A 0.14,0.14 0 0 0 56.3,82.71 Z m 61.38,6.54 q 1.19,-1.29 0.93,-2.89 a 0.63,0.63 0 0 0 -1.22,-0.08 q -0.13,0.44 -0.17,2.78 a 0.27,0.26 66.9 0 0 0.46,0.19 z m -15.23,-2.87 q -0.11,0.02 -0.24,0.33 a 0.16,0.16 0 0 0 0.04,0.19 q 0.18,0.15 0.33,0.1 a 0.32175534,0.31170048 -57.6 0 0 -0.13,-0.62 z m -21.2337,0.5634 a 1.38,0.8 -86 0 0 -0.8944,1.3208 1.38,0.8 -86 0 0 0.7018,1.4324 1.38,0.8 -86 0 0 0.8944,-1.3208 1.38,0.8 -86 0 0 -0.7018,-1.4324 z m 23.7915,0.9358 a 2.33,1.53 -127 0 0 0.1803,2.7816 2.33,1.53 -127 0 0 2.6241,0.94 2.33,1.53 -127 0 0 -0.1803,-2.7816 2.33,1.53 -127 0 0 -2.6241,-0.94 z m -10.6316,0.6443 a 1.39,1.04 -41.8 0 0 -1.7294,0.1512 1.39,1.04 -41.8 0 0 -0.343,1.7018 1.39,1.04 -41.8 0 0 1.7294,-0.1512 1.39,1.04 -41.8 0 0 0.343,-1.7018 z m -5.9387,0.8744 a 1.82,1.16 -105.7 0 0 -0.6242,2.066 1.82,1.16 -105.7 0 0 1.6092,1.4382 1.82,1.16 -105.7 0 0 0.6242,-2.066 1.82,1.16 -105.7 0 0 -1.6092,-1.4382 z m -22.879,1.4175 a 1.12,0.77 -143.6 0 0 0.4446,1.2844 1.12,0.77 -143.6 0 0 1.3584,0.0448 1.12,0.77 -143.6 0 0 -0.4446,-1.2844 1.12,0.77 -143.6 0 0 -1.3584,-0.0448 z M 78.07,89.93 75.29,92.49 a 0.13,0.13 0 0 0 -0.01,0.18 l 0.02,0.03 a 1.91,1.82 -42.6 0 0 2.64,0.04 l 0.16,-0.15 a 1.91,1.82 -42.6 0 0 0.18,-2.63 l -0.03,-0.02 a 0.13,0.13 0 0 0 -0.18,-0.01 z m 7.4984,5.1288 a 1.41,0.71 -133 0 0 0.4423,1.5154 1.41,0.71 -133 0 0 1.4809,0.547 1.41,0.71 -133 0 0 -0.4423,-1.5154 1.41,0.71 -133 0 0 -1.4809,-0.547 z"
       id="path282" />
    <ellipse
       fill="#9ad3e7"
       cx="0"
       cy="0"
       transform="rotate(-143.6,48.268547,34.814532)"
       rx="1.12"
       ry="0.76999998"
       id="ellipse302" />
    <ellipse
       fill="#519cf8"
       cx="0"
       cy="0"
       transform="rotate(-58.4,131.78494,-12.572704)"
       rx="6.2800002"
       ry="2.5999999"
       id="ellipse307" />
    <path
       fill="#519cf8"
       d="m 61.1,104.7 c -1.6,3.59 -2.82,9.98 -6.01,13.7 a 1.77,1.71 -75.6 0 1 -0.91,0.56 q -1.78,0.43 -2.48,0.32 a 2.24,1.7 -74.8 0 1 -1.13,-2.79 q 2.75,-8.27 8.69,-13.18 a 1.19,1.18 -7.9 0 1 1.84,1.39 z"
       id="path310" />
    <ellipse
       fill="#519cf8"
       cx="0"
       cy="0"
       transform="rotate(-66.3,139.21874,-25.227549)"
       rx="6.73"
       ry="2.8199999"
       id="ellipse314" />
    <path
       fill="#519cf8"
       d="m 86.65,114.01 a 1.31,1.3 -10 0 1 1.76,1.23 q -0.08,8.29 -4.62,15.25 c -1,1.52 -3.25,3.26 -4.37,0.86 q -1.51,-3.26 0.23,-7.26 c 1.09,-2.49 4.07,-9.01 7,-10.08 z"
       id="path321" />
  </g>
</svg>
