<?xml version="1.0" encoding="UTF-8" standalone="no"?>
<svg
   version="1.1"
   viewBox="0 0 43.344555 46.709057"
   id="svg325"
   width="43.344555"
   height="46.709057"
   xmlns="http://www.w3.org/2000/svg"
   xmlns:svg="http://www.w3.org/2000/svg">
  <defs
     id="defs325" />
  <path
     fill="#efa138"
     d="m 22.996871,6.1904096 q -0.31,0.02 -2.04,0.76 c -2.61,1.13 -8.71,-3.97 -3.24,-6.74000004 a 1.9,1.92 32.4 0 1 0.91,-0.20999999692 c 9.83,0.14999999692 16.96,1.48000003692 21.62,10.41000043692 q 0.68,1.31 2.43,7.45 1.42,4.96 -0.18,12.28 c -0.63,2.91 -2.13,4.64 -2.91,7.28 a 4.81,4.85 75.7 0 1 -1.21,2.02 q -9.44,9.44 -21.53,6.62 -6.5,-1.52 -10.35,-5.44 -3.8,-3.87 -5.69999999,-10.28 c -2.26000001,-7.6 0.50999999,-13.22 5.49999999,-18.86 a 6.6,6.64 22.9 0 1 5.42,-2.2200004 l 1.78,0.12 a 2.47,2.47 0 0 1 1.79,3.9600004 q -5.32,6.99 -5.86,12.07 -0.3,2.77 2.4,7.21 1.96,3.22 6.3,4.07 10.83,2.13 15.26,-7.49 1.26,-2.71 0.97,-5.12 c -0.18,-1.54 0.4,-2.34 0.43,-3.49 a 2.18,2.2 34.5 0 0 -0.17,-0.94 q -2.93,-7.01 -9.42,-10.4700004 a 2.3,2.35 88.2 0 1 -0.88,-0.81 q -0.46,-0.7 -0.61,-1.62 a 0.67,0.68 83.4 0 0 -0.71,-0.56 z"
     id="path290" />
</svg>
