<?xml version="1.0" encoding="UTF-8" standalone="no"?>
<svg
   version="1.1"
   viewBox="0 0 78.781876 40.110661"
   id="svg527"
   width="78.781876"
   height="40.110661"
   xmlns="http://www.w3.org/2000/svg"
   xmlns:svg="http://www.w3.org/2000/svg">
  <defs
     id="defs527" />
  <path
     fill="#60cffc"
     d="m 63.235059,26.02018 q -0.1,-0.17 -0.26,-0.18 a 0.12,0.12 0 0 0 -0.12,0.16 q 0.05,0.18 0.24,0.31 3.14,5.65 0.39,9.36 c -2.84,3.85 -9.12,4.05 -11.61,-0.12 q -3.04,-5.08 1.03,-9.46 a 0.37,0.37 0 0 0 -0.01,-0.51 l -0.24,-0.24 a 0.13,0.11 45 0 0 -0.17,-0.01 l -5.08,4.86 a 1.9,1.89 12.7 0 1 -0.59,0.37 c -4.58,1.71 -8.19,1.67 -12.9,1.39 a 3.25,3.29 71.5 0 1 -2.25,-1.11 c -2.75,-3.19 -3.98,-4.91 -8.22,-5.68 a 0.36,0.36 0 0 0 -0.32,0.6 q 0.08,0.09 3.09,1.4 a 3.34,3.27 83.2 0 1 1.38,1.11 c 6.98,9.61 -7.68,16.82 -11.67,7.52 q -1.77,-4.1 1.39,-8.17 a 0.16,0.16 0 0 0 -0.19,-0.25 c -1.63,0.64 -2.75,2.9 -3.25,3.63 a 2.06,2.08 7.9 0 1 -1,0.76 c -5.4100003,1.94 -9.2300003,-0.6 -10.8200003,-6.11 -1.19999998,-4.15 -3.59,-13.6 -0.64,-17.0799996 3.97,-4.68 11.6300003,-6.46 17.3800003,-6.86 4.81,-0.34 9.43,-0.97000002 14.43,-1.11000002 14.62,-0.4 25.52,-1.35 37.76,0.51000002 q 4.73,0.72 6.04,4.94 2.19,7.0499996 1.65,14.6599996 -0.37,5.09 -2.56,7.07 -2.72,2.46 -7.11,2.55 a 2.97,2.96 66.1 0 1 -2.12,-0.82 z m -1.28,-22.8199996 a 0.93,0.93 0 0 0 -0.93,-0.86 h -14.2 a 0.93,0.93 0 0 0 -0.93,1 l 0.95,11.6799996 a 0.93,0.93 0 0 0 1,0.86 l 14.1,-1.14 a 0.93,0.93 0 0 0 0.86,-1 z m -17.95,12.8499996 a 0.92,0.92 0 0 0 0.85,-0.99 l -0.98,-12.1199996 a 0.92,0.92 0 0 0 -0.99,-0.85 l -8.93,0.72 a 0.92,0.92 0 0 0 -0.85,0.99 l 0.98,12.1299996 a 0.92,0.92 0 0 0 0.99,0.85 z m 31.98,-2.59 a 0.27,0.27 0 0 0 0.25,-0.31 c -0.42,-3.5899996 -1.12,-8.9999996 -5.38,-9.8699996 q -3.87,-0.79 -5.77,-0.79 a 0.7,0.7 0 0 0 -0.7,0.76 l 0.85,10.5399996 a 0.53,0.53 0 0 0 0.57,0.49 z m -45.3305,-9.6057996 a 1.12,1.12 0 0 0 -1.2257,-1.0033 l -10.5078,1.0489 a 1.12,1.12 0 0 0 -1.0033,1.2257 l 1.1978,12.0002996 a 1.12,1.12 0 0 0 1.2257,1.0033 l 10.5078,-1.0489 a 1.12,1.12 0 0 0 1.0033,-1.2257 z m -14.8195,1.6158 a 0.83,0.83 0 0 0 -0.91,-0.76 q -5.9100003,0.59 -10.9000003,4.39 c -2.47,1.8699996 -1.6,6.3399996 -1.34,9.6199996 a 0.72,0.71 85.2 0 0 0.77,0.66 l 12.5900003,-1.01 a 0.81,0.82 85.1 0 0 0.75,-0.88 z m 59.59,10.4099996 -71.6800003,5.76 a 0.65,0.66 77.1 0 0 -0.56,0.89 l 2.3,5.85 a 0.71,0.72 8.4 0 0 0.22,0.3 q 2.21,1.67 5.3500003,1.23 a 1.75,1.73 12.7 0 0 1.2,-0.75 l 2.16,-3.22 a 3,3.01 3.2 0 1 1.08,-0.97 q 10.11,-5.36 16.62,2.91 c 1.49,1.88 2.38,1.77 4.65,1.96 4.04,0.35 8.25,0.04 10.86,-3.19 3.44,-4.29 8.08,-5.93 13.65,-4.54 2.99,0.74 5.61,3.91 7.32,5.35 a 1.59,1.59 0 0 0 1.11,0.38 q 6.71,-0.33 6.62,-7.17 -0.05,-4.07 -0.06,-4.15 a 0.8,0.8 0 0 0 -0.84,-0.64 z m -13.11,15.58 a 4.64,4.64 0 0 0 -4.64,-4.64 4.64,4.64 0 0 0 -4.64,4.64 4.64,4.64 0 0 0 4.64,4.64 4.64,4.64 0 0 0 4.64,-4.64 z m -35.14,1.53 a 4.76,4.76 0 0 0 -4.76,-4.76 4.76,4.76 0 0 0 -4.76,4.76 4.76,4.76 0 0 0 4.76,4.76 4.76,4.76 0 0 0 4.76,-4.76 z"
     id="path359" />
  <path
     fill="#2e2411"
     d="m 63.235059,26.02018 q -0.07,0.15 -0.14,0.29 -0.19,-0.13 -0.24,-0.31 a 0.12,0.12 0 0 1 0.12,-0.16 q 0.16,0.01 0.26,0.18 z"
     id="path380" />
</svg>
