<?xml version="1.0" encoding="UTF-8" standalone="no"?>
<svg
   version="1.1"
   viewBox="0 0 104.81713 48.461292"
   id="svg325"
   width="104.81713"
   height="48.461292"
   xmlns="http://www.w3.org/2000/svg"
   xmlns:svg="http://www.w3.org/2000/svg">
  <defs
     id="defs325" />
  <g
     id="g343"
     transform="translate(-641.39421,-113.18299)">
    <rect
       fill="#f4b158"
       x="-3.3"
       y="-9.25"
       transform="rotate(-8.6,1157.9089,-4513.521)"
       width="6.5999999"
       height="18.5"
       rx="3.0599999"
       id="rect170" />
    <g
       id="g332">
      <rect
         fill="#f4b158"
         x="-3.3299999"
         y="-6.1599998"
         transform="rotate(25.4,74.630501,1649.8436)"
         width="6.6599998"
         height="12.32"
         rx="2.6600001"
         id="rect175" />
      <rect
         fill="#f4b158"
         x="-3.1700001"
         y="-8.2299995"
         transform="rotate(14.1,-184.26531,2898.3088)"
         width="6.3400002"
         height="16.459999"
         rx="2.4200001"
         id="rect176" />
      <path
         fill="#f4b158"
         d="m 677.76,132.29 c 0.82,1.08 5.3,9.02 1.73,9.7 q -2.94,0.55 -4.16,-0.34 a 1.76,1.72 -83.2 0 1 -0.57,-0.75 q -1.06,-2.68 -2.43,-4.48 -1.36,-1.8 -3.67,-3.54 a 1.76,1.72 8.8 0 1 -0.56,-0.75 q -0.53,-1.42 0.79,-4.1 c 1.61,-3.26 8.06,3.19 8.87,4.26 z"
         id="path176" />
      <rect
         fill="#f4b158"
         x="-8.0799999"
         y="-3.3499999"
         transform="rotate(30.6,81.40371,1261.241)"
         width="16.16"
         height="6.6999998"
         rx="2.6900001"
         id="rect177" />
      <path
         fill="#f4b158"
         d="m 722.53,134.83 a 1.95,1.95 0 0 1 2.72,1.24 l 0.41,1.49 a 2.9,2.9 0 0 1 -1.35,3.29 q -6.12,3.55 -12.18,9.54 a 3.59,3.58 41.4 0 1 -4.7,0.29 l -0.08,-0.07 a 2.8,2.8 0 0 1 -0.32,-4.16 q 7.48,-7.78 15.5,-11.62 z"
         id="path179" />
      <rect
         fill="#f4b158"
         x="-6.6399999"
         y="-3.28"
         transform="rotate(-8.8,1306.8431,-4733.2901)"
         width="13.28"
         height="6.5599999"
         rx="2.5699999"
         id="rect187" />
      <path
         fill="#f4b158"
         d="m 673.79,153.14 a 1.45,1.45 0 0 1 0.88,1.85 l -0.21,0.58 a 5.06,4.32 19.6 0 1 -6.21,2.37 l -17,-6.05 a 5.06,4.32 19.6 0 1 -3.32,-5.77 l 0.21,-0.57 a 1.45,1.45 0 0 1 1.85,-0.88 z"
         id="path188" />
      <rect
         fill="#f4b158"
         x="-10.55"
         y="-3.0799999"
         transform="rotate(-1.8,5364.212,-23090.912)"
         width="21.1"
         height="6.1599998"
         rx="2.1800001"
         id="rect190" />
      <rect
         fill="#f4b158"
         x="-4.8499999"
         y="-3.3800001"
         transform="rotate(1.1,-7917.3076,33740.383)"
         width="9.6999998"
         height="6.7600002"
         rx="2.01"
         id="rect191" />
    </g>
  </g>
</svg>
