<?xml version="1.0" encoding="UTF-8" standalone="no"?>
<svg
   version="1.1"
   viewBox="0 0 17.400803 21.021265"
   id="svg527"
   width="17.400803"
   height="21.021265"
   xmlns="http://www.w3.org/2000/svg"
   xmlns:svg="http://www.w3.org/2000/svg">
  <defs
     id="defs527" />
  <path
     fill="#eb3d3c"
     d="m 11.746506,11.271026 4.98,1.2 a 0.89,0.89 0 0 1 0.65,1.07 l -0.06,0.27 a 0.71,0.71 0 0 1 -0.79,0.54 l -6.31,-0.82 a 0.61,0.61 0 0 0 -0.6699997,0.43 q -1.24,3.96 -5.31,6.88 a 0.94,0.94 0 0 1 -1.33,-0.23 l -0.16,-0.29 a 0.53,0.52 49.1 0 1 0.04,-0.59 l 4.52,-5.93 a 0.79,0.78 32 0 0 -0.28,-1.18 c -4.23,-2.13 -7.83000003,-4.5400001 -6.87000003,-9.9200001 a 2.03,2.06 14.3 0 1 2.65000003,-1.6 q 1.97,0.66 4.11,-0.75999996 a 2.01,2.06 46.5 0 1 2.3,0.03 C 12.226506,2.5610259 12.116506,7.3910259 11.236506,10.371026 a 0.71,0.71 0 0 0 0.51,0.9 z M 2.4465063,4.5510259 q 0.49,3.57 5.14,5.6300001 a 0.97,0.97 0 0 0 1.35,-0.7000001 q 0.63,-3.28 -0.22,-6.19 a 0.91,0.91 0 0 0 -1.64,-0.24 q -0.61,0.91 -1.36,1.36 a 0.88,0.88 0 0 1 -0.93,-0.02 q -1.3,-0.87 -1.82,-0.69 a 0.78,0.78 0 0 0 -0.52,0.85 z"
     id="path356" />
</svg>
