<?xml version="1.0" encoding="UTF-8" standalone="no"?>
<svg
   version="1.1"
   viewBox="0 0 57.051788 74.412056"
   id="svg527"
   width="57.051788"
   height="74.412056"
   xmlns="http://www.w3.org/2000/svg"
   xmlns:svg="http://www.w3.org/2000/svg">
  <defs
     id="defs527" />
  <path
     fill="#1858a1"
     d="m -1.0020675,69.194751 a 0.54,0.54 0 0 0 0.10000002,0.91 q 5.80999998,2.82 12.45000048,3.08 a 1.61,1.56 4.1 0 1 1.54,1.72 q -0.12,1.16 -1.4,1.67 -9.6700005,3.88 -20.3100005,0.86 a 0.9,0.9 0 0 0 -1.11,0.63 c -1.0499995,3.9 -5.6299995,6.21 -9.4199995,4.85 q -3.26,-1.17 -5.17,-4.11 a 1.17,1.17 0 0 0 -1.36,-0.46 c -4.05,1.39 -6.33,2.37 -10.02,0.46 -2.85,-1.47 -4.07,-8.03 -4.32,-10.97 a 0.29,0.29 0 0 0 -0.29,-0.27 q -2.25,0.04 -4.15,-0.09 c -4.18,-0.3 -5.81,-4.64 -5,-8.46 0.57,-2.7 3.78,-5.16 6.32,-7.19 a 2.51,2.51 0 0 0 0.94,-2.24 c -0.44,-4.08 0.9,-7.63 5.24,-8.54 q 3.78,-0.79 7.89,0.09 a 2.3,2.28 30 0 0 2.02,-0.53 c 3.01,-2.66 5.67,-4.63 10.05,-3.79 4.2,0.79 7.2499995,4.5 10.0599995,6.86 a 4.92,4.93 69 0 0 2.53,1.12 c 5.49,0.74 11.33,5.21 7.82,11.41 q -1.37,2.42 -1.4,2.5 a 2.85,2.86 51.6 0 0 -0.18,1.55 c 0.59,3.75 0.78,6.06 -2.83,8.94 z m 7.8,5.74 c -3.27,-0.89 -8.44,-1.66 -10.93,-4.11 a 1.54,1.53 52.6 0 1 0.32,-2.43 q 5.43,-3.06 3.20000002,-8.08 a 1.43,1.43 0 0 1 -0.03,-1.09 q 0.13,-0.33 1.81999998,-3.75 c 1.7,-3.47 0.41,-6.78 -3.27,-7.7 q -1.46,-0.36 -3.05,-0.69 a 4.9,4.98 71.1 0 1 -2.09,-1 q -1.89,-1.54 -5.3099995,-4.43 -6.7,-5.69 -12.44,0.31 a 4.11,4.12 25.2 0 1 -3.46,1.25 c -4.93,-0.57 -13.35,-1.69 -11.36,6.91 a 2.8,2.81 66.6 0 1 -1.18,2.97 c -3.46,2.29 -7.79,5.73 -5.83,10.4 a 2.78,2.77 78.4 0 0 2.55,1.69 h 5.2 a 0.96,0.96 0 0 1 0.96,0.9 c 0.23,3.67 0.79,8.51 3.51,10.75 3.04,2.5 6.23,-0.14 8.51,-0.95 a 2.39,2.4 61.5 0 1 2.71,0.8 c 2.63,3.45 6.36,6.77 10.44,2.69 a 1.08,1.49 72.5 0 0 0.17,-0.23 l 1.6,-3.28 a 1.36,1.35 18.8 0 1 1.4999995,-0.73 q 8.28,1.81 16.4,0.67 a 0.44,0.45 48.8 0 0 0.06,-0.87 z"
     id="path325" />
  <g
     id="g564"
     transform="translate(-163.66618,-71.667209)">
    <path
       fill="#fac22c"
       d="m 180.09,100.86 q -2.69,3.29 -6.91,6.32 -0.52,0.37 -0.84,0.35 a 2.09,1.92 -85.6 0 1 -1.81,-2.3 q 0.55,-5.43 2.45,-11.66 A 0.81,0.8 27.3 0 0 172.7,92.7 l -8.34,-6.36 a 1.77,1.77 0 0 1 0.6,-3.11 q 5.38,-1.47 11.45,-0.97 a 2.11,2.1 9 0 0 2.21,-1.6 l 1.9,-7.85 a 1.5,1.49 25.7 0 1 2.37,-0.83 c 1.82,1.42 2.44,6.2 2.69,7.96 a 1.85,1.85 0 0 0 2.17,1.56 q 6.35,-1.19 11.62,-0.69 a 1.75,1.74 20.9 0 1 1.25,2.77 q -0.42,0.57 -2.38,2.15 -1.94,1.57 -6.92,5.13 a 2.81,2.81 0 0 0 -1.05,3.08 l 3.67,12.39 a 1.74,1.73 6.2 0 1 -2.51,2.01 q -5.51,-3.04 -10.39,-7.55 a 0.66,0.65 -49.1 0 0 -0.95,0.07 z"
       id="path293" />
    <path
       fill="#fac22c"
       d="m 195.29,96.48 q 0.88,-0.8 2.78,0.05 c 11.33,5.1 17.8,16.47 22.54,27.71 a 1.38,1.37 -29 0 1 -0.48,1.66 l -0.04,0.02 a 0.91,0.91 0 0 1 -1.34,-0.37 c -4.51,-9.68 -8.7,-17.8 -17,-24.19 -1.86,-1.43 -4.57,-2.67 -6.42,-4.07 a 0.52,0.52 0 0 1 -0.04,-0.81 z"
       id="path313" />
    <path
       fill="#fac22c"
       d="m 210.63,140.22 -0.07,-0.01 a 1.75,1.74 87.8 0 1 -1.37,-1.28 c -2.22,-8.5 -5.65,-19 -11.78,-25.92 a 0.97,0.97 0 0 1 0.16,-1.43 l 0.22,-0.16 a 0.95,0.95 0 0 1 1.28,0.14 c 4.69,5.32 6.24,9.23 9.5,17.65 q 2.38,6.16 3.01,10.08 a 0.82,0.81 -89.3 0 1 -0.95,0.93 z"
       id="path326" />
    <path
       fill="#fac22c"
       d="m 191.74,146 -0.07,-0.03 a 1.86,1.84 -78.2 0 1 -1.08,-1.67 c -0.11,-9.32 -0.94,-21.02 -5.48,-29.72 a 1.03,1.03 0 0 1 0.53,-1.43 l 0.27,-0.11 a 1.01,1.01 0 0 1 1.28,0.47 c 3.47,6.69 4.06,11.11 5.26,20.62 q 0.87,6.96 0.51,11.16 a 0.87,0.86 -75.3 0 1 -1.22,0.71 z"
       id="path327" />
  </g>
</svg>
