<?xml version="1.0" encoding="UTF-8" standalone="no"?>
<svg
   version="1.1"
   viewBox="0 0 43.060001 43.060001"
   id="svg527"
   width="43.060001"
   height="43.060001"
   xmlns="http://www.w3.org/2000/svg"
   xmlns:svg="http://www.w3.org/2000/svg">
  <defs
     id="defs527" />
  <g
     id="g545"
     transform="translate(-4.23,-260.74)">
    <path
       fill="#fac22c"
       d="M 47.29,282.27 A 21.53,21.53 0 0 1 25.76,303.8 21.53,21.53 0 0 1 4.23,282.27 21.53,21.53 0 0 1 25.76,260.74 21.53,21.53 0 0 1 47.29,282.27 Z m -2.52,0.01 A 18.95,18.95 0 0 0 25.82,263.33 18.95,18.95 0 0 0 6.87,282.28 18.95,18.95 0 0 0 25.82,301.23 18.95,18.95 0 0 0 44.77,282.28 Z"
       id="path478" />
    <path
       fill="#fac22c"
       d="m 32.58,275.29 c 1.3,-0.29 5.67,0.03 5.87,2.22 a 0.8,0.79 -88.7 0 1 -0.9,0.86 c -1.19,-0.15 -3.16,-0.65 -4.37,-0.38 -1.21,0.26 -2.78,1.55 -3.8,2.19 a 0.8,0.79 63.7 0 1 -1.17,-0.4 c -0.75,-2.07 3.08,-4.2 4.37,-4.49 z"
       id="path490" />
    <path
       fill="#fac22c"
       d="m 20.76,281.68 h -3.68 a 1.77,1.76 -71 0 0 -1.39,0.68 q -0.34,0.45 -1.05,1.46 a 1.12,0.98 -38.2 0 1 -1.9,-0.1 q -0.47,-1.61 0.74,-2.66 3.79,-3.3 7.72,-0.97 a 0.86,0.85 -29.6 0 1 -0.44,1.59 z"
       id="path493" />
    <path
       fill="#fac22c"
       d="m 28.66,293.54 q -3.58,1.38 -8.68,-0.29 a 2.4,2.38 1.1 0 1 -1.55,-1.6 l -0.06,-0.2 a 0.87,0.87 0 0 1 0.9,-1.11 q 0.15,0.01 3.76,1.06 2.32,0.67 4.92,-0.14 2.59,-0.81 4.12,-2.68 2.37,-2.91 2.49,-3.01 a 0.87,0.87 0 0 1 1.37,0.4 l 0.06,0.2 a 2.4,2.38 -35.8 0 1 -0.36,2.21 q -3.25,4.26 -6.97,5.16 z"
       id="path498" />
  </g>
</svg>
