<?xml version="1.0" encoding="UTF-8" standalone="no"?>
<svg
   version="1.1"
   viewBox="0 0 39.962833 37.676849"
   id="svg534"
   width="39.962833"
   height="37.676849"
   xmlns="http://www.w3.org/2000/svg"
   xmlns:svg="http://www.w3.org/2000/svg">
  <defs
     id="defs534" />
  <g
     id="g541"
     transform="translate(-700.92735,-117.84753)">
    <path
       fill="#f18808"
       d="m 740.23,129.04 q 1.05,4.7 0.43,9.76 -0.57,4.71 -3.95,8.66 c -5.7,6.64 -16.15,10.4 -24.28,6.46 -5.36,-2.61 -11,-7.64 -11.43,-13.9 q -0.92,-13.43 9.81,-20.67 0.53,-0.36 4.34,-1.38 a 3.45,3.42 38.1 0 1 1.04,-0.12 q 9.81,0.31 12.98,1.25 6.46,1.93 10.55,8.67 a 4.2,4.11 -67.5 0 1 0.51,1.27 z m -6.69,-4.58 c -1.11,-0.48 -1.44,-1.48 -2.55,-1.99 q -5.93,-2.74 -12.17,-2.1 c -2.07,0.21 -4.08,2.09 -6.25,1.29 a 1.12,1.12 0 0 0 -0.97,0.11 c -2.26,1.45 -3.51,3.41 -5.49,6.11 a 3.52,3.39 -17.4 0 0 -0.46,0.84 c -1.35,3.74 -3.13,11.32 -1.1,14.78 2.88,4.9 9.84,10.47 15.95,9.7 12.19,-1.54 21.77,-11.95 16.72,-24.6 a 3.05,3.01 -76.2 0 0 -0.49,-0.82 q -2.41,-2.97 -3.19,-3.32 z"
       id="path323" />
    <ellipse
       fill="#f18808"
       cx="0"
       cy="0"
       transform="rotate(-92.9,426.22541,-278.9278)"
       rx="1.86"
       ry="1.6900001"
       id="ellipse331" />
    <path
       fill="#f18808"
       d="m 718.54,133.12 a 0.39,0.39 0 0 1 0.35,0.55 q -0.65,1.43 -2.05,0.87 a 0.74,0.74 0 0 1 0.28,-1.42 z"
       id="path333" />
    <path
       fill="#f18808"
       d="m 721.36,141.58 q 5.88,0.14 10.43,-5.12 a 0.85,0.85 0 0 1 1.29,0.01 l 0.03,0.04 a 1.31,1.29 42.8 0 1 0.07,1.6 q -1.69,2.4 -2.43,2.91 -4.43,3.1 -9.39,3.1 -4.96,0 -9.39,-3.11 -0.74,-0.51 -2.43,-2.91 a 1.31,1.29 -42.8 0 1 0.08,-1.6 l 0.03,-0.04 a 0.85,0.85 0 0 1 1.29,-0.01 q 4.54,5.27 10.42,5.13 z"
       id="path336" />
  </g>
</svg>
