<?xml version="1.0" encoding="UTF-8" standalone="no"?>
<svg
   version="1.1"
   viewBox="0 0 29.519287 28.219734"
   id="svg527"
   width="29.519287"
   height="28.219734"
   xmlns="http://www.w3.org/2000/svg"
   xmlns:svg="http://www.w3.org/2000/svg">
  <defs
     id="defs527" />
  <path
     fill="#3f79b3"
     d="m 10.411333,8.1380454 q -0.29,-4.57 1.66,-7.01 a 2.97,2.99 33.4 0 1 3.73,-0.77999996 c 1.59,0.83999996 1.74,3.25999996 1.72,5.17999996 a 0.72,0.72 0 0 0 1.09,0.62 c 2.36,-1.43 4.53,-2.63 6.92,-1.7 q 1.82,0.7 1.78,2.76 -0.04,2.1 -2.65,3.2899996 a 0.59,0.6 52.9 0 0 -0.14,1 c 1.31,1.07 3.37,1.37 4.48,3.27 1.27,2.16 0.1,4.72 -2.37,5.15 -1.74,0.3 -3.31,-1.11 -4.7,-1.29 a 0.49,0.49 0 0 0 -0.55,0.5 c 0.07,3.55 1.11,8.51 -3.98,9.08 a 1.79,1.79 0 0 1 -0.99,-0.17 q -3.24,-1.63 -3.68,-5.41 a 0.84,0.83 63.8 0 0 -1.43,-0.49 c -2.1399997,2.22 -6.6099997,3.69 -8.3399997,0.09 a 1.26,1.3 39.8 0 1 -0.07,-0.94 q 0.85,-2.79 3.55,-4.13 a 0.65,0.65 0 0 0 0.04,-1.15 c -1.54,-0.88 -4.01,-1.34 -5.57999997,-3.44 q -1.56,-2.11 -0.42,-3.9399996 c 1.93999997,-3.14 6.71999997,-1.69 9.28999997,-0.11 a 0.42,0.42 0 0 0 0.6399997,-0.38 z m 7.86,3.5499996 q 0.29,-1.52 1.9,-1.8299996 2.93,-0.58 4.72,-2.06 a 0.56,0.56 0 0 0 -0.22,-0.98 c -2.88,-0.67 -6.38,1.64 -7.82,3.6899996 a 1,1 0 0 1 -1.81,-0.6799996 q 0.45,-4.17 0.07,-6.78 -0.08,-0.51 -0.15,-0.58 a 1.01,1.01 0 0 0 -1.66,0.53 q -0.98,4.46 0.25,9.1499996 a 0.69,0.69 0 0 0 0.73,0.52 l 1.34,-0.11 a 0.73,0.72 59.3 0 1 0.46,0.12 q 1.18,0.78 0.42,2.48 a 0.9,0.89 19.6 0 1 -1.05,0.49 q -2.08,-0.58 -2.06,-2.16 a 1.08,1.1 14.5 0 0 -0.55,-0.95 C 9.3513333,10.578045 6.5513333,8.5680454 2.9613333,9.3480454 a 1.08,1.08 0 0 0 -0.43,1.9099996 q 3.51,2.72 7.6199997,3.98 a 1.16,1.16 0 0 1 0.21,2.13 c -1.9199997,1.05 -4.1599997,2.1 -4.8299997,3.73 a 0.92,0.91 0.2 0 0 1.19,1.19 q 3.17,-1.25 5.4499997,-5.03 a 1.37,1.37 0 0 1 2.54,0.68 c 0.06,2.37 0.24,5.04 1.49,7.33 a 1.22,1.21 52.2 0 0 1.96,0.25 c 1.78,-1.91 0.36,-7.38 0.35,-9.16 a 1.46,1.45 82.3 0 1 1.08,-1.42 q 0.57,-0.15 5.75,2.58 a 1.24,1.25 28.2 0 0 1.67,-0.51 l 0.05,-0.11 a 1.19,1.2 28.5 0 0 -0.48,-1.63 q -4.75,-2.59 -7.87,-2.98 a 0.52,0.52 0 0 1 -0.44,-0.6 z"
     id="path516" />
</svg>
