<?xml version="1.0" encoding="UTF-8" standalone="no"?>
<svg
   version="1.1"
   viewBox="0 0 31.964951 25.391634"
   id="svg527"
   width="31.964951"
   height="25.391634"
   xmlns="http://www.w3.org/2000/svg"
   xmlns:svg="http://www.w3.org/2000/svg">
  <defs
     id="defs527" />
  <g
     id="g535"
     transform="translate(-305.18106,-299.44984)">
    <path
       fill="#fac22c"
       d="m 315.83,305.25 a 0.81,0.8 -12.6 0 0 1.01,0.64 q 3.84,-1.11 5.82,-0.51 a 1.03,1.02 -62.8 0 1 0.51,1.6 l -4.28,5.61 a 0.63,0.63 0 0 0 -0.11,0.51 l 0.58,2.98 a 1.64,1.64 0 0 1 -2.17,1.85 l -2.43,-0.89 a 1.38,1.37 34.1 0 0 -1.38,0.26 l -1.52,1.33 a 1.52,1.52 0 0 1 -2.52,-1.02 l -0.22,-2.71 a 1.19,1.17 -74 0 0 -0.47,-0.86 q -0.33,-0.25 -1.76,-1.18 c -4.03,-2.63 0.03,-4.83 2.34,-5.97 a 1.08,1.08 0 0 0 0.57,-0.76 c 0.37,-1.95 0.6,-5.28 1.9,-6.39 a 1.97,1.53 58.8 0 1 2.6,0.99 q 1.17,2.42 1.53,4.52 z m -2.46,0.4 a 0.35,0.35 0 0 0 -0.49,0.48 c 0.23,0.34 0.84,-0.22 0.49,-0.48 z m 5.0728,2.782 a 0.74,0.58 -24.6 0 0 -0.9142,-0.2194 0.74,0.58 -24.6 0 0 -0.4314,0.8354 0.74,0.58 -24.6 0 0 0.9142,0.2194 0.74,0.58 -24.6 0 0 0.4314,-0.8354 z m -4.5349,0.7666 a 2.13,1.57 -80.6 0 0 -1.8968,1.845 2.13,1.57 -80.6 0 0 1.201,2.3578 2.13,1.57 -80.6 0 0 1.8968,-1.845 2.13,1.57 -80.6 0 0 -1.201,-2.3578 z"
       id="path508" />
    <path
       fill="#fac22c"
       d="m 326.5,310.65 a 0.94,0.93 -52.5 0 1 1.63,-0.22 l 2.68,3.67 a 0.79,0.78 -23.1 0 0 0.78,0.31 l 3.96,-0.78 a 1.33,1.33 0 0 1 1.2,2.25 l -3.01,3.01 a 0.99,0.98 -34.7 0 0 -0.21,1.12 l 1.05,2.27 a 0.99,0.99 0 0 1 -1.32,1.31 l -2.69,-1.26 a 0.81,0.81 0 0 0 -0.92,0.17 l -1.91,1.9 a 1.5,1.5 0 0 1 -2.56,-1.15 l 0.12,-2.12 a 0.65,0.65 0 0 0 -0.49,-0.68 l -3.02,-0.73 a 1.01,1.01 0 0 1 -0.68,-1.41 q 0.84,-1.8 3.55,-2.52 a 1.83,1.82 83.3 0 0 1.36,-1.73 q 0.04,-2.23 0.48,-3.41 z m 2.7337,6.9387 a 0.64,0.5 -76.1 0 0 -0.6391,0.5012 0.64,0.5 -76.1 0 0 0.3317,0.7414 0.64,0.5 -76.1 0 0 0.6391,-0.5012 0.64,0.5 -76.1 0 0 -0.3317,-0.7414 z"
       id="path517" />
  </g>
</svg>
