<?xml version="1.0" encoding="UTF-8" standalone="no"?>
<svg
   version="1.1"
   viewBox="0 0 19.934528 21.430666"
   id="svg534"
   width="19.934528"
   height="21.430666"
   xmlns="http://www.w3.org/2000/svg"
   xmlns:svg="http://www.w3.org/2000/svg">
  <defs
     id="defs534" />
  <path
     fill="#f18808"
     d="m 10.3927,0.00278896 h 0.05 a 1.32,1.32 0 0 1 1.23,1.38000004 c -0.13,2.67 0.25,5.05 2.7,6.21 a 2.06,2.06 0 0 0 0.97,0.2 q 2.59,-0.08 3.89,0.45 a 1.13,1.13 0 0 1 0.07,2.06 l -2.32,1.15 a 3.82,3.81 85 0 0 -1.94,2.32 l -1.9,6.51 a 1.59,1.59 0 0 1 -3.11,-0.29 q -0.01,-0.12 -0.3199999,-5.34 -0.09,-1.58 -2.5,-2.43 a 0.71,0.63 48.6 0 0 -0.32,-0.04 l -5.15,0.71 a 1.46,1.46 0 0 1 -1.53999996,-0.87 l -0.11,-0.23 a 1.2,1.2 0 0 1 0.83,-1.63 l 5.54999996,-1.32 a 3.01,3 85.2 0 0 2.31,-2.74 l 0.31,-4.96 A 1.22,1.22 0 0 1 10.3927,0.00278896 Z M 9.5127001,9.222789 l 2.0999999,3.21 a 0.3,0.3 0 0 0 0.42,0.08 l 0.14,-0.09 a 2.08,2.09 56.7 0 0 0.61,-2.89 l -0.16,-0.23 a 2.08,2.09 56.7 0 0 -2.8899999,-0.59 l -0.14,0.09 a 0.3,0.3 0 0 0 -0.08,0.42 z"
     id="path486" />
</svg>
