<?xml version="1.0" encoding="UTF-8" standalone="no"?>
<svg
   version="1.1"
   viewBox="0 0 38.414478 32.324512"
   id="svg534"
   width="38.414478"
   height="32.324512"
   xmlns="http://www.w3.org/2000/svg"
   xmlns:svg="http://www.w3.org/2000/svg">
  <defs
     id="defs534" />
  <g
     id="g568"
     transform="translate(-166.67303,-117.29549)">
    <path
       fill="#fecb4b"
       d="m 175.74,136.29 q -0.58,0.12 -1.5,-0.86 c -1.19,-1.27 -0.98,-2.74 -1.12,-4.52 a 1.2,1.19 85.5 0 0 -1.29,-1.11 l -3.56,0.28 a 1.43,1.43 0 0 1 -1.54,-1.32 l -0.05,-0.63 a 1.4,1.4 0 0 1 1.16,-1.52 q 2.35,-0.4 3.98,-2.16 c 1.39,-1.5 1.06,-4.08 1.51,-6 a 1.48,1.48 0 0 1 2.92,0.22 l 0.23,2.92 a 3.51,3.49 -81.3 0 0 2.17,2.97 l 3.65,1.46 a 1.56,1.56 0 0 1 -0.18,2.96 l -3.23,0.87 a 1.58,1.58 0 0 0 -1.15,1.26 q -0.24,1.39 -0.18,2.66 a 2.47,2.3 83 0 1 -1.82,2.52 z"
       id="path322" />
    <path
       fill="#fecb4b"
       d="m 190.09,135.72 a 0.62,0.62 0 0 1 0.22,-0.93 q 2.89,-1.42 4.38,-3.79 c 1.24,-1.97 0.56,-4.84 1.7,-6.92 a 0.55,0.55 0 0 1 1.01,0.09 l 1.48,4.44 a 1.95,1.69 -74.6 0 0 0.22,0.46 q 1.54,2.29 5.29,3.69 a 1.08,1.08 0 0 1 0,2.02 c -3.74,1.4 -3.04,3.65 -4.68,6.56 a 1.11,1.11 0 0 1 -2.02,-0.21 q -0.72,-2.24 -1.73,-3.39 a 2.5,2.48 73.5 0 0 -1.46,-0.8 q -1.45,-0.24 -3.31,-0.59 -0.71,-0.13 -1.1,-0.63 z"
       id="path328" />
    <circle
       fill="#fecb4b"
       cx="186.91"
       cy="146.94"
       r="2.6800001"
       id="circle339" />
  </g>
</svg>
