<?xml version="1.0" encoding="UTF-8" standalone="no"?>
<svg
   version="1.1"
   viewBox="0 0 20.057531 17.693407"
   id="svg527"
   width="20.057531"
   height="17.693407"
   xmlns="http://www.w3.org/2000/svg"
   xmlns:svg="http://www.w3.org/2000/svg">
  <defs
     id="defs527" />
  <path
     fill="#60cffc"
     d="m 13.412119,11.145183 a 0.99,0.98 77.9 0 0 -0.75,1.17 q 0.88,4.28 -1.97,5.24 a 2.6,2.6 0 0 1 -2.9299996,-0.92 q -0.96,-1.3 -1.12,-3.67 a 0.86,0.86 0 0 0 -0.99,-0.8 q -2.17,0.33 -3.53,0.06 A 2.63,2.83 1.6 0 1 0.02211943,9.8351831 c -0.3,-2.32 2.51999997,-3.32 4.30999997,-3.44 a 1.05,1.06 7.7 0 0 0.92,-0.71 q 0.06,-0.2 0.01,-1.89 c -0.08,-2.54 1.25,-3.88999998 4,-3.78999998 A 2.42,2.44 85.8 0 1 11.552119,1.9651831 l 0.59,2.98 a 0.87,0.87 0 0 0 1.13,0.66 c 2.12,-0.7 8.21,-0.73 6.48,3.11 -1.04,2.2899999 -4.99,2.1199999 -6.34,2.4299999 z M 9.6083194,3.4297831 a 0.93,0.93 0 0 0 -0.9445,-0.9153 l -0.12,0.002 a 0.93,0.93 0 0 0 -0.9152,0.9445 l 0.0273,1.7397 a 0.93,0.93 0 0 0 0.9445,0.9153 l 0.12,-0.002 a 0.93,0.93 0 0 0 0.9152,-0.9445 z m 3.8537996,4.6295 a 0.39,1.18 89.8 0 0 1.1814,0.3859 0.39,1.18 89.8 0 0 1.1786,-0.3941 0.39,1.18 89.8 0 0 -1.1814,-0.3859 0.39,1.18 89.8 0 0 -1.1786,0.3941 z M 9.0914194,11.926583 a 1.02,0.55 60.6 0 0 0.0215,1.1586 1.02,0.55 60.6 0 0 0.9798996,0.6186 1.02,0.55 60.6 0 0 -0.0215,-1.1586 1.02,0.55 60.6 0 0 -0.9798996,-0.6186 z"
     id="path476" />
</svg>
