<?xml version="1.0" encoding="UTF-8" standalone="no"?>
<svg
   version="1.1"
   viewBox="0 0 22.141987 22.640705"
   id="svg534"
   width="22.141987"
   height="22.640705"
   xmlns="http://www.w3.org/2000/svg"
   xmlns:svg="http://www.w3.org/2000/svg">
  <defs
     id="defs534" />
  <path
     fill="#fecb4b"
     d="m 8.7006413,5.2267033 q 1.25,-1.8 2.6499997,-4 1.15,-1.83 2.74,-0.93 a 1.39,1.4 14.8 0 1 0.7,1.21 v 5.36 a 1.7,1.71 4.1 0 0 1.46,1.69 l 4.49,0.66 a 1.53,1.52 86.5 0 1 1.26,1.1199997 l 0.1,0.37 a 1.18,1.19 81.2 0 1 -1.09,1.49 q -3.82,0.18 -7.58,2.04 a 0.79,0.79 0 0 0 -0.41,0.53 l -1.57,7.19 a 0.88,0.88 0 0 1 -1.5399997,0.36 q -1.86,-2.37 -2.25,-5.53 a 1.19,1.18 71.9 0 0 -1.75,-0.89 q -2.29,1.26 -3.92,1.42 a 1.47,1.48 15.9 0 1 -1.31,-2.37 l 2.58,-3.41 a 1.72,1.71 40.5 0 0 -0.18,-2.2799997 c -1.7,-1.63 -3.6,-3.4 -2.95,-5.45 a 1.85,1.78 26.5 0 1 2.79,-0.88 q 2.33,1.63 4.42,2.65 a 1.09,1.09 0 0 0 1.36,-0.35 z"
     id="path426" />
</svg>
