<?xml version="1.0" encoding="UTF-8" standalone="no"?>
<svg
   version="1.1"
   viewBox="0 0 26.657246 23.466099"
   id="svg534"
   width="26.657246"
   height="23.466099"
   xmlns="http://www.w3.org/2000/svg"
   xmlns:svg="http://www.w3.org/2000/svg">
  <defs
     id="defs534" />
  <g
     id="g557"
     transform="translate(-427.96801,-63.602)">
    <path
       fill="#441e17"
       d="m 448.5484,63.6212 a 4.14,3.94 -84.2 0 1 3.5014,4.517 4.14,3.94 -84.2 0 1 -4.3382,3.7206 4.14,3.94 -84.2 0 1 -3.5014,-4.517 4.14,3.94 -84.2 0 1 4.3382,-3.7206 z M 448.42,67.89 q -0.48,0.05 -0.63,0.28 a 0.67,0.54 -1.8 0 0 0.93,0.71 q 0.39,-0.19 0.16,-0.68 -0.16,-0.35 -0.46,-0.31 z"
       id="path285" />
    <ellipse
       fill="#441e17"
       cx="0"
       cy="0"
       transform="rotate(-96.6,254.47248,-158.90226)"
       rx="3.8199999"
       ry="3.3099999"
       id="ellipse291" />
    <ellipse
       fill="#441e17"
       cx="0"
       cy="0"
       transform="rotate(-84.3,268.0343,-211.47241)"
       rx="3.27"
       ry="2.78"
       id="ellipse292" />
    <path
       fill="#441e17"
       d="m 433.4966,77.0906 a 5.01,4.89 -82.7 0 1 4.2138,5.5907 5.01,4.89 -82.7 0 1 -5.487,4.3481 5.01,4.89 -82.7 0 1 -4.2138,-5.5907 5.01,4.89 -82.7 0 1 5.487,-4.3481 z M 434.02,82 a 0.85,0.8 -60.7 0 0 -1.57,0.49 q 0.11,0.69 1.16,0.88 a 0.46,0.46 0 0 0 0.54,-0.51 q -0.1,-0.77 -0.13,-0.86 z"
       id="path294" />
    <ellipse
       fill="#441e17"
       cx="0"
       cy="0"
       transform="rotate(-160.9,229.84033,4.5770514)"
       rx="3.1300001"
       ry="2.8299999"
       id="ellipse297" />
    <path
       fill="#97844b"
       d="m 434.02,82 q 0.03,0.09 0.13,0.86 a 0.46,0.46 0 0 1 -0.54,0.51 q -1.05,-0.19 -1.16,-0.88 A 0.85,0.8 -60.7 0 1 434.02,82 Z"
       id="path298" />
  </g>
</svg>
