<?xml version="1.0" encoding="UTF-8" standalone="no"?>
<svg
   version="1.1"
   viewBox="0 0 77.707542 45.558105"
   id="svg534"
   width="77.707542"
   height="45.558105"
   xmlns="http://www.w3.org/2000/svg"
   xmlns:svg="http://www.w3.org/2000/svg">
  <defs
     id="defs534" />
  <g
     id="g550"
     transform="translate(-158.44783,-241.89842)">
    <path
       fill="#c7d839"
       d="m 179.32,268.39 a 0.62,0.62 0 0 1 -0.8,-0.34 c -1.21,-2.96 1.96,-9.43 3.6,-11.95 2.47,-3.79 10.95,-14.35 15.46,-14.2 a 0.8,0.8 0 0 1 0.62,1.26 q -2.28,3.15 -6.23,9.67 c -2.86,4.71 -6.07,7.62 -9.44,11.45 q -0.61,0.69 -1.64,3.13 a 1.11,1.09 0.5 0 1 -0.62,0.6 z"
       id="path482" />
    <path
       fill="#c7d839"
       d="m 174.53,278.89 0.92,0.04 7.15,1.08 a 4.55,4.55 0 0 1 1.78,0.66 l 6.49,4.09 a 1.41,1.41 0 0 1 -0.61,2.59 q -5.63,0.57 -11,-1.91 -8.08,-3.73 -9.8,-4.48 a 3.19,3.18 -55 0 0 -3.49,0.62 l -4.51,4.35 a 0.3,0.23 8.3 0 1 -0.13,0.07 l -1.76,0.47 a 0.89,0.89 0 0 1 -0.86,-1.49 l 8.43,-8.43 a 0.42,0.41 -52.2 0 0 -0.08,-0.65 q -0.88,-0.52 -0.74,-1.87 0.75,-7.06 2.66,-11.51 a 0.82,0.69 -18.1 0 1 0.15,-0.24 l 7.18,-8.5 a 1.03,1.02 61.9 0 1 1.8,0.55 l 0.14,1.2 a 0.98,0.94 -39 0 1 -0.06,0.47 l -5.07,12.58 a 5.36,5.3 78.7 0 1 -1.14,1.73 q -2.08,2.08 -3.16,4.46 a 0.27,0.27 0 0 0 0.39,0.33 c 0.88,-0.58 2.01,-1.69 3.26,-2.26 q 1.86,-0.84 7.54,-4.33 0.13,-0.08 1.54,-0.76 8.18,-4 13.52,-5.07 a 1.76,1.75 10.3 0 0 1.14,-0.79 q 3.2,-5.11 5.72,-9.7 0.99,-1.8 2.96,-3.65 a 3.46,3.27 -80.3 0 1 0.68,-0.51 q 3.23,-1.82 7.87,-4.03 1.9,-0.9 3.67,-0.28 a 1.34,1.34 0 0 1 0.51,2.21 l -14.45,14.45 a 0.44,0.43 -70.6 0 0 0.35,0.74 l 2.78,-0.32 a 1.27,1.15 -61.7 0 0 0.51,-0.18 q 7.09,-4.49 12.22,-5.04 c 4.06,-0.44 15.35,-0.93 16.95,1.8 a 1.3,1.3 0 0 1 -0.67,1.87 c -7.08,2.65 -15.45,5.06 -22.92,4.08 q -4.3,-0.56 -9.85,0 -0.78,0.08 -1.09,0.6 a 0.62,0.6 18.8 0 0 0.46,0.91 c 3.69,0.5 9,0.92 12.31,2.84 2.74,1.57 7.27,4.38 7.59,6.71 a 1.13,1.12 -3.7 0 1 -1.13,1.28 c -4.29,-0.03 -7.21,-1.24 -11.87,-3.33 q -7.17,-3.22 -11.04,-6.69 a 1.21,1.21 0 0 0 -1.06,-0.28 l -3.7,0.84 a 6.95,6.29 -8.1 0 0 -0.94,0.28 l -6.03,2.26 a 0.79,0.79 0 0 0 -0.3,1.27 q 0.28,0.32 1.09,0.47 7.84,1.45 14.66,6.39 c 2.58,1.88 3.72,2.47 4.2,5.15 a 0.83,0.83 0 0 1 -1,0.96 q -1.67,-0.35 -6.87,-1.82 c -5.88,-1.65 -11.77,-5.91 -16.56,-9.41 a 0.99,0.97 -41.4 0 0 -1.07,-0.06 l -9.17,5.3 a 0.8,0.8 0 0 0 0.3,1.49 z"
       id="path484" />
  </g>
</svg>
