<?xml version="1.0" encoding="UTF-8" standalone="no"?>
<svg
   version="1.1"
   viewBox="0 0 84.936874 28.059584"
   id="svg325"
   width="84.936874"
   height="28.059584"
   xmlns="http://www.w3.org/2000/svg"
   xmlns:svg="http://www.w3.org/2000/svg">
  <defs
     id="defs325" />
  <path
     fill="#f4b158"
     d="m 50.193295,5.6776568 q 0.27,0.15 0.81,0.09 a 1.08,1.09 64.9 0 1 0.87,0.31 q 3.38,3.23 4.04,6.5000002 a 1.1,1.1 0 0 0 0.72,0.81 q 2.34,0.76 5.43,2.17 a 0.73,0.78 59.1 0 0 0.32,0.07 l 8.48,0.35 a 0.58,0.53 29.4 0 0 0.31,-0.07 l 4.25,-2.46 a 1.73,1.73 0 0 1 1.99,0.19 l 7.27,6.25 a 0.72,0.72 0 0 1 0.03,1.07 q -4.54,4.24 -6.67,5.19 c -4.24,1.89 -10.12,2.43 -15.26,1.39 q -1.76,-0.36 -5.1,-0.59 -1.96,-0.14 -5.26,-2.5 -6.46,-4.63 -10.18,-11.73 a 0.86,0.87 77.7 0 0 -0.74,-0.47 q -1.84,-0.08 -3.75,1.14 -5.19,3.31 -7.82,4.66 a 4.02,4.18 8.1 0 0 -1.24,0.97 c -3.95,4.56 -9.68,1.98 -14.37,2.07 a 2.53,2.45 56.2 0 1 -1.02,-0.22 c -3.13,-1.43 -6.4299998,-1.85 -9.5799998,-5.19 a 2.18,2.17 75 0 0 -1.09,-0.63 l -2.11999998,-0.5 a 0.67,0.67 0 0 1 -0.48,-0.86 q 0.63,-1.89 1.63999998,-2.69 3.63,-2.8500002 6.14,-5.4900002 a 0.82,0.81 36.1 0 1 0.98,-0.15 l 7.6799998,4.17 a 1.59,1.64 58.7 0 0 0.84,0.19 l 4.51,-0.18 a 3.4,3.37 22.8 0 0 2.11,-0.85 l 4.87,-4.37 a 2.58,2.59 16.5 0 1 1.03,-0.56 l 3.38,-0.93 a 2.54,2.96 26.6 0 0 0.62,-0.26 c 2.44,-1.37 4.45,-2.67999998 6.99,-2.55999998 q 5.24,0.26 9.26,2.50999998 a 1.57,1.57 0 0 1 0.37,2.45 q -0.01,0.01 -0.21,0.08 a 0.35,0.35 0 0 0 -0.05,0.63 z"
     id="path296" />
</svg>
