<?xml version="1.0" encoding="UTF-8" standalone="no"?>
<svg
   version="1.1"
   viewBox="0 0 14.960581 17.760067"
   id="svg527"
   width="14.960581"
   height="17.760067"
   xmlns="http://www.w3.org/2000/svg"
   xmlns:svg="http://www.w3.org/2000/svg">
  <defs
     id="defs527" />
  <path
     fill="#60cffc"
     d="m 7.5590046,3.2826897 q 0.3,0.02 0.45,-0.19 1.72,-2.58000003 4.7800004,-2.19000003 a 2.44,2.44 0 0 1 2.08,2.01000003 c 0.75,4.62 -3.27,10.0700003 -6.1000004,13.4200003 q -1.29,1.53 -2.51,1.42 -1.23,-0.12 -2.22,-1.85 c -2.19,-3.8 -5.17,-9.8800003 -3.59999997,-14.2900003 A 2.44,2.44 0 0 1 2.8490046,0.00268967 q 3.08,0.17 4.31,3.02000003 0.1,0.23 0.4,0.26 z m 3.8200004,0.13 q -2.4700004,1.61 -3.4400004,4.32 a 0.83,0.83 0 0 1 -1.57,-0.03 c -0.7,-2.26 -1.05,-4.2 -2.47,-5.28 a 1.02,1.02 0 0 0 -1.62,0.67 c -0.54,3.76 1.89,8.7000003 4.02,11.9200003 a 0.4,0.41 46.3 0 0 0.67,0.01 c 1.71,-2.4 5.6100004,-7.6500003 5.4900004,-11.0400003 a 0.7,0.7 0 0 0 -1.08,-0.57 z"
     id="path348" />
</svg>
