<?xml version="1.0" encoding="UTF-8" standalone="no"?>
<svg
   version="1.1"
   viewBox="0 0 15.19415 16.206387"
   id="svg534"
   width="15.19415"
   height="16.206387"
   xmlns="http://www.w3.org/2000/svg"
   xmlns:svg="http://www.w3.org/2000/svg">
  <defs
     id="defs534" />
  <path
     fill="#f18808"
     d="m 5.1700701,4.6737895 q -0.13,-2.71 1.35,-4.28000002 a 1.27,1.26 53.4 0 1 2.05,0.31 L 10.19007,3.9537895 a 0.81,0.82 63.6 0 0 1.09,0.36 l 2.41,-1.2 a 0.91,0.92 63.3 0 1 1.22,0.4 c 1.05,2.05 -1.08,3.64 -2.02,5.27 a 0.95,0.95 0 0 0 0,0.96 l 1.5,2.6099995 a 1.15,1.14 60.1 0 1 -0.42,1.57 q -2.01,1.13 -4.0999999,-0.47 a 0.7,0.71 48.9 0 0 -0.8,-0.05 q -1.79,1.07 -2.69,2.17 a 1.76,1.76 0 0 1 -2.99,-1.77 l 0.88,-2.2 a 0.77,0.77 0 0 0 -0.42,-1 L 0.42007011,9.2237895 a 0.68,0.69 10.4 0 1 -0.420000003272,-0.62 c -0.0099999967,-2.08 1.049999993272,-3.05 3.049999993272,-2.9 q 1.23,0.1 1.65,-0.15 a 0.97,0.97 0 0 0 0.47,-0.88 z"
     id="path277" />
</svg>
