<?xml version="1.0" encoding="UTF-8" standalone="no"?>
<svg
   version="1.1"
   viewBox="0 0 37.649609 33.882626"
   id="svg534"
   width="37.649609"
   height="33.882626"
   xmlns="http://www.w3.org/2000/svg"
   xmlns:svg="http://www.w3.org/2000/svg">
  <defs
     id="defs534" />
  <g
     id="g558"
     transform="translate(-476.74849,-33.589462)">
    <path
       fill="#fecb4b"
       d="m 480.23,45.9 3.56,-0.02 h 1.46 l 0.96,-0.02 3.57,-0.31 a 0.73,0.73 0 0 0 0.66,-0.61 q 0.46,-2.86 0.6,-7.4 0.08,-2.54 2.01,-3.8 A 0.94,0.93 42.3 0 1 494,33.7 q 1.57,0.83 1.56,2.93 a 1.52,1.5 30.5 0 0 0.2,0.75 l 4.1,7.09 a 1.08,1.07 -15.6 0 0 0.97,0.54 l 11.59,-0.53 a 0.96,0.92 -28.9 0 1 0.53,0.14 q 1.61,1 1.43,2.01 c -0.47,2.7 -5.91,6.56 -8.32,8.33 a 1.78,1.77 56.1 0 0 -0.46,2.38 c 1.73,2.76 3.4,4.87 3.74,7.39 0.39,2.83 -2.87,2.8 -4.42,1.8 q -6.31,-4.07 -7.53,-4.58 a 0.99,0.98 38.9 0 0 -0.96,0.1 c -2.3,1.62 -3.5,3.52 -4.93,4.78 a 2.58,2.58 0 0 1 -3.68,-0.28 c -1.51,-1.8 -0.18,-6.98 0.38,-9.44 a 1.15,1.13 21.4 0 0 -0.55,-1.23 c -2.64,-1.48 -4.1,-2.42 -6.7,-3.44 q -1.85,-0.72 -3.16,-1.76 a 2.66,2.52 35.4 0 1 -0.67,-3.4 q 0.85,-1.36 3.11,-1.38 z m 22.1502,3.7657 a 1.55,1.02 -179.1 0 0 1.5338,1.0442 1.55,1.02 -179.1 0 0 1.5658,-0.9956 1.55,1.02 -179.1 0 0 -1.5338,-1.0442 1.55,1.02 -179.1 0 0 -1.5658,0.9956 z m -6.9502,5.6943 2.53,-0.37 a 1.08,1.08 0 0 0 0.91,-1.22 L 498.6,51.9 a 2.89,1.76 81.7 0 0 -2.16,-2.61 l -1.19,0.18 a 2.89,1.76 81.7 0 0 -1.32,3.11 l 0.27,1.87 a 1.08,1.08 0 0 0 1.23,0.91 z m -6.6,-4.9 a 0.51,0.51 0 0 0 -0.51,-0.51 0.51,0.51 0 0 0 -0.51,0.51 0.51,0.51 0 0 0 0.51,0.51 0.51,0.51 0 0 0 0.51,-0.51 z"
       id="path271" />
    <path
       fill="#b29c50"
       d="m 483.79,45.88 -3.56,0.02 z"
       id="path273" />
    <path
       fill="#b29c50"
       d="m 486.21,45.86 -0.96,0.02 z"
       id="path274" />
  </g>
</svg>
