<?xml version="1.0" encoding="UTF-8" standalone="no"?>
<svg
   version="1.1"
   viewBox="0 0 17.681244 20.232632"
   id="svg527"
   width="17.681244"
   height="20.232632"
   xmlns="http://www.w3.org/2000/svg"
   xmlns:svg="http://www.w3.org/2000/svg">
  <defs
     id="defs527" />
  <path
     fill="#1858a1"
     d="m 8.8944353,15.959277 c -1.64,1.27 -3.04,3.44 -4.64,4.17 a 1.12,1.13 84.2 0 1 -1.57,-1.28 l 1.39,-5.73 a 0.9,0.91 19 0 0 -0.5,-1.03 l -2.64000002,-1.24 A 1.64,1.64 0 0 1 1.1644353,7.7992771 l 4.08,-1.21 a 1.51,1.53 85.7 0 0 1.07,-1.23 q 0.42,-2.94 1.52,-4.9 a 0.89,0.9 51.4 0 1 1.64,0.18 l 1.3499997,4.54 a 1.16,1.15 79.3 0 0 1.19,0.82 l 4.17,-0.34 a 1.38,1.38 0 0 1 0.93,2.49 l -2.95,2.1499999 a 1.56,1.56 0 0 0 -0.57,1.7 l 1.44,4.86 a 1.03,1.02 0.3 0 1 -1.29,1.27 q -2.16,-0.66 -3.9799997,-2.16 a 0.7,0.7 0 0 0 -0.87,-0.01 z"
     id="path338" />
</svg>
