<?xml version="1.0" encoding="UTF-8" standalone="no"?>
<svg
   version="1.1"
   viewBox="0 0 38.159512 35.132317"
   id="svg527"
   width="38.159512"
   height="35.132317"
   xmlns="http://www.w3.org/2000/svg"
   xmlns:svg="http://www.w3.org/2000/svg">
  <defs
     id="defs527" />
  <g
     id="g550"
     transform="translate(-131.14396,-165.78299)">
    <ellipse
       fill="#c6d93c"
       cx="0"
       cy="0"
       transform="rotate(-111.9,128.69135,36.872507)"
       rx="4.5599999"
       ry="0.99000001"
       id="ellipse354" />
    <rect
       fill="#c6d93c"
       x="-0.85000002"
       y="-3.1700001"
       transform="rotate(-0.1,97363.474,-86162.415)"
       width="1.7"
       height="6.3400002"
       rx="0.81"
       id="rect354" />
    <rect
       fill="#c6d93c"
       x="-0.89999998"
       y="-3.5999999"
       transform="rotate(31,-228.88504,369.49165)"
       width="1.8"
       height="7.1999998"
       rx="0.68000001"
       id="rect355" />
    <ellipse
       fill="#c6d93c"
       cx="0"
       cy="0"
       transform="rotate(-155.3,88.074068,72.630942)"
       rx="3.24"
       ry="1.13"
       id="ellipse357" />
    <path
       fill="#d0b96d"
       d="m 142.89,200.05 c -0.37,-2.27 1.49,-5.5 2.23,-7.26 a 0.78,0.77 32.8 0 0 -0.19,-0.87 c -4.2,-3.85 -5.53,-9.07 -1.7,-13.72 3.33,-4.04 8.64,-4.72 12.94,-1.81 q 4.79,3.25 3.71,10.02 a 4.45,4.45 0 0 1 -0.54,1.52 l -1.59,2.74 a 0.49,0.49 0 0 0 0.13,0.63 l 3.72,2.84 a 0.91,0.91 0 0 1 0.24,1.17 l -0.14,0.23 a 0.57,0.57 0 0 1 -0.81,0.19 l -4.55,-3.06 a 0.91,0.9 -40.9 0 0 -0.9,-0.06 q -4.31,2.16 -8.39,0.41 a 0.6,0.6 0 0 0 -0.83,0.48 q -0.51,4.51 -2.31,6.81 a 0.58,0.57 -30.6 0 1 -1.02,-0.26 z m 15.32,-15.89 a 7.54,7.54 0 0 0 -7.54,-7.54 7.54,7.54 0 0 0 -7.54,7.54 7.54,7.54 0 0 0 7.54,7.54 7.54,7.54 0 0 0 7.54,-7.54 z"
       id="path358" />
    <rect
       fill="#c6d93c"
       x="-3.01"
       y="-0.86000001"
       transform="rotate(-21.4,549.50363,-341.30678)"
       width="6.02"
       height="1.72"
       rx="0.66000003"
       id="rect359" />
    <path
       fill="#d0b96d"
       d="m 156.24,184.17 a 6.21,6.21 0 0 1 -6.21,6.21 6.21,6.21 0 0 1 -6.21,-6.21 6.21,6.21 0 0 1 6.21,-6.21 6.21,6.21 0 0 1 6.21,6.21 z m -5.08,3.3 q -0.36,0.04 -0.63,0.32 -2.87,-0.61 -3.54,-3.28 a 1.36,1.34 51.7 0 1 0.1,-0.9 q 1.25,-2.47 3.42,-2.59 a 1.53,1.52 67.4 0 1 1.22,0.51 l 1.7,1.94 a 0.38,0.38 0 0 0 0.65,-0.37 c -2.46,-7.26 -12.51,-0.06 -6.16,4.55 q 2.5,1.82 5.84,-1.19 a 0.14,0.14 0 0 0 0.03,-0.17 l -0.18,-0.4 a 0.3,0.29 -32.3 0 0 -0.46,-0.1 z m 0.34,-3.19 a 1.27,1.27 0 0 0 -1.27,-1.27 1.27,1.27 0 0 0 -1.27,1.27 1.27,1.27 0 0 0 1.27,1.27 1.27,1.27 0 0 0 1.27,-1.27 z"
       id="path362" />
    <rect
       fill="#d0b96d"
       x="-3.8800001"
       y="-1.12"
       transform="rotate(-4,2693.3112,-1841.5385)"
       width="7.7600002"
       height="2.24"
       rx="1.08"
       id="rect364" />
    <rect
       fill="#c6d93c"
       x="-4.1399999"
       y="-0.82999998"
       transform="rotate(13,-731.173,817.86643)"
       width="8.2799997"
       height="1.66"
       rx="0.79000002"
       id="rect365" />
    <path
       fill="#2e2411"
       d="m 151.16,187.47 q 0.05,0.13 0.02,0.21 a 0.49,0.23 -7.2 0 1 -0.35,0.22 q -0.17,0.04 -0.3,-0.11 0.27,-0.28 0.63,-0.32 z"
       id="path366" />
    <path
       fill="#d0b96d"
       d="m 136.87,190.22 a 0.43,0.43 0 0 1 0.23,-0.57 l 1.16,-0.48 a 1.69,0.91 -22.8 0 1 1.91,0.18 l 0.15,0.35 a 1.69,0.91 -22.8 0 1 -1.2,1.49 l -1.17,0.49 a 0.43,0.43 0 0 1 -0.56,-0.23 z"
       id="path368" />
    <ellipse
       fill="#d0b96d"
       cx="0"
       cy="0"
       transform="rotate(-106.3,150.60884,41.591489)"
       rx="3.21"
       ry="1.0599999"
       id="ellipse376" />
  </g>
</svg>
