<?xml version="1.0" encoding="UTF-8" standalone="no"?>
<svg
   version="1.1"
   viewBox="0 0 47.013012 50.289227"
   id="svg534"
   width="47.013012"
   height="50.289227"
   xmlns="http://www.w3.org/2000/svg"
   xmlns:svg="http://www.w3.org/2000/svg">
  <defs
     id="defs534" />
  <g
     id="g551"
     transform="translate(-85.417585,-202.83606)">
    <rect
       fill="#fecb4b"
       x="-1.4400001"
       y="-6.8099999"
       transform="rotate(-25.1,520.44692,-123.08732)"
       width="2.8800001"
       height="13.62"
       rx="1.41"
       id="rect411" />
    <rect
       fill="#fecb4b"
       x="-1.34"
       y="-5.2399998"
       transform="rotate(20.2,-530.71103,431.11268)"
       width="2.6800001"
       height="10.48"
       rx="1.28"
       id="rect413" />
    <rect
       fill="#fecb4b"
       x="-6.1300001"
       y="-1.35"
       transform="rotate(-22.9,599.60095,-202.61589)"
       width="12.26"
       height="2.7"
       rx="1.3"
       id="rect428" />
    <path
       fill="#fecb4b"
       d="m 115.47,223.73 a 6.1,6.1 0 0 1 -6.1,6.1 6.1,6.1 0 0 1 -6.1,-6.1 6.1,6.1 0 0 1 6.1,-6.1 6.1,6.1 0 0 1 6.1,6.1 z m -7.36,0.08 a 0.37,0.32 -88 0 0 0.45,-0.48 q -0.11,-0.3 -0.28,-0.32 c -0.48,-0.08 -0.45,0.63 -0.17,0.8 z"
       id="path449" />
    <path
       fill="#fecb4b"
       d="m 94.71,222.52 0.95,-1.65 a 0.66,0.65 19.9 0 1 0.7,-0.32 q 1.18,0.23 2.24,0.97 a 0.71,0.71 0 0 1 -0.02,1.18 q -0.85,0.55 -2.61,0.41 c -4.64,-0.34 -9,-0.38 -10.01,-0.91 a 1.01,1 50.9 0 1 0.19,-1.86 q 2.35,-0.65 6.27,-0.09 a 1.1,1.09 80.3 0 1 0.82,0.59 q 0.3,0.6 0.36,1.43 a 0.6,0.6 0 0 0 1.11,0.25 z"
       id="path454" />
    <rect
       fill="#fecb4b"
       x="-8.0100002"
       y="-1.23"
       transform="rotate(25.3,-458.18144,395.47089)"
       width="16.02"
       height="2.46"
       rx="1.2"
       id="rect469" />
    <ellipse
       fill="#fecb4b"
       cx="0"
       cy="0"
       transform="rotate(-45.9,327.18801,5.7144356)"
       rx="7.5"
       ry="1.5700001"
       id="ellipse470" />
    <rect
       fill="#fecb4b"
       x="-1.27"
       y="-9.1599998"
       transform="rotate(-3.8,3732.4771,-1540.0336)"
       width="2.54"
       height="18.32"
       rx="1.23"
       id="rect477" />
  </g>
  <path
     fill="#64cb35"
     d="m 65.842415,40.073936 a 1.08,1.07 7.1 0 1 0.96,1.23 l -1.56,9.97 a 3.75,4.1 57.9 0 1 -0.25,0.9 q -2.12,5.11 -3.26,7.46 -3.81,7.85 -11.97,12.18 -10.28,5.46 -20.36,3.58 a 2.57,2.55 41.5 0 0 -1.24,0.07 l -7.1,2.26 a 1.67,1.67 0 0 1 -2.11,-1.1 l -0.01,-0.02 a 1.36,1.35 71.8 0 1 0.81,-1.62 l 5.9,-2.29 a 2.51,2.46 4.3 0 0 1.21,-1.02 q 6.78,-11.15 13.45,-18.95 a 4.32,4.94 5.6 0 1 0.65,-0.61 q 8.23,-6.31 17.93,-9.31 c 2.71,-0.84 3.96,-3.01 6.95,-2.73 z m -11.55,8.39 a 0.35,0.35 0 0 0 -0.34,-0.59 q -11.7,4.21 -17.36,14.72 a 0.26,0.25 84.6 0 0 0.38,0.32 z m -18.09,19.27 7.63,-5.17 q 0.02,-0.01 0.04,-0.02 l 1.93,-1.12 a 1.89,1.61 4.6 0 0 0.36,-0.26 q 5.33,-5.09 10.66,-9.73 0.82,-0.72 1.64,-2.7 a 0.3,0.3 0 0 0 -0.46,-0.35 l -15.9,12.64 a 0.7,0.7 0 0 0 -0.14,0.14 q -2.26,2.9 -5.07,4.94 -0.1,0.08 -0.91,1.42 a 0.16,0.16 0 0 0 0.22,0.21 z m 21.34,-13.01 q -1.78,1 -7.23,6.07 c -4.34,4.02 -9.33,7.93 -14.41,10.67 a 0.19,0.19 0 0 0 0.09,0.36 q 1.36,0.02 2.9,-0.85 4.99,-2.8 9.84,-5.73 a 5.41,5.5 5.9 0 0 1.28,-1.06 q 3.22,-3.57 7.17,-7.65 0.11,-0.11 0.71,-1.5 a 0.25,0.25 0 0 0 -0.35,-0.31 z m -12.31,16.21 q 8.89,-3.27 12.78,-10.76 a 0.25,0.25 0 0 0 -0.37,-0.31 q -0.9,0.69 -1.79,1.8 -3.01,3.75 -5.47,5.31 -5.09,3.22 -5.42,3.48 a 0.28,0.28 0 0 0 0.27,0.48 z"
     id="path483" />
  <path
     fill="#f18808"
     d="m 8.2024146,65.503936 a 3.86,3.87 56.2 0 1 -0.58,2.92 c -1.75,2.6 -5.51,6.49 -8.38000001,7.11 -4.70999999,1.03 -8.16999999,-0.33 -12.67999959,-2.53 a 3.54,3.6 79.5 0 1 -0.77,-0.52 q -4.77,-4.18 -3.99,-10.83 c 0.44,-3.76 2.59,-6.26 5.62,-8.86 6.9999996,-5.99 17.4799996,-3.53 19.4099996,6 q 1.28,6.27 1.37,6.71 z m -11.57,-13.49 6.5,4.12 a 0.26,0.26 0 0 0 0.37,-0.35 q -2.04,-3.69 -6.81,-3.97 a 0.11,0.11 0 0 0 -0.06,0.2 z m -5.3,10.55 q 1.37,-3.32 4.5,-4.23 a 0.3,0.3 0 0 0 0.21,-0.37 l -0.01,-0.02 a 0.3,0.3 0 0 0 -0.37,-0.21 c -2.4,0.67 -4.81,1.9 -4.82,4.73 a 0.26,0.25 56.4 0 0 0.49,0.1 z m -5.6399996,0.8 q 0.16,2.58 1.46,3.71 a 0.27,0.27 0 0 0 0.43,-0.3 q -0.76,-2.02 -0.85,-3.48 -0.09,-1.45 0.4,-3.55 a 0.27,0.27 0 0 0 -0.47,-0.25 q -1.14,1.29 -0.97,3.87 z m 17.9299996,-1.06 q 0.14,-2.49 -0.97,-2.41 a 0.2,0.21 78.1 0 0 -0.18,0.27 l 0.76,2.19 a 0.2,0.2 0 0 0 0.39,-0.05 z m -0.5921,3.126 a 0.29,0.66 36 0 0 -0.6225,0.3635 0.29,0.66 36 0 0 -0.1533,0.7045 0.29,0.66 36 0 0 0.6225,-0.3635 0.29,0.66 36 0 0 0.1533,-0.7045 z"
     id="path488" />
</svg>
