<?xml version="1.0" encoding="UTF-8" standalone="no"?>
<svg
   version="1.1"
   viewBox="0 0 50.271034 47.877392"
   id="svg527"
   width="50.271034"
   height="47.877392"
   xmlns="http://www.w3.org/2000/svg"
   xmlns:svg="http://www.w3.org/2000/svg">
  <defs
     id="defs527" />
  <g
     id="g544"
     transform="translate(-7.1158287,-7.774913)">
    <rect
       fill="#fac22c"
       x="-1.4299999"
       y="-5.4499998"
       transform="rotate(-3.8,214.73093,-459.87798)"
       width="2.8599999"
       height="10.9"
       rx="1.37"
       id="rect246" />
    <rect
       fill="#fac22c"
       x="-1.46"
       y="-4.3499999"
       transform="rotate(20.1,-21.127619,121.65172)"
       width="2.9200001"
       height="8.6999998"
       rx="1.41"
       id="rect248" />
    <ellipse
       fill="#fac22c"
       cx="0"
       cy="0"
       transform="rotate(-127.7,14.834068,3.8491046)"
       rx="4.6399999"
       ry="1.5599999"
       id="ellipse249" />
    <rect
       fill="#fac22c"
       x="-5.6599998"
       y="-1.47"
       transform="rotate(-23.9,79.946344,-104.83969)"
       width="11.32"
       height="2.9400001"
       rx="1.37"
       id="rect254" />
    <path
       fill="#fac22c"
       d="M 44.32,33.59 A 10.82,10.82 0 0 1 33.5,44.41 10.82,10.82 0 0 1 22.68,33.59 10.82,10.82 0 0 1 33.5,22.77 10.82,10.82 0 0 1 44.32,33.59 Z m -5.5007,-5.8782 a 2.53,0.42 -116.8 0 0 0.7658,2.4476 2.53,0.42 -116.8 0 0 1.5156,2.0688 2.53,0.42 -116.8 0 0 -0.7658,-2.4476 2.53,0.42 -116.8 0 0 -1.5156,-2.0688 z m -5.8371,1.1391 a 1.8,0.43 -154 0 0 1.4293,1.1756 1.8,0.43 -154 0 0 1.8063,0.4026 1.8,0.43 -154 0 0 -1.4293,-1.1756 1.8,0.43 -154 0 0 -1.8063,-0.4026 z m -3.7024,5.7325 a 1.49,0.5 -112.5 0 0 0.1083,1.5679 1.49,0.5 -112.5 0 0 1.0321,1.1853 1.49,0.5 -112.5 0 0 -0.1083,-1.5679 1.49,0.5 -112.5 0 0 -1.0321,-1.1853 z m 4.1702,0.4261 a 0.73,0.54 -170.5 0 0 0.6309,0.6531 0.73,0.54 -170.5 0 0 0.8091,-0.4121 0.73,0.54 -170.5 0 0 -0.6309,-0.6531 0.73,0.54 -170.5 0 0 -0.8091,0.4121 z m 4.7775,4.526 a 1.1,0.27 -27.3 0 0 -1.1013,0.2646 1.1,0.27 -27.3 0 0 -0.8537,0.7444 1.1,0.27 -27.3 0 0 1.1013,-0.2646 1.1,0.27 -27.3 0 0 0.8537,-0.7444 z"
       id="path257" />
    <rect
       fill="#fac22c"
       x="-4.6199999"
       y="-1.53"
       transform="rotate(21.2,-63.723329,58.603741)"
       width="9.2399998"
       height="3.0599999"
       rx="1.46"
       id="rect260" />
    <rect
       fill="#fac22c"
       x="-5.2199998"
       y="-1.47"
       transform="rotate(8.4,-201.71925,372.14437)"
       width="10.44"
       height="2.9400001"
       rx="1.42"
       id="rect265" />
    <rect
       fill="#fac22c"
       x="-6.6799998"
       y="-1.51"
       transform="rotate(-6.3,336.04916,-106.991)"
       width="13.36"
       height="3.02"
       rx="1.46"
       id="rect270" />
    <rect
       fill="#fac22c"
       x="-5.9499998"
       y="-1.51"
       transform="rotate(25.5,-66.780678,134.99169)"
       width="11.9"
       height="3.02"
       rx="1.47"
       id="rect271" />
    <rect
       fill="#fac22c"
       x="-3.6300001"
       y="-1.51"
       transform="rotate(-44.6,67.829757,-3.1144161)"
       width="7.2600002"
       height="3.02"
       rx="1.45"
       id="rect274" />
    <rect
       fill="#fac22c"
       x="-1.53"
       y="-3.9200001"
       transform="rotate(-12.6,242.9088,-164.79983)"
       width="3.0599999"
       height="7.8400002"
       rx="1.33"
       id="rect275" />
    <rect
       fill="#fac22c"
       x="-1.46"
       y="-4.6100001"
       transform="rotate(18,-145.5039,127.02042)"
       width="2.9200001"
       height="9.2200003"
       rx="1.4"
       id="rect276" />
  </g>
</svg>
