<?xml version="1.0" encoding="UTF-8" standalone="no"?>
<svg
   version="1.1"
   viewBox="0 0 44.736076 60.539639"
   id="svg534"
   width="44.736076"
   height="60.539639"
   xmlns="http://www.w3.org/2000/svg"
   xmlns:svg="http://www.w3.org/2000/svg">
  <defs
     id="defs534" />
  <path
     fill="#55c1ef"
     d="m -56.07291,70.03 a 0.77,0.77 0 0 0 0.96,-0.63 l 0.68,-4.63 a 1.17,1.21 66.5 0 1 0.24,-0.58 q 3.64,-4.94 7.27,-6.03 4.83,-1.46 8.53,1.7 a 0.69,0.69 0 0 0 1.1,-0.28 q 3.19,-8.42 12.18,-10.16 1.87,-0.36 4.59,0.97 a 1.92,2.02 87 0 1 0.76,0.65 q 2.19,3.17 2.99,6.78 a 0.74,0.74 0 0 0 1.03,0.51 c 4.41,-2.03 8.05,0.8 10.03,4.61 a 1.03,1.01 34.5 0 1 0.11,0.57 l -0.46,4.61 a 0.69,0.68 2.2 0 0 0.7,0.75 q 6.48,-0.21 9.43,6.45 a 0.63,0.47 36.7 0 1 0.06,0.2 l 0.4,4.19 a 3.22,3.22 0 0 1 -1.96,3.28 c -8.21,3.41 -15.04,3.74 -25.33,4.15 q -18.34,0.72 -34.82,-0.67 -2.1,-0.18 -5.78,-2.2 c -4.77,-2.61 -5.92,-7.89 -2.15,-12.05 q 3.41,-3.76 9.44,-2.19 z m 33.5344,-16.3323 a 1.11,0.53 47.8 0 0 0.353,1.1783 1.11,0.53 47.8 0 0 1.1382,0.4663 1.11,0.53 47.8 0 0 -0.353,-1.1783 1.11,0.53 47.8 0 0 -1.1382,-0.4663 z m -4.7351,6.3554 a 0.81,0.96 87.8 0 0 -0.9904,-0.7725 0.81,0.96 87.8 0 0 -0.9282,0.8463 0.81,0.96 87.8 0 0 0.9904,0.7725 0.81,0.96 87.8 0 0 0.9282,-0.8463 z m -3.471,-0.2864 a 0.33,0.68 56.7 0 0 -0.7495,0.0975 0.33,0.68 56.7 0 0 -0.3871,0.6491 0.33,0.68 56.7 0 0 0.7495,-0.0975 0.33,0.68 56.7 0 0 0.3871,-0.6491 z m 9.9661,0.3159 a 0.9,1.58 67 0 0 -1.8061,-0.2111 0.9,1.58 67 0 0 -1.1027,1.4459 0.9,1.58 67 0 0 1.8061,0.2111 0.9,1.58 67 0 0 1.1027,-1.4459 z m -21.7918,0.8903 a 1.58,0.48 39.6 0 0 0.9114,1.3769 1.58,0.48 39.6 0 0 1.5234,0.6373 1.58,0.48 39.6 0 0 -0.9114,-1.3769 1.58,0.48 39.6 0 0 -1.5234,-0.6373 z m 22.2032,2.4984 a 0.53,0.83 52.2 0 0 -0.9806,0.0899 0.53,0.83 52.2 0 0 -0.331,0.9275 0.53,0.83 52.2 0 0 0.9806,-0.0899 0.53,0.83 52.2 0 0 0.331,-0.9275 z m -23.1077,0.1738 a 0.52,0.9 55.1 0 0 -1.0356,0.0884 0.52,0.9 55.1 0 0 -0.4406,0.9414 0.52,0.9 55.1 0 0 1.0356,-0.0884 0.52,0.9 55.1 0 0 0.4406,-0.9414 z m 25.2168,0.5509 a 0.56,1.71 27.7 0 0 -1.2907,1.2537 0.56,1.71 27.7 0 0 -0.2991,1.7743 0.56,1.71 27.7 0 0 1.2907,-1.2537 0.56,1.71 27.7 0 0 0.2991,-1.7743 z m 4.6751,2.904 q 0.43,0.15 1.64,-0.78 a 0.51,0.51 0 0 0 -0.09,-0.86 q -0.49,-0.23 -0.86,-0.36 -0.38,-0.13 -0.91,-0.24 a 0.51,0.51 0 0 0 -0.6,0.62 q 0.39,1.48 0.82,1.62 z m -25.8357,1.3667 a 0.3,0.46 19.6 0 0 -0.4369,0.3327 0.3,0.46 19.6 0 0 0.1283,0.5339 0.3,0.46 19.6 0 0 0.4369,-0.3327 0.3,0.46 19.6 0 0 -0.1283,-0.5339 z m 36.1701,4.0107 a 0.5,0.95 83.8 0 0 -0.9984,-0.3945 0.5,0.95 83.8 0 0 -0.8904,0.5997 0.5,0.95 83.8 0 0 0.9984,0.3945 0.5,0.95 83.8 0 0 0.8904,-0.5997 z m -7.8344,0.6726 a 0.19039433,0.19039433 0 0 0 0.15,-0.35 q -1.16,-0.66 -2.05,0.31 a 0.28,0.27 31.7 0 0 0.11,0.44 l 0.31,0.12 a 0.46,0.45 24.7 0 0 0.58,-0.21 q 0.24,-0.49 0.9,-0.31 z m -5.8377,0.1859 a 0.71,0.89 6.6 0 0 -0.8076,0.8025 0.71,0.89 6.6 0 0 0.603,0.9657 0.71,0.89 6.6 0 0 0.8076,-0.8025 0.71,0.89 6.6 0 0 -0.603,-0.9657 z m 6.4276,0.5592 a 0.56,1.12 36.1 0 0 -1.1124,0.575 0.56,1.12 36.1 0 0 -0.2074,1.2348 0.56,1.12 36.1 0 0 1.1124,-0.575 0.56,1.12 36.1 0 0 0.2074,-1.2348 z m -38.5299,3.9149 -2.13,-2.08 a 0.2,0.2 0 0 0 -0.28,0 l -0.12,0.12 a 1.68,1.93 44.4 0 0 -0.15,2.55 l 0.01,0.02 a 1.68,1.93 44.4 0 0 2.55,-0.2 l 0.12,-0.13 a 0.2,0.2 0 0 0 0,-0.28 z m 19.25,-1.88 a 0.19,0.25 89.6 0 0 -0.33,-0.25 q -0.37,0.14 -0.37,0.5 a 0.2,0.21 76.5 0 0 0.3,0.18 q 0.2,-0.1 0.4,-0.43 z m 6.97,2.33 -0.33,0.54 q -1.54,-0.21 -1.67,0.58 a 1.18,1.18 0 0 0 1.47,1.34 q 1.64,-0.45 1.19,-1.94 l 0.05,-0.52 q 0.38,-0.5 0.38,-0.76 a 0.4,0.4 0 0 0 -0.72,-0.23 q -0.36,0.47 -0.37,0.99 z"
     id="path276" />
  <g
     id="g537"
     transform="translate(-403.10291)">
    <path
       fill="#f18808"
       d="m 411.78,0 q 0.91,0.1 1.57,0.45 a 0.21,0.21 0 0 1 -0.05,0.39 q -3.83,0.94 -2.07,-0.84 0.27,0 0.55,0 z"
       id="path227" />
    <ellipse
       fill="#f18808"
       cx="0"
       cy="0"
       transform="rotate(-88.9,212.03693,-212.26276)"
       rx="3.05"
       ry="2.23"
       id="ellipse245" />
    <ellipse
       fill="#fecb4b"
       cx="0"
       cy="0"
       transform="rotate(-99.6,219.39009,-167.36629)"
       rx="3.27"
       ry="2.0799999"
       id="ellipse256" />
    <ellipse
       fill="#fecb4b"
       cx="0"
       cy="0"
       transform="rotate(-65.5,234.24157,-327.19725)"
       rx="4.0700002"
       ry="1.97"
       id="ellipse257" />
    <ellipse
       fill="#fecb4b"
       cx="0"
       cy="0"
       transform="rotate(-166.8,206.63176,-9.7916234)"
       rx="3.48"
       ry="2.21"
       id="ellipse262" />
    <path
       fill="#fecb4b"
       d="m 414.12,32.59 q 2.5,-2.74 5.94,-4.88 a 0.84,0.83 -63.9 0 1 0.37,-0.13 l 8.15,-0.84 a 0.93,0.9 -36.6 0 1 0.46,0.06 c 8.53,3.24 10.61,10.66 7.32,18.7 a 2.06,2.05 77.6 0 1 -0.44,0.69 l -3.37,3.65 a 2.93,2.66 -81.5 0 1 -0.6,0.49 q -2.29,1.41 -5.69,1.21 c -7.19,-0.42 -14.46,-3.37 -14.18,-11.82 0.07,-2.2 0.74,-3.76 1.54,-6.25 a 2.41,2.28 -16.9 0 1 0.5,-0.88 z m 17.4948,-0.5819 a 1.66,0.55 -105.2 0 0 -0.0956,1.7461 1.66,0.55 -105.2 0 0 0.966,1.4577 1.66,0.55 -105.2 0 0 0.0956,-1.7461 1.66,0.55 -105.2 0 0 -0.966,-1.4577 z M 431.6,41.2 431.52,37.73 a 2.79,2.76 -63.9 0 0 -0.53,-1.57 q -2.62,-3.61 -7.54,-2.4 a 1.36,1.33 -80.5 0 0 -0.81,0.59 q -1.53,2.51 -2.48,6.16 a 2.23,2.23 0 0 0 1.12,2.53 q 2.56,1.34 5.28,0.18 a 0.62,0.62 0 0 0 0.32,-0.81 l -0.02,-0.04 a 0.65,0.65 0 0 0 -0.83,-0.35 q -3.45,1.28 -4.52,-2.56 a 1.58,1.56 -38 0 1 0.16,-1.22 q 1.76,-2.95 4.9,-2.53 c 3.18,0.43 3.26,4.74 4.61,6.09 a 1.02,1.01 26.7 0 1 0.28,0.83 q -0.13,1.08 0.13,2.11 a 0.33,0.33 0 0 0 0.61,0.06 q 1.73,-3.64 1.13,-7.69 a 0.24,0.24 0 0 0 -0.3,-0.2 l -0.3,0.08 a 0.16,0.14 -13.7 0 0 -0.11,0.16 q 0.35,2.13 -0.65,4.14 A 0.2,0.19 58.1 0 1 431.6,41.2 Z m -13.0418,-6.1197 a 0.44,0.44 0 0 0 -0.2511,-0.5694 l -0.0373,-0.0144 a 0.44,0.44 0 0 0 -0.5693,0.2511 l -1.8587,4.7921 a 0.44,0.44 0 0 0 0.2511,0.5694 l 0.0373,0.0144 a 0.44,0.44 0 0 0 0.5693,-0.2511 z M 425.89,39.17 a 0.57,0.57 0 0 0 -0.57,-0.57 0.57,0.57 0 0 0 -0.57,0.57 0.57,0.57 0 0 0 0.57,0.57 0.57,0.57 0 0 0 0.57,-0.57 z"
       id="path264" />
    <ellipse
       fill="#fecb4b"
       cx="0"
       cy="0"
       transform="rotate(-28.6,288.44557,-854.44263)"
       rx="3.97"
       ry="2.1099999"
       id="ellipse267" />
    <ellipse
       fill="#fecb4b"
       cx="0"
       cy="0"
       transform="rotate(-6.7,544.84448,-3450.9002)"
       rx="3.25"
       ry="2.0999999"
       id="ellipse271" />
    <rect
       fill="#fecb4b"
       x="-3.29"
       y="-1.67"
       transform="rotate(31.3,133.82532,812.44924)"
       width="6.5799999"
       height="3.3399999"
       rx="1.45"
       id="rect272" />
    <ellipse
       fill="#fecb4b"
       cx="0"
       cy="0"
       transform="rotate(-58.7,254.02956,-340.00895)"
       rx="3.21"
       ry="1.9"
       id="ellipse277" />
    <ellipse
       fill="#fecb4b"
       cx="0"
       cy="0"
       transform="rotate(-89,242.30672,-188.57083)"
       rx="3.55"
       ry="2.05"
       id="ellipse278" />
  </g>
</svg>
