<?xml version="1.0" encoding="UTF-8" standalone="no"?>
<svg
   version="1.1"
   viewBox="0 0 67.768158 62.505779"
   id="svg527"
   width="67.768158"
   height="62.505779"
   xmlns="http://www.w3.org/2000/svg"
   xmlns:svg="http://www.w3.org/2000/svg">
  <defs
     id="defs527" />
  <g
     id="g530"
     transform="translate(-441.09148,-261.77485)">
    <path
       fill="#fac22c"
       d="m 466.22,274.68 q -0.7,-0.68 -3.01,-4.72 -1.9,-3.33 -0.59,-7.21 a 1.26,1.24 1.2 0 1 0.85,-0.8 c 2.66,-0.72 3.53,0.87 4.77,3.12 a 3.22,3.17 -59.9 0 1 0.4,1.55 l 0.02,7.02 a 1.44,1.44 0 0 1 -2.44,1.04 z"
       id="path479" />
    <path
       fill="#fac22c"
       d="m 477.46,274.09 2.15,-8.9 a 1.38,1.3 -14.9 0 1 0.44,-0.71 q 2.12,-1.76 3.72,-1.17 a 2.71,2.4 -71.7 0 1 1.38,3.23 q -1.64,5.38 -6.04,8.64 a 1.05,1.05 0 0 1 -1.65,-1.09 z"
       id="path480" />
    <path
       fill="#fac22c"
       d="m 497.78,274.06 a 0.41,0.41 0 0 1 -0.05,0.57 l -1.94,1.62 a 9.91,2.62 -39.8 0 1 -9.29,4.33 l -0.01,-0.02 a 9.91,2.62 -39.8 0 1 5.94,-8.35 l 1.93,-1.62 a 0.41,0.41 0 0 1 0.58,0.05 z"
       id="path486" />
    <ellipse
       fill="#fac22c"
       cx="0"
       cy="0"
       transform="rotate(-136.8,281.66042,48.867385)"
       rx="6.1500001"
       ry="2.6900001"
       id="ellipse487" />
    <path
       fill="#fac22c"
       d="m 456.51,297.56 a 0.22,0.22 0 0 1 -0.26,-0.17 l -0.03,-0.16 a 18.5,17.17 78.9 0 1 13.28,-21.46 l 0.14,-0.03 a 18.5,17.17 78.9 0 1 20.41,14.85 l 0.03,0.16 a 0.22,0.22 0 0 1 -0.17,0.26 z"
       id="path492" />
    <path
       fill="#fac22c"
       d="m 492.32,289.42 a 1.01,1.01 0 0 1 -0.59,-1.74 c 2.83,-2.71 8.13,-5.14 11.94,-3.04 a 1.79,1.62 -55.6 0 1 0.35,2.6 c -2.26,2.78 -8.61,2.52 -11.7,2.18 z"
       id="path496" />
    <path
       fill="#fac22c"
       d="m 442.64,286.33 a 0.21,0.21 0 0 1 0.26,-0.14 l 3.34,1.02 a 9.52,2.85 17 0 1 8.27,5.51 9.52,2.85 17 0 1 -9.94,-0.06 l -3.33,-1.02 a 0.21,0.21 0 0 1 -0.14,-0.26 z"
       id="path501" />
    <path
       fill="#60cffc"
       d="m 507.28,304.59 a 0.8,0.79 -60.6 0 1 0.32,1.16 l -0.22,0.33 a 0.96,0.95 -60.2 0 1 -1.19,0.33 l -10.13,-4.75 a 1.34,1.33 -60.6 0 0 -1.68,0.48 q -2.16,3.27 -4.74,5.8 c -2.41,2.35 -4.7,2.88 -7.44,0.64 q -1.3,-1.07 -5.73,-4.28 a 0.63,0.62 -54.4 0 0 -0.89,0.15 q -3.75,5.55 -6.19,7.36 c -1.49,1.11 -2.97,0.89 -4.44,-0.46 q -2.11,-1.92 -4.95,-4.09 a 1.94,1.93 37.2 0 0 -2.72,0.37 l -5.39,7.06 a 1.1,1.09 35.3 0 1 -1.48,0.25 l -0.37,-0.25 a 0.77,0.76 -54.5 0 1 -0.18,-1.1 l 6.47,-8.48 a 2.67,2.66 37.2 0 1 3.74,-0.5 l 6.5,4.95 a 1.8,1.8 0 0 0 2.53,-0.34 l 5.05,-6.62 a 2,1.99 35.7 0 1 2.7,-0.44 l 7.74,5.2 a 2.51,2.5 35.7 0 0 3.39,-0.55 l 5.04,-6.63 a 2.62,2.62 0 0 1 3.19,-0.78 z"
       id="path507" />
    <path
       fill="#60cffc"
       d="m 477.45,315.44 c -1.96,2.28 -4.06,5.37 -7.46,6.65 a 2.21,2.2 -42.8 0 1 -1.71,-0.06 l -8.51,-3.99 a 2.09,2.09 0 0 0 -2.57,0.65 l -3.84,5.2 a 0.97,0.97 0 0 1 -1.48,0.09 l -0.03,-0.03 a 1.37,1.36 40.2 0 1 -0.15,-1.71 q 1.64,-2.38 3.86,-5.21 2.2,-2.81 5.58,-1.15 4.85,2.4 7.12,3.65 a 1.4,1.37 -38.1 0 0 1.08,0.12 c 3.29,-1.02 5.25,-4.89 6.81,-6.42 a 2.16,2.14 -51.3 0 1 2.72,-0.31 l 7,4.58 a 1.39,1.39 0 0 0 1.59,-0.05 q 3.34,-2.49 6.9,-7.07 0.92,-1.19 3.15,-1.52 a 0.77,0.73 -36.3 0 1 0.4,0.05 l 10.17,3.93 a 1.23,1.21 16 0 1 0.76,1.35 l -0.07,0.42 a 0.63,0.62 15 0 1 -0.83,0.47 l -10.4,-3.81 a 0.93,0.93 0 0 0 -0.91,0.16 q -1.54,1.32 -2.3,2.44 -3.26,4.81 -7.45,6.63 a 1.01,1.01 0 0 1 -0.95,-0.09 l -7.57,-5.09 a 0.69,0.68 37.4 0 0 -0.91,0.12 z"
       id="path515" />
  </g>
</svg>
