<?xml version="1.0" encoding="UTF-8" standalone="no"?>
<svg
   version="1.1"
   viewBox="0 0 27.169209 40.718204"
   id="svg534"
   width="27.169209"
   height="40.718204"
   xmlns="http://www.w3.org/2000/svg"
   xmlns:svg="http://www.w3.org/2000/svg">
  <defs
     id="defs534" />
  <path
     fill="#519cf8"
     d="m 22.991111,31.931558 a 2.34,2.61 63.8 0 1 -1.42,3.51 q -2.15,0.86 -5.4,0.66 a 0.76,0.76 0 0 0 -0.5,1.36 l 1.69,1.28 a 1.07,1.07 0 0 1 -0.52,1.92 q -4.74,0.55 -4.65,-4.24 a 1.32,1.3 21.8 0 0 -0.43,-0.99 q -0.55,-0.49 -2.3499999,-1.3 -4.46,-1.99 -5.17,-7.3 a 3.25,3.23 18.9 0 0 -0.94,-1.9 q -4.14999999,-4.11 -0.74,-9.81 a 1.15,1.14 40 0 0 -0.12,-1.32 q -3.37999999,-3.97 -2.07999999,-7.62 C 1.8411111,1.991558 8.4711111,-0.57844198 12.851111,0.11155802 a 1.55,1.56 88.7 0 1 1.28,1.20999998 l 0.06,0.26 a 0.66,0.66 0 0 1 -0.65,0.8 h -3.44 a 1.94,1.91 29.8 0 0 -0.9499999,0.25 l -4.08,2.36 a 3.75,3.74 69 0 0 -1.79,4.04 l 0.19,0.9 a 1.6,1.6 0 0 0 2.5,0.95 q 3.92,-2.84 8.6699999,-3.23 c 3.24,-0.27 6.4,3.06 4.36,6.33 -2.38,3.83 -8.84,3.32 -12.7099999,2.05 a 0.73,0.74 25.7 0 0 -0.84,0.3 q -1.65,2.55 -0.73,5.42 a 1.11,1.11 0 0 0 1.61,0.62 l 7.8799999,-4.55 a 1.13,1.26 29.3 0 1 0.44,-0.15 c 5.37,-0.6 9.19,-1.74 12.22,3.08 a 1.96,1.93 32.1 0 1 0.29,1.21 c -0.41,4.78 -2.93,5.63 -7.36,6.61 -3.36,0.73 -8.27,-0.37 -10.9799999,-1.23 a 0.93,0.93 0 0 0 -1.08,1.36 c 0.78,1.34 5.0599999,5.12 6.9299999,3.1 2.17,-2.35 6.64,-2.6 8.32,0.13 z m -6.0034,-20.2026 a 1.75,4.3 78.7 0 0 -4.5595,-0.8735 1.75,4.3 78.7 0 0 -3.8736999,2.5587 1.75,4.3 78.7 0 0 4.5594999,0.8735 1.75,4.3 78.7 0 0 3.8737,-2.5587 z m 7.3954,10.3617 a 2.56,6.82 81.9 0 0 -7.1127,-1.5736 2.56,6.82 81.9 0 0 -6.3913,3.4954 2.56,6.82 81.9 0 0 7.1127,1.5736 2.56,6.82 81.9 0 0 6.3913,-3.4954 z"
     id="path311" />
  <g
     id="g553"
     transform="translate(-413.70889,-104.23844)">
    <path
       fill="#f18808"
       d="m 373.16,152.09 a 0.34,0.34 0 0 0 -0.64,0.21 q 0.28,2.14 -0.52,3.4 a 1.48,1.48 0 0 1 -0.74,0.59 q -7.76,2.85 -11.6,3.13 a 1.62,1.62 0 0 1 -1.41,-2.6 l 0.8,-1.06 a 0.54,0.54 0 0 0 -0.78,-0.74 q -2.09,1.8 -3.26,2.98 a 2.87,2.87 0 0 1 -3.34,0.52 c -5.09,-2.62 -1.81,-8.02 0.92,-11.21 q 2.43,-2.84 5.93,-1.03 a 0.6,0.59 -4 0 0 0.76,-0.87 l -0.95,-1.32 a 1.97,1.97 0 0 1 0.56,-2.82 c 2.49,-1.55 11.33,-6.83 14.22,-5.84 a 0.77,0.76 9.7 0 1 0.52,0.72 v 2.8 a 0.6,0.6 0 0 0 1.11,0.32 q 3.56,-5.6 9.68,-3.23 1.64,0.63 1.98,2.08 0.73,3.04 -1.42,3.54 a 0.99,0.98 57.1 0 0 -0.37,1.75 l 1.44,1.1 a 1.47,1.47 0 0 1 0.12,2.24 q -2.66,2.49 -7.32,5.72 c -2.08,1.45 -4.38,2.09 -5.69,-0.38 z m -0.6985,-8.2346 a 4.84,2.63 -28.3 0 0 -5.5084,-0.0211 4.84,2.63 -28.3 0 0 -3.0146,4.6103 4.84,2.63 -28.3 0 0 5.5084,0.0211 4.84,2.63 -28.3 0 0 3.0146,-4.6103 z"
       id="path334" />
    <ellipse
       fill="#441e17"
       cx="0"
       cy="0"
       transform="rotate(-28.3,473.95299,-657.16016)"
       rx="4.8400002"
       ry="2.6300001"
       id="ellipse338" />
    <path
       fill="#f18808"
       d="m 399.95,163.37 -1.53,-0.65 c -1.28,-1.62 -4.74,-3 -3.65,-5.28 a 0.8,0.79 -53 0 0 -0.12,-0.86 q -2.44,-2.83 0.64,-5.43 c 3.39,-2.86 4.88,-0.49 8.06,-0.51 q 4,-0.03 9.13,3.93 2.38,1.84 1.4,3.11 a 0.57,0.57 0 0 0 0.24,0.88 q 3.52,1.38 3.1,6.6 a 1.78,1.77 -81.5 0 1 -2.14,1.59 l -1.73,-0.38 a 0.75,0.73 25.2 0 0 -0.72,0.25 q -0.39,0.48 -0.85,0.48 -4.68,0.01 -7.91,-2.87 a 1.21,1.19 -18.8 0 0 -0.58,-0.28 z m 1.9022,-7.2759 a 4.06,1.86 -151.2 0 0 2.6617,3.5858 4.06,1.86 -151.2 0 0 4.4539,0.326 4.06,1.86 -151.2 0 0 -2.6617,-3.5858 4.06,1.86 -151.2 0 0 -4.4539,-0.326 z"
       id="path345" />
    <ellipse
       fill="#441e17"
       cx="0"
       cy="0"
       transform="rotate(-151.2,222.99517,26.979202)"
       rx="4.0599999"
       ry="1.86"
       id="ellipse349" />
    <path
       fill="#64cb35"
       d="m 398.42,162.72 1.53,0.65 q -0.17,1.33 -0.64,1.69 -10.39,7.96 -13.44,20.47 c -1.38,5.65 -0.43,11.93 -0.82,18.05 a 1.32,1.23 -70.9 0 1 -1.98,1.05 q -0.22,-0.17 -0.33,-0.17 a 0.98,0.96 23.7 0 0 -0.76,0.29 q -0.77,0.79 -1.19,0.85 a 1.85,1.76 87.6 0 1 -1.98,-1.91 q 0.26,-7.67 -3.49,-13.67 -1.03,-1.66 -4.36,-4.88 -2.37,-2.29 -4.57,-4.7 1.27,-0.22 1.75,-1.28 6.75,3.81 10.91,10.56 0.92,1.5 2.69,8.1 a 0.25,0.25 0 0 0 0.3,0.18 l 0.01,-0.01 a 0.21,0.21 0 0 0 0.15,-0.26 c -0.81,-2.85 -0.19,-5.62 -0.32,-8.3 -0.3,-6.59 -0.39,-10.95 -2.34,-16.24 q -1.52,-4.09 -3.79,-10.21 c -0.78,-2.12 -2.25,-4.1 -2.53,-6.32 a 0.76,0.75 -75.7 0 1 1.19,-0.71 q 2.09,1.51 3.06,4.1 2.49,6.61 5.06,13.1 c 0.92,2.33 1.02,4.43 1.84,6.53 a 0.29,0.29 0 0 0 0.53,0.03 q 1.99,-3.56 3.67,-6.71 3.51,-6.62 9.85,-10.28 z"
       id="path350" />
    <path
       fill="#f18808"
       d="m 368.14,179.16 q -0.48,1.06 -1.75,1.28 0.1,-0.89 -0.63,-0.72 a 0.5,0.49 -77.9 0 0 -0.29,0.19 q -3.89,5.2 -9.88,3.93 c -5.69,-1.2 -0.07,-8.3 2.02,-10.45 q 2.48,-2.56 6.88,-3.51 a 2.08,2.02 50.2 0 1 1.23,0.13 l 0.09,0.05 a 1.43,1.41 46.3 0 0 1.31,0.04 c 2.49,-1.21 6.22,1.4 4.14,4.01 a 1.58,1.55 64.9 0 0 -0.35,0.99 q -0.01,1.51 -1.84,2.45 a 1.79,1.76 -89.2 0 0 -0.74,0.73 q -0.33,0.6 -0.19,0.88 z m -3.1978,-5.107 a 3.05,1.63 -36.8 0 0 -3.4186,0.5218 3.05,1.63 -36.8 0 0 -1.4658,3.1322 3.05,1.63 -36.8 0 0 3.4186,-0.5218 3.05,1.63 -36.8 0 0 1.4658,-3.1322 z"
       id="path363" />
    <ellipse
       fill="#441e17"
       cx="0"
       cy="0"
       transform="rotate(-36.8,445.60739,-456.9176)"
       rx="3.05"
       ry="1.63"
       id="ellipse382" />
  </g>
</svg>
