<?xml version="1.0" encoding="UTF-8" standalone="no"?>
<svg
   version="1.1"
   viewBox="0 0 63.211647 63.770302"
   id="svg325"
   width="63.211647"
   height="63.770302"
   xmlns="http://www.w3.org/2000/svg"
   xmlns:svg="http://www.w3.org/2000/svg">
  <defs
     id="defs325" />
  <path
     fill="#d1605b"
     d="m 34.549035,7.2878615 c 0.67,-1.28 1.68,-2.62 2.1,-5.01 q 0.16,-0.91 0.97,-1.91000001 a 1,1 0 0 1 0.9,-0.36 q 2.23,0.27 3.64,1.29000001 a 0.29,0.29 0 0 1 -0.09,0.52 q -0.34,0.1 -0.35,0.11 a 0.97,0.97 0 0 0 0.98,1.65 l 2.44,-0.96 a 1.2,1.2 0 0 1 1.09,0.1 q 6.23,3.94 9.96,9.2099995 0.65,0.93 1.34,4.02 a 8.49,8.8 22.2 0 0 1.05,2.63 q 4.33,7.16 3.72,15.83 a 1.36,1.35 12.6 0 1 -1.84,1.16 q -0.62,-0.25 -1.64,-0.08 a 0.45,0.45 0 0 0 -0.07,0.87 q 0.65,0.21 1.67,-0.23 a 1.26,1.24 44 0 1 0.95,-0.01 q 2.39,1 1.68,3.68 -0.52,1.99 -2.04,1.59 a 0.45,0.45 0 0 0 -0.41,0.78 c 1.92,1.7 1.4,3.93 0.04,6.17 -2.51,4.15 -5.35,10.61 -10.39,10.21 q -1.6,-0.13 -2.59,0.86 -2.86,2.85 -7.08,3.81 -2.71,0.61 -5.39,0.44 -4.02,-0.24 -5.49,-0.44 a 1.88,1.91 35.6 0 0 -1.16,0.2 q -1.66,0.85 -4.1,-0.35 a 0.83,0.82 13.4 0 1 -0.46,-0.74 v -0.66 a 0.47,0.46 84.4 0 0 -0.55,-0.46 q -3.32,0.65 -5.33,-0.68 c -3.5,-2.31 -6.66,-4.05 -9.24,-7.12 -1.54,-1.83 -0.33,-4.4 -1.75,-6.31 a 2.68,2.51 0.6 0 0 -0.66,-0.63 q -3.17,-2.11 -6.15000003,-2.82 a 0.38,0.38 0 0 1 -0.07,-0.72 l 1.89000003,-0.85 a 1.02,1.02 0 0 0 0.59,-1.01 l -0.78,-9.47 a 1.09,1.08 85.3 0 1 0.99,-1.18 l 2.86,-0.23 a 0.5,0.5 0 0 0 0.29,-0.88 q -0.6,-0.52 -1.84,-0.23 -2.22,0.53 -2.51,-1.93 -0.14,-1.23 0.52,-3.38 a 0.37,0.37 0 0 1 0.66,-0.11 l 0.92,1.26 a 0.31,0.32 28.9 0 0 0.57,-0.17 q 0.13,-1.64 -0.82,-2.97 a 1.75,1.75 0 0 1 -0.19,-1.73 q 1.74,-4.08 4.98,-8.84 2.74,-4.0299995 6.05,-4.1399995 a 2.75,2.77 24.8 0 0 1.64,-0.61 c 3.29,-2.61 7.28,-5.53000001 10.52,-5.57000001 q 3.5,-0.03 5.96,-0.55 a 1.12,1.12 0 0 1 1.35,1.01000001 l 0.49,5.91 a 0.09,0.1 55.1 0 0 0.18,0.03 z m -0.8,4.1099995 -0.59,0.58 a 0.74,0.78 18.4 0 1 -0.43,0.23 l -8.8,1.64 a 2.16,2.16 0 0 0 -1.29,0.78 q -1.25,1.63 -4.53,3.42 a 0.45,0.45 0 0 0 0.14,0.84 q 1.38,0.24 2.09,1.47 a 0.54,0.53 56.9 0 0 0.78,0.17 l 1.34,-0.97 a 1.2,1.27 26.7 0 1 0.66,-0.24 q 3.9,-0.27 6.68,-0.19 c 1.75,0.05 2.84,1.86 4.6,1.21 q 3.94,-1.46 7.88,-0.51 c 1.84,0.44 2.74,0.14 3.57,-1.35 a 0.65,0.64 36.8 0 0 -0.12,-0.78 l -6.78,-6.27 a 1.49,1.49 0 0 0 -1.09,-0.4 q -0.66,0.1 -1.75,0.96 a 0.56,0.56 0 0 1 -0.75,-0.04 l -0.55,-0.55 a 0.75,0.75 0 0 0 -1.06,0 z m -17.78,10.13 -2.9,5.03 a 1.46,1.47 45.8 0 0 -0.02,1.43 q 0.96,1.72 1.22,4.1 a 1.78,1.78 0 0 0 1.34,1.54 q 2.72,0.68 5.36,-0.97 a 1.35,1.35 0 0 0 0.45,-1.82 l -0.27,-0.47 a 0.99,0.99 0 0 0 -1.46,-0.3 q -2.3,1.76 -2.68,0.86 c -1.02,-2.44 -0.11,-4.95 0.56,-8.83 a 0.86,0.86 0 0 0 -1.6,-0.57 z m 34.05,12.72 -3.26,1.89 a 2.03,2.02 50 0 1 -2.32,-0.21 q -0.64,-0.53 -1.16,-0.67 a 0.56,0.57 34.8 0 0 -0.48,0.09 l -5.02,3.66 a 0.25,0.25 0 0 0 0.15,0.45 q 3.28,-0.06 4.9,0.92 a 0.38,0.43 62 0 0 0.25,0.06 l 1.63,-0.14 a 1.43,1.43 0 0 1 1.54,1.59 l -0.71,5.97 a 0.65,0.65 0 0 0 1.23,0.36 q 2.28,-4.62 5.39,-8.68 a 1.39,1.34 32 0 0 -0.51,-2.04 q -1.39,-0.71 -1.04,-2.84 a 0.4,0.4 0 0 0 -0.59,-0.41 z m -15.46,5 q -0.59,-0.34 -0.62,-0.34 a 0.18,0.18 0 0 0 -0.11,0.34 q 0.44,0.22 0.61,0.27 a 0.15,0.15 0 0 0 0.12,-0.27 z m 2.83,11.52 q -2.7,0.26 -4.49,-1.29 c -0.75,-0.65 -1.8,-0.36 -2.37,-0.15 a 2.17,2.2 43.5 0 1 -1.45,0.05 q -2.45,-0.77 -5.04,-1.66 a 1.2,1.09 11.2 0 0 -1.59,0.95 q -0.01,0.25 0.26,0.53 0.42,0.42 3.56,2.85 a 2.41,2.41 0 0 0 2.52,0.26 c 2.9,-1.4 6.62,-0.34 8.8,-0.58 a 0.35,0.36 86.3 0 0 0.31,-0.35 v -0.14 a 0.47,0.47 0 0 0 -0.51,-0.47 z"
     id="path146" />
</svg>
