<?xml version="1.0" encoding="UTF-8" standalone="no"?>
<svg
   version="1.1"
   viewBox="0 0 60.150356 102.9503"
   id="svg534"
   width="60.150356"
   height="102.9503"
   xmlns="http://www.w3.org/2000/svg"
   xmlns:svg="http://www.w3.org/2000/svg">
  <defs
     id="defs534" />
  <path
     fill="#f63248"
     d="m 68.617785,-7.552361 q -0.05,0.02 -3.5,2.82 -1.82,1.47 -5.21,1.72 a 0.98,0.98 0 0 1 -0.98,-0.62 q -0.97,-2.39 -0.03,-3.94 2.25,-3.74 4.21,-5.22 a 0.64,0.64 0 0 0 -0.44,-1.15 c -3.36,0.32 -11.46,-0.32 -9.09,-5.42 a 1.28,1.32 0.4 0 1 0.62,-0.63 c 3.27,-1.56 10.56,-0.41 14.23,0.62 a 0.49,0.49 0 0 0 0.55,-0.72 q -3.85,-6.43 -3.57,-13.34 0.03,-0.64 1.59,-3.33 a 1.21,1.22 11.5 0 1 0.88,-0.59 q 2.12,-0.28 2.62,0.81 c 1.34,2.95 1.89,7.31 2.06,10.54 a 0.35,0.35 0 0 0 0.66,0.15 q 1.65,-3.13 3.04,-5.56 1,-1.73 5.14,-3.67 a 1.1,1.09 45.3 0 1 0.98,0.01 c 3.8,1.91 1.66,6.1 -0.26,8.79 a 0.48,0.48 0 0 0 0.56,0.72 q 3.49,-1.35 7.83,-0.71 a 1.89,1.87 69.3 0 1 0.94,0.43 q 1.59,1.34 1.11,4 a 1.51,1.49 77.5 0 1 -0.59,0.94 q -3.75,2.68 -8.47,3.62 a 0.65,0.66 56.3 0 0 -0.24,1.19 c 2.24,1.47 4.6,3.23 4.39,6.09 a 0.81,0.81 0 0 1 -0.62,0.73 q -5.3,1.3 -9.33,-2.2 a 0.36,0.36 0 0 0 -0.59,0.33 q 0.5,3.08 0.59,5.29 0.17,4.27 -3.25,6.27000002 a 2.51,2.93 58 0 1 -3.68,-0.56 q -2.24,-3.28000002 -1.35,-6.74000002 a 0.58,0.58 0 0 0 -0.8,-0.67 z m 7.83,-15.45 5.74,-8.39 a 0.1,0.1 0 0 0 -0.03,-0.13 v -0.01 a 2.07,4.91 34.4 0 0 -4.49,2.88 l -0.3,0.45 a 2.07,4.91 34.4 0 0 -1.07,5.22 h 0.01 a 0.1,0.1 0 0 0 0.14,-0.02 z m -5.87,-1.32 -1.48,-7.19 -0.18,0.03 a 3.48,0.79 78.4 0 0 -0.08,3.57 l 0.08,0.37 a 3.48,0.79 78.4 0 0 1.47,3.25 z m 18.9375,0.7526 a 1.43,5.8 68.8 0 0 -5.9246,0.7642 1.43,5.8 68.8 0 0 -4.8904,3.4306 1.43,5.8 68.8 0 0 5.9246,-0.7642 1.43,5.8 68.8 0 0 4.8904,-3.4306 z m -32.0454,6.0035 a 2.59,0.43 2.3 0 0 2.5706,0.5336 2.59,0.43 2.3 0 0 2.6052,-0.3258 2.59,0.43 2.3 0 0 -2.5706,-0.5336 2.59,0.43 2.3 0 0 -2.6052,0.3258 z m 19.4016,1.6486 a 4.21,1.02 28.6 0 0 3.208,2.9108 4.21,1.02 28.6 0 0 4.1846,1.1198 4.21,1.02 28.6 0 0 -3.208,-2.9108 4.21,1.02 28.6 0 0 -4.1846,-1.1198 z m -4.8137,13.5253 2.22,0.12 a 0.16,0.16 0 0 0 0.17,-0.15 l 0.09,-1.6 a 1.14,8.95 3.2 0 0 -0.64,-9 l -0.26,-0.02 a 1.14,8.95 3.2 0 0 -1.64,8.87 l -0.09,1.61 a 0.16,0.16 0 0 0 0.15,0.17 z m -3.7862,-10.328 a 0.97,4.21 46.5 0 0 -3.7215,2.1944 0.97,4.21 46.5 0 0 -2.3861,3.6016 0.97,4.21 46.5 0 0 3.7215,-2.1944 0.97,4.21 46.5 0 0 2.3861,-3.6016 z"
     id="path261" />
  <path
     fill="#456b3a"
     d="m 8.027785,56.697639 q -0.15,0.56 -0.67,0.05 z"
     id="path324" />
  <g
     id="g554"
     transform="translate(-220.18221,-61.832361)">
    <path
       fill="#fecb4b"
       d="m 332.55,122.58 a 0.19,0.19 0 0 1 -0.01,0.27 l -0.15,0.15 a 24.87,0.72 -44.3 0 1 -18.3,16.86 l -0.51,-0.52 a 24.87,0.72 -44.3 0 1 17.3,-17.88 l 0.16,-0.16 a 0.19,0.19 0 0 1 0.26,0.01 z"
       id="path326" />
    <rect
       fill="#fecb4b"
       x="-0.99000001"
       y="-5.9400001"
       transform="rotate(38.6,-21.55398,519.65011)"
       width="1.98"
       height="11.88"
       rx="0.95999998"
       id="rect326" />
    <path
       fill="#fecb4b"
       d="m 308.91,146.57 a 0.49,0.49 0 0 1 -0.44,-0.86 c 2.95,-2.21 6.41,-4.02 9.6,-6.45 q 9.3,-7.08 17.3,-15.01 a 2.53,2.52 28.7 0 1 2.31,-0.67 l 0.07,0.01 a 0.74,0.73 28.5 0 1 0.37,1.24 q -11.57,11.41 -21.69,18.07 -3.75,2.48 -7.52,3.67 z"
       id="path327" />
    <path
       fill="#fecb4b"
       d="m 296.7,151.51 a 0.81,0.8 -62.9 0 0 -1.13,0.37 q -2.1,4.66 -6.87,8.65 a 1.23,1.22 58.1 0 1 -1.91,-0.45 c -1.3,-3 0.76,-8.8 2.03,-11.91 a 1.33,1.33 0 0 0 -0.78,-1.76 q -4.85,-1.71 -8.69,-3.49 -0.96,-0.44 -1,-1.15 a 1.94,1.79 -1.9 0 1 1.91,-1.88 q 5.55,-0.13 9.62,-1 a 1.02,1 -80.7 0 0 0.69,-0.51 q 2.82,-5.04 2.03,-10.27 -0.1,-0.69 0.19,-1.58 0.37,-1.13 0.73,-1.39 a 1.68,1.65 67.6 0 1 2.59,1.11 q 0.35,1.98 1.85,10.29 a 1.13,1.12 76 0 0 1.45,0.88 q 2.79,-0.86 4.31,-1 c 1.65,-0.14 3.04,-1.81 4.76,-1.94 a 1.29,1.28 -73.6 0 1 1.12,2.06 l -6.57,8.67 a 1.31,1.29 48.7 0 0 -0.08,1.43 l 4.4,7.63 a 0.78,0.77 59.6 0 1 -0.27,1.06 c -1.76,1.05 -2.78,0.97 -4.65,-0.23 q -4.65,-2.98 -5.73,-3.59 z m -4.89,0.38 2.99,-3.94 a 0.9,0.87 -65.4 0 1 0.88,-0.34 q 2.27,0.48 4.06,2.37 a 0.33,0.33 0 0 0 0.45,0.03 l 0.25,-0.2 a 0.29,0.28 -41.4 0 0 0.03,-0.4 l -1.74,-2.09 a 1.08,1.07 -66.5 0 1 -0.24,-0.62 c -0.1,-2.21 2,-3.88 3.85,-5.59 a 0.78,0.77 -70.4 0 0 -0.63,-1.34 q -1.77,0.27 -3.4,1.29 a 1.62,1.51 70.6 0 1 -2.33,-1.22 q -0.14,-0.94 -1.29,-2.61 a 0.36,0.36 0 0 0 -0.63,0.05 q -0.64,1.37 -0.11,3.16 a 0.6,0.59 -15.7 0 1 -0.42,0.74 l -4.29,1.15 a 0.61,0.61 0 0 0 -0.15,1.11 l 3.15,1.81 a 1.44,1.44 0 0 1 0.61,1.79 l -1.78,4.43 a 0.43,0.43 0 0 0 0.74,0.42 z"
       id="path329" />
  </g>
  <path
     fill="#48667f"
     d="m 11.797785,66.757639 q 0.49,-0.12 0.56,0.34 a 0.27,0.28 72.3 0 1 -0.16,0.3 l -0.33,0.15 a 0.27,0.27 0 0 1 -0.32,-0.41 q 0.05,-0.06 0.09,-0.22 a 0.22,0.24 3.2 0 1 0.16,-0.16 z"
     id="path330" />
  <path
     fill="#48667f"
     d="m 35.307785,74.037639 -1.27,-0.01 z"
     id="path335" />
  <g
     id="g538"
     transform="translate(-217.43333,-67.330129)">
    <path
       fill="#36beb0"
       d="m 255.49,135.87 -1.27,-0.01 q -1.83,-0.01 -3.36,-1.36 a 0.71,0.7 46.7 0 0 -0.9,-0.03 c -2.45,1.92 -4.51,3.6 -7.43,3.02 q -2.85,-0.56 -5.28,-2.03 a 1.43,1.42 7.2 0 1 -0.62,-0.79 q -0.4,-1.25 -0.79,-1.65 a 1.19,1.18 67.8 0 0 -0.85,-0.36 q -5.58,-0.04 -8.32,-1.67 -5.41,-3.21 -3.21,-9.17 a 0.69,0.69 0 0 0 -0.5,-0.91 c -5.81,-1.3 -6.63,-9.07 -4.35,-13.35 a 1.05,1.02 -7.2 0 1 0.2,-0.25 l 1.87,-1.72 a 0.98,0.96 -25.1 0 0 0.31,-0.83 q -0.68,-5.18 1.25,-9.38 c 0.91,-1.99 1.99,-2.36 3.96,-2.56 a 0.9,0.9 0 0 0 0.81,-0.92 q -0.13,-5.56 4.18,-9.95 a 0.71,0.65 12 0 1 0.29,-0.17 l 2.73,-0.73 a 0.81,0.8 86.3 0 0 0.59,-0.68 q 0.1,-0.75 0.32,-3.57 0.37,-4.8 5.31,-8.93 a 2.01,1.97 22.8 0 1 1.16,-0.46 c 2.99,-0.18 4.67,-0.18 7.56,1.37 q 2.51,1.35 5.48,1.55 1.58,0.11 2.98,1.53 a 1.48,1.43 -75.5 0 1 0.38,0.67 l 1.01,3.74 a 1.07,1.07 0 0 0 0.92,0.79 q 10.08,1.09 8.59,9.7 a 0.6,0.6 0 0 0 0.54,0.71 q 1.78,0.17 3.83,2.23 a 1.8,1.75 -74.2 0 1 0.48,0.89 q 0.58,2.66 -0.88,4.61 a 0.49,0.49 0 0 0 0.41,0.78 q 3.88,-0.11 4.51,3.8 c 0.56,3.43 -0.28,5.35 -0.92,8.26 a 2.7,2.63 -48.5 0 0 0.07,1.45 c 2.15,6.39 -0.54,11.66 -6.14,15.14 -2.17,1.35 -1.63,2.86 -2.95,4.13 q -2.46,2.38 -5.98,2.89 a 1.09,1.08 -79.5 0 0 -0.78,0.54 q -1.74,3.1 -5.21,3.68 z m -7.44,-62.64 q -0.21,-3 -3.24,-3.07 a 0.95,0.95 0 0 0 -0.37,1.83 q 0.79,0.31 1.74,0.27 a 1.04,1.03 -9.4 0 1 1.03,0.73 q 0.21,0.69 0.22,0.69 a 0.45,0.45 0 0 0 0.62,-0.45 z m 3.5,2.9 2.12,-2.73 a 0.24,0.24 0 0 0 -0.04,-0.33 l -0.12,-0.1 a 2.37,1.97 37.9 0 0 -3.08,0.1 2.37,1.97 37.9 0 0 0.66,3.01 l 0.12,0.09 a 0.24,0.24 0 0 0 0.34,-0.04 z m -13.3684,-1.1329 a 4.02,0.85 -93.4 0 0 -0.6101,4.0633 4.02,0.85 -93.4 0 0 1.0869,3.9625 4.02,0.85 -93.4 0 0 0.6101,-4.0633 4.02,0.85 -93.4 0 0 -1.0869,-3.9625 z M 262.74,81.24 a 0.73,0.73 0 0 0 -0.52,-1.17 q -5.58,-0.51 -6.11,4.83 a 0.62,0.61 74.7 0 0 0.97,0.56 q 1.34,-0.97 2.27,-0.58 a 0.7,0.69 -60.2 0 0 0.8,-0.22 z m -10.5,5.77 -0.71,4.85 a 1.01,1 15.4 0 0 0.61,1.07 q 1.86,0.76 1.67,1.64 a 0.28,0.28 0 0 0 0.4,0.31 l 1.23,-0.61 a 0.66,0.66 0 0 1 0.88,0.3 l 0.46,0.93 a 0.62,0.61 61.3 0 0 0.86,0.26 q 0.67,-0.38 1.27,-0.14 c 1.09,0.42 2.04,-0.29 2.25,-1.01 a 1.04,0.98 46.9 0 1 1.95,0.12 q 0.41,1.49 0.42,1.51 a 0.31,0.31 0 0 0 0.56,-0.03 l 1.22,-2.88 a 0.69,0.67 -63.3 0 0 -0.27,-0.85 q -1.78,-1.06 -0.89,-3.3 0.97,-2.45 1.98,-4.87 a 0.47,0.47 0 0 0 -0.26,-0.62 l -0.31,-0.13 a 0.36,0.35 21.7 0 0 -0.47,0.2 l -3.71,9.2 a 0.86,0.86 0 0 1 -1.65,-0.32 v -2.22 a 0.54,0.54 0 0 0 -0.52,-0.54 c -2.9,-0.17 -5.72,1.41 -6.62,-2.88 a 0.18,0.18 0 0 0 -0.35,0.01 z m -8.1,1.43 q 0.14,-2.57 0.01,-3.69 a 0.81,0.81 0 0 0 -1.29,-0.56 c -1.41,1.04 -0.09,3.46 0.7,4.44 a 0.33,0.33 0 0 0 0.58,-0.19 z m -9.35,1.09 c 0.15,-1.2 -0.09,-4.64 -1.88,-5.13 a 0.7,0.7 0 0 0 -0.81,0.98 l 2.12,4.25 a 0.3,0.3 0 0 0 0.57,-0.1 z m 3.94,-4.57 -2.67,0.52 a 0.17,0.17 0 0 0 -0.14,0.2 l 0.02,0.1 a 13.23,1.37 79 0 0 3.87,12.73 l 0.32,-0.06 A 13.23,1.37 79 0 0 238.95,85.2 l -0.02,-0.1 a 0.17,0.17 0 0 0 -0.2,-0.14 z m 30.97,6.22 -1.44,4.2 a 0.14,0.14 0 0 0 0.08,0.18 l 0.06,0.02 a 1.55,1.22 -71 0 0 1.66,-1.07 l 0.53,-1.53 a 1.55,1.22 -71 0 0 -0.65,-1.87 l -0.06,-0.02 a 0.14,0.14 0 0 0 -0.18,0.09 z m -41.4,8.04 q 0.44,0.12 1.46,-3 0.24,-0.74 -0.4,-0.92 -0.64,-0.17 -0.81,0.6 -0.69,3.2 -0.25,3.32 z m 19.56,-3.67 0.97,5.11 a 0.13,0.13 0 0 0 0.15,0.1 l 0.05,-0.01 a 2.54,1.46 79.2 0 0 0.96,-2.77 l -0.07,-0.37 a 2.54,1.46 79.2 0 0 -1.91,-2.22 l -0.05,0.01 a 0.13,0.13 0 0 0 -0.1,0.15 z m -2.14,1.32 -1.38,-0.54 a 0.22,0.22 0 0 0 -0.28,0.13 l -0.05,0.12 a 4.65,0.89 -68.6 0 0 -0.87,4.65 l 0.13,0.05 a 4.65,0.89 -68.6 0 0 2.53,-4 l 0.05,-0.12 a 0.22,0.22 0 0 0 -0.13,-0.29 z m -20.4367,0.0604 a 0.85,0.55 -91.8 0 0 -0.523,0.8669 0.85,0.55 -91.8 0 0 0.5764,0.8323 0.85,0.55 -91.8 0 0 0.523,-0.8669 0.85,0.55 -91.8 0 0 -0.5764,-0.8323 z M 265.44,105.27 a 0.19,0.19 0 0 0 0.36,0.11 q 1.37,-3.15 3.66,-5.23 a 1,1 0 0 0 0.22,-1.19 l -0.05,-0.1 a 0.54,0.54 0 0 0 -0.87,-0.13 q -2.67,2.81 -3.32,6.54 z m -19.4127,-4.3139 a 1.53,0.77 -104.1 0 0 -0.3741,1.6715 1.53,0.77 -104.1 0 0 1.1195,1.2963 1.53,0.77 -104.1 0 0 0.3741,-1.6715 1.53,0.77 -104.1 0 0 -1.1195,-1.2963 z M 272.44,102.73 q 0.51,0.93 0.52,0.94 a 0.51,0.5 -50.4 0 0 0.79,-0.08 q 0.45,-0.69 -0.04,-1.57 -0.48,-0.88 -1.31,-0.85 a 0.51,0.5 -7.7 0 0 -0.48,0.62 q 0,0.02 0.52,0.94 z m -38.7,-0.48 -1.21,1.21 a 0.95,0.94 -37.8 0 0 -0.15,1.15 l 2.01,3.48 a 0.55,0.55 0 0 0 0.92,0.04 q 0.84,-1.2 1.6,-0.61 a 0.68,0.67 -57.7 0 0 1.02,-0.23 l 0.62,-1.23 a 0.84,0.84 0 0 0 -0.4,-1.14 q -2.15,-0.97 -3.59,-2.64 a 0.56,0.55 46.7 0 0 -0.82,-0.03 z m 16.08,5.48 q 0.58,-2.02 -0.16,-4.63 a 0.4,0.4 0 0 0 -0.78,0.09 q -0.08,1.56 0.54,4.53 a 0.21,0.2 -43.2 0 0 0.4,0.01 z m 3.19,0.99 1.3,-2.25 a 0.79,0.78 -60.4 0 1 1.06,-0.3 q 0.75,0.42 1.19,1.86 a 0.41,0.4 51.8 0 0 0.74,0.09 l 1.48,-2.55 a 0.45,0.45 0 0 0 -0.36,-0.67 q -3.16,-0.22 -3.83,0.22 A 0.87,0.86 51 0 1 253.5,105 l -0.56,-0.56 a 0.32,0.32 0 0 0 -0.55,0.25 l 0.3,3.96 a 0.17,0.17 0 0 0 0.32,0.07 z m -12.565,-2.924 a 5.13,0.79 -103.7 0 0 0.4475,5.1711 5.13,0.79 -103.7 0 0 1.9825,4.7969 5.13,0.79 -103.7 0 0 -0.4475,-5.1711 5.13,0.79 -103.7 0 0 -1.9825,-4.7969 z m -12.235,12.734 -0.67,0.05 -0.63,-0.39 a 0.18,0.18 0 0 0 -0.25,0.05 q -0.25,0.43 0.18,0.68 1.68,0.97 2.38,2.56 a 0.31,0.31 0 0 0 0.55,0.03 l 1.13,-1.95 a 1.13,1.1 -40.1 0 0 0.09,-0.91 l -2.35,-6.92 a 2.04,0.9 60.9 0 0 -0.11,-0.26 l -1.38,-2.76 a 2.58,2.57 -13.2 0 0 -2.31,-1.43 h -0.81 a 0.84,0.84 0 0 0 -0.7,1.3 c 1.73,2.62 5.81,7.14 4.88,9.95 z m 18.45,-1.2 q 1.84,-1.05 2.79,1.13 a 0.62,0.61 -20.6 0 0 0.74,0.33 q 2.47,-0.79 3.48,0.68 a 0.38,0.38 0 0 0 0.68,-0.11 q 0.05,-0.15 -0.3,-0.85 a 1.11,1.1 43.4 0 1 -0.03,-0.93 q 0.6,-1.36 0.68,-3.14 a 0.33,0.33 0 0 0 -0.61,-0.19 q -1.02,1.68 -2.34,0.89 -1.21,-0.72 -1.77,-0.77 -1.21,-0.11 -1.47,0.96 a 1.01,1.01 0 0 1 -0.5,0.64 l -1.65,0.88 a 0.02,0.01 0 0 0 -0.02,0.01 q -0.15,0.27 0.05,0.44 a 0.24,0.23 -37.3 0 0 0.27,0.03 z m -22.37,-0.48 q -0.52,-0.68 -0.54,-0.7 a 0.35,0.34 8.8 0 0 -0.54,0.39 q 0.16,0.42 0.82,0.66 a 0.23,0.23 0 0 0 0.26,-0.35 z m 14.0461,0.218 a 1.69,0.85 -47.3 0 0 -1.7708,0.6656 1.69,0.85 -47.3 0 0 -0.5214,1.8184 1.69,0.85 -47.3 0 0 1.7708,-0.6656 1.69,0.85 -47.3 0 0 0.5214,-1.8184 z m 4.2269,0.073 a 0.63,0.26 -100.7 0 0 -0.1385,0.6673 0.63,0.26 -100.7 0 0 0.3725,0.5707 0.63,0.26 -100.7 0 0 0.1385,-0.6673 0.63,0.26 -100.7 0 0 -0.3725,-0.5707 z m 29.15,0.7294 a 1,0.41 -47.7 0 0 -0.9762,0.4637 1,0.41 -47.7 0 0 -0.3698,1.0155 1,0.41 -47.7 0 0 0.9762,-0.4637 1,0.41 -47.7 0 0 0.3698,-1.0155 z m -4.7319,2.5831 a 1.97,1.06 -15.2 0 0 -2.179,-0.5064 1.97,1.06 -15.2 0 0 -1.6232,1.5394 1.97,1.06 -15.2 0 0 2.179,0.5064 1.97,1.06 -15.2 0 0 1.6232,-1.5394 z M 240.1,120.29 a 0.35,0.35 0 0 0 -0.58,0.33 l 1.81,10 a 0.04,0.04 0 0 0 0.04,0.03 h 0.04 a 0.36,0.36 0 0 0 0.35,-0.37 q -0.23,-5.48 -0.14,-6.6 0.15,-1.91 -1.52,-3.39 z m -6.5862,3e-4 a 1.76,0.44 -88.9 0 0 -0.4737,1.7513 1.76,0.44 -88.9 0 0 0.4061,1.7681 1.76,0.44 -88.9 0 0 0.4737,-1.7513 1.76,0.44 -88.9 0 0 -0.4061,-1.7681 z m 26.4339,1.3559 a 1.38,0.73 -44.3 0 0 -1.4975,0.4413 1.38,0.73 -44.3 0 0 -0.4779,1.4863 1.38,0.73 -44.3 0 0 1.4975,-0.4413 1.38,0.73 -44.3 0 0 0.4779,-1.4863 z m -32.6816,2.3706 a 1.86,0.56 -105.4 0 0 -0.046,1.9419 1.86,0.56 -105.4 0 0 1.0338,1.6445 1.86,0.56 -105.4 0 0 0.046,-1.9419 1.86,0.56 -105.4 0 0 -1.0338,-1.6445 z m 16.6577,0.4707 a 1.63,0.43 -95.5 0 0 -0.2718,1.6637 1.63,0.43 -95.5 0 0 0.5842,1.5813 1.63,0.43 -95.5 0 0 0.2718,-1.6637 1.63,0.43 -95.5 0 0 -0.5842,-1.5813 z m 21.6415,0.9131 a 1,0.47 -75.8 0 0 -0.7009,0.8541 1,0.47 -75.8 0 0 0.2103,1.0847 1,0.47 -75.8 0 0 0.7009,-0.8541 1,0.47 -75.8 0 0 -0.2103,-1.0847 z M 240.96,133.12 q -1.96,-2.26 -2.3,-5.5 A 0.53,0.53 0 0 0 238,127.16 l -1.46,0.39 a 0.67,0.67 0 0 0 -0.2,1.21 q 1.65,1.08 2.39,3.41 0.4,1.27 1.92,1.51 a 0.34,0.34 0 0 0 0.31,-0.56 z m -9.14,-4.37 q -0.04,0.16 -0.09,0.22 a 0.27,0.27 0 0 0 0.32,0.41 l 0.33,-0.15 a 0.28,0.27 -17.7 0 0 0.16,-0.3 q -0.07,-0.46 -0.56,-0.34 a 0.24,0.22 -86.8 0 0 -0.16,0.16 z m 18.93,1.97 q -0.44,0.5 -0.24,1 0.17,0.42 0.8,0.66 1.65,0.61 1.79,0.45 0.15,-0.16 -0.65,-1.74 -0.3,-0.59 -0.74,-0.72 -0.52,-0.14 -0.96,0.35 z m 7.3048,0.0148 a 2.09,0.95 -32.9 0 0 -2.2708,0.3376 2.09,0.95 -32.9 0 0 -1.2388,1.9328 2.09,0.95 -32.9 0 0 2.2708,-0.3376 2.09,0.95 -32.9 0 0 1.2388,-1.9328 z"
       id="path286" />
    <path
       fill="#956529"
       d="m 248.98,137.27 q 0.96,-0.86 2.73,0.27 a 1.07,1.06 -77.3 0 1 0.48,0.77 l 0.42,3.64 a 0.6,0.59 60.7 0 0 1.06,0.3 q 1.35,-1.72 3.17,-2.74 a 1.07,1.07 0 0 1 1.41,1.54 c -1.23,1.78 -3.96,3.68 -5.09,6.46 a 2.23,2.14 -36.6 0 0 -0.14,0.82 l 0.74,20.91 a 0.89,0.89 0 0 1 -0.87,0.92 l -4.93,0.12 a 1.52,1.52 0 0 1 -1.52,-1.19 q -0.41,-1.89 -0.35,-2.85 0.74,-11.96 0.77,-23.19 0,-1.22 -1.02,-2.08 a 1.36,1.33 69.7 0 1 1.06,-2.38 q 1,0.17 1.49,-0.51 z"
       id="path337" />
  </g>
  <path
     fill="#f63248"
     d="m -10.064805,126.73764 q -3.7,0.71 -5.58,1.74 a 5.07,5.06 25.1 0 1 -1.44,0.52 q -3.38,0.66 -4.93,1.61 -0.49,0.3 -1.57,0.21 a 1.02,1.02 0 0 1 -0.57,-1.8 l 2.07,-1.72 a 0.31064449,0.31064449 0 0 0 -0.34,-0.52 l -4.2,2.1 a 0.94,0.93 69.2 0 1 -1.32,-0.6 l -0.11,-0.4 a 1.32,1.31 69.2 0 1 0.68,-1.52 l 17.34,-8.63 a 0.09192388,0.09192388 0 0 0 -0.07,-0.17 l -17.5,6.07 a 0.74,0.73 88.6 0 1 -0.94,-0.9 q 0.39,-1.35 -0.14,-2.72 a 1.57,1.56 64.8 0 1 0.68,-1.9 l 3.79,-2.19 a 1.51,1.5 83.4 0 0 0.69,-0.88 q 0.1,-0.35 0.12,-0.39 a 2.59,2.59 0 0 1 0.85,-1.19 l 1.55,-1.24 a 0.17,0.17 0 0 0 -0.16,-0.29 l -2.31,0.81 a 0.87,0.87 0 0 1 -0.8,-0.12 l -0.21,-0.16 a 0.58,0.58 0 0 1 0.1,-0.9 c 5.5,-3.44 14.24,-4.45 22.11,-7.01 3.32,-1.08 5.16,-1.78 6.74,-1.8 a 0.95,0.95 0 0 1 0.55,1.72 l -1.06,0.75 a 9.96,9.38 13 0 1 -1.44,0.84 l -13.1,6.24 a 0.27,0.27 0 0 0 0.05,0.51 q 0.51,0.15 1,0.01 13.9,-3.87 17.41,-4.34 a 1.1,1.1 0 0 1 1.24,1.11 q 0,0.01 -0.08,0.34 a 0.56,0.57 2.5 0 0 0.63,0.69 q 1.58,-0.22 1.91,-0.02 a 1.3,1.3 0 0 1 -0.4,2.39 q -7.92,1.6 -15.08,5.1 a 0.22,0.22 0 0 0 -0.1,0.29 l 0.12,0.23 a 0.03,0.03 0 0 0 0.04,0.02 l 17.24,-5.58 a 1.39,1.39 0 0 1 1.75,0.9 v 0.02 a 1.48,1.48 0 0 1 -0.93,1.84 l -17.88,6.21 a 0.14,0.15 75.9 0 0 -0.1,0.16 l 0.01,0.06 a 0.2,0.18 76.3 0 0 0.21,0.14 q 9.15,-1.59 16.71,-4.37 a 1.01,1.01 0 0 1 1.35,0.86 v 0.09 a 1.64,1.66 76.3 0 1 -1.04,1.69 c -4.07,1.59 -9.15,2.35 -13.66,4.88 a 0.10307764,0.10307764 0 0 0 0.08,0.19 l 11.87,-3.19 a 1.86,1.85 62.4 0 1 1.89,0.6 l 0.33,0.39 a 0.55,0.55 0 0 1 -0.28,0.88 l -31.66,8.51 a 0.55,0.55 0 0 1 -0.66,-0.73 l 0.1,-0.25 a 2.8,2.81 87.9 0 1 1.34,-1.44 l 7.17,-3.57 a 0.1,0.1 0 0 0 -0.06,-0.18 z"
     id="path359" />
</svg>
