<?xml version="1.0" encoding="UTF-8" standalone="no"?>
<svg
   version="1.1"
   viewBox="0 0 49.610165 23.011311"
   id="svg527"
   width="49.610165"
   height="23.011311"
   xmlns="http://www.w3.org/2000/svg"
   xmlns:svg="http://www.w3.org/2000/svg">
  <defs
     id="defs527" />
  <g
     id="g548"
     transform="translate(-105.85084,-306.99851)">
    <path
       fill="#fac22c"
       d="m 145.3,324.96 -0.02,-0.02 a 0.72,0.71 -51.2 0 1 -0.1,-0.96 q 1.24,-1.69 3.44,-3.33 a 0.81,0.8 81.3 0 0 0.28,-0.39 l 1.02,-3.34 a 1.59,1.59 0 0 0 -0.27,-1.46 q -0.72,-0.93 -0.89,-1.45 a 1.45,1.45 0 0 1 0.24,-1.33 q 1.79,-2.33 3.18,-4.95 0.24,-0.45 0.82,-0.66 a 1.19,1.19 0 0 1 1.57,0.87 q 0.74,3.43 0.89,6.65 a 0.82,0.82 0 0 1 -0.51,0.8 l -1.58,0.62 a 1.09,1.05 -2.7 0 0 -0.64,0.68 c -1.07,3.45 -3.22,5.24 -6.58,8.27 a 0.64,0.63 44.6 0 1 -0.85,0 z m 6.4874,-12.0752 a 1.51,1.03 -100.4 0 0 -0.7405,1.6711 1.51,1.03 -100.4 0 0 1.2857,1.2993 1.51,1.03 -100.4 0 0 0.7405,-1.6711 1.51,1.03 -100.4 0 0 -1.2857,-1.2993 z"
       id="path513" />
    <path
       fill="#fac22c"
       d="m 131.67,324.05 q -0.42,0.74 0.03,1.24 l 0.25,0.68 a 0.44,0.44 0 0 1 -0.44,0.59 q -1.24,-0.04 -2.37,-0.58 a 1.88,1.87 -47.5 0 0 -1.78,0.08 q -1.78,1.08 -4.12,1.35 a 0.72,0.72 0 0 1 -0.55,-1.27 q 1.71,-1.46 3.84,-1.32 a 1.49,1.47 25.8 0 0 1.08,-0.37 l 4.27,-3.9 a 1.55,0.64 -32.4 0 0 0.13,-0.14 q 1.22,-1.51 1.71,-5.2 a 1.01,1 22.2 0 0 -0.39,-0.92 l -1.7,-1.3 a 0.9,0.9 0 0 1 0.78,-1.58 c 2.26,0.63 2.4,3.58 2.49,5.55 a 1.67,1.57 58.8 0 1 -0.16,0.75 z"
       id="path518" />
    <path
       fill="#fac22c"
       d="m 127.39,316.65 a 0.12,0.12 0 0 1 -0.17,0.01 l -0.03,-0.03 a 2.26,1.92 -47.7 0 1 0.1,-2.96 l 0.26,-0.28 a 2.26,1.92 -47.7 0 1 2.94,-0.38 l 0.03,0.03 a 0.12,0.12 0 0 1 0.01,0.17 z"
       id="path520" />
    <ellipse
       fill="#fac22c"
       cx="0"
       cy="0"
       transform="rotate(-108.8,178.28137,114.81057)"
       rx="2.3699999"
       ry="1.09"
       id="ellipse522" />
    <path
       fill="#a95e18"
       d="m 131.67,324.05 0.03,1.24 q -0.45,-0.5 -0.03,-1.24 z"
       id="path523" />
    <path
       fill="#fac22c"
       d="m 142.83,325.5 q 0.23,0.58 -1.85,1.55 -0.77,0.36 -1.07,-0.37 -0.29,-0.73 0.52,-1.01 2.17,-0.74 2.4,-0.17 z"
       id="path525" />
    <ellipse
       fill="#fac22c"
       cx="0"
       cy="0"
       transform="rotate(-174.5,75.390106,160.18582)"
       rx="1.87"
       ry="0.81"
       id="ellipse525" />
    <path
       fill="#fac22c"
       d="m 121.55,326.24 a 0.01,0.01 0 0 1 0.01,0.01 l 0.01,0.03 a 2.46,1.66 -12.7 0 1 -2.04,2.16 l -0.33,0.08 a 2.46,1.66 -12.7 0 1 -2.76,-1.08 l -0.01,-0.03 a 0.01,0.01 0 0 1 0.01,-0.01 z"
       id="path526" />
    <rect
       fill="#fac22c"
       x="-4.3699999"
       y="-0.76999998"
       transform="rotate(-4.9,3898.8325,-1123.5586)"
       width="8.7399998"
       height="1.54"
       rx="0.62"
       id="rect526" />
  </g>
</svg>
