<?xml version="1.0" encoding="UTF-8" standalone="no"?>
<svg
   version="1.1"
   viewBox="0 0 50.364964 62.900208"
   id="svg527"
   width="50.364964"
   height="62.900208"
   xmlns="http://www.w3.org/2000/svg"
   xmlns:svg="http://www.w3.org/2000/svg">
  <defs
     id="defs527" />
  <g
     id="g543"
     transform="translate(-7.5123009,-68.955)">
    <path
       fill="#c6d93c"
       d="m 32.42,99.29 q -0.05,-1.76 0.99,-2.34 2.22,-0.54 6.49,-1.11 6.16,-0.83 11.4,-5.05 c 3.68,-2.96 5.26,-7.36 2.07,-11.29 Q 50.67,76.17 48.89,75.34 43.17,72.67 42.18,72.5 C 31.22,70.62 19.3,70.93 12.11,79.35 c -4.92,5.77 0.44,11.49 5.84,13.96 q 4.34,1.98 8.54,2.76 0.35,1.5 -0.12,2.34 Q 15.71,97.6 10.01,90.74 6.65,86.7 7.81,81.54 c 1.3,-5.77 9.39,-10.49 14.72,-11.5 q 11.4,-2.17 20.11,0 c 6.59,1.65 12.95,5.32 14.95,11.89 1.26,4.14 -1.85,9.26 -4.95,11.48 q -8.58,6.14 -20.22,5.88 z"
       id="path290" />
    <path
       fill="#c6d93c"
       d="m 49.6785,80.6778 a 7.93,4.09 -1.1 0 1 -7.85,4.2414 7.93,4.09 -1.1 0 1 -8.007,-3.937 7.93,4.09 -1.1 0 1 7.85,-4.2414 7.93,4.09 -1.1 0 1 8.007,3.937 z m -3.6087,0.1429 a 4.5,1.36 -0.5 0 0 -4.5117,-1.3206 4.5,1.36 -0.5 0 0 -4.4879,1.3992 4.5,1.36 -0.5 0 0 4.5117,1.3206 4.5,1.36 -0.5 0 0 4.4879,-1.3992 z"
       id="path298" />
    <path
       fill="#c6d93c"
       d="m 27.16,84.53 q -0.89,-0.27 -2.6,0.53 -2.72,0.06 -4.75,-1.23 a 1.53,1.52 -53.3 0 1 -0.33,-2.29 q 3.69,-4.21 9.42,-3.63 1.71,0.17 2.34,0.77 a 2.34,2.27 -43.2 0 1 -0.16,3.45 q -1.51,1.26 -3.92,2.4 z m 0.1037,-3.5309 a 1.81,0.71 -11.5 0 0 -1.9153,-0.3348 1.81,0.71 -11.5 0 0 -1.6321,1.0566 1.81,0.71 -11.5 0 0 1.9153,0.3348 1.81,0.71 -11.5 0 0 1.6321,-1.0566 z"
       id="path299" />
    <path
       fill="#1858a1"
       d="m 27.16,84.53 2.19,11.93 a 0.46,0.46 0 0 0 0.86,0.14 l 1.79,-3.25 2.04,0.73 q -1.1,1.58 -0.63,2.87 -1.04,0.58 -0.99,2.34 -1.76,1.34 -2.18,3.73 a 2.55,2.52 44.7 0 0 0.01,0.92 q 2.45,12.59 2.82,25.8 a 1.65,1.64 -7.3 0 1 -1.29,1.65 q -4.31,0.95 -9.23,-0.04 a 1.01,0.99 88 0 1 -0.77,-0.73 q -0.83,-3.31 -0.23,-6.09 2.49,-11.5 5.02,-18.93 1.58,-4.65 -0.2,-7.19 0.47,-0.84 0.12,-2.34 L 24.56,85.06 q 1.71,-0.8 2.6,-0.53 z"
       id="path304" />
    <path
       fill="#c6d93c"
       d="M 34.04,94.08 32,93.35 c -3.04,-1.92 -2.03,-4.77 0.83,-6.01 2.42,-1.05 9.6,-1.06 9.17,3.1 -0.35,3.38 -5.28,4.13 -7.96,3.64 z m 4.2763,-3.7234 a 2.39,1.17 -3.2 0 0 -2.4516,-1.0348 2.39,1.17 -3.2 0 0 -2.321,1.3016 2.39,1.17 -3.2 0 0 2.4516,1.0348 2.39,1.17 -3.2 0 0 2.321,-1.3016 z"
       id="path306" />
  </g>
  <g
     id="g563"
     transform="translate(-7.5123009,-68.955)">
    <path
       fill="#6e5695"
       d="m 69.6,114.75 a 0.77,0.77 0 0 0 0.43,-1.12 c -1.35,-2.28 -1.93,-5.95 0.73,-7.61 q 2.05,-1.3 2.8,-1.67 c 1.93,-0.95 1.88,-1.98 1.99,-3.71 a 1.66,1.63 38.1 0 1 3.21,-0.36 q 0.86,2.62 -0.96,5.42 a 1.48,1.36 -85.7 0 1 -0.51,0.48 l -4.4,2.55 a 1.56,1.55 58.1 0 0 -0.51,2.22 q 0.34,0.51 1.26,1.49 c 1.41,1.49 0.98,3.74 -0.88,4.55 q -3.12,1.35 -6.25,3.44 a 1.42,1.4 -34.8 0 1 -1.93,-0.33 c -1.69,-2.32 3.54,-4.88 5.02,-5.35 z"
       id="path317" />
    <path
       fill="#eb3d3c"
       d="m 74.13,148.89 -3.98,-4.06 q -5.97,-8.24 -13,-14.73 a 0.96,0.96 0 0 0 -1.49,0.24 l -8.75,15.68 q -2.15,2.73 -2.86,5.5 -0.28,2.02 -1.99,2.6 a 1.29,1.29 0 0 1 -1.71,-1.15 q -0.12,-2.1 0.94,-4.17 6.35,-12.39 11.73,-20.76 c 2.46,-3.83 5.64,-1.15 7.98,0.78 a 0.39,0.39 0 0 0 0.64,-0.34 l -0.3,-3.82 A 1.71,1.69 74.6 0 1 62.27,123 c 2.8,-1.42 8.93,-3.15 8.63,2.25 q -0.32,5.68 -0.77,10.48 -0.18,1.88 0.39,3.36 a 2.49,2.48 14.6 0 0 0.42,0.71 l 4.76,5.71 a 1.45,1.44 -37.4 0 1 -0.29,2.12 q -0.82,0.57 -1.28,1.26 z m -7.3,-15.11 0.34,-7.79 a 0.8,0.79 84.7 0 0 -0.97,-0.81 l -0.03,0.01 a 1.28,1.28 0 0 0 -0.99,1.25 q 0.02,4.17 1.01,7.42 a 0.33,0.33 0 0 0 0.64,-0.08 z"
       id="path329" />
    <path
       fill="#fac22c"
       d="m 70.15,144.83 3.98,4.06 q 0.52,6.73 -1.87,12.63 a 1.72,1.68 -3.4 0 1 -0.77,0.85 q -1.7,0.91 -4.28,1.29 -10.94,1.6 -16.83,1.11 -0.51,-0.05 -2.98,-1.41 a 1.43,1.42 -85.4 0 1 -0.64,-0.76 q -1.66,-4.61 -1.78,-9.07 -0.02,-0.74 -0.93,-2.01 0.71,-2.77 2.86,-5.5 9.28,-1.15 17.85,-1.37 2.26,-0.05 5.39,0.18 z m -7.43,3.73 q -1.48,-0.36 -3.01,0.01 l -10.5,0.63 a 1.28,1.28 0 0 0 -1.18,1.53 l 1.79,9.19 a 1.77,1.76 -7.8 0 0 1.88,1.42 l 16.31,-1.31 a 1.3,1.29 -82.6 0 0 1.11,-0.86 q 1.64,-4.71 1.22,-9.67 a 1.63,1.62 -5.1 0 0 -1.77,-1.47 z"
       id="path339" />
    <path
       fill="#6e5695"
       d="m 62.72,148.56 q 4.16,3.01 2.91,8.14 a 3.17,3.16 -85.4 0 1 -2.83,2.42 l -6.31,0.51 a 2.16,2.16 0 0 1 -2.29,-1.74 l -1.15,-5.92 a 1.27,1.26 -36.3 0 1 0.14,-0.89 q 0.97,-1.72 3.38,-1.88 l 1.62,-0.14 q 0.59,-0.41 1.52,-0.49 1.53,-0.37 3.01,-0.01 z m -0.477,4.5283 a 1.38,1.38 0 0 0 -1.6199,-1.0885 l -2.5317,0.4967 a 1.38,1.38 0 0 0 -1.0885,1.6199 l 0.2541,1.2953 a 1.38,1.38 0 0 0 1.6199,1.0885 l 2.5317,-0.4967 a 1.38,1.38 0 0 0 1.0885,-1.6199 z"
       id="path343" />
    <path
       fill="#2e2411"
       d="m 58.19,149.06 -1.62,0.14 q 0.76,-0.21 1.62,-0.14 z"
       id="path344" />
  </g>
</svg>
