<?xml version="1.0" encoding="UTF-8" standalone="no"?>
<svg
   version="1.1"
   viewBox="0 0 49.088909 48.190048"
   id="svg325"
   width="49.088909"
   height="48.190048"
   xmlns="http://www.w3.org/2000/svg"
   xmlns:svg="http://www.w3.org/2000/svg">
  <defs
     id="defs325" />
  <path
     fill="#62a797"
     d="m 29.871609,45.72791 q -0.19,0.32 -0.1,0.81 -0.55,0.54 -1.67,0.61 -8.87,0.61 -16.71,1 -5.5,0.27 -8.07,-1.19 a 2.19,2.29 88.7 0 1 -0.71,-0.65 c -1.77,-2.53 -3.31,-4.66 -2.28,-7.66 q 4.05,-11.89 8.59,-20.17 a 2.13,2.07 89.2 0 1 0.7,-0.74 l 1.73,-1.11 q -0.61,-0.77 -0.83,-1.51 l 7.13,-14.87000034 a 0.43,0.44 45.9 0 1 0.79,0.01 l 2.11,4.67000004 a 0.96,0.99 7.2 0 0 0.21,0.28 q 3.55,3.08 6.35,8.4300003 a 0.88,0.91 52.1 0 1 -0.14,1.02 q -0.03,0.04 -0.05,0.05 a 0.51,0.52 48.6 0 0 -0.05,0.67 q 0.27,0.36 0.7,0.22 0.87,-0.28 1.42,0.54 7.32,11.03 14.89,21.41 a 1.34,1.33 24.1 0 1 0.24,0.62 l 0.17,1.64 a 1.45,1.42 17.9 0 0 0.48,0.92 l 4.21,3.61 a 0.32,0.31 55.2 0 1 -0.09,0.53 c -3.22,1.2 -6.2,0.87 -9.33,1.12 a 4.77,4.59 32.1 0 0 -1.05,0.22 q -4.5,1.56 -8.64,-0.48 z m -11.28,-26.72 q -0.89,3.43 -1.24,3.9 -2.22,2.94 -4.27,8.48 c -0.54,1.47 -2.1,4.19 -4.02,4.75 q -0.94,0.27 -1.69,1.26 a 1.71,1.7 48.9 0 0 -0.12,1.89 l 0.85,1.48 a 0.79,0.8 49.6 0 0 1.3,0.1 q 0.77,-0.93 2.21,-1.19 6.37,-1.14 9.03,-1.12 c 3.4,0.02 6.56,-1.23 10.02,-0.86 a 0.54,0.55 1.3 0 0 0.6,-0.58 q -0.15,-2.07 -0.78,-2.86 c -3.26,-4.15 -6.35,-7.89 -8.72,-12.07 q -1.33,-2.34 -2.59,-3.37 a 0.37,0.36 26.6 0 0 -0.58,0.19 z"
     id="path289" />
</svg>
