<?xml version="1.0" encoding="UTF-8" standalone="no"?>
<svg
   version="1.1"
   viewBox="0 0 110.62928 33.712963"
   id="svg325"
   width="110.62928"
   height="33.712963"
   xmlns="http://www.w3.org/2000/svg"
   xmlns:svg="http://www.w3.org/2000/svg">
  <defs
     id="defs325" />
  <path
     fill="#5a86d8"
     d="m 110.16977,25.793981 -13.339996,-11.46 a 0.63,0.63 0 0 0 -1,0.27 c -1.07,3.14 -3.79,6.22 -6.77,8.01 -2.12,1.28 -2.81,2.92 -5.11,3.96 q -4.02,1.83 -6.48,6.81 a 0.6,0.6 0 0 1 -1.06,0.02 q -1.68,-3 -4.99,-5.98 a 0.65,0.54 69.3 0 1 0.38,-1.1 q 0.65,0.18 0.77,0.01 a 1.54,1.58 26.9 0 0 -0.73,-2.34 c -2.97,-1.1 -5.04,-2.63 -7.45,-4.44 -2.16,-1.62 -1.32,-4.3 -4.52,-4.5 q -0.48,-0.03 -1.33,0.83 -2.13,2.16 -5.72,4.25 -0.84,0.49 -1.09,0.28 -0.34,-0.28 -0.41,-0.32 a 0.4,0.4 0 0 0 -0.6,0.31 q -0.12,1.73 -0.66,2.35 c -1.66,1.92 -7.11,6.95 -10.81,7.48 q -1.63,0.23 -1.46,2.63 a 0.58,0.58 0 0 1 -1.01,0.42 q -4.62,-5.16 -6.26,-9.91 a 2.38,2.4 12.1 0 0 -0.61,-0.95 l -10.82,-10.24 a 0.33,0.33 0 0 0 -0.47,0.03 c -3.26,3.7 -8.7400005,4.95 -12.6100005,8.28 q -2.02,1.73 -5.47999999,4.1 a 0.35,0.35 0 0 1 -0.46,-0.51 q 6.60999999,-7.7 13.98000049,-17.0799997 0.81,-1.03 3.9,-3.46 a 0.79,0.8 41.2 0 1 0.9,-0.06 q 2.2,1.3 7.96,3.79 0.27,0.12 2.77,2.37 a 0.77,0.76 41.4 0 1 0.07,1.0599997 l -0.36,0.41 a 0.47,0.47 0 0 0 0.39,0.78 c 3.13,-0.19 6.48,0.45 5.99,4.4 a 0.66,0.66 0 0 0 0.84,0.72 q 3.45,-0.97 4.6,-3.07 a 0.5,0.5 0 0 1 0.77,-0.14 q 0.33,0.29 0.85,0.93 a 1.23,1.04 20.1 0 0 2.1,-0.77 q -0.13,-0.39 -0.44,-0.92 a 2.65,2.65 0 0 1 0.76,-3.4699997 q 5,-3.56 9.8,-7.2 2.22,-1.68 5.55,-2.33 a 2.4,2.41 66.5 0 1 2.4,0.94 l 1.1,1.51 a 1.14,1.12 73.9 0 0 0.83,0.47 q 3.76,0.32 5.46,4.63 a 0.91,0.93 51.6 0 1 -0.11,0.87 q -0.49,0.7 -0.62,1.27 a 0.81,0.87 74 0 0 1.43,0.7299997 q 0.11,-0.1 0.43,-1.2099997 a 0.42,0.42 0 0 1 0.7,-0.18 l 3.89,3.8899997 a 1.47,1.45 23.7 0 1 0.43,1.08 q -0.04,1.52 -1.41,2.18 a 0.61,0.61 0 0 0 0.07,1.13 q 3.42,1.14 5.97,-0.61 a 0.84,0.84 0 0 1 1.03,0.06 l 0.8,0.68 a 0.88,0.88 0 0 0 1.45,-0.57 c 0.4,-3.52 3.09,-4.67 5.6,-6.42 a 4.07,4.24 3.2 0 0 0.9,-0.8399997 q 1.92,-2.4 4.68,-3.89 a 1.4,1.42 49.9 0 1 1.51,0.12 q 2.27,1.73 3.869996,4.11 7.26,10.7599997 9.69,15.4599997 a 0.28,0.28 0 0 1 -0.43,0.34 z"
     id="path294" />
</svg>
